<?xml version="1.0" encoding="utf-8"?>
<!-- Generator: Adobe Illustrator 16.0.0, SVG Export Plug-In . SVG Version: 6.00 Build 0)  -->
<!DOCTYPE svg PUBLIC "-//W3C//DTD SVG 1.1//EN" "http://www.w3.org/Graphics/SVG/1.1/DTD/svg11.dtd">
<svg version="1.1" id="Layer_1" xmlns="http://www.w3.org/2000/svg" xmlns:xlink="http://www.w3.org/1999/xlink" x="0px" y="0px"
	 width="104.604px" height="416px" viewBox="0 0 104.604 416" enable-background="new 0 0 104.604 416" xml:space="preserve">
<g id="Classic-Button">
	<g>
		<text transform="matrix(1 0 0 1 27.0417 14.3223)" fill="#033489" font-family="'TradeGothicLTStd-Bold'" font-size="11.7913">CLASSICAL</text>
		<path fill="#033489" d="M94.605,2.774c-4.412,0-8.001,3.588-8.001,8c0,4.412,3.589,8,8.001,8c4.411,0,7.999-3.588,7.999-8
			C102.604,6.362,99.017,2.774,94.605,2.774z"/>
	</g>
</g>
<g id="Country-Button_1_">
	<g>
		<g>
			<path fill="#245FA9" d="M35.86,36.689c0,0.943,0.414,1.203,1.063,1.203c0.647,0,1.062-0.26,1.062-1.203v-0.565h1.628v0.354
				c0,2.1-1.108,2.854-2.688,2.854c-1.581,0-2.689-0.755-2.689-2.854v-3.045c0-2.1,1.108-2.854,2.689-2.854
				c1.58,0,2.688,0.755,2.688,2.854v0.023h-1.628v-0.234c0-0.945-0.413-1.203-1.062-1.203c-0.649,0-1.063,0.258-1.063,1.203V36.689z
				"/>
			<path fill="#245FA9" d="M40.79,33.434c0-2.1,1.107-2.854,2.688-2.854c1.581,0,2.689,0.755,2.689,2.854v3.043
				c0,2.101-1.108,2.854-2.689,2.854c-1.58,0-2.688-0.755-2.688-2.854V33.434z M42.417,36.689c0,0.943,0.413,1.203,1.062,1.203
				c0.649,0,1.063-0.26,1.063-1.203v-3.467c0-0.945-0.412-1.203-1.063-1.203c-0.647,0-1.062,0.258-1.062,1.203V36.689z"/>
			<path fill="#245FA9" d="M49.209,30.697v5.957c0,0.814,0.354,1.238,1.144,1.238c0.791,0,1.156-0.424,1.156-1.238v-5.957h1.628
				v5.969c0,1.876-1.108,2.666-2.784,2.666c-1.675,0-2.771-0.79-2.771-2.666v-5.969H49.209z"/>
			<path fill="#245FA9" d="M54.786,39.213v-8.516h1.78l2.265,5.049h0.022v-5.049h1.486v8.517h-1.557l-2.488-5.495h-0.023v5.495
				L54.786,39.213L54.786,39.213z"/>
			<path fill="#245FA9" d="M66.825,30.697v1.439h-1.898v7.076h-1.628v-7.076H61.4v-1.439H66.825z"/>
			<path fill="#245FA9" d="M71.612,39.213l-1.415-3.468h-0.777v3.468h-1.628v-8.516h2.357c1.959,0,2.892,0.943,2.892,2.549
				c0,1.063-0.378,1.828-1.286,2.17l1.604,3.798L71.612,39.213L71.612,39.213z M69.419,34.4h0.837c0.72,0,1.156-0.354,1.156-1.178
				c0-0.826-0.438-1.181-1.156-1.181h-0.837V34.4z"/>
			<path fill="#245FA9" d="M76.706,34.13l1.381-3.433h1.732l-2.322,5.07v3.444h-1.628V35.77l-2.323-5.072h1.732L76.706,34.13z"/>
			<path fill="#245FA9" d="M57.108,50.213v-8.516h4.246v1.438h-2.618v1.959h2.053v1.438h-2.053v3.681L57.108,50.213L57.108,50.213z"
				/>
			<path fill="#245FA9" d="M62.202,44.434c0-2.1,1.108-2.854,2.688-2.854s2.689,0.755,2.689,2.854v3.043
				c0,2.101-1.109,2.854-2.689,2.854s-2.688-0.755-2.688-2.854V44.434z M63.83,47.689c0,0.943,0.413,1.203,1.062,1.203
				c0.649,0,1.063-0.26,1.063-1.203v-3.467c0-0.945-0.413-1.203-1.063-1.203c-0.648,0-1.062,0.258-1.062,1.203V47.689z"/>
			<path fill="#245FA9" d="M68.899,50.213v-8.516h1.628v7.076h2.618v1.438L68.899,50.213L68.899,50.213z"/>
			<path fill="#245FA9" d="M74.136,50.213v-8.516h1.627v3.515h0.023l2.11-3.515h1.781l-2.193,3.433l2.441,5.083h-1.828l-1.699-3.572
				l-0.637,0.967v2.605H74.136z"/>
		</g>
		<path fill="#245FA9" d="M94.605,32.456c-4.412,0-8.001,3.588-8.001,8s3.589,8,8.001,8c4.411,0,7.999-3.588,7.999-8
			S99.017,32.456,94.605,32.456z"/>
	</g>
</g>
<g id="Easy_Listening-Button_1_">
	<g>
		<g>
			<path fill="#2BD8AA" d="M53.559,68.896V60.38h4.458v1.438h-2.83v1.957h2.158v1.439h-2.158v2.241h2.948v1.438h-4.576V68.896z"/>
			<path fill="#2BD8AA" d="M58.876,68.896l2.11-8.517h2.089l2.053,8.517H63.57l-0.412-1.793h-2.253l-0.461,1.793H58.876z
				 M61.2,65.664h1.614l-0.79-3.443h-0.023L61.2,65.664z"/>
			<path fill="#2BD8AA" d="M69.607,62.751c-0.271-0.804-0.625-1.146-1.189-1.146c-0.578,0-0.896,0.354-0.896,0.933
				c0,1.286,3.633,1.38,3.633,4.046c0,1.463-1.003,2.43-2.713,2.43c-1.321,0-2.348-0.72-2.783-2.395l1.604-0.342
				c0.188,1.025,0.778,1.392,1.262,1.392c0.566,0,1.002-0.377,1.002-1.015c0-1.604-3.633-1.627-3.633-4.01
				c0-1.463,0.873-2.383,2.562-2.383c1.449,0,2.335,0.86,2.617,2.063L69.607,62.751z"/>
			<path fill="#2BD8AA" d="M75.138,63.813l1.379-3.434h1.734l-2.324,5.071v3.444H74.3v-3.443l-2.324-5.071h1.734L75.138,63.813z"/>
			<path fill="#2BD8AA" d="M29.67,79.896V71.38h1.628v7.077h2.618v1.438H29.67V79.896z"/>
			<path fill="#2BD8AA" d="M34.999,79.896V71.38h1.628v8.517H34.999z"/>
			<path fill="#2BD8AA" d="M41.78,73.751c-0.271-0.804-0.625-1.146-1.19-1.146c-0.578,0-0.896,0.354-0.896,0.933
				c0,1.286,3.634,1.38,3.634,4.046c0,1.463-1.002,2.43-2.714,2.43c-1.319,0-2.347-0.72-2.782-2.395l1.604-0.342
				c0.189,1.025,0.779,1.392,1.263,1.392c0.565,0,1.004-0.377,1.004-1.015c0-1.604-3.634-1.627-3.634-4.01
				c0-1.463,0.873-2.383,2.56-2.383c1.451,0,2.336,0.86,2.619,2.063L41.78,73.751z"/>
			<path fill="#2BD8AA" d="M49.669,71.38v1.438h-1.898v7.076h-1.628v-7.076h-1.898V71.38H49.669z"/>
			<path fill="#2BD8AA" d="M50.635,79.896V71.38h4.458v1.438h-2.83v1.957h2.158v1.439h-2.158v2.241h2.948v1.438h-4.576V79.896z"/>
			<path fill="#2BD8AA" d="M56.624,79.896V71.38h1.78l2.267,5.048h0.022V71.38h1.486v8.517h-1.558L58.133,74.4H58.11v5.496H56.624z"
				/>
			<path fill="#2BD8AA" d="M63.829,79.896V71.38h1.628v8.517H63.829z"/>
			<path fill="#2BD8AA" d="M67.106,79.896V71.38h1.781l2.266,5.048h0.023V71.38h1.486v8.517h-1.559L68.615,74.4h-0.023v5.496H67.106
				z"/>
			<path fill="#2BD8AA" d="M78.286,79.188c-0.437,0.496-0.908,0.826-1.521,0.826c-1.58,0-2.688-0.756-2.688-2.854v-3.043
				c0-2.101,1.108-2.854,2.688-2.854c1.663,0,2.561,0.955,2.619,2.891h-1.628c0-1.098-0.401-1.45-0.991-1.45
				c-0.647,0-1.062,0.259-1.062,1.202v3.469c0,0.943,0.413,1.202,1.062,1.202c0.613,0,0.991-0.447,0.991-1.179v-0.521h-1.146v-1.345
				h2.772v4.363h-0.85L78.286,79.188z"/>
		</g>
		<path fill="#2BD8AA" d="M94.605,62.139c-4.412,0-8.001,3.588-8.001,8c0,4.411,3.589,8,8.001,8c4.411,0,7.999-3.589,7.999-8
			C102.604,65.727,99.017,62.139,94.605,62.139z"/>
	</g>
</g>
<g id="Easy_Listening-Button_2_">
	<g>
		<g>
			<path fill="#FBE300" d="M21.063,99.577v-8.517h4.458V92.5H22.69v1.958h2.158v1.438H22.69v2.24h2.949v1.439L21.063,99.577
				L21.063,99.577z"/>
			<path fill="#FBE300" d="M26.958,99.577v-8.517h1.628v7.078h2.618v1.438H26.958z"/>
			<path fill="#FBE300" d="M32.194,99.577v-8.517h4.458V92.5h-2.831v1.958h2.158v1.438h-2.158v2.24h2.949v1.439L32.194,99.577
				L32.194,99.577z"/>
			<path fill="#FBE300" d="M39.575,97.053c0,0.943,0.412,1.203,1.062,1.203s1.063-0.26,1.063-1.203v-0.566h1.628v0.354
				c0,2.1-1.108,2.854-2.689,2.854c-1.58,0-2.688-0.754-2.688-2.854v-3.043c0-2.1,1.107-2.854,2.688-2.854
				c1.581,0,2.689,0.754,2.689,2.854v0.023h-1.628v-0.235c0-0.942-0.412-1.203-1.063-1.203c-0.648,0-1.062,0.261-1.062,1.203V97.053
				z"/>
			<path fill="#FBE300" d="M49.575,91.061V92.5h-1.898v7.077h-1.628V92.5H44.15v-1.439H49.575z"/>
			<path fill="#FBE300" d="M54.362,99.577l-1.415-3.468h-0.777v3.468h-1.628v-8.517h2.357c1.959,0,2.892,0.944,2.892,2.549
				c0,1.062-0.378,1.828-1.286,2.17l1.604,3.799L54.362,99.577L54.362,99.577z M52.169,94.766h0.837c0.72,0,1.156-0.354,1.156-1.181
				c0-0.825-0.438-1.181-1.156-1.181h-0.837V94.766z"/>
			<path fill="#FBE300" d="M56.955,93.797c0-2.1,1.107-2.854,2.688-2.854c1.581,0,2.689,0.754,2.689,2.854v3.044
				c0,2.101-1.108,2.854-2.689,2.854c-1.58,0-2.688-0.756-2.688-2.854V93.797z M58.583,97.053c0,0.943,0.412,1.203,1.061,1.203
				c0.649,0,1.063-0.26,1.063-1.203v-3.468c0-0.942-0.413-1.203-1.063-1.203c-0.647,0-1.061,0.261-1.061,1.203V97.053z"/>
			<path fill="#FBE300" d="M63.747,99.577v-8.517h1.78l2.266,5.049h0.022v-5.049h1.486v8.518h-1.558l-2.487-5.498h-0.023v5.497
				H63.747z"/>
			<path fill="#FBE300" d="M70.952,99.577v-8.517h1.627v8.518L70.952,99.577L70.952,99.577z"/>
			<path fill="#FBE300" d="M75.621,97.053c0,0.943,0.413,1.203,1.062,1.203c0.649,0,1.063-0.26,1.063-1.203v-0.566h1.628v0.354
				c0,2.1-1.109,2.854-2.689,2.854s-2.688-0.754-2.688-2.854v-3.043c0-2.1,1.108-2.854,2.688-2.854s2.689,0.754,2.689,2.854v0.023
				h-1.628v-0.235c0-0.942-0.413-1.203-1.063-1.203c-0.648,0-1.062,0.261-1.062,1.203V97.053z"/>
			<path fill="#FBE300" d="M47.923,102.061h2.265c1.863,0,2.901,0.803,2.973,2.949v2.618c-0.07,2.146-1.108,2.949-2.973,2.949
				h-2.265V102.061z M49.55,109.139h0.566c0.896,0,1.416-0.426,1.416-1.699v-2.24c0-1.203-0.401-1.698-1.416-1.698H49.55V109.139z"
				/>
			<path fill="#FBE300" d="M53.901,110.577l2.111-8.517H58.1l2.052,8.517h-1.558l-0.412-1.793H55.93l-0.46,1.793H53.901z
				 M56.225,107.346h1.616l-0.791-3.443h-0.023L56.225,107.346z"/>
			<path fill="#FBE300" d="M61.129,110.577v-8.517h1.781l2.265,5.049h0.022v-5.049h1.486v8.517h-1.557l-2.489-5.497h-0.022v5.497
				H61.129z"/>
			<path fill="#FBE300" d="M69.726,108.053c0,0.943,0.412,1.203,1.062,1.203c0.648,0,1.062-0.26,1.062-1.203v-0.566h1.627v0.354
				c0,2.101-1.107,2.854-2.688,2.854c-1.58,0-2.688-0.756-2.688-2.854v-3.044c0-2.1,1.108-2.854,2.688-2.854
				c1.581,0,2.688,0.754,2.688,2.854v0.023h-1.627v-0.235c0-0.942-0.413-1.203-1.062-1.203s-1.062,0.261-1.062,1.203V108.053z"/>
			<path fill="#FBE300" d="M74.795,110.577v-8.517h4.458v1.439h-2.83v1.958h2.158v1.438h-2.158v2.24h2.948v1.439L74.795,110.577
				L74.795,110.577z"/>
		</g>
		<path fill="#FBE300" d="M94.605,92.82c-4.412,0-8.001,3.588-8.001,8s3.589,8,8.001,8c4.411,0,7.999-3.588,7.999-8
			S99.017,92.82,94.605,92.82z"/>
	</g>
</g>
<g id="Easy_Listening-Button_3_">
	<g>
		<g>
			<path fill="#D9B4EF" d="M47.406,134.007c-0.437,0.495-0.907,0.826-1.521,0.826c-1.58,0-2.688-0.755-2.688-2.854v-3.043
				c0-2.1,1.108-2.854,2.688-2.854c1.664,0,2.561,0.955,2.619,2.89h-1.627c0-1.098-0.402-1.451-0.992-1.451
				c-0.648,0-1.062,0.26-1.062,1.203v3.469c0,0.942,0.412,1.203,1.062,1.203c0.614,0,0.992-0.449,0.992-1.181v-0.519h-1.146v-1.346
				h2.771v4.364h-0.851L47.406,134.007z"/>
			<path fill="#D9B4EF" d="M49.751,128.936c0-2.1,1.108-2.854,2.688-2.854s2.689,0.755,2.689,2.854v3.043
				c0,2.101-1.109,2.854-2.689,2.854s-2.688-0.755-2.688-2.854V128.936z M51.379,132.189c0,0.943,0.413,1.203,1.062,1.203
				c0.649,0,1.063-0.26,1.063-1.203v-3.467c0-0.943-0.413-1.203-1.063-1.203c-0.648,0-1.062,0.26-1.062,1.203V132.189z"/>
			<path fill="#D9B4EF" d="M60.046,128.568c-0.271-0.801-0.625-1.145-1.191-1.145c-0.578,0-0.896,0.354-0.896,0.934
				c0,1.285,3.633,1.379,3.633,4.045c0,1.463-1.002,2.431-2.713,2.431c-1.32,0-2.347-0.72-2.783-2.396l1.604-0.342
				c0.188,1.025,0.778,1.393,1.263,1.393c0.564,0,1.003-0.379,1.003-1.016c0-1.604-3.633-1.627-3.633-4.011
				c0-1.462,0.873-2.382,2.559-2.382c1.451,0,2.336,0.859,2.619,2.063L60.046,128.568z"/>
			<path fill="#D9B4EF" d="M63.099,134.715v-8.518h2.348c2.007,0,2.984,0.945,2.984,2.549s-0.979,2.548-2.984,2.548h-0.72v3.421
				H63.099z M64.727,129.949H65.6c0.802,0,1.203-0.4,1.203-1.203s-0.401-1.203-1.203-1.203h-0.873V129.949z"/>
			<path fill="#D9B4EF" d="M69.561,134.715v-8.518h4.458v1.439h-2.83v1.959h2.158v1.438h-2.158v2.24h2.948v1.439h-4.576V134.715z"/>
			<path fill="#D9B4EF" d="M75.456,134.715v-8.518h1.627v7.078h2.619v1.438L75.456,134.715L75.456,134.715z"/>
		</g>
		<path fill="#D9B4EF" d="M94.605,122.501c-4.412,0-8.001,3.588-8.001,8s3.589,8,8.001,8c4.411,0,7.999-3.588,7.999-8
			C102.604,126.09,99.017,122.501,94.605,122.501z"/>
	</g>
</g>
<g id="Classic-Button_1_">
	<g>
		<g>
			<path fill="#E40055" d="M40.151,158.941v-8.517h1.628v3.396h2.301v-3.396h1.629v8.517h-1.629v-3.68h-2.301v3.68H40.151z"/>
			<path fill="#E40055" d="M47.356,158.941v-8.517h1.628v8.517H47.356z"/>
			<path fill="#E40055" d="M50.634,158.941v-8.517h2.348c2.006,0,2.984,0.943,2.984,2.548s-0.979,2.549-2.984,2.549h-0.72v3.42
				H50.634z M52.262,154.176h0.873c0.802,0,1.203-0.4,1.203-1.203s-0.401-1.203-1.203-1.203h-0.873V154.176z"/>
			<path fill="#E40055" d="M60.468,158.941v-8.517h1.628v3.396h2.3v-3.396h1.629v8.517h-1.629v-3.68h-2.3v3.68H60.468z"/>
			<path fill="#E40055" d="M67.437,153.162c0-2.1,1.108-2.854,2.689-2.854c1.58,0,2.688,0.754,2.688,2.854v3.043
				c0,2.1-1.108,2.854-2.688,2.854c-1.581,0-2.689-0.754-2.689-2.854V153.162z M69.063,156.417c0,0.942,0.414,1.203,1.063,1.203
				c0.647,0,1.062-0.261,1.062-1.203v-3.467c0-0.944-0.413-1.203-1.062-1.203c-0.649,0-1.063,0.259-1.063,1.203V156.417z"/>
			<path fill="#E40055" d="M74.229,158.941v-8.517h2.348c2.006,0,2.983,0.943,2.983,2.548s-0.979,2.549-2.983,2.549h-0.72v3.42
				H74.229z M75.856,154.176h0.873c0.802,0,1.203-0.4,1.203-1.203s-0.401-1.203-1.203-1.203h-0.873V154.176z"/>
			<path fill="#E40055" d="M63.534,169.941l-1.414-3.469h-0.779v3.469h-1.627v-8.517h2.357c1.958,0,2.891,0.943,2.891,2.548
				c0,1.063-0.377,1.828-1.285,2.17l1.604,3.799H63.534z M61.341,165.128h0.838c0.719,0,1.156-0.354,1.156-1.179
				c0-0.826-0.438-1.18-1.156-1.18h-0.838V165.128z"/>
			<path fill="#E40055" d="M72.827,166.025c-0.271,0.707-0.578,1.428-1.015,2.123c0.342,0.235,0.742,0.424,1.181,0.473v1.438
				c-0.814,0-1.347-0.188-2.147-0.873c-0.554,0.543-1.298,0.873-2.135,0.873c-1.641,0-2.772-0.802-2.772-2.358
				c0-1.179,0.59-1.806,1.439-2.358c-0.448-0.673-0.695-1.203-0.695-1.91c0-1.463,1.025-2.123,2.182-2.123
				c1.157,0,2.007,0.85,2.007,1.922c0,1.098-0.851,1.733-1.642,2.358c0.461,0.626,0.968,1.203,1.521,1.733
				c0.307-0.555,0.602-1.072,0.768-1.662L72.827,166.025z M68.782,168.714c0.436,0,0.859-0.2,1.097-0.472
				c-0.649-0.566-1.203-1.18-1.698-1.816c-0.366,0.283-0.613,0.566-0.613,1.063C67.567,168.313,68.157,168.714,68.782,168.714z
				 M68.026,163.219c0,0.494,0.201,0.872,0.484,1.344c0.447-0.4,1.014-0.791,1.014-1.475c0-0.365-0.26-0.79-0.754-0.79
				C68.298,162.298,68.026,162.699,68.026,163.219z"/>
			<path fill="#E40055" d="M74.134,161.425h2.288c1.745,0,2.748,0.731,2.748,2.193c0,0.743-0.365,1.356-1.05,1.771
				c0.896,0.565,1.25,1.037,1.25,2.1c0,1.687-1.133,2.453-2.854,2.453h-2.383L74.134,161.425L74.134,161.425z M75.761,164.798h0.566
				c0.73,0,1.215-0.425,1.215-1.002c0-0.626-0.365-1.026-1.132-1.026h-0.649V164.798z M75.761,168.596h0.685
				c0.851,0,1.299-0.494,1.299-1.238c0-0.813-0.566-1.215-1.416-1.215h-0.566L75.761,168.596L75.761,168.596z"/>
		</g>
		<path fill="#E40055" d="M94.605,152.184c-4.412,0-8.001,3.588-8.001,8s3.589,8,8.001,8c4.411,0,7.999-3.588,7.999-8
			S99.017,152.184,94.605,152.184z"/>
	</g>
</g>
<g id="Country-Button_2_">
	<g>
		<g>
			<path fill="#0098FF" d="M25.52,186.604v6.713c0,1.144-0.767,1.922-2.183,1.922c-0.354,0-0.565-0.012-0.801-0.035v-1.438
				c0.164,0.012,0.294,0.034,0.436,0.034c0.743,0,0.92-0.2,0.92-0.813v-6.383H25.52z"/>
			<path fill="#0098FF" d="M26.497,195.12l2.11-8.517h2.088l2.054,8.517h-1.559l-0.413-1.793h-2.252l-0.461,1.793H26.497z
				 M28.821,191.889h1.615l-0.79-3.443h-0.023L28.821,191.889z"/>
			<path fill="#0098FF" d="M33.62,186.604h4.717v1.369l-3.22,5.709h3.291v1.438h-5.119v-1.38l3.22-5.697H33.62V186.604z"/>
			<path fill="#0098FF" d="M39.515,186.604h4.719v1.369l-3.221,5.709h3.291v1.438h-5.119v-1.38l3.221-5.697h-2.891V186.604z"/>
			<path fill="#0098FF" d="M45.198,192.561v-1.297H48.1v1.297H45.198z"/>
			<path fill="#0098FF" d="M49.349,186.604h2.289c1.745,0,2.748,0.731,2.748,2.194c0,0.743-0.365,1.356-1.05,1.771
				c0.896,0.564,1.25,1.037,1.25,2.1c0,1.688-1.132,2.453-2.854,2.453h-2.383V186.604z M50.977,189.979h0.566
				c0.73,0,1.215-0.426,1.215-1.004c0-0.625-0.366-1.025-1.132-1.025h-0.649V189.979z M50.977,193.775h0.686
				c0.85,0,1.297-0.496,1.297-1.238c0-0.814-0.566-1.215-1.415-1.215h-0.566L50.977,193.775L50.977,193.775z"/>
			<path fill="#0098FF" d="M55.905,195.12v-8.517h1.628v7.078h2.618v1.438H55.905z"/>
			<path fill="#0098FF" d="M62.862,186.604v5.957c0,0.813,0.354,1.238,1.146,1.238c0.789,0,1.155-0.425,1.155-1.238v-5.957h1.628
				v5.969c0,1.875-1.109,2.666-2.783,2.666c-1.676,0-2.772-0.791-2.772-2.666v-5.969H62.862z"/>
			<path fill="#0098FF" d="M68.345,195.12v-8.517h4.458v1.439h-2.831v1.958h2.158v1.438h-2.158v2.24h2.949v1.439L68.345,195.12
				L68.345,195.12z"/>
			<path fill="#0098FF" d="M77.837,188.975c-0.271-0.802-0.625-1.145-1.19-1.145c-0.578,0-0.896,0.354-0.896,0.934
				c0,1.284,3.633,1.379,3.633,4.045c0,1.463-1.003,2.43-2.713,2.43c-1.321,0-2.347-0.719-2.784-2.395l1.604-0.343
				c0.188,1.026,0.777,1.394,1.263,1.394c0.564,0,1.002-0.379,1.002-1.016c0-1.604-3.633-1.628-3.633-4.011
				c0-1.462,0.873-2.382,2.56-2.382c1.45,0,2.335,0.859,2.618,2.063L77.837,188.975z"/>
		</g>
		<path fill="#0098FF" d="M94.605,182.865c-4.412,0-8.001,3.588-8.001,8s3.589,8,8.001,8c4.411,0,7.999-3.588,7.999-8
			S99.017,182.865,94.605,182.865z"/>
	</g>
</g>
<g id="Easy_Listening-Button_4_">
	<g>
		<g>
			<path fill="#99CCCC" d="M48.434,219.023c0-2.1,1.108-2.854,2.688-2.854c1.581,0,2.688,0.755,2.688,2.854v3.043
				c0,2.101-1.107,2.854-2.688,2.854c-1.58,0-2.688-0.755-2.688-2.854V219.023z M50.062,222.279c0,0.943,0.412,1.203,1.062,1.203
				c0.648,0,1.062-0.26,1.062-1.203v-3.469c0-0.942-0.413-1.203-1.062-1.203s-1.062,0.261-1.062,1.203V222.279z"/>
			<path fill="#99CCCC" d="M60.062,216.287v1.439h-1.897v7.076h-1.629v-7.076h-1.898v-1.439H60.062z"/>
			<path fill="#99CCCC" d="M61.121,224.803v-8.516h1.628v3.396h2.3v-3.396h1.628v8.518h-1.628v-3.682h-2.3v3.682h-1.628V224.803z"/>
			<path fill="#99CCCC" d="M68.231,224.803v-8.516h4.458v1.439h-2.831v1.957h2.158v1.438h-2.158v2.241h2.949v1.439H68.231
				L68.231,224.803z"/>
			<path fill="#99CCCC" d="M77.948,224.803l-1.414-3.468h-0.778v3.468h-1.628v-8.516h2.357c1.959,0,2.892,0.943,2.892,2.548
				c0,1.062-0.378,1.828-1.286,2.171l1.604,3.799h-1.746V224.803z M75.755,219.991h0.837c0.72,0,1.156-0.354,1.156-1.181
				c0-0.824-0.438-1.18-1.156-1.18h-0.837V219.991z"/>
		</g>
		<path fill="#99CCCC" d="M94.605,212.547c-4.412,0-8.001,3.588-8.001,8s3.589,8,8.001,8c4.411,0,7.999-3.588,7.999-8
			S99.017,212.547,94.605,212.547z"/>
	</g>
</g>
<g id="Easy_Listening-Button_5_">
	<g>
		<g>
			<path fill="#E81F15" d="M46.483,254.475l-1.414-3.468H44.29v3.468h-1.627v-8.516h2.357c1.958,0,2.891,0.943,2.891,2.547
				c0,1.063-0.377,1.829-1.285,2.172l1.604,3.797H46.483z M44.29,249.663h0.838c0.719,0,1.156-0.354,1.156-1.181
				c0-0.824-0.438-1.178-1.156-1.178H44.29V249.663z"/>
			<path fill="#E81F15" d="M49.219,254.475v-8.516h4.458v1.438h-2.83v1.959h2.158v1.438h-2.158v2.24h2.948v1.438h-4.576V254.475z"/>
			<path fill="#E81F15" d="M59.184,253.768c-0.437,0.496-0.908,0.826-1.521,0.826c-1.58,0-2.688-0.756-2.688-2.855v-3.043
				c0-2.1,1.108-2.854,2.688-2.854c1.664,0,2.561,0.955,2.618,2.891h-1.627c0-1.098-0.401-1.451-0.991-1.451
				c-0.648,0-1.062,0.26-1.062,1.203v3.468c0,0.944,0.412,1.202,1.062,1.202c0.613,0,0.991-0.447,0.991-1.18v-0.519h-1.145v-1.345
				h2.771v4.363h-0.85L59.184,253.768z"/>
			<path fill="#E81F15" d="M65.739,253.768c-0.437,0.496-0.907,0.826-1.521,0.826c-1.581,0-2.689-0.756-2.689-2.855v-3.043
				c0-2.1,1.108-2.854,2.689-2.854c1.662,0,2.559,0.955,2.618,2.891h-1.628c0-1.098-0.4-1.451-0.99-1.451
				c-0.648,0-1.063,0.26-1.063,1.203v3.468c0,0.944,0.414,1.202,1.063,1.202c0.613,0,0.99-0.447,0.99-1.18v-0.519h-1.146v-1.345
				h2.772v4.363h-0.85L65.739,253.768z"/>
			<path fill="#E81F15" d="M67.647,254.475l2.111-8.516h2.088l2.053,8.516h-1.557l-0.413-1.793h-2.253l-0.46,1.793H67.647z
				 M69.972,251.244h1.615l-0.789-3.444h-0.024L69.972,251.244z"/>
			<path fill="#E81F15" d="M74.782,254.475v-8.516h4.459v1.438h-2.832v1.959h2.158v1.438h-2.158v2.24h2.948v1.438h-4.575V254.475z"
				/>
		</g>
		<path fill="#E81F15" d="M94.605,242.229c-4.412,0-8.001,3.588-8.001,8s3.589,8,8.001,8c4.411,0,7.999-3.588,7.999-8
			S99.017,242.229,94.605,242.229z"/>
	</g>
</g>
<g id="Easy_Listening-Button_6_">
	<g>
		<g>
			<path fill="#ED5C2F" d="M34.646,284.098l-1.416-3.468h-0.777v3.468h-1.628v-8.517h2.357c1.959,0,2.891,0.942,2.891,2.547
				c0,1.062-0.378,1.83-1.285,2.172l1.604,3.798H34.646z M32.452,279.284h0.837c0.72,0,1.155-0.354,1.155-1.181
				c0-0.824-0.437-1.18-1.155-1.18h-0.837V279.284z"/>
			<path fill="#ED5C2F" d="M37.239,278.316c0-2.1,1.108-2.854,2.688-2.854c1.581,0,2.689,0.756,2.689,2.854v3.043
				c0,2.101-1.108,2.855-2.689,2.855c-1.58,0-2.688-0.756-2.688-2.855V278.316z M38.866,281.572c0,0.943,0.412,1.203,1.062,1.203
				s1.063-0.26,1.063-1.203v-3.469c0-0.942-0.412-1.203-1.063-1.203c-0.648,0-1.062,0.261-1.062,1.203V281.572z"/>
			<path fill="#ED5C2F" d="M45.422,281.572c0,0.943,0.413,1.203,1.062,1.203c0.649,0,1.063-0.26,1.063-1.203v-0.565h1.628v0.354
				c0,2.1-1.109,2.854-2.689,2.854s-2.688-0.756-2.688-2.854v-3.045c0-2.1,1.108-2.854,2.688-2.854s2.689,0.756,2.689,2.854v0.023
				h-1.628v-0.236c0-0.942-0.413-1.203-1.063-1.203c-0.648,0-1.062,0.261-1.062,1.203V281.572z"/>
			<path fill="#ED5C2F" d="M50.492,284.098v-8.517h1.628v3.517h0.022l2.111-3.517h1.781l-2.194,3.433l2.441,5.084h-1.828
				l-1.698-3.574l-0.637,0.969v2.605H50.492z"/>
			<path fill="#ED5C2F" d="M56.823,281.538v-1.3h2.902v1.3H56.823z"/>
			<path fill="#ED5C2F" d="M61.069,284.098v-8.517h2.348c2.005,0,2.983,0.942,2.983,2.547s-0.979,2.55-2.983,2.55h-0.721v3.42
				H61.069z M62.696,279.331h0.873c0.804,0,1.203-0.399,1.203-1.203c0-0.802-0.399-1.203-1.203-1.203h-0.873V279.331z"/>
			<path fill="#ED5C2F" d="M67.389,278.316c0-2.1,1.108-2.854,2.688-2.854c1.581,0,2.688,0.756,2.688,2.854v3.043
				c0,2.101-1.107,2.855-2.688,2.855c-1.58,0-2.688-0.756-2.688-2.855V278.316z M69.017,281.572c0,0.943,0.412,1.203,1.062,1.203
				c0.648,0,1.062-0.26,1.062-1.203v-3.469c0-0.942-0.413-1.203-1.062-1.203s-1.062,0.261-1.062,1.203V281.572z"/>
			<path fill="#ED5C2F" d="M74.181,284.098v-8.517h2.348c2.006,0,2.984,0.942,2.984,2.547s-0.979,2.55-2.984,2.55h-0.72v3.42H74.181
				z M75.809,279.331h0.872c0.803,0,1.203-0.399,1.203-1.203c0-0.802-0.4-1.203-1.203-1.203h-0.872V279.331z"/>
		</g>
		<path fill="#ED5C2F" d="M94.605,271.91c-4.412,0-8.001,3.588-8.001,8s3.589,8,8.001,8c4.411,0,7.999-3.588,7.999-8
			S99.017,271.91,94.605,271.91z"/>
	</g>
</g>
<g id="Country-Button_3_">
	<g>
		<g>
			<path fill="#EF9841" d="M26.972,303.204c-0.271-0.802-0.625-1.144-1.189-1.144c-0.578,0-0.896,0.354-0.896,0.933
				c0,1.284,3.633,1.379,3.633,4.045c0,1.463-1.003,2.431-2.713,2.431c-1.321,0-2.347-0.72-2.784-2.396l1.604-0.342
				c0.188,1.025,0.777,1.394,1.263,1.394c0.565,0,1.002-0.379,1.002-1.017c0-1.604-3.633-1.627-3.633-4.01
				c0-1.463,0.873-2.383,2.56-2.383c1.45,0,2.335,0.861,2.618,2.064L26.972,303.204z"/>
			<path fill="#EF9841" d="M29.79,303.57c0-2.1,1.107-2.854,2.688-2.854c1.581,0,2.689,0.757,2.689,2.854v3.043
				c0,2.101-1.108,2.855-2.689,2.855c-1.58,0-2.688-0.755-2.688-2.855V303.57z M31.417,306.825c0,0.944,0.413,1.202,1.062,1.202
				c0.649,0,1.063-0.258,1.063-1.202v-3.468c0-0.942-0.412-1.203-1.063-1.203c-0.647,0-1.062,0.261-1.062,1.203V306.825z"/>
			<path fill="#EF9841" d="M38.209,300.835v5.955c0,0.813,0.354,1.237,1.144,1.237c0.791,0,1.156-0.424,1.156-1.237v-5.955h1.628
				v5.968c0,1.877-1.108,2.666-2.784,2.666c-1.675,0-2.771-0.789-2.771-2.666v-5.968H38.209z"/>
			<path fill="#EF9841" d="M43.691,309.352v-8.517h1.628v7.076h2.618v1.438h-4.246V309.352z"/>
			<path fill="#EF9841" d="M48.702,306.79v-1.297h2.9v1.297H48.702z"/>
			<path fill="#EF9841" d="M52.853,309.352v-8.517h4.246v1.438H54.48v1.959h2.053v1.438H54.48v3.681H52.853z"/>
			<path fill="#EF9841" d="M59.81,300.835v5.955c0,0.813,0.354,1.237,1.146,1.237c0.79,0,1.155-0.424,1.155-1.237v-5.955h1.627
				v5.968c0,1.877-1.107,2.666-2.782,2.666c-1.677,0-2.771-0.789-2.771-2.666v-5.968H59.81z"/>
			<path fill="#EF9841" d="M65.387,309.352v-8.517h1.781l2.265,5.047h0.023v-5.047h1.485v8.517h-1.557l-2.489-5.496h-0.022v5.496
				H65.387z"/>
			<path fill="#EF9841" d="M72.497,309.352v-8.517h1.627v3.515h0.022l2.111-3.515h1.781l-2.193,3.433l2.441,5.084H76.46
				l-1.699-3.574l-0.637,0.967v2.607H72.497z"/>
			<path fill="#EF9841" d="M51.202,311.835h2.264c1.863,0,2.902,0.802,2.973,2.946v2.619c-0.069,2.146-1.108,2.949-2.973,2.949
				h-2.264V311.835z M52.829,318.911h0.565c0.896,0,1.415-0.425,1.415-1.699v-2.239c0-1.203-0.4-1.699-1.415-1.699h-0.565V318.911z"
				/>
			<path fill="#EF9841" d="M57.853,320.352v-8.517h1.627v8.517H57.853z"/>
			<path fill="#EF9841" d="M64.633,314.204c-0.271-0.802-0.625-1.144-1.19-1.144c-0.577,0-0.896,0.354-0.896,0.933
				c0,1.284,3.633,1.379,3.633,4.045c0,1.463-1.003,2.431-2.713,2.431c-1.322,0-2.348-0.72-2.784-2.396l1.604-0.342
				c0.188,1.025,0.777,1.394,1.262,1.394c0.566,0,1.002-0.379,1.002-1.017c0-1.604-3.633-1.627-3.633-4.01
				c0-1.463,0.873-2.383,2.561-2.383c1.45,0,2.335,0.861,2.618,2.064L64.633,314.204z"/>
			<path fill="#EF9841" d="M69.077,317.825c0,0.944,0.413,1.202,1.062,1.202c0.649,0,1.063-0.258,1.063-1.202v-0.563h1.628v0.354
				c0,2.1-1.108,2.854-2.689,2.854c-1.58,0-2.688-0.754-2.688-2.854v-3.043c0-2.1,1.107-2.855,2.688-2.855
				c1.581,0,2.689,0.756,2.689,2.855v0.023H71.2v-0.236c0-0.943-0.412-1.203-1.063-1.203c-0.648,0-1.062,0.26-1.062,1.203
				L69.077,317.825L69.077,317.825z"/>
			<path fill="#EF9841" d="M74.006,314.57c0-2.1,1.107-2.854,2.688-2.854c1.581,0,2.689,0.757,2.689,2.854v3.043
				c0,2.101-1.108,2.855-2.689,2.855c-1.58,0-2.688-0.755-2.688-2.855V314.57z M75.634,317.825c0,0.944,0.412,1.202,1.061,1.202
				c0.649,0,1.063-0.258,1.063-1.202v-3.468c0-0.942-0.413-1.203-1.063-1.203c-0.647,0-1.061,0.261-1.061,1.203V317.825z"/>
		</g>
		<path fill="#EF9841" d="M94.605,302.594c-4.412,0-8.001,3.588-8.001,8c0,4.411,3.589,8,8.001,8c4.411,0,7.999-3.589,7.999-8
			C102.604,306.182,99.017,302.594,94.605,302.594z"/>
	</g>
</g>
<g id="Easy_Listening-Button_7_">
	<g>
		<g>
			<path fill="#E2CEA6" d="M18.128,338.348c-0.271-0.802-0.625-1.144-1.191-1.144c-0.578,0-0.896,0.354-0.896,0.933
				c0,1.284,3.633,1.379,3.633,4.045c0,1.463-1.002,2.43-2.713,2.43c-1.32,0-2.348-0.719-2.783-2.396l1.604-0.342
				c0.188,1.024,0.778,1.394,1.263,1.394c0.564,0,1.003-0.379,1.003-1.017c0-1.604-3.633-1.627-3.633-4.01
				c0-1.464,0.873-2.384,2.559-2.384c1.451,0,2.336,0.861,2.619,2.064L18.128,338.348z"/>
			<path fill="#E2CEA6" d="M20.945,338.714c0-2.101,1.108-2.854,2.688-2.854c1.581,0,2.688,0.756,2.688,2.854v3.043
				c0,2.101-1.107,2.854-2.688,2.854c-1.58,0-2.688-0.754-2.688-2.854V338.714z M22.573,341.969c0,0.944,0.412,1.202,1.062,1.202
				s1.062-0.258,1.062-1.202v-3.468c0-0.942-0.412-1.203-1.062-1.203c-0.648,0-1.062,0.261-1.062,1.203V341.969z"/>
			<path fill="#E2CEA6" d="M29.364,335.979v5.955c0,0.813,0.354,1.237,1.146,1.237c0.79,0,1.156-0.424,1.156-1.237v-5.955h1.627
				v5.967c0,1.877-1.108,2.666-2.783,2.666c-1.676,0-2.771-0.789-2.771-2.666v-5.967H29.364z"/>
			<path fill="#E2CEA6" d="M34.941,344.493v-8.515h1.781l2.265,5.047h0.023v-5.047h1.486v8.516H38.94l-2.488-5.496h-0.023v5.496
				L34.941,344.493L34.941,344.493z"/>
			<path fill="#E2CEA6" d="M42.052,335.979h2.264c1.863,0,2.902,0.801,2.974,2.946v2.619c-0.07,2.146-1.109,2.949-2.974,2.949
				h-2.264V335.979z M43.679,343.055h0.566c0.896,0,1.415-0.425,1.415-1.699v-2.24c0-1.203-0.401-1.699-1.415-1.699h-0.566V343.055z
				"/>
			<path fill="#E2CEA6" d="M53.538,335.979v1.438h-1.899v7.078h-1.628v-7.079h-1.898v-1.437H53.538z"/>
			<path fill="#E2CEA6" d="M58.324,344.493l-1.415-3.47H56.13v3.47h-1.627v-8.515h2.358c1.957,0,2.89,0.942,2.89,2.547
				c0,1.061-0.377,1.828-1.285,2.17l1.604,3.799L58.324,344.493L58.324,344.493z M56.13,339.682h0.838
				c0.72,0,1.156-0.354,1.156-1.181s-0.438-1.181-1.156-1.181H56.13V339.682z"/>
			<path fill="#E2CEA6" d="M60.481,344.493l2.111-8.517h2.088l2.052,8.517h-1.558l-0.411-1.793H62.51l-0.46,1.793H60.481z
				 M62.805,341.262h1.616l-0.791-3.445h-0.023L62.805,341.262z"/>
			<path fill="#E2CEA6" d="M69.101,341.969c0,0.944,0.413,1.202,1.063,1.202c0.648,0,1.062-0.258,1.062-1.202v-0.564h1.628v0.354
				c0,2.1-1.107,2.854-2.688,2.854c-1.58,0-2.688-0.754-2.688-2.854v-3.044c0-2.101,1.108-2.854,2.688-2.854
				c1.581,0,2.688,0.756,2.688,2.854v0.022h-1.628v-0.235c0-0.942-0.412-1.203-1.062-1.203c-0.648,0-1.063,0.261-1.063,1.203
				V341.969z"/>
			<path fill="#E2CEA6" d="M74.171,344.493v-8.515h1.627v3.514h0.023l2.111-3.514h1.78l-2.193,3.432l2.441,5.084h-1.828
				l-1.698-3.574l-0.638,0.967v2.607L74.171,344.493L74.171,344.493z"/>
		</g>
		<path fill="#E2CEA6" d="M94.605,332.273c-4.412,0-8.001,3.588-8.001,8s3.589,8,8.001,8c4.411,0,7.999-3.588,7.999-8
			S99.017,332.273,94.605,332.273z"/>
	</g>
</g>
<g id="Easy_Listening-Button_8_">
	<g>
		<g>
			<path fill="#F7597B" d="M45.052,363.568c-0.271-0.801-0.625-1.144-1.19-1.144c-0.577,0-0.896,0.354-0.896,0.933
				c0,1.285,3.633,1.379,3.633,4.045c0,1.463-1.003,2.43-2.713,2.43c-1.321,0-2.347-0.719-2.784-2.395l1.604-0.342
				c0.188,1.024,0.777,1.393,1.263,1.393c0.565,0,1.002-0.379,1.002-1.016c0-1.604-3.633-1.627-3.633-4.011
				c0-1.463,0.873-2.383,2.56-2.383c1.45,0,2.335,0.86,2.618,2.063L45.052,363.568z"/>
			<path fill="#F7597B" d="M48.105,369.715v-8.516h2.348c2.006,0,2.983,0.943,2.983,2.547s-0.979,2.547-2.983,2.547h-0.72v3.422
				H48.105z M49.733,364.949h0.873c0.803,0,1.203-0.4,1.203-1.203s-0.4-1.203-1.203-1.203h-0.873V364.949z"/>
			<path fill="#F7597B" d="M54.425,363.936c0-2.1,1.109-2.854,2.688-2.854c1.58,0,2.689,0.756,2.689,2.854v3.043
				c0,2.101-1.109,2.854-2.689,2.854c-1.579,0-2.688-0.754-2.688-2.854V363.936z M56.053,367.189c0,0.944,0.413,1.203,1.063,1.203
				c0.648,0,1.062-0.259,1.062-1.203v-3.467c0-0.943-0.414-1.203-1.062-1.203c-0.648,0-1.063,0.26-1.063,1.203V367.189z"/>
			<path fill="#F7597B" d="M61.123,369.715v-8.516h1.628v3.514h0.022l2.111-3.514h1.781l-2.194,3.432l2.441,5.084h-1.828
				l-1.698-3.574l-0.637,0.967v2.607H61.123z"/>
			<path fill="#F7597B" d="M67.679,369.715v-8.516h4.459v1.438h-2.832v1.959h2.159v1.439h-2.159v2.24h2.949v1.438L67.679,369.715
				L67.679,369.715z"/>
			<path fill="#F7597B" d="M73.669,369.715v-8.516h1.781l2.265,5.047h0.022v-5.047h1.486v8.516h-1.558l-2.488-5.496h-0.023v5.496
				H73.669z"/>
			<path fill="#F7597B" d="M50.829,372.199h1.51l1.145,5.566h0.023l1.168-5.566h1.568l1.18,5.566h0.022l1.133-5.566H60.1
				l-1.863,8.516h-1.568l-1.191-5.828h-0.022l-1.285,5.828h-1.56L50.829,372.199z"/>
			<path fill="#F7597B" d="M60.97,374.936c0-2.1,1.109-2.854,2.689-2.854c1.579,0,2.688,0.756,2.688,2.854v3.043
				c0,2.101-1.109,2.854-2.688,2.854c-1.58,0-2.689-0.754-2.689-2.854V374.936z M62.597,378.189c0,0.944,0.414,1.203,1.063,1.203
				c0.647,0,1.061-0.259,1.061-1.203v-3.467c0-0.943-0.412-1.203-1.061-1.203c-0.649,0-1.063,0.26-1.063,1.203V378.189z"/>
			<path fill="#F7597B" d="M71.488,380.715l-1.415-3.469h-0.778v3.469h-1.627v-8.516h2.358c1.957,0,2.89,0.943,2.89,2.547
				c0,1.063-0.377,1.828-1.285,2.17l1.604,3.799H71.488z M69.294,375.902h0.838c0.72,0,1.156-0.354,1.156-1.18
				c0-0.826-0.438-1.181-1.156-1.181h-0.838V375.902z"/>
			<path fill="#F7597B" d="M74.224,372.199h2.264c1.863,0,2.902,0.801,2.974,2.947v2.619c-0.07,2.146-1.109,2.948-2.974,2.948
				h-2.264V372.199z M75.851,379.275h0.566c0.896,0,1.416-0.424,1.416-1.699v-2.24c0-1.203-0.402-1.699-1.416-1.699h-0.566V379.275z
				"/>
		</g>
		<path fill="#F7597B" d="M94.605,362.955c-4.412,0-8.001,3.588-8.001,8s3.589,8,8.001,8c4.411,0,7.999-3.588,7.999-8
			S99.017,362.955,94.605,362.955z"/>
	</g>
</g>
<g id="Easy_Listening-Button_9_">
	<g>
		<g>
			<path fill="#3F4A60" d="M45.496,396.357h1.51l1.144,5.566h0.023l1.168-5.566h1.568l1.18,5.566h0.022l1.134-5.566h1.521
				l-1.863,8.517h-1.567l-1.191-5.828H50.12l-1.286,5.828h-1.559L45.496,396.357z"/>
			<path fill="#3F4A60" d="M55.637,399.096c0-2.101,1.108-2.855,2.688-2.855s2.688,0.756,2.688,2.855v3.043
				c0,2.1-1.108,2.854-2.688,2.854s-2.688-0.754-2.688-2.854V399.096z M57.265,402.35c0,0.944,0.412,1.203,1.062,1.203
				c0.648,0,1.062-0.259,1.062-1.203v-3.468c0-0.942-0.413-1.202-1.062-1.202s-1.062,0.26-1.062,1.202V402.35z"/>
			<path fill="#3F4A60" d="M66.155,404.874l-1.415-3.47h-0.777v3.47h-1.628v-8.517h2.357c1.959,0,2.892,0.943,2.892,2.547
				c0,1.063-0.378,1.828-1.286,2.171l1.604,3.799H66.155z M63.962,400.063h0.837c0.72,0,1.156-0.354,1.156-1.181
				c0-0.825-0.438-1.18-1.156-1.18h-0.837V400.063z"/>
			<path fill="#3F4A60" d="M68.89,404.874v-8.517h1.628v7.076h2.618v1.439L68.89,404.874L68.89,404.874z"/>
			<path fill="#3F4A60" d="M74.125,396.357h2.265c1.863,0,2.901,0.802,2.973,2.947v2.619c-0.07,2.146-1.108,2.949-2.973,2.949
				h-2.265V396.357z M75.753,403.436h0.565c0.896,0,1.415-0.424,1.415-1.699v-2.24c0-1.203-0.4-1.699-1.415-1.699h-0.565V403.436z"
				/>
		</g>
		<path fill="#3F4A60" d="M94.605,392.639c-4.412,0-8.001,3.588-8.001,8c0,4.411,3.589,8,8.001,8c4.411,0,7.999-3.589,7.999-8
			C102.604,396.227,99.017,392.639,94.605,392.639z"/>
	</g>
</g>
</svg>
