<?xml version="1.0" encoding="utf-8"?>
<!-- Generator: Adobe Illustrator 16.0.0, SVG Export Plug-In . SVG Version: 6.00 Build 0)  -->
<!DOCTYPE svg PUBLIC "-//W3C//DTD SVG 1.1//EN" "http://www.w3.org/Graphics/SVG/1.1/DTD/svg11.dtd">
<svg version="1.1" id="Layer_1" xmlns="http://www.w3.org/2000/svg" xmlns:xlink="http://www.w3.org/1999/xlink" x="0px" y="0px"
	 width="104.604px" height="21px" viewBox="0 0 104.604 21" enable-background="new 0 0 104.604 21" xml:space="preserve">
<g id="Text">
</g>
<g id="World-Button">
</g>
<g id="Spoken_Work-Button">
</g>
<g id="Soundtrack-Button">
</g>
<g id="Soul-Button">
</g>
<g id="Rock-Button">
</g>
<g id="Reggae-Button">
</g>
<g id="Other-Button">
</g>
<g id="Jazz-Button">
</g>
<g id="HipHop-Button">
</g>
<g id="Gospel-Button">
</g>
<g id="Electronic-Button">
</g>
<g id="Easy_Listening-Button">
</g>
<g id="Country-Button">
</g>
<g enable-background="new    ">
	<path fill="#033489" d="M29.259,11.798c0,0.944,0.413,1.203,1.062,1.203c0.649,0,1.062-0.259,1.062-1.203v-0.565h1.627v0.354
		c0,2.1-1.109,2.854-2.689,2.854s-2.689-0.755-2.689-2.854V8.543c0-2.1,1.108-2.854,2.689-2.854s2.689,0.755,2.689,2.854v0.023
		h-1.627V8.33c0-0.943-0.413-1.203-1.062-1.203c-0.648,0-1.062,0.26-1.062,1.203V11.798z"/>
	<path fill="#033489" d="M34.329,14.322V5.807h1.627v7.076h2.619v1.439H34.329z"/>
	<path fill="#033489" d="M38.986,14.322l2.111-8.516h2.088l2.052,8.516H43.68l-0.413-1.793h-2.253l-0.46,1.793H38.986z
		 M41.31,11.091h1.616l-0.79-3.444h-0.024L41.31,11.091z"/>
	<path fill="#033489" d="M49.718,8.177c-0.271-0.802-0.625-1.144-1.191-1.144c-0.578,0-0.896,0.354-0.896,0.932
		c0,1.285,3.633,1.38,3.633,4.046c0,1.462-1.002,2.43-2.713,2.43c-1.321,0-2.347-0.72-2.784-2.395l1.604-0.342
		c0.189,1.025,0.779,1.392,1.262,1.392c0.566,0,1.002-0.378,1.002-1.015c0-1.604-3.633-1.628-3.633-4.01
		c0-1.463,0.873-2.383,2.56-2.383c1.451,0,2.335,0.861,2.619,2.063L49.718,8.177z"/>
	<path fill="#033489" d="M56.273,8.177c-0.271-0.802-0.625-1.144-1.19-1.144c-0.578,0-0.896,0.354-0.896,0.932
		c0,1.285,3.633,1.38,3.633,4.046c0,1.462-1.003,2.43-2.713,2.43c-1.321,0-2.347-0.72-2.784-2.395l1.604-0.342
		c0.188,1.025,0.778,1.392,1.263,1.392c0.565,0,1.002-0.378,1.002-1.015c0-1.604-3.633-1.628-3.633-4.01
		c0-1.463,0.873-2.383,2.56-2.383c1.45,0,2.335,0.861,2.618,2.063L56.273,8.177z"/>
	<path fill="#033489" d="M59.326,14.322V5.807h1.628v8.516H59.326z"/>
	<path fill="#033489" d="M63.995,11.798c0,0.944,0.414,1.203,1.063,1.203s1.061-0.259,1.061-1.203v-0.565h1.629v0.354
		c0,2.1-1.109,2.854-2.689,2.854s-2.689-0.755-2.689-2.854V8.543c0-2.1,1.109-2.854,2.689-2.854s2.689,0.755,2.689,2.854v0.023
		h-1.629V8.33c0-0.943-0.412-1.203-1.061-1.203s-1.063,0.26-1.063,1.203V11.798z"/>
	<path fill="#033489" d="M68.488,14.322l2.111-8.516h2.088l2.053,8.516h-1.557l-0.413-1.793h-2.253l-0.46,1.793H68.488z
		 M70.812,11.091h1.615l-0.789-3.444h-0.024L70.812,11.091z"/>
	<path fill="#033489" d="M75.622,14.322V5.807h1.627v7.076h2.619v1.439H75.622z"/>
</g>
<path fill="#033489" d="M94.605,2.774c-4.412,0-8.001,3.588-8.001,8c0,4.412,3.589,8,8.001,8c4.411,0,7.999-3.588,7.999-8
	C102.604,6.362,99.017,2.774,94.605,2.774z"/>
<g id="LIMITS">
</g>
<g id="Layer_17">
</g>
</svg>
