<?xml version="1.0" encoding="utf-8"?>
<!-- Generator: Adobe Illustrator 16.0.0, SVG Export Plug-In . SVG Version: 6.00 Build 0)  -->
<!DOCTYPE svg PUBLIC "-//W3C//DTD SVG 1.1//EN" "http://www.w3.org/Graphics/SVG/1.1/DTD/svg11.dtd">
<svg version="1.1" xmlns="http://www.w3.org/2000/svg" xmlns:xlink="http://www.w3.org/1999/xlink" x="0px" y="0px"
	 width="104.604px" height="21px" viewBox="0 0 104.604 21" enable-background="new 0 0 104.604 21" xml:space="preserve">
<g id="Text">
</g>
<g id="World-Button">
</g>
<g id="Spoken_Work-Button">
</g>
<g id="Soundtrack-Button">
</g>
<g id="Soul-Button">
</g>
<g id="Rock-Button">
</g>
<g id="Reggae-Button">
</g>
<g id="Other-Button">
</g>
<g id="Jazz-Button">
</g>
<g id="HipHop-Button">
</g>
<g id="Gospel-Button">
</g>
<g id="Electronic-Button">
</g>
<g id="Easy_Listening-Button">
</g>
<g id="Country-Button">
	<g>
		<g>
			<path fill="#245FA9" d="M35.86,6.69c0,0.943,0.414,1.202,1.062,1.202s1.062-0.259,1.062-1.202V6.124h1.628v0.354
				c0,2.1-1.109,2.854-2.689,2.854c-1.581,0-2.689-0.755-2.689-2.854V3.434c0-2.1,1.108-2.854,2.689-2.854
				c1.58,0,2.689,0.755,2.689,2.854v0.023h-1.628V3.222c0-0.944-0.413-1.203-1.062-1.203S35.86,2.278,35.86,3.222V6.69z"/>
			<path fill="#245FA9" d="M40.79,3.434c0-2.1,1.108-2.854,2.688-2.854c1.581,0,2.689,0.755,2.689,2.854v3.043
				c0,2.1-1.108,2.854-2.689,2.854c-1.58,0-2.688-0.755-2.688-2.854V3.434z M42.417,6.69c0,0.943,0.413,1.202,1.062,1.202
				c0.649,0,1.062-0.259,1.062-1.202V3.222c0-0.944-0.412-1.203-1.062-1.203c-0.648,0-1.062,0.259-1.062,1.203V6.69z"/>
			<path fill="#245FA9" d="M49.209,0.698v5.956c0,0.814,0.354,1.238,1.144,1.238c0.791,0,1.156-0.424,1.156-1.238V0.698h1.628v5.968
				c0,1.876-1.108,2.666-2.784,2.666c-1.675,0-2.771-0.79-2.771-2.666V0.698H49.209z"/>
			<path fill="#245FA9" d="M54.786,9.213V0.698h1.781l2.264,5.048h0.023V0.698h1.486v8.516h-1.557l-2.488-5.496h-0.023v5.496H54.786
				z"/>
			<path fill="#245FA9" d="M66.825,0.698v1.438h-1.898v7.077h-1.628V2.136h-1.899V0.698H66.825z"/>
			<path fill="#245FA9" d="M71.612,9.213l-1.415-3.468h-0.778v3.468h-1.628V0.698h2.358c1.959,0,2.891,0.943,2.891,2.548
				c0,1.062-0.378,1.828-1.286,2.17l1.604,3.798H71.612z M69.419,4.401h0.837c0.72,0,1.156-0.354,1.156-1.179
				c0-0.826-0.437-1.18-1.156-1.18h-0.837V4.401z"/>
			<path fill="#245FA9" d="M76.706,4.13l1.381-3.433h1.733l-2.323,5.071v3.444h-1.628V5.769l-2.323-5.071h1.733L76.706,4.13z"/>
			<path fill="#245FA9" d="M57.108,20.213v-8.516h4.246v1.438h-2.618v1.958h2.052v1.439h-2.052v3.68H57.108z"/>
			<path fill="#245FA9" d="M62.202,14.434c0-2.1,1.109-2.854,2.689-2.854s2.689,0.755,2.689,2.854v3.043
				c0,2.1-1.109,2.854-2.689,2.854s-2.689-0.755-2.689-2.854V14.434z M63.83,17.69c0,0.943,0.413,1.202,1.062,1.202
				s1.062-0.259,1.062-1.202v-3.468c0-0.944-0.413-1.203-1.062-1.203s-1.062,0.259-1.062,1.203V17.69z"/>
			<path fill="#245FA9" d="M68.899,20.213v-8.516h1.628v7.077h2.618v1.438H68.899z"/>
			<path fill="#245FA9" d="M74.136,20.213v-8.516h1.627v3.515h0.023l2.111-3.515h1.781l-2.193,3.433l2.441,5.083h-1.828
				l-1.699-3.573l-0.637,0.967v2.606H74.136z"/>
		</g>
		<path fill-rule="evenodd" clip-rule="evenodd" fill="#245FA9" d="M94.605,2.456c-4.412,0-8.001,3.588-8.001,8s3.589,8,8.001,8
			c4.411,0,7.999-3.588,7.999-8S99.017,2.456,94.605,2.456z"/>
	</g>
</g>
<g id="Classic-Button">
</g>
<g id="LIMITS">
</g>
<g id="Layer_17">
</g>
</svg>
