<?xml version="1.0" encoding="utf-8"?>
<!-- Generator: Adobe Illustrator 16.0.0, SVG Export Plug-In . SVG Version: 6.00 Build 0)  -->
<!DOCTYPE svg PUBLIC "-//W3C//DTD SVG 1.1//EN" "http://www.w3.org/Graphics/SVG/1.1/DTD/svg11.dtd">
<svg version="1.1" xmlns="http://www.w3.org/2000/svg" xmlns:xlink="http://www.w3.org/1999/xlink" x="0px" y="0px"
	 width="104.604px" height="21px" viewBox="0 0 104.604 21" enable-background="new 0 0 104.604 21" xml:space="preserve">
<g id="Text">
</g>
<g id="World-Button">
</g>
<g id="Spoken_Work-Button">
</g>
<g id="Soundtrack-Button">
</g>
<g id="Soul-Button">
</g>
<g id="Rock-Button">
</g>
<g id="Reggae-Button">
</g>
<g id="Other-Button">
</g>
<g id="Jazz-Button">
</g>
<g id="HipHop-Button">
</g>
<g id="Gospel-Button">
</g>
<g id="Electronic-Button">
</g>
<g id="Easy_Listening-Button">
	<g>
		<g>
			<path fill="#2BD8AA" d="M53.559,8.896V0.38h4.458v1.438h-2.83v1.958h2.158v1.439h-2.158v2.241h2.948v1.438H53.559z"/>
			<path fill="#2BD8AA" d="M58.876,8.896l2.111-8.516h2.088l2.053,8.516H63.57l-0.413-1.793h-2.252l-0.461,1.793H58.876z
				 M61.2,5.664h1.615l-0.79-3.444h-0.024L61.2,5.664z"/>
			<path fill="#2BD8AA" d="M69.607,2.751c-0.271-0.803-0.625-1.145-1.19-1.145c-0.578,0-0.896,0.354-0.896,0.932
				c0,1.286,3.633,1.38,3.633,4.046c0,1.463-1.003,2.43-2.713,2.43c-1.322,0-2.348-0.72-2.784-2.395l1.604-0.342
				c0.188,1.026,0.778,1.392,1.262,1.392c0.566,0,1.002-0.377,1.002-1.015c0-1.604-3.633-1.627-3.633-4.01
				c0-1.463,0.873-2.383,2.561-2.383c1.45,0,2.335,0.861,2.618,2.064L69.607,2.751z"/>
			<path fill="#2BD8AA" d="M75.138,3.812l1.379-3.433h1.734l-2.324,5.071v3.444H74.3V5.451L71.976,0.38h1.734L75.138,3.812z"/>
			<path fill="#2BD8AA" d="M29.67,19.896V11.38h1.628v7.077h2.618v1.438H29.67z"/>
			<path fill="#2BD8AA" d="M34.999,19.896V11.38h1.628v8.516H34.999z"/>
			<path fill="#2BD8AA" d="M41.78,13.751c-0.271-0.803-0.625-1.145-1.191-1.145c-0.578,0-0.896,0.354-0.896,0.932
				c0,1.286,3.633,1.38,3.633,4.046c0,1.463-1.002,2.43-2.713,2.43c-1.32,0-2.347-0.72-2.783-2.395l1.604-0.342
				c0.189,1.026,0.779,1.392,1.263,1.392c0.565,0,1.003-0.377,1.003-1.015c0-1.604-3.633-1.627-3.633-4.01
				c0-1.463,0.873-2.383,2.559-2.383c1.451,0,2.336,0.861,2.619,2.064L41.78,13.751z"/>
			<path fill="#2BD8AA" d="M49.669,11.38v1.438h-1.898v7.077h-1.628v-7.077h-1.899V11.38H49.669z"/>
			<path fill="#2BD8AA" d="M50.635,19.896V11.38h4.458v1.438h-2.83v1.958h2.158v1.439h-2.158v2.241h2.948v1.438H50.635z"/>
			<path fill="#2BD8AA" d="M56.624,19.896V11.38h1.781l2.266,5.048h0.023V11.38h1.486v8.516h-1.558l-2.489-5.496H58.11v5.496H56.624
				z"/>
			<path fill="#2BD8AA" d="M63.829,19.896V11.38h1.628v8.516H63.829z"/>
			<path fill="#2BD8AA" d="M67.106,19.896V11.38h1.781l2.266,5.048h0.023V11.38h1.486v8.516h-1.558l-2.489-5.496h-0.023v5.496
				H67.106z"/>
			<path fill="#2BD8AA" d="M78.286,19.188c-0.436,0.495-0.908,0.825-1.521,0.825c-1.58,0-2.689-0.755-2.689-2.854v-3.043
				c0-2.1,1.109-2.854,2.689-2.854c1.663,0,2.56,0.955,2.619,2.89h-1.628c0-1.097-0.401-1.45-0.991-1.45
				c-0.648,0-1.062,0.259-1.062,1.203v3.468c0,0.943,0.413,1.202,1.062,1.202c0.613,0,0.991-0.447,0.991-1.179v-0.52h-1.145v-1.345
				h2.772v4.364h-0.85L78.286,19.188z"/>
		</g>
		<path fill-rule="evenodd" clip-rule="evenodd" fill="#2BD8AA" d="M94.605,2.138c-4.412,0-8.001,3.588-8.001,8
			c0,4.412,3.589,8,8.001,8c4.411,0,7.999-3.588,7.999-8C102.604,5.726,99.017,2.138,94.605,2.138z"/>
	</g>
</g>
<g id="Country-Button">
</g>
<g id="Classic-Button">
</g>
<g id="LIMITS">
</g>
<g id="Layer_17">
</g>
</svg>
