<?xml version="1.0" encoding="utf-8"?>
<!-- Generator: Adobe Illustrator 16.0.0, SVG Export Plug-In . SVG Version: 6.00 Build 0)  -->
<!DOCTYPE svg PUBLIC "-//W3C//DTD SVG 1.1//EN" "http://www.w3.org/Graphics/SVG/1.1/DTD/svg11.dtd">
<svg version="1.1" xmlns="http://www.w3.org/2000/svg" xmlns:xlink="http://www.w3.org/1999/xlink" x="0px" y="0px"
	 width="104.604px" height="21px" viewBox="0 0 104.604 21" enable-background="new 0 0 104.604 21" xml:space="preserve">
<g id="Text">
</g>
<g id="World-Button">
</g>
<g id="Spoken_Work-Button">
</g>
<g id="Soundtrack-Button">
</g>
<g id="Soul-Button">
</g>
<g id="Rock-Button">
</g>
<g id="Reggae-Button">
</g>
<g id="Other-Button">
</g>
<g id="Jazz-Button">
</g>
<g id="HipHop-Button">
</g>
<g id="Gospel-Button">
</g>
<g id="Electronic-Button">
</g>
<g id="Easy_Listening-Button">
	<g>
		<g>
			<path fill="#FBE300" d="M21.063,9.577V1.061h4.458V2.5H22.69v1.958h2.158v1.438H22.69v2.241h2.949v1.439H21.063z"/>
			<path fill="#FBE300" d="M26.958,9.577V1.061h1.628v7.077h2.618v1.439H26.958z"/>
			<path fill="#FBE300" d="M32.194,9.577V1.061h4.458V2.5h-2.831v1.958h2.158v1.438h-2.158v2.241h2.949v1.439H32.194z"/>
			<path fill="#FBE300" d="M39.575,7.053c0,0.943,0.413,1.203,1.062,1.203c0.649,0,1.062-0.26,1.062-1.203V6.486h1.628v0.354
				c0,2.1-1.108,2.854-2.689,2.854c-1.58,0-2.688-0.755-2.688-2.854V3.797c0-2.099,1.108-2.854,2.688-2.854
				c1.581,0,2.689,0.755,2.689,2.854v0.024h-1.628V3.585c0-0.943-0.412-1.203-1.062-1.203c-0.648,0-1.062,0.26-1.062,1.203V7.053z"
				/>
			<path fill="#FBE300" d="M49.575,1.061V2.5h-1.898v7.077h-1.628V2.5h-1.899V1.061H49.575z"/>
			<path fill="#FBE300" d="M54.362,9.577l-1.415-3.468h-0.778v3.468h-1.628V1.061h2.358c1.959,0,2.891,0.944,2.891,2.548
				c0,1.062-0.378,1.828-1.286,2.171l1.604,3.798H54.362z M52.169,4.765h0.837c0.72,0,1.156-0.354,1.156-1.18
				c0-0.825-0.437-1.18-1.156-1.18h-0.837V4.765z"/>
			<path fill="#FBE300" d="M56.955,3.797c0-2.099,1.108-2.854,2.688-2.854c1.581,0,2.689,0.755,2.689,2.854v3.044
				c0,2.1-1.108,2.854-2.689,2.854c-1.58,0-2.688-0.755-2.688-2.854V3.797z M58.583,7.053c0,0.943,0.412,1.203,1.061,1.203
				c0.649,0,1.062-0.26,1.062-1.203V3.585c0-0.943-0.413-1.203-1.062-1.203c-0.648,0-1.061,0.26-1.061,1.203V7.053z"/>
			<path fill="#FBE300" d="M63.747,9.577V1.061h1.781l2.265,5.049h0.023V1.061h1.486v8.517h-1.558L65.257,4.08h-0.023v5.497H63.747z
				"/>
			<path fill="#FBE300" d="M70.952,9.577V1.061h1.627v8.517H70.952z"/>
			<path fill="#FBE300" d="M75.621,7.053c0,0.943,0.413,1.203,1.062,1.203s1.062-0.26,1.062-1.203V6.486h1.628v0.354
				c0,2.1-1.109,2.854-2.689,2.854s-2.689-0.755-2.689-2.854V3.797c0-2.099,1.109-2.854,2.689-2.854s2.689,0.755,2.689,2.854v0.024
				h-1.628V3.585c0-0.943-0.413-1.203-1.062-1.203s-1.062,0.26-1.062,1.203V7.053z"/>
			<path fill="#FBE300" d="M47.923,12.061h2.265c1.863,0,2.901,0.803,2.972,2.949v2.618c-0.07,2.146-1.108,2.949-2.972,2.949h-2.265
				V12.061z M49.55,19.138h0.566c0.896,0,1.416-0.425,1.416-1.698v-2.241c0-1.203-0.401-1.698-1.416-1.698H49.55V19.138z"/>
			<path fill="#FBE300" d="M53.901,20.577l2.111-8.517h2.088l2.052,8.517h-1.558l-0.412-1.793H55.93l-0.46,1.793H53.901z
				 M56.225,17.345h1.616l-0.791-3.443h-0.023L56.225,17.345z"/>
			<path fill="#FBE300" d="M61.129,20.577v-8.517h1.781l2.265,5.049h0.023v-5.049h1.486v8.517h-1.557l-2.489-5.497h-0.023v5.497
				H61.129z"/>
			<path fill="#FBE300" d="M69.726,18.053c0,0.943,0.412,1.203,1.061,1.203c0.649,0,1.062-0.26,1.062-1.203v-0.566h1.627v0.354
				c0,2.1-1.108,2.854-2.689,2.854c-1.58,0-2.688-0.755-2.688-2.854v-3.044c0-2.099,1.108-2.854,2.688-2.854
				c1.581,0,2.689,0.755,2.689,2.854v0.024h-1.627v-0.236c0-0.943-0.413-1.203-1.062-1.203c-0.648,0-1.061,0.26-1.061,1.203V18.053z
				"/>
			<path fill="#FBE300" d="M74.795,20.577v-8.517h4.458V13.5h-2.83v1.958h2.158v1.438h-2.158v2.241h2.948v1.439H74.795z"/>
		</g>
		<path fill-rule="evenodd" clip-rule="evenodd" fill="#FBE300" d="M94.605,2.82c-4.412,0-8.001,3.588-8.001,8
			c0,4.412,3.589,8,8.001,8c4.411,0,7.999-3.588,7.999-8C102.604,6.408,99.017,2.82,94.605,2.82z"/>
	</g>
</g>
<g id="Country-Button">
</g>
<g id="Classic-Button">
</g>
<g id="LIMITS">
</g>
<g id="Layer_17">
</g>
</svg>
