<?xml version="1.0" encoding="utf-8"?>
<!-- Generator: Adobe Illustrator 16.0.0, SVG Export Plug-In . SVG Version: 6.00 Build 0)  -->
<!DOCTYPE svg PUBLIC "-//W3C//DTD SVG 1.1//EN" "http://www.w3.org/Graphics/SVG/1.1/DTD/svg11.dtd">
<svg version="1.1" xmlns="http://www.w3.org/2000/svg" xmlns:xlink="http://www.w3.org/1999/xlink" x="0px" y="0px"
	 width="104.604px" height="21px" viewBox="0 0 104.604 21" enable-background="new 0 0 104.604 21" xml:space="preserve">
<g id="Text">
</g>
<g id="World-Button">
</g>
<g id="Spoken_Work-Button">
</g>
<g id="Soundtrack-Button">
</g>
<g id="Soul-Button">
</g>
<g id="Rock-Button">
</g>
<g id="Reggae-Button">
</g>
<g id="Other-Button">
</g>
<g id="Jazz-Button">
</g>
<g id="HipHop-Button">
</g>
<g id="Gospel-Button">
</g>
<g id="Electronic-Button">
</g>
<g id="Easy_Listening-Button">
	<g>
		<g>
			<path fill="#D9B4EF" d="M47.406,14.007c-0.437,0.495-0.908,0.826-1.522,0.826c-1.58,0-2.688-0.755-2.688-2.854V8.935
				c0-2.099,1.108-2.854,2.688-2.854c1.664,0,2.561,0.955,2.619,2.89h-1.627c0-1.098-0.402-1.451-0.992-1.451
				c-0.648,0-1.061,0.26-1.061,1.203v3.468c0,0.943,0.412,1.203,1.061,1.203c0.614,0,0.992-0.448,0.992-1.18v-0.519h-1.145v-1.345
				h2.771v4.364h-0.85L47.406,14.007z"/>
			<path fill="#D9B4EF" d="M49.751,8.935c0-2.099,1.109-2.854,2.689-2.854s2.689,0.755,2.689,2.854v3.044
				c0,2.1-1.109,2.854-2.689,2.854s-2.689-0.755-2.689-2.854V8.935z M51.379,12.19c0,0.943,0.413,1.203,1.062,1.203
				s1.062-0.26,1.062-1.203V8.723c0-0.943-0.413-1.203-1.062-1.203s-1.062,0.26-1.062,1.203V12.19z"/>
			<path fill="#D9B4EF" d="M60.046,8.569c-0.271-0.802-0.625-1.145-1.191-1.145c-0.578,0-0.896,0.354-0.896,0.933
				c0,1.285,3.633,1.38,3.633,4.045c0,1.463-1.002,2.431-2.713,2.431c-1.32,0-2.347-0.72-2.783-2.395l1.604-0.343
				c0.189,1.026,0.779,1.393,1.263,1.393c0.565,0,1.003-0.378,1.003-1.015c0-1.604-3.633-1.628-3.633-4.011
				c0-1.462,0.873-2.382,2.559-2.382c1.451,0,2.336,0.86,2.619,2.063L60.046,8.569z"/>
			<path fill="#D9B4EF" d="M63.099,14.715V6.198h2.348c2.006,0,2.984,0.944,2.984,2.548c0,1.604-0.979,2.548-2.984,2.548h-0.72
				v3.421H63.099z M64.727,9.949H65.6c0.802,0,1.203-0.4,1.203-1.203c0-0.802-0.401-1.203-1.203-1.203h-0.873V9.949z"/>
			<path fill="#D9B4EF" d="M69.561,14.715V6.198h4.458v1.439h-2.83v1.958h2.158v1.438h-2.158v2.241h2.948v1.439H69.561z"/>
			<path fill="#D9B4EF" d="M75.456,14.715V6.198h1.627v7.077h2.619v1.439H75.456z"/>
		</g>
		<path fill-rule="evenodd" clip-rule="evenodd" fill="#D9B4EF" d="M94.605,2.501c-4.412,0-8.001,3.588-8.001,8
			c0,4.412,3.589,8,8.001,8c4.411,0,7.999-3.588,7.999-8C102.604,6.09,99.017,2.501,94.605,2.501z"/>
	</g>
</g>
<g id="Country-Button">
</g>
<g id="Classic-Button">
</g>
<g id="LIMITS">
</g>
<g id="Layer_17">
</g>
</svg>
