<?xml version="1.0" encoding="utf-8"?>
<!-- Generator: Adobe Illustrator 16.0.0, SVG Export Plug-In . SVG Version: 6.00 Build 0)  -->
<!DOCTYPE svg PUBLIC "-//W3C//DTD SVG 1.1//EN" "http://www.w3.org/Graphics/SVG/1.1/DTD/svg11.dtd">
<svg version="1.1" xmlns="http://www.w3.org/2000/svg" xmlns:xlink="http://www.w3.org/1999/xlink" x="0px" y="0px"
	 width="104.604px" height="21px" viewBox="0 0 104.604 21" enable-background="new 0 0 104.604 21" xml:space="preserve">
<g id="Text">
</g>
<g id="World-Button">
</g>
<g id="Spoken_Work-Button">
</g>
<g id="Soundtrack-Button">
</g>
<g id="Soul-Button">
</g>
<g id="Rock-Button">
</g>
<g id="Reggae-Button">
</g>
<g id="Other-Button">
</g>
<g id="Jazz-Button">
</g>
<g id="HipHop-Button">
</g>
<g id="Gospel-Button">
</g>
<g id="Electronic-Button">
</g>
<g id="Easy_Listening-Button">
</g>
<g id="Country-Button">
</g>
<g id="Classic-Button">
	<g>
		<g>
			<path fill="#E40055" d="M40.151,8.941V0.425h1.628v3.396h2.3V0.425h1.629v8.516h-1.629v-3.68h-2.3v3.68H40.151z"/>
			<path fill="#E40055" d="M47.356,8.941V0.425h1.628v8.516H47.356z"/>
			<path fill="#E40055" d="M50.634,8.941V0.425h2.348c2.006,0,2.984,0.943,2.984,2.548c0,1.604-0.979,2.548-2.984,2.548h-0.72v3.42
				H50.634z M52.262,4.176h0.873c0.802,0,1.203-0.401,1.203-1.203c0-0.803-0.401-1.203-1.203-1.203h-0.873V4.176z"/>
			<path fill="#E40055" d="M60.468,8.941V0.425h1.628v3.396h2.3V0.425h1.629v8.516h-1.629v-3.68h-2.3v3.68H60.468z"/>
			<path fill="#E40055" d="M67.437,3.162c0-2.1,1.108-2.854,2.689-2.854c1.58,0,2.689,0.755,2.689,2.854v3.043
				c0,2.1-1.109,2.854-2.689,2.854c-1.581,0-2.689-0.755-2.689-2.854V3.162z M69.063,6.417c0,0.943,0.414,1.203,1.062,1.203
				s1.062-0.26,1.062-1.203V2.95c0-0.944-0.413-1.203-1.062-1.203s-1.062,0.259-1.062,1.203V6.417z"/>
			<path fill="#E40055" d="M74.229,8.941V0.425h2.347c2.006,0,2.984,0.943,2.984,2.548c0,1.604-0.979,2.548-2.984,2.548h-0.719v3.42
				H74.229z M75.856,4.176h0.873c0.802,0,1.203-0.401,1.203-1.203c0-0.803-0.401-1.203-1.203-1.203h-0.873V4.176z"/>
			<path fill="#E40055" d="M63.534,19.941l-1.414-3.468h-0.779v3.468h-1.627v-8.516h2.358c1.958,0,2.89,0.943,2.89,2.548
				c0,1.062-0.377,1.828-1.285,2.17l1.604,3.798H63.534z M61.341,15.128h0.838c0.719,0,1.156-0.354,1.156-1.179
				c0-0.826-0.438-1.18-1.156-1.18h-0.838V15.128z"/>
			<path fill="#E40055" d="M72.827,16.025c-0.271,0.708-0.578,1.428-1.014,2.123c0.342,0.236,0.742,0.425,1.18,0.473v1.438
				c-0.814,0-1.346-0.188-2.147-0.873c-0.554,0.543-1.298,0.873-2.135,0.873c-1.64,0-2.772-0.802-2.772-2.359
				c0-1.179,0.59-1.805,1.439-2.358c-0.448-0.673-0.695-1.203-0.695-1.911c0-1.463,1.025-2.123,2.182-2.123s2.006,0.85,2.006,1.923
				c0,1.097-0.85,1.733-1.641,2.358c0.461,0.626,0.968,1.203,1.521,1.734c0.307-0.555,0.602-1.073,0.768-1.663L72.827,16.025z
				 M68.782,18.714c0.436,0,0.86-0.2,1.097-0.472c-0.649-0.566-1.203-1.18-1.698-1.816c-0.366,0.283-0.613,0.566-0.613,1.062
				C67.567,18.313,68.157,18.714,68.782,18.714z M68.026,13.218c0,0.495,0.201,0.873,0.484,1.345
				c0.447-0.401,1.014-0.791,1.014-1.475c0-0.366-0.26-0.79-0.754-0.79C68.298,12.298,68.026,12.699,68.026,13.218z"/>
			<path fill="#E40055" d="M74.134,11.425h2.288c1.745,0,2.748,0.731,2.748,2.193c0,0.743-0.365,1.356-1.05,1.77
				c0.896,0.566,1.25,1.038,1.25,2.1c0,1.687-1.132,2.453-2.854,2.453h-2.383V11.425z M75.761,14.798h0.566
				c0.731,0,1.215-0.425,1.215-1.002c0-0.626-0.365-1.026-1.132-1.026h-0.649V14.798z M75.761,18.596h0.685
				c0.85,0,1.298-0.495,1.298-1.238c0-0.813-0.566-1.215-1.416-1.215h-0.566V18.596z"/>
		</g>
		<path fill-rule="evenodd" clip-rule="evenodd" fill="#E40055" d="M94.605,2.183c-4.412,0-8.001,3.588-8.001,8
			c0,4.412,3.589,8,8.001,8c4.411,0,7.999-3.588,7.999-8C102.604,5.771,99.017,2.183,94.605,2.183z"/>
	</g>
</g>
<g id="LIMITS">
</g>
<g id="Layer_17">
</g>
</svg>
