<?xml version="1.0" encoding="utf-8"?>
<!-- Generator: Adobe Illustrator 16.0.0, SVG Export Plug-In . SVG Version: 6.00 Build 0)  -->
<!DOCTYPE svg PUBLIC "-//W3C//DTD SVG 1.1//EN" "http://www.w3.org/Graphics/SVG/1.1/DTD/svg11.dtd">
<svg version="1.1" xmlns="http://www.w3.org/2000/svg" xmlns:xlink="http://www.w3.org/1999/xlink" x="0px" y="0px"
	 width="104.604px" height="21px" viewBox="0 0 104.604 21" enable-background="new 0 0 104.604 21" xml:space="preserve">
<g id="Text">
</g>
<g id="World-Button">
</g>
<g id="Spoken_Work-Button">
</g>
<g id="Soundtrack-Button">
</g>
<g id="Soul-Button">
</g>
<g id="Rock-Button">
</g>
<g id="Reggae-Button">
</g>
<g id="Other-Button">
</g>
<g id="Jazz-Button">
</g>
<g id="HipHop-Button">
</g>
<g id="Gospel-Button">
</g>
<g id="Electronic-Button">
</g>
<g id="Easy_Listening-Button">
</g>
<g id="Country-Button">
	<g>
		<g>
			<path fill="#0098FF" d="M25.52,6.604v6.712c0,1.144-0.767,1.923-2.183,1.923c-0.354,0-0.565-0.013-0.801-0.036v-1.438
				c0.164,0.012,0.294,0.035,0.436,0.035c0.743,0,0.92-0.2,0.92-0.813V6.604H25.52z"/>
			<path fill="#0098FF" d="M26.497,15.12l2.111-8.517h2.088l2.053,8.517h-1.558l-0.413-1.793h-2.252l-0.461,1.793H26.497z
				 M28.821,11.888h1.615l-0.79-3.443h-0.024L28.821,11.888z"/>
			<path fill="#0098FF" d="M33.62,6.604h4.717v1.368l-3.22,5.709h3.291v1.439h-5.119v-1.38l3.22-5.697H33.62V6.604z"/>
			<path fill="#0098FF" d="M39.515,6.604h4.719v1.368l-3.221,5.709h3.291v1.439h-5.119v-1.38l3.221-5.697h-2.891V6.604z"/>
			<path fill="#0098FF" d="M45.198,12.561v-1.298H48.1v1.298H45.198z"/>
			<path fill="#0098FF" d="M49.349,6.604h2.289c1.745,0,2.748,0.731,2.748,2.194c0,0.743-0.365,1.356-1.05,1.77
				c0.896,0.565,1.25,1.037,1.25,2.1c0,1.687-1.132,2.453-2.854,2.453h-2.383V6.604z M50.977,9.978h0.566
				c0.731,0,1.215-0.425,1.215-1.003c0-0.625-0.366-1.026-1.132-1.026h-0.649V9.978z M50.977,13.775h0.685
				c0.85,0,1.297-0.495,1.297-1.238c0-0.814-0.566-1.215-1.415-1.215h-0.566V13.775z"/>
			<path fill="#0098FF" d="M55.905,15.12V6.604h1.627v7.077h2.619v1.439H55.905z"/>
			<path fill="#0098FF" d="M62.862,6.604v5.957c0,0.813,0.354,1.238,1.145,1.238c0.789,0,1.155-0.425,1.155-1.238V6.604h1.628v5.969
				c0,1.875-1.109,2.666-2.783,2.666c-1.676,0-2.772-0.791-2.772-2.666V6.604H62.862z"/>
			<path fill="#0098FF" d="M68.345,15.12V6.604h4.458v1.439h-2.831v1.958h2.158v1.438h-2.158v2.241h2.949v1.439H68.345z"/>
			<path fill="#0098FF" d="M77.837,8.975c-0.271-0.802-0.625-1.145-1.19-1.145c-0.578,0-0.896,0.354-0.896,0.933
				c0,1.285,3.633,1.38,3.633,4.045c0,1.463-1.003,2.431-2.713,2.431c-1.321,0-2.347-0.72-2.784-2.395l1.604-0.343
				c0.188,1.026,0.778,1.393,1.263,1.393c0.565,0,1.002-0.378,1.002-1.015c0-1.604-3.633-1.628-3.633-4.011
				c0-1.462,0.873-2.382,2.56-2.382c1.45,0,2.335,0.86,2.618,2.063L77.837,8.975z"/>
		</g>
		<path fill-rule="evenodd" clip-rule="evenodd" fill="#0098FF" d="M94.605,2.865c-4.412,0-8.001,3.588-8.001,8
			c0,4.412,3.589,8,8.001,8c4.411,0,7.999-3.588,7.999-8C102.604,6.453,99.017,2.865,94.605,2.865z"/>
	</g>
</g>
<g id="Classic-Button">
</g>
<g id="LIMITS">
</g>
<g id="Layer_17">
</g>
</svg>
