<?xml version="1.0" encoding="utf-8"?>
<!-- Generator: Adobe Illustrator 16.0.0, SVG Export Plug-In . SVG Version: 6.00 Build 0)  -->
<!DOCTYPE svg PUBLIC "-//W3C//DTD SVG 1.1//EN" "http://www.w3.org/Graphics/SVG/1.1/DTD/svg11.dtd">
<svg version="1.1" xmlns="http://www.w3.org/2000/svg" xmlns:xlink="http://www.w3.org/1999/xlink" x="0px" y="0px"
	 width="104.604px" height="21px" viewBox="0 0 104.604 21" enable-background="new 0 0 104.604 21" xml:space="preserve">
<g id="Text">
</g>
<g id="World-Button">
</g>
<g id="Spoken_Work-Button">
</g>
<g id="Soundtrack-Button">
</g>
<g id="Soul-Button">
</g>
<g id="Rock-Button">
</g>
<g id="Reggae-Button">
</g>
<g id="Other-Button">
</g>
<g id="Jazz-Button">
</g>
<g id="HipHop-Button">
</g>
<g id="Gospel-Button">
</g>
<g id="Electronic-Button">
</g>
<g id="Easy_Listening-Button">
	<g>
		<g>
			<path fill="#99CCCC" d="M48.434,9.023c0-2.099,1.108-2.854,2.688-2.854c1.581,0,2.689,0.755,2.689,2.854v3.044
				c0,2.1-1.108,2.854-2.689,2.854c-1.58,0-2.688-0.755-2.688-2.854V9.023z M50.062,12.279c0,0.943,0.412,1.203,1.061,1.203
				c0.649,0,1.062-0.26,1.062-1.203V8.811c0-0.943-0.413-1.203-1.062-1.203c-0.648,0-1.061,0.26-1.061,1.203V12.279z"/>
			<path fill="#99CCCC" d="M60.062,6.287v1.439h-1.898v7.077h-1.629V7.726h-1.898V6.287H60.062z"/>
			<path fill="#99CCCC" d="M61.121,14.803V6.287h1.628v3.397h2.3V6.287h1.628v8.517h-1.628v-3.681h-2.3v3.681H61.121z"/>
			<path fill="#99CCCC" d="M68.231,14.803V6.287h4.458v1.439h-2.831v1.958h2.158v1.438h-2.158v2.241h2.949v1.439H68.231z"/>
			<path fill="#99CCCC" d="M77.948,14.803l-1.415-3.468h-0.778v3.468h-1.628V6.287h2.358c1.959,0,2.891,0.944,2.891,2.548
				c0,1.062-0.378,1.828-1.286,2.171l1.604,3.798H77.948z M75.755,9.991h0.837c0.72,0,1.156-0.354,1.156-1.18
				c0-0.825-0.437-1.18-1.156-1.18h-0.837V9.991z"/>
		</g>
		<path fill-rule="evenodd" clip-rule="evenodd" fill="#99CCCC" d="M94.605,2.547c-4.412,0-8.001,3.588-8.001,8
			c0,4.412,3.589,8,8.001,8c4.411,0,7.999-3.588,7.999-8C102.604,6.135,99.017,2.547,94.605,2.547z"/>
	</g>
</g>
<g id="Country-Button">
</g>
<g id="Classic-Button">
</g>
<g id="LIMITS">
</g>
<g id="Layer_17">
</g>
</svg>
