<?xml version="1.0" encoding="utf-8"?>
<!-- Generator: Adobe Illustrator 16.0.0, SVG Export Plug-In . SVG Version: 6.00 Build 0)  -->
<!DOCTYPE svg PUBLIC "-//W3C//DTD SVG 1.1//EN" "http://www.w3.org/Graphics/SVG/1.1/DTD/svg11.dtd">
<svg version="1.1" xmlns="http://www.w3.org/2000/svg" xmlns:xlink="http://www.w3.org/1999/xlink" x="0px" y="0px"
	 width="104.604px" height="21px" viewBox="0 0 104.604 21" enable-background="new 0 0 104.604 21" xml:space="preserve">
<g id="Text">
</g>
<g id="World-Button">
</g>
<g id="Spoken_Work-Button">
</g>
<g id="Soundtrack-Button">
</g>
<g id="Soul-Button">
</g>
<g id="Rock-Button">
</g>
<g id="Reggae-Button">
</g>
<g id="Other-Button">
</g>
<g id="Jazz-Button">
</g>
<g id="HipHop-Button">
</g>
<g id="Gospel-Button">
</g>
<g id="Electronic-Button">
</g>
<g id="Easy_Listening-Button">
	<g>
		<g>
			<path fill="#E81F15" d="M46.483,14.475l-1.414-3.468H44.29v3.468h-1.627V5.959h2.358c1.958,0,2.89,0.943,2.89,2.547
				c0,1.062-0.377,1.829-1.285,2.171l1.604,3.798H46.483z M44.29,9.663h0.838c0.719,0,1.156-0.354,1.156-1.18
				c0-0.825-0.438-1.179-1.156-1.179H44.29V9.663z"/>
			<path fill="#E81F15" d="M49.219,14.475V5.959h4.458v1.438h-2.83v1.958h2.158v1.439h-2.158v2.24h2.948v1.439H49.219z"/>
			<path fill="#E81F15" d="M59.184,13.767c-0.437,0.496-0.908,0.826-1.522,0.826c-1.58,0-2.688-0.755-2.688-2.854V8.696
				c0-2.1,1.108-2.854,2.688-2.854c1.664,0,2.561,0.955,2.619,2.89h-1.627c0-1.097-0.402-1.451-0.992-1.451
				c-0.648,0-1.061,0.26-1.061,1.203v3.468c0,0.944,0.412,1.203,1.061,1.203c0.614,0,0.992-0.448,0.992-1.18v-0.519h-1.145v-1.345
				h2.771v4.364h-0.85L59.184,13.767z"/>
			<path fill="#E81F15" d="M65.739,13.767c-0.437,0.496-0.908,0.826-1.521,0.826c-1.581,0-2.689-0.755-2.689-2.854V8.696
				c0-2.1,1.108-2.854,2.689-2.854c1.662,0,2.559,0.955,2.618,2.89h-1.628c0-1.097-0.4-1.451-0.99-1.451
				c-0.648,0-1.062,0.26-1.062,1.203v3.468c0,0.944,0.414,1.203,1.062,1.203c0.613,0,0.99-0.448,0.99-1.18v-0.519h-1.145v-1.345
				h2.772v4.364h-0.849L65.739,13.767z"/>
			<path fill="#E81F15" d="M67.647,14.475l2.111-8.516h2.088l2.053,8.516h-1.557l-0.413-1.793h-2.253l-0.46,1.793H67.647z
				 M69.972,11.244h1.615l-0.789-3.444h-0.024L69.972,11.244z"/>
			<path fill="#E81F15" d="M74.782,14.475V5.959h4.459v1.438h-2.832v1.958h2.159v1.439h-2.159v2.24h2.949v1.439H74.782z"/>
		</g>
		<path fill-rule="evenodd" clip-rule="evenodd" fill="#E81F15" d="M94.605,2.229c-4.412,0-8.001,3.588-8.001,8s3.589,8,8.001,8
			c4.411,0,7.999-3.588,7.999-8S99.017,2.229,94.605,2.229z"/>
	</g>
</g>
<g id="Country-Button">
</g>
<g id="Classic-Button">
</g>
<g id="LIMITS">
</g>
<g id="Layer_17">
</g>
</svg>
