<?xml version="1.0" encoding="utf-8"?>
<!-- Generator: Adobe Illustrator 16.0.0, SVG Export Plug-In . SVG Version: 6.00 Build 0)  -->
<!DOCTYPE svg PUBLIC "-//W3C//DTD SVG 1.1//EN" "http://www.w3.org/Graphics/SVG/1.1/DTD/svg11.dtd">
<svg version="1.1" xmlns="http://www.w3.org/2000/svg" xmlns:xlink="http://www.w3.org/1999/xlink" x="0px" y="0px"
	 width="104.604px" height="21px" viewBox="0 0 104.604 21" enable-background="new 0 0 104.604 21" xml:space="preserve">
<g id="Text">
</g>
<g id="World-Button">
</g>
<g id="Spoken_Work-Button">
</g>
<g id="Soundtrack-Button">
</g>
<g id="Soul-Button">
</g>
<g id="Rock-Button">
</g>
<g id="Reggae-Button">
</g>
<g id="Other-Button">
</g>
<g id="Jazz-Button">
</g>
<g id="HipHop-Button">
</g>
<g id="Gospel-Button">
</g>
<g id="Electronic-Button">
</g>
<g id="Easy_Listening-Button">
	<g>
		<g>
			<path fill="#ED5C2F" d="M34.646,14.097L33.23,10.63h-0.778v3.467h-1.628V5.581h2.358c1.959,0,2.891,0.943,2.891,2.547
				c0,1.062-0.378,1.83-1.286,2.172l1.604,3.797H34.646z M32.452,9.284h0.837c0.72,0,1.156-0.354,1.156-1.18
				c0-0.825-0.437-1.18-1.156-1.18h-0.837V9.284z"/>
			<path fill="#ED5C2F" d="M37.239,8.317c0-2.1,1.108-2.854,2.688-2.854c1.581,0,2.689,0.755,2.689,2.854v3.043
				c0,2.1-1.108,2.855-2.689,2.855c-1.58,0-2.688-0.756-2.688-2.855V8.317z M38.866,11.573c0,0.943,0.413,1.203,1.062,1.203
				c0.649,0,1.062-0.26,1.062-1.203V8.104c0-0.943-0.412-1.203-1.062-1.203c-0.648,0-1.062,0.26-1.062,1.203V11.573z"/>
			<path fill="#ED5C2F" d="M45.422,11.573c0,0.943,0.413,1.203,1.062,1.203s1.062-0.26,1.062-1.203v-0.566h1.628v0.354
				c0,2.1-1.109,2.855-2.689,2.855s-2.689-0.756-2.689-2.855V8.317c0-2.1,1.109-2.854,2.689-2.854s2.689,0.755,2.689,2.854v0.023
				h-1.628V8.104c0-0.943-0.413-1.203-1.062-1.203s-1.062,0.26-1.062,1.203V11.573z"/>
			<path fill="#ED5C2F" d="M50.492,14.097V5.581h1.628v3.516h0.023l2.111-3.516h1.781l-2.194,3.432l2.441,5.084h-1.828l-1.698-3.574
				l-0.637,0.969v2.605H50.492z"/>
			<path fill="#ED5C2F" d="M56.823,11.538v-1.299h2.902v1.299H56.823z"/>
			<path fill="#ED5C2F" d="M61.069,14.097V5.581h2.347c2.005,0,2.984,0.943,2.984,2.547c0,1.605-0.979,2.549-2.984,2.549h-0.72v3.42
				H61.069z M62.696,9.331h0.873c0.803,0,1.203-0.4,1.203-1.203c0-0.802-0.4-1.203-1.203-1.203h-0.873V9.331z"/>
			<path fill="#ED5C2F" d="M67.389,8.317c0-2.1,1.108-2.854,2.688-2.854c1.581,0,2.689,0.755,2.689,2.854v3.043
				c0,2.1-1.108,2.855-2.689,2.855c-1.58,0-2.688-0.756-2.688-2.855V8.317z M69.017,11.573c0,0.943,0.412,1.203,1.061,1.203
				c0.649,0,1.062-0.26,1.062-1.203V8.104c0-0.943-0.413-1.203-1.062-1.203c-0.648,0-1.061,0.26-1.061,1.203V11.573z"/>
			<path fill="#ED5C2F" d="M74.181,14.097V5.581h2.348c2.005,0,2.984,0.943,2.984,2.547c0,1.605-0.979,2.549-2.984,2.549h-0.72v3.42
				H74.181z M75.809,9.331h0.872c0.803,0,1.203-0.4,1.203-1.203c0-0.802-0.4-1.203-1.203-1.203h-0.872V9.331z"/>
		</g>
		<path fill-rule="evenodd" clip-rule="evenodd" fill="#ED5C2F" d="M94.605,1.91c-4.412,0-8.001,3.588-8.001,8s3.589,8,8.001,8
			c4.411,0,7.999-3.588,7.999-8S99.017,1.91,94.605,1.91z"/>
	</g>
</g>
<g id="Country-Button">
</g>
<g id="Classic-Button">
</g>
<g id="LIMITS">
</g>
<g id="Layer_17">
</g>
</svg>
