<?xml version="1.0" encoding="utf-8"?>
<!-- Generator: Adobe Illustrator 16.0.0, SVG Export Plug-In . SVG Version: 6.00 Build 0)  -->
<!DOCTYPE svg PUBLIC "-//W3C//DTD SVG 1.1//EN" "http://www.w3.org/Graphics/SVG/1.1/DTD/svg11.dtd">
<svg version="1.1" xmlns="http://www.w3.org/2000/svg" xmlns:xlink="http://www.w3.org/1999/xlink" x="0px" y="0px"
	 width="104.604px" height="21px" viewBox="0 0 104.604 21" enable-background="new 0 0 104.604 21" xml:space="preserve">
<g id="Text">
</g>
<g id="World-Button">
</g>
<g id="Spoken_Work-Button">
</g>
<g id="Soundtrack-Button">
</g>
<g id="Soul-Button">
</g>
<g id="Rock-Button">
</g>
<g id="Reggae-Button">
</g>
<g id="Other-Button">
</g>
<g id="Jazz-Button">
</g>
<g id="HipHop-Button">
</g>
<g id="Gospel-Button">
</g>
<g id="Electronic-Button">
</g>
<g id="Easy_Listening-Button">
</g>
<g id="Country-Button">
	<g>
		<g>
			<path fill="#EF9841" d="M26.972,3.204c-0.271-0.801-0.625-1.143-1.19-1.143c-0.578,0-0.896,0.354-0.896,0.932
				c0,1.285,3.633,1.379,3.633,4.045c0,1.463-1.003,2.43-2.713,2.43c-1.321,0-2.347-0.719-2.784-2.395l1.604-0.342
				c0.188,1.025,0.778,1.393,1.263,1.393c0.565,0,1.002-0.379,1.002-1.016c0-1.604-3.633-1.627-3.633-4.01
				c0-1.463,0.873-2.383,2.56-2.383c1.45,0,2.335,0.861,2.618,2.064L26.972,3.204z"/>
			<path fill="#EF9841" d="M29.79,3.571c0-2.1,1.108-2.855,2.688-2.855c1.581,0,2.689,0.756,2.689,2.855v3.043
				c0,2.1-1.108,2.854-2.689,2.854c-1.58,0-2.688-0.754-2.688-2.854V3.571z M31.417,6.825c0,0.945,0.413,1.203,1.062,1.203
				c0.649,0,1.062-0.258,1.062-1.203V3.358c0-0.943-0.412-1.203-1.062-1.203c-0.648,0-1.062,0.26-1.062,1.203V6.825z"/>
			<path fill="#EF9841" d="M38.209,0.835V6.79c0,0.814,0.354,1.238,1.144,1.238c0.791,0,1.156-0.424,1.156-1.238V0.835h1.628v5.967
				c0,1.877-1.108,2.666-2.784,2.666c-1.675,0-2.771-0.789-2.771-2.666V0.835H38.209z"/>
			<path fill="#EF9841" d="M43.691,9.351V0.835h1.628v7.076h2.618v1.439H43.691z"/>
			<path fill="#EF9841" d="M48.702,6.79V5.493h2.901V6.79H48.702z"/>
			<path fill="#EF9841" d="M52.853,9.351V0.835h4.246v1.438H54.48v1.959h2.052v1.439H54.48v3.68H52.853z"/>
			<path fill="#EF9841" d="M59.81,0.835V6.79c0,0.814,0.354,1.238,1.145,1.238c0.79,0,1.156-0.424,1.156-1.238V0.835h1.627v5.967
				c0,1.877-1.108,2.666-2.783,2.666c-1.676,0-2.771-0.789-2.771-2.666V0.835H59.81z"/>
			<path fill="#EF9841" d="M65.387,9.351V0.835h1.781l2.265,5.047h0.023V0.835h1.486v8.516h-1.557l-2.489-5.496h-0.023v5.496H65.387
				z"/>
			<path fill="#EF9841" d="M72.497,9.351V0.835h1.627v3.514h0.023l2.111-3.514h1.781l-2.193,3.432l2.441,5.084H76.46l-1.699-3.574
				l-0.637,0.967v2.607H72.497z"/>
			<path fill="#EF9841" d="M51.202,11.835h2.264c1.863,0,2.902,0.801,2.973,2.947v2.619c-0.07,2.146-1.109,2.949-2.973,2.949h-2.264
				V11.835z M52.829,18.911h0.566c0.896,0,1.415-0.424,1.415-1.699v-2.24c0-1.203-0.401-1.699-1.415-1.699h-0.566V18.911z"/>
			<path fill="#EF9841" d="M57.853,20.351v-8.516h1.627v8.516H57.853z"/>
			<path fill="#EF9841" d="M64.633,14.204c-0.271-0.801-0.625-1.143-1.19-1.143c-0.578,0-0.896,0.354-0.896,0.932
				c0,1.285,3.633,1.379,3.633,4.045c0,1.463-1.003,2.43-2.713,2.43c-1.322,0-2.348-0.719-2.784-2.395l1.604-0.342
				c0.188,1.025,0.778,1.393,1.262,1.393c0.566,0,1.002-0.379,1.002-1.016c0-1.604-3.633-1.627-3.633-4.01
				c0-1.463,0.873-2.383,2.561-2.383c1.45,0,2.335,0.861,2.618,2.064L64.633,14.204z"/>
			<path fill="#EF9841" d="M69.077,17.825c0,0.945,0.413,1.203,1.062,1.203c0.649,0,1.062-0.258,1.062-1.203v-0.564h1.628v0.354
				c0,2.1-1.108,2.854-2.689,2.854c-1.58,0-2.688-0.754-2.688-2.854v-3.043c0-2.1,1.108-2.855,2.688-2.855
				c1.581,0,2.689,0.756,2.689,2.855v0.023H71.2v-0.236c0-0.943-0.412-1.203-1.062-1.203c-0.648,0-1.062,0.26-1.062,1.203V17.825z"
				/>
			<path fill="#EF9841" d="M74.006,14.571c0-2.1,1.108-2.855,2.688-2.855c1.581,0,2.689,0.756,2.689,2.855v3.043
				c0,2.1-1.108,2.854-2.689,2.854c-1.58,0-2.688-0.754-2.688-2.854V14.571z M75.634,17.825c0,0.945,0.412,1.203,1.061,1.203
				c0.649,0,1.062-0.258,1.062-1.203v-3.467c0-0.943-0.413-1.203-1.062-1.203c-0.648,0-1.061,0.26-1.061,1.203V17.825z"/>
		</g>
		<path fill-rule="evenodd" clip-rule="evenodd" fill="#EF9841" d="M94.605,2.593c-4.412,0-8.001,3.589-8.001,8
			c0,4.412,3.589,8,8.001,8c4.411,0,7.999-3.588,7.999-8C102.604,6.182,99.017,2.593,94.605,2.593z"/>
	</g>
</g>
<g id="Classic-Button">
</g>
<g id="LIMITS">
</g>
<g id="Layer_17">
</g>
</svg>
