<?xml version="1.0" encoding="utf-8"?>
<!-- Generator: Adobe Illustrator 16.0.0, SVG Export Plug-In . SVG Version: 6.00 Build 0)  -->
<!DOCTYPE svg PUBLIC "-//W3C//DTD SVG 1.1//EN" "http://www.w3.org/Graphics/SVG/1.1/DTD/svg11.dtd">
<svg version="1.1" xmlns="http://www.w3.org/2000/svg" xmlns:xlink="http://www.w3.org/1999/xlink" x="0px" y="0px"
	 width="104.604px" height="21px" viewBox="0 0 104.604 21" enable-background="new 0 0 104.604 21" xml:space="preserve">
<g id="Text">
</g>
<g id="World-Button">
</g>
<g id="Spoken_Work-Button">
</g>
<g id="Soundtrack-Button">
</g>
<g id="Soul-Button">
</g>
<g id="Rock-Button">
</g>
<g id="Reggae-Button">
</g>
<g id="Other-Button">
</g>
<g id="Jazz-Button">
</g>
<g id="HipHop-Button">
</g>
<g id="Gospel-Button">
</g>
<g id="Electronic-Button">
</g>
<g id="Easy_Listening-Button">
	<g>
		<g>
			<path fill="#E2CEA6" d="M18.128,8.347c-0.271-0.801-0.625-1.143-1.191-1.143c-0.578,0-0.896,0.354-0.896,0.932
				c0,1.285,3.633,1.379,3.633,4.045c0,1.463-1.002,2.43-2.713,2.43c-1.32,0-2.347-0.719-2.783-2.395l1.604-0.342
				c0.189,1.025,0.779,1.393,1.263,1.393c0.565,0,1.003-0.379,1.003-1.016c0-1.604-3.633-1.627-3.633-4.01
				c0-1.463,0.873-2.383,2.559-2.383c1.451,0,2.336,0.861,2.619,2.064L18.128,8.347z"/>
			<path fill="#E2CEA6" d="M20.945,8.714c0-2.1,1.108-2.855,2.688-2.855c1.581,0,2.689,0.756,2.689,2.855v3.043
				c0,2.1-1.108,2.854-2.689,2.854c-1.58,0-2.688-0.754-2.688-2.854V8.714z M22.573,11.968c0,0.945,0.412,1.203,1.061,1.203
				c0.649,0,1.062-0.258,1.062-1.203V8.501c0-0.943-0.413-1.203-1.062-1.203c-0.648,0-1.061,0.26-1.061,1.203V11.968z"/>
			<path fill="#E2CEA6" d="M29.364,5.978v5.955c0,0.814,0.354,1.238,1.145,1.238c0.79,0,1.156-0.424,1.156-1.238V5.978h1.627v5.967
				c0,1.877-1.108,2.666-2.783,2.666c-1.676,0-2.771-0.789-2.771-2.666V5.978H29.364z"/>
			<path fill="#E2CEA6" d="M34.941,14.493V5.978h1.781l2.265,5.047h0.023V5.978h1.486v8.516H38.94l-2.489-5.496h-0.023v5.496H34.941
				z"/>
			<path fill="#E2CEA6" d="M42.052,5.978h2.264c1.863,0,2.902,0.801,2.973,2.947v2.619c-0.07,2.146-1.109,2.949-2.973,2.949h-2.264
				V5.978z M43.679,13.054h0.566c0.896,0,1.415-0.424,1.415-1.699v-2.24c0-1.203-0.401-1.699-1.415-1.699h-0.566V13.054z"/>
			<path fill="#E2CEA6" d="M53.538,5.978v1.438h-1.899v7.078h-1.628V7.415h-1.898V5.978H53.538z"/>
			<path fill="#E2CEA6" d="M58.324,14.493l-1.415-3.469H56.13v3.469h-1.627V5.978h2.359c1.957,0,2.889,0.943,2.889,2.547
				c0,1.061-0.377,1.828-1.285,2.17l1.604,3.799H58.324z M56.13,9.681h0.838c0.72,0,1.156-0.354,1.156-1.18s-0.437-1.18-1.156-1.18
				H56.13V9.681z"/>
			<path fill="#E2CEA6" d="M60.481,14.493l2.111-8.516h2.088l2.052,8.516h-1.558L64.763,12.7H62.51l-0.46,1.793H60.481z
				 M62.805,11.261h1.616L63.63,7.817h-0.023L62.805,11.261z"/>
			<path fill="#E2CEA6" d="M69.101,11.968c0,0.945,0.413,1.203,1.062,1.203c0.649,0,1.062-0.258,1.062-1.203v-0.564h1.628v0.354
				c0,2.1-1.108,2.854-2.689,2.854c-1.58,0-2.688-0.754-2.688-2.854V8.714c0-2.1,1.108-2.855,2.688-2.855
				c1.581,0,2.689,0.756,2.689,2.855v0.023h-1.628V8.501c0-0.943-0.412-1.203-1.062-1.203c-0.648,0-1.062,0.26-1.062,1.203V11.968z"
				/>
			<path fill="#E2CEA6" d="M74.171,14.493V5.978h1.627v3.514h0.024l2.111-3.514h1.78l-2.193,3.432l2.441,5.084h-1.828l-1.698-3.574
				l-0.638,0.967v2.607H74.171z"/>
		</g>
		<path fill-rule="evenodd" clip-rule="evenodd" fill="#E2CEA6" d="M94.605,2.273c-4.412,0-8.001,3.588-8.001,8s3.589,8,8.001,8
			c4.411,0,7.999-3.588,7.999-8S99.017,2.273,94.605,2.273z"/>
	</g>
</g>
<g id="Country-Button">
</g>
<g id="Classic-Button">
</g>
<g id="LIMITS">
</g>
<g id="Layer_17">
</g>
</svg>
