<?xml version="1.0" encoding="utf-8"?>
<!-- Generator: Adobe Illustrator 16.0.0, SVG Export Plug-In . SVG Version: 6.00 Build 0)  -->
<!DOCTYPE svg PUBLIC "-//W3C//DTD SVG 1.1//EN" "http://www.w3.org/Graphics/SVG/1.1/DTD/svg11.dtd">
<svg version="1.1" xmlns="http://www.w3.org/2000/svg" xmlns:xlink="http://www.w3.org/1999/xlink" x="0px" y="0px"
	 width="104.604px" height="21px" viewBox="0 0 104.604 21" enable-background="new 0 0 104.604 21" xml:space="preserve">
<g id="Text">
</g>
<g id="World-Button">
</g>
<g id="Spoken_Work-Button">
</g>
<g id="Soundtrack-Button">
</g>
<g id="Soul-Button">
</g>
<g id="Rock-Button">
</g>
<g id="Reggae-Button">
</g>
<g id="Other-Button">
</g>
<g id="Jazz-Button">
</g>
<g id="HipHop-Button">
</g>
<g id="Gospel-Button">
</g>
<g id="Electronic-Button">
</g>
<g id="Easy_Listening-Button">
	<g>
		<g>
			<path fill="#F7597B" d="M45.052,3.568c-0.271-0.801-0.625-1.143-1.19-1.143c-0.578,0-0.896,0.354-0.896,0.932
				c0,1.285,3.633,1.379,3.633,4.045c0,1.463-1.003,2.43-2.713,2.43c-1.321,0-2.347-0.719-2.784-2.395l1.604-0.342
				c0.188,1.025,0.778,1.393,1.263,1.393c0.565,0,1.002-0.379,1.002-1.016c0-1.604-3.633-1.627-3.633-4.01
				c0-1.463,0.873-2.383,2.56-2.383c1.45,0,2.335,0.861,2.618,2.064L45.052,3.568z"/>
			<path fill="#F7597B" d="M48.105,9.715V1.199h2.347c2.006,0,2.984,0.943,2.984,2.547s-0.979,2.547-2.984,2.547h-0.719v3.422
				H48.105z M49.733,4.949h0.873c0.802,0,1.203-0.4,1.203-1.203s-0.401-1.203-1.203-1.203h-0.873V4.949z"/>
			<path fill="#F7597B" d="M54.425,3.936c0-2.1,1.109-2.855,2.689-2.855s2.689,0.756,2.689,2.855v3.043
				c0,2.1-1.109,2.854-2.689,2.854s-2.689-0.754-2.689-2.854V3.936z M56.053,7.189c0,0.945,0.413,1.203,1.062,1.203
				s1.062-0.258,1.062-1.203V3.723c0-0.943-0.414-1.203-1.062-1.203s-1.062,0.26-1.062,1.203V7.189z"/>
			<path fill="#F7597B" d="M61.123,9.715V1.199h1.628v3.514h0.023l2.111-3.514h1.781l-2.194,3.432l2.441,5.084h-1.828l-1.698-3.574
				l-0.637,0.967v2.607H61.123z"/>
			<path fill="#F7597B" d="M67.679,9.715V1.199h4.459v1.438h-2.832v1.959h2.159v1.439h-2.159v2.24h2.949v1.439H67.679z"/>
			<path fill="#F7597B" d="M73.669,9.715V1.199h1.781l2.265,5.047h0.023V1.199h1.486v8.516h-1.558l-2.488-5.496h-0.023v5.496H73.669
				z"/>
			<path fill="#F7597B" d="M50.829,12.199h1.51l1.145,5.566h0.023l1.168-5.566h1.568l1.18,5.566h0.023l1.132-5.566H60.1
				l-1.863,8.516h-1.569l-1.191-5.828h-0.023l-1.285,5.828H52.61L50.829,12.199z"/>
			<path fill="#F7597B" d="M60.97,14.936c0-2.1,1.109-2.855,2.689-2.855s2.689,0.756,2.689,2.855v3.043
				c0,2.1-1.109,2.854-2.689,2.854s-2.689-0.754-2.689-2.854V14.936z M62.597,18.189c0,0.945,0.414,1.203,1.062,1.203
				s1.061-0.258,1.061-1.203v-3.467c0-0.943-0.412-1.203-1.061-1.203s-1.062,0.26-1.062,1.203V18.189z"/>
			<path fill="#F7597B" d="M71.488,20.715l-1.415-3.469h-0.779v3.469h-1.627v-8.516h2.359c1.957,0,2.889,0.943,2.889,2.547
				c0,1.062-0.377,1.828-1.285,2.17l1.604,3.799H71.488z M69.294,15.902h0.838c0.72,0,1.156-0.354,1.156-1.18
				s-0.437-1.18-1.156-1.18h-0.838V15.902z"/>
			<path fill="#F7597B" d="M74.224,12.199h2.264c1.863,0,2.902,0.801,2.973,2.947v2.619c-0.07,2.146-1.109,2.949-2.973,2.949h-2.264
				V12.199z M75.851,19.275h0.566c0.896,0,1.416-0.424,1.416-1.699v-2.24c0-1.203-0.402-1.699-1.416-1.699h-0.566V19.275z"/>
		</g>
		<path fill-rule="evenodd" clip-rule="evenodd" fill="#F7597B" d="M94.605,2.955c-4.412,0-8.001,3.588-8.001,8s3.589,8,8.001,8
			c4.411,0,7.999-3.588,7.999-8S99.017,2.955,94.605,2.955z"/>
	</g>
</g>
<g id="Country-Button">
</g>
<g id="Classic-Button">
</g>
<g id="LIMITS">
</g>
<g id="Layer_17">
</g>
</svg>
