<?xml version="1.0" encoding="utf-8"?>
<!-- Generator: Adobe Illustrator 16.0.0, SVG Export Plug-In . SVG Version: 6.00 Build 0)  -->
<!DOCTYPE svg PUBLIC "-//W3C//DTD SVG 1.1//EN" "http://www.w3.org/Graphics/SVG/1.1/DTD/svg11.dtd">
<svg version="1.1" xmlns="http://www.w3.org/2000/svg" xmlns:xlink="http://www.w3.org/1999/xlink" x="0px" y="0px"
	 width="104.604px" height="21px" viewBox="0 0 104.604 21" enable-background="new 0 0 104.604 21" xml:space="preserve">
<g id="Text">
</g>
<g id="World-Button">
</g>
<g id="Spoken_Work-Button">
</g>
<g id="Soundtrack-Button">
</g>
<g id="Soul-Button">
</g>
<g id="Rock-Button">
</g>
<g id="Reggae-Button">
</g>
<g id="Other-Button">
</g>
<g id="Jazz-Button">
</g>
<g id="HipHop-Button">
</g>
<g id="Gospel-Button">
</g>
<g id="Electronic-Button">
</g>
<g id="Easy_Listening-Button">
	<g>
		<g>
			<path fill="#3F4A60" d="M45.496,6.358h1.51l1.144,5.566h0.023l1.168-5.566h1.568l1.18,5.566h0.023l1.133-5.566h1.521
				l-1.863,8.516h-1.568l-1.191-5.828H50.12l-1.286,5.828h-1.558L45.496,6.358z"/>
			<path fill="#3F4A60" d="M55.637,9.095c0-2.1,1.108-2.855,2.688-2.855c1.581,0,2.689,0.756,2.689,2.855v3.043
				c0,2.1-1.108,2.854-2.689,2.854c-1.58,0-2.688-0.754-2.688-2.854V9.095z M57.265,12.349c0,0.945,0.412,1.203,1.061,1.203
				c0.649,0,1.062-0.258,1.062-1.203V8.882c0-0.943-0.413-1.203-1.062-1.203c-0.648,0-1.061,0.26-1.061,1.203V12.349z"/>
			<path fill="#3F4A60" d="M66.155,14.874l-1.415-3.469h-0.778v3.469h-1.628V6.358h2.358c1.959,0,2.891,0.943,2.891,2.547
				c0,1.062-0.378,1.828-1.286,2.17l1.604,3.799H66.155z M63.962,10.062h0.837c0.72,0,1.156-0.354,1.156-1.18
				s-0.437-1.18-1.156-1.18h-0.837V10.062z"/>
			<path fill="#3F4A60" d="M68.89,14.874V6.358h1.628v7.076h2.618v1.439H68.89z"/>
			<path fill="#3F4A60" d="M74.125,6.358h2.265c1.863,0,2.901,0.801,2.973,2.947v2.619c-0.071,2.146-1.109,2.949-2.973,2.949h-2.265
				V6.358z M75.753,13.435h0.566c0.896,0,1.415-0.424,1.415-1.699v-2.24c0-1.203-0.401-1.699-1.415-1.699h-0.566V13.435z"/>
		</g>
		<path fill-rule="evenodd" clip-rule="evenodd" fill="#3F4A60" d="M94.605,2.638c-4.412,0-8.001,3.588-8.001,8s3.589,8,8.001,8
			c4.411,0,7.999-3.588,7.999-8S99.017,2.638,94.605,2.638z"/>
	</g>
</g>
<g id="Country-Button">
</g>
<g id="Classic-Button">
</g>
<g id="LIMITS">
</g>
<g id="Layer_17">
</g>
</svg>
