<?xml version="1.0" standalone="no"?>
<!DOCTYPE svg PUBLIC "-//W3C//DTD SVG 1.1//EN" "http://www.w3.org/Graphics/SVG/1.1/DTD/svg11.dtd" >
<svg xmlns="http://www.w3.org/2000/svg">
<metadata></metadata>
<defs>
<font id="farnhamdisplay-boldregular" horiz-adv-x="1615" >
<font-face units-per-em="2048" ascent="1638" descent="-410" />
<missing-glyph horiz-adv-x="481" />
<glyph horiz-adv-x="2048" />
<glyph horiz-adv-x="2048" />
<glyph unicode="&#xd;" horiz-adv-x="2048" />
<glyph unicode=" "  horiz-adv-x="481" />
<glyph unicode="&#x09;" horiz-adv-x="481" />
<glyph unicode="&#xa0;" horiz-adv-x="481" />
<glyph unicode="!" horiz-adv-x="618" d="M90 1194q0 109 66.5 170t152.5 61q85 0 152 -60.5t67 -168.5q0 -54 -22 -125l-119 -418v-204h-156v204l-120 418q-21 67 -21 123zM125 162q0 70 55.5 125t126.5 55q72 0 129.5 -55t57.5 -125q0 -71 -57 -124.5t-130 -53.5q-71 0 -126.5 53.5t-55.5 124.5z" />
<glyph unicode="&#x22;" horiz-adv-x="991" d="M80 1243q0 82 54 132t126 50t127 -49.5t55 -132.5q0 -50 -22 -104l-92 -226v-112h-133v112l-93 226q-22 54 -22 104zM547 1243q0 82 54 132t126 50t127 -49.5t55 -132.5q0 -50 -22 -104l-94 -226v-112h-131v112l-93 226q-22 54 -22 104z" />
<glyph unicode="#" horiz-adv-x="1097" d="M41 627l68 231l192 -33l49 164l-194 35l67 233l195 -34l53 186h133l-59 -209l192 -33l72 242h133l-78 -264l193 -33l-66 -231l-194 32l-47 -165l192 -33l-68 -232l-192 33l-55 -188h-133l61 211l-195 32l-69 -243h-133l75 264zM428 803l195 -33l47 166l-193 33z" />
<glyph unicode="$" horiz-adv-x="1159" d="M25 319q0 77 47 127t114 50q64 0 107 -43t43 -103q0 -133 -137 -149v-4q74 -74 297 -84v450q-2 1 -6 2t-5 2q-96 30 -168 66t-132 88.5t-91 126t-31 166.5q0 172 119.5 283t313.5 126v191h118v-191q196 -13 298 -98.5t102 -208.5q0 -70 -45.5 -115t-106.5 -45 q-57 0 -97 41t-40 97t32.5 92.5t96.5 46.5v4q-2 1 -14.5 8t-17 9t-18 8.5t-22.5 9.5t-24 8.5t-29 8t-32.5 6t-39 5.5t-43.5 3v-412q117 -35 199 -72.5t151 -92t103.5 -129.5t34.5 -173q0 -194 -128.5 -311t-359.5 -127v-195h-118v195q-224 13 -347.5 107t-123.5 226z M299 1135q0 -77 43 -121t154 -84v370q-94 -10 -145.5 -53.5t-51.5 -111.5zM614 115q224 18 224 190q0 85 -47 129.5t-177 89.5v-409z" />
<glyph unicode="%" horiz-adv-x="1992" d="M66 1016q0 169 125.5 289t304.5 120q171 0 292 -120t121 -289q0 -165 -120.5 -282.5t-292.5 -117.5q-179 0 -304.5 117.5t-125.5 282.5zM362 1016q0 -166 30.5 -230.5t103.5 -64.5q72 0 99.5 63.5t27.5 231.5q0 173 -27.5 238t-99.5 65q-73 0 -103.5 -66t-30.5 -237z M418 0l1012 1407h145l-1012 -1407h-145zM1081 383q0 168 123.5 289t294.5 121q176 0 302 -121t126 -289q0 -166 -125 -282.5t-303 -116.5q-173 0 -295.5 116.5t-122.5 282.5zM1368 383q0 -167 29 -231t102 -64q72 0 100.5 63.5t28.5 231.5q0 172 -28.5 237.5t-100.5 65.5 q-73 0 -102 -66t-29 -237z" />
<glyph unicode="&#x26;" d="M45 395q0 325 434 451q-61 119 -61 231q0 149 104 248.5t275 99.5q135 0 231 -74.5t96 -183.5q0 -99 -71 -176.5t-199 -128.5l313 -411q62 123 90 284l-131 56v65h453v-65l-162 -56q-79 -220 -182 -377l104 -135q32 -44 79 -62t167 -22v-59q-132 -94 -280 -94 q-89 0 -160.5 28.5t-132.5 98.5q-176 -129 -414 -129q-132 0 -238.5 32.5t-174.5 89.5t-104 131t-36 158zM412 481q0 -342 297 -342q126 0 235 62l-326 434q-39 50 -94 133q-56 -36 -84 -102.5t-28 -184.5zM717 1159q0 -117 78 -219l6 -10q54 38 79 89t25 126q0 166 -96 166 q-92 0 -92 -152z" />
<glyph unicode="'" horiz-adv-x="524" d="M80 1243q0 82 54 132t126 50t127 -49.5t55 -132.5q0 -50 -22 -104l-92 -226v-112h-133v112l-93 226q-22 54 -22 104z" />
<glyph unicode="(" horiz-adv-x="741" d="M55 625q0 121 34.5 239t90 213t132.5 185t152.5 156t160.5 126l65 -67q-73 -88 -116.5 -154.5t-82.5 -165t-56 -227t-17 -305.5t17 -305.5t56 -227t82.5 -165t116.5 -154.5l-65 -68q-85 60 -160.5 126t-152.5 156.5t-132.5 185.5t-90 213t-34.5 239z" />
<glyph unicode=")" horiz-adv-x="741" d="M51 -227q74 88 117 154.5t82.5 165t56.5 227t17 305.5t-17 305.5t-56.5 227t-82.5 165t-117 154.5l66 67q84 -60 159.5 -126t152.5 -156t132 -185t90 -213t35 -239t-35 -239t-90 -213t-132 -185.5t-152.5 -156.5t-159.5 -126z" />
<glyph unicode="*" horiz-adv-x="925" d="M48.5 1034.5q-15.5 47.5 0.5 91.5q12 39 47.5 67t77.5 28q65 0 115 -64l55 -67l33 -9l-35 -112l-35 10l-84 -25q-64 -19 -111.5 7t-63 73.5zM150 752q0 40 24 74t74 53l82 32l20 27l92 -70l-20 -30l-2 -84q-3 -67 -42 -102.5t-91 -35.5q-44 0 -80 25q-57 41 -57 111z M328 1298q0 55 40 91t93 36t95 -37t42 -92q0 -46 -31 -88l-47 -71v-39h-117v37l-47 73q-28 46 -28 90zM479 868l92 70l21 -27l82 -32q51 -19 75.5 -53t24.5 -74q0 -70 -57 -111q-36 -25 -82 -25q-52 0 -91 35.5t-40 102.5l-4 84zM545 1081l35 9l53 67q50 62 112 62 q42 0 78.5 -27t50.5 -66q15 -45 -1 -92t-63 -72.5t-110 -7.5l-86 25l-34 -10z" />
<glyph unicode="+" horiz-adv-x="985" d="M90 563v137h328v351h145v-351h332v-137h-332v-352h-145v352h-328z" />
<glyph unicode="," horiz-adv-x="538" d="M66 -227q74 48 119.5 106.5t54.5 118.5l-4 4q-21 1 -45.5 11t-49.5 29.5t-42 55.5t-17 82q0 70 52.5 120t123.5 50q78 0 139.5 -59.5t61.5 -165.5q0 -120 -100.5 -236t-266.5 -168z" />
<glyph unicode="-" horiz-adv-x="702" d="M102 455v254h498v-254h-498z" />
<glyph unicode="." horiz-adv-x="538" d="M80 166q0 73 57 128.5t131 55.5t132.5 -55.5t58.5 -128.5t-58.5 -127.5t-132.5 -54.5t-131 54.5t-57 127.5z" />
<glyph unicode="/" horiz-adv-x="856" d="M20 -270l650 1771h155l-649 -1771h-156z" />
<glyph unicode="0" horiz-adv-x="1468" d="M55 698q0 137 51 268.5t139 233t215.5 163.5t270.5 62q142 0 270.5 -62t217.5 -163.5t141.5 -233t52.5 -268.5q0 -136 -51 -265.5t-139 -228.5t-217 -159.5t-275 -60.5t-274 60.5t-215 159.5t-137 228.5t-50 265.5zM451 698q0 -223 32.5 -352.5t91.5 -180t156 -50.5 q71 0 122.5 28t90 93t57.5 180t19 282q0 174 -18 291t-56.5 183t-89.5 93t-125 27q-102 0 -160.5 -50.5t-89 -181t-30.5 -362.5z" />
<glyph unicode="1" horiz-adv-x="882" d="M41 0v78l225 53v995h-225v93l446 206h140v-1294l211 -53v-78h-797z" />
<glyph unicode="2" horiz-adv-x="1103" d="M39 0v152q272 229 351 303q168 158 227 286q47 105 47 228q0 142 -70.5 220.5t-200.5 78.5q-100 0 -168 -43v-4q84 -3 135.5 -54t51.5 -129q0 -69 -48 -117.5t-122 -48.5q-80 0 -135.5 58.5t-55.5 150.5q0 157 132 250.5t341 93.5q104 0 196.5 -29.5t164 -85t113.5 -144 t42 -197.5q0 -78 -29 -153t-87 -144t-126.5 -129.5t-166.5 -124t-186 -114t-205 -111.5l651 96l96 162h62l-39 -451h-971z" />
<glyph unicode="3" horiz-adv-x="1134" d="M20 305q0 80 51 134.5t119 54.5q66 0 112 -45.5t46 -108.5q0 -132 -149 -154v-4q74 -51 204 -51q154 0 238 70.5t84 201.5q0 133 -83 202t-208 69q-47 0 -121 -17l-24 84q358 119 358 306q0 86 -53.5 133t-147.5 47t-152 -49.5t-58 -130.5q0 -47 12 -84l-58 -31 q-31 29 -51 76t-20 90q0 142 120 234.5t318 92.5q181 0 293.5 -78.5t112.5 -209.5q0 -185 -238 -273v-6q165 -33 265 -144t100 -270q0 -212 -163.5 -336t-430.5 -124q-204 0 -340 91.5t-136 229.5z" />
<glyph unicode="4" horiz-adv-x="1267" d="M57 313v197l678 899h301v-887h172v-209h-172v-182l164 -53v-78h-700v78l180 53v182h-623zM190 522h490v578z" />
<glyph unicode="5" horiz-adv-x="1089" d="M20 289q0 89 49 142.5t119 53.5q73 0 117.5 -43.5t44.5 -107.5q0 -63 -39.5 -102t-111.5 -50v-6q77 -45 204 -45q152 0 240 59.5t88 174.5q0 151 -150.5 225.5t-418.5 77.5l-45 45l45 696h684l92 145h61l-53 -434l-680 49v-190q371 -14 578 -146t207 -376 q0 -215 -150.5 -344t-411.5 -129q-199 0 -334 85.5t-135 219.5z" />
<glyph unicode="6" horiz-adv-x="1230" d="M55 557q0 325 266.5 565.5t745.5 331.5l29 -80q-245 -113 -393 -233t-220 -262q89 63 197 63q219 0 363.5 -138.5t144.5 -336.5q0 -130 -73.5 -240.5t-204 -176.5t-287.5 -66q-164 0 -295 78t-202 208.5t-71 286.5zM432 469q0 -360 189 -360q190 0 190 362 q0 104 -13.5 174.5t-39 108t-56.5 52.5t-73 15q-48 0 -82 -15.5t-61 -54t-40.5 -108.5t-13.5 -174z" />
<glyph unicode="7" horiz-adv-x="1107" d="M53 905l33 504h983v-211q-129 -139 -208.5 -242t-126 -197t-63 -175.5t-16.5 -184.5q0 -46 11.5 -113t11.5 -118q0 -87 -54.5 -135.5t-140.5 -48.5q-93 0 -158 65t-65 172q0 130 74.5 277t205 299.5t339.5 349.5l-666 -43l-98 -199h-62z" />
<glyph unicode="8" horiz-adv-x="1271" d="M49 418q0 139 88.5 237.5t247.5 139.5q-111 39 -174.5 111t-63.5 167q0 153 140.5 252.5t347.5 99.5q136 0 247 -44.5t175.5 -125t64.5 -182.5q0 -95 -63.5 -167t-175.5 -111q162 -41 251 -139.5t89 -237.5q0 -188 -163.5 -311t-424.5 -123q-260 0 -423 123t-163 311z M436 418q0 -92 13.5 -154t41 -96t62 -48t82.5 -14q49 0 83.5 14t61.5 48t40.5 96t13.5 154q0 93 -13.5 156t-40.5 98t-61.5 49t-83.5 14q-48 0 -82.5 -14t-62 -48.5t-41 -98t-13.5 -156.5zM498 1069q0 -66 10.5 -111.5t30.5 -69t43 -33t53 -9.5q65 0 101 48.5t36 174.5 q0 131 -36.5 181t-100.5 50q-30 0 -53 -10t-43 -34.5t-30.5 -71.5t-10.5 -115z" />
<glyph unicode="9" horiz-adv-x="1230" d="M43 940q0 130 73 241t201.5 177.5t282.5 66.5q170 0 302.5 -76.5t203 -204.5t70.5 -284q0 -163 -62 -309.5t-179.5 -266t-298.5 -205.5t-407 -124l-26 80q244 108 375.5 231t183.5 271q-90 -70 -205 -70q-229 0 -371.5 136.5t-142.5 336.5zM420 938q0 -104 13.5 -174.5 t39 -108t56.5 -52.5t73 -15q48 0 82 15.5t61 54.5t40.5 110.5t13.5 177.5q0 354 -189 354q-190 0 -190 -362z" />
<glyph unicode=":" horiz-adv-x="552" d="M94 160q0 70 54.5 123t125.5 53t128 -53t57 -123t-57 -123t-128 -53t-125.5 53t-54.5 123zM94 684q0 70 54.5 123t125.5 53t128 -53t57 -123t-57 -123t-128 -53t-125.5 53t-54.5 123z" />
<glyph unicode=";" horiz-adv-x="552" d="M78 -223q70 45 113.5 102.5t54.5 116.5l-6 6q-21 0 -44 9t-47 27t-39.5 53.5t-15.5 80.5q0 67 51.5 115.5t120.5 48.5q76 0 134.5 -57.5t58.5 -159.5q0 -118 -96.5 -230.5t-258.5 -164.5zM94 684q0 70 54.5 123t125.5 53t128 -53t57 -123t-57 -123t-128 -53t-125.5 53 t-54.5 123z" />
<glyph unicode="&#x3c;" horiz-adv-x="774" d="M57 559v123q181 42 320 129.5t260 230.5l88 -77q-78 -109 -194.5 -201t-241.5 -143q125 -51 241 -142.5t195 -199.5l-88 -78q-121 142 -260 229t-320 129z" />
<glyph unicode="=" horiz-adv-x="985" d="M90 401v136h805v-136h-805zM90 727v135h805v-135h-805z" />
<glyph unicode="&#x3e;" horiz-adv-x="776" d="M49 279q81 109 196.5 200.5t241.5 143.5q-126 51 -242 141.5t-196 200.5l90 77q121 -143 260 -230.5t320 -129.5v-121q-181 -42 -320 -129.5t-260 -230.5z" />
<glyph unicode="?" horiz-adv-x="968" d="M39 1135q0 119 113 204.5t299 85.5q215 0 332.5 -95t117.5 -247q0 -58 -20 -107.5t-50 -85.5t-80.5 -71t-94 -57.5t-109.5 -52.5q-67 -30 -90 -52.5t-23 -54.5q0 -34 38.5 -47.5t156.5 -19.5v-70q-73 -33 -144 -33q-106 0 -164.5 53t-58.5 142q0 67 38 122t116 125 q87 78 117 121t30 115q0 89 -55 132.5t-150 43.5q-99 0 -158 -46t-67 -120l4 -2q32 62 99 62q52 0 91.5 -36.5t39.5 -90.5q0 -58 -39.5 -96.5t-98.5 -38.5q-90 0 -140 60t-50 157zM268 162q0 70 56.5 125t128.5 55q71 0 128.5 -55t57.5 -125q0 -71 -57 -124.5t-129 -53.5 q-73 0 -129 53.5t-56 124.5z" />
<glyph unicode="@" horiz-adv-x="1894" d="M57 315q0 123 37 249t103.5 241t165 216t214.5 175t258.5 117t292.5 43q203 0 364 -77t253 -219.5t92 -326.5q0 -165 -51 -311t-134 -245.5t-190 -157.5t-219 -58q-121 0 -181 53t-71 156v18l137 279l-4 2q-67 -109 -125 -190t-121 -151.5t-125 -107t-120 -36.5 q-75 0 -124.5 56.5t-49.5 154.5q0 130 48.5 273t125 257.5t177.5 189t198 74.5q110 0 170 -76l18 64h277l-232 -774q-10 -33 -10 -58q0 -67 67 -67q97 0 173.5 85t118.5 232.5t42 329.5q0 524 -510 524q-178 0 -333.5 -73.5t-263.5 -197.5t-170 -290t-62 -348 q0 -314 137 -453t422 -139q240 0 518 86l29 -63q-257 -140 -584 -140q-171 0 -314 53t-240 144.5t-150.5 217t-53.5 269.5zM768 266q0 -63 41 -63q92 0 248 256l98 368q-37 47 -92 47q-175 0 -281 -501q-14 -66 -14 -107z" />
<glyph unicode="A" horiz-adv-x="1654" d="M12 0v78l162 53l578 1299h204l545 -1299l141 -53v-78h-708v78l176 53l-141 361h-480l-139 -361l178 -53v-78h-516zM539 623h376l-188 479z" />
<glyph unicode="B" horiz-adv-x="1404" d="M49 0v78l170 53v1147l-170 53v78h690q113 0 209 -20.5t173 -61.5t121 -110t44 -160q0 -84 -46 -148.5t-117.5 -101.5t-164.5 -53v-11q87 -10 158 -35t128 -67.5t88.5 -108.5t31.5 -151q0 -183 -158.5 -282t-429.5 -99h-727zM580 133h151q147 0 204.5 54t57.5 210 q0 144 -66 213.5t-210 69.5h-137v-547zM580 801h94q148 0 204 50t56 185q0 75 -13 122t-45 73.5t-76 35.5t-116 9h-104v-475z" />
<glyph unicode="C" horiz-adv-x="1386" d="M55 705q0 188 92.5 352.5t261 266t373.5 101.5q89 0 164 -17.5t115.5 -37.5t93.5 -53l55 92h70l37 -549l-57 -12q-108 185 -185.5 280.5t-140.5 128.5t-148 33t-142 -27t-98.5 -95t-60 -186.5t-18.5 -297.5q0 -140 15.5 -240t43 -164t74 -100.5t101 -50.5t130.5 -14 q133 0 247 71t190 187l84 -60q-93 -160 -238 -244.5t-332 -84.5q-210 0 -377.5 98t-258.5 262t-91 361z" />
<glyph unicode="D" d="M49 0v78l170 53v1147l-170 53v78h713q184 0 336 -55.5t252.5 -151t155.5 -223.5t55 -274q0 -145 -55 -273.5t-155.5 -224.5t-252.5 -151.5t-336 -55.5h-713zM592 131h135q132 0 214 27t133.5 96.5t71 175.5t19.5 275q0 140 -14.5 236.5t-44.5 163t-83.5 103.5 t-123.5 52.5t-172 15.5h-135v-1145z" />
<glyph unicode="E" horiz-adv-x="1396" d="M49 0v78l170 53v1147l-170 53v78h1198l37 -469l-55 -10l-240 352l-397 37v-547l201 19l86 219h73v-561h-73l-86 202l-201 17v-572l461 31l256 418l61 -10l-49 -535h-1272z" />
<glyph unicode="F" horiz-adv-x="1337" d="M49 0v78l170 53v1147l-170 53v78h1219l37 -522l-56 -8l-266 405l-391 35v-576l221 19l84 237h74v-598h-74l-84 222l-221 18v-510l182 -53v-78h-725z" />
<glyph unicode="G" horiz-adv-x="1525" d="M55 705q0 140 54.5 271t149 230.5t231.5 159t292 59.5q131 0 213.5 -28.5t161.5 -79.5l53 92h68l41 -500l-59 -12q-149 231 -246.5 312t-225.5 81q-84 0 -143 -27t-104 -93.5t-66.5 -186.5t-21.5 -299q0 -139 16 -240t44.5 -164t74.5 -100t98.5 -51t124.5 -14 q111 0 209 65v346l-174 54v77h651v-77l-133 -54v-526h-92l-103 184q-168 -200 -424 -200q-202 0 -361 98t-244 262t-85 361z" />
<glyph unicode="H" horiz-adv-x="1724" d="M49 0v78l168 53v1147l-168 53v78h705v-78l-164 -53v-508h543v508l-172 53v78h714v-78l-170 -53v-1147l170 -53v-78h-714v78l172 53v508h-543v-508l164 -53v-78h-705z" />
<glyph unicode="I" horiz-adv-x="847" d="M49 0v78l189 53v1147l-189 53v78h750v-78l-189 -53v-1147l189 -53v-78h-750z" />
<glyph unicode="J" horiz-adv-x="950" d="M-96 -137q0 76 48 126t116 50t112.5 -47t44.5 -109q0 -53 -28 -87.5t-72 -49.5v-6q36 -8 74 -8q80 0 118.5 37.5t38.5 138.5v1370l-190 53v78h735v-78l-172 -53v-1188q0 -102 -27 -184.5t-71.5 -136t-106 -89.5t-127.5 -51.5t-139 -15.5q-167 0 -260.5 70t-93.5 180z" />
<glyph unicode="K" horiz-adv-x="1601" d="M49 0v78l170 53v1147l-170 53v78h690v-78l-147 -53v-524h145l400 528l-136 49v78h515v-78l-150 -49l-405 -434l514 -723l118 -47v-78h-651v78l115 47l-340 502h-125v-496l147 -53v-78h-690z" />
<glyph unicode="L" horiz-adv-x="1325" d="M49 0v78l170 53v1147l-170 53v78h721v-78l-178 -53v-1186l391 39l268 434l60 -10l-62 -555h-1200z" />
<glyph unicode="M" horiz-adv-x="1939" d="M49 0v78l170 53v1147l-170 53v78h567l353 -917l317 917h604v-78l-170 -53v-1147l170 -53v-78h-690v78l148 53v1032l-414 -1110h-164l-448 1110l59 -1032l149 -53v-78h-481z" />
<glyph unicode="N" horiz-adv-x="1585" d="M49 0v78l170 53v1147l-170 53v78h545l690 -942l-65 811l-177 53v78h508v-78l-153 -53v-1298h-187l-882 1177l75 -1026l181 -53v-78h-535z" />
<glyph unicode="O" d="M55 698q0 143 60 277t161 232.5t241 158t292 59.5q151 0 290.5 -59.5t240.5 -158t161 -232.5t60 -277t-59 -274.5t-159.5 -228t-240 -154t-293.5 -57.5q-156 0 -296.5 57.5t-240.5 154t-158.5 228t-58.5 274.5zM453 698q0 -137 14 -236.5t41 -166.5t71.5 -106.5 t99.5 -56.5t130 -17q92 0 155.5 27t110 92.5t68.5 179.5t22 284q0 178 -20.5 294t-66 182t-109 92t-160.5 26q-78 0 -133.5 -16.5t-99.5 -56t-70 -108t-39.5 -170t-13.5 -243.5z" />
<glyph unicode="P" horiz-adv-x="1382" d="M49 0v78l168 53v1147l-168 53v78h701q286 0 446 -114.5t160 -325.5q0 -206 -134 -324.5t-345 -118.5q-114 0 -226 33l-61 16v-444l178 -53v-78h-719zM590 674l106 -8q25 -2 70 -2q54 0 89.5 10t60 30t37 58t17.5 86t5 121q0 99 -11 157.5t-41.5 94t-77 47.5t-126.5 12 h-129v-606z" />
<glyph unicode="Q" d="M55 698q0 144 59.5 277.5t159.5 232t239.5 158t291.5 59.5q151 0 291 -59.5t241.5 -158t162.5 -232.5t61 -277q0 -234 -149.5 -423t-383.5 -259q78 -164 139 -233q39 -47 87 -59.5t196 -12.5v-80q-132 -22 -252 -22q-126 0 -220.5 42t-168.5 123.5t-158 223.5 q-171 34 -307 135t-212.5 249t-76.5 316zM453 698q0 -137 13.5 -237t40 -168t70 -108.5t98.5 -58t130 -17.5q92 0 156.5 28t111.5 94.5t69.5 182t22.5 284.5q0 177 -21 293.5t-68 182.5t-111 92t-160 26q-98 0 -162 -26t-108 -93.5t-63 -182t-19 -292.5z" />
<glyph unicode="R" horiz-adv-x="1527" d="M49 0v78l170 53v1147l-170 53v78h709q275 0 432.5 -100t157.5 -293q0 -143 -106 -231.5t-296 -120.5v-5q119 -14 199.5 -73.5t132.5 -182.5l117 -272l125 -53v-78h-387q-52 0 -79.5 17.5t-39.5 56.5q-104 332 -142 414q-41 87 -90 110q-33 14 -104 14h-86v-481l166 -53 v-78h-709zM592 733h113q85 0 134.5 11t81 44t42 84t10.5 140q0 114 -22.5 170t-72.5 76t-153 20h-133v-545z" />
<glyph unicode="S" horiz-adv-x="1224" d="M66 526l59 19q58 -89 98 -147t83.5 -110.5t78.5 -82t77 -51.5t85 -30.5t98 -8.5q116 0 185 50t69 142q0 48 -13.5 80.5t-52 62t-98.5 53.5t-162 54q-248 73 -359.5 178t-111.5 287q0 181 122.5 292t328.5 111q184 0 338 -98l43 82h84l31 -420l-56 -14q-69 95 -115 149 t-98 96t-105 58t-122 16q-99 0 -151 -43.5t-52 -117.5q0 -86 62.5 -128t267.5 -102q243 -70 364 -178.5t121 -290.5q0 -198 -140 -324t-370 -126q-243 0 -403 125l-47 -109h-94z" />
<glyph unicode="T" horiz-adv-x="1439" d="M31 856l30 553h1313l35 -553l-63 -12l-242 442l-199 35v-1190l201 -53v-78h-774v78l200 53v1190l-198 -35l-242 -442z" />
<glyph unicode="U" horiz-adv-x="1595" d="M49 1331v78h699v-78l-160 -53v-827q0 -183 69.5 -254.5t247.5 -71.5q168 0 235.5 80.5t67.5 271.5v801l-180 53v78h518v-78l-143 -53l-53 -862q-6 -106 -37 -184t-92 -135t-160 -85t-236 -28q-288 0 -449 129.5t-161 388.5v776z" />
<glyph unicode="V" horiz-adv-x="1607" d="M16 1331v78h711v-78l-158 -53l363 -963l325 963l-190 53v78h524v-78l-151 -53l-525 -1298h-217l-540 1298z" />
<glyph unicode="W" horiz-adv-x="2246" d="M16 1331v78h676v-78l-149 -53l299 -891l200 645l-90 246l-121 53v78h658v-78l-166 -53l315 -922l260 922l-172 53v78h504v-78l-151 -53l-453 -1298h-199l-315 862l-289 -862h-198l-478 1298z" />
<glyph unicode="X" horiz-adv-x="1558" d="M33 0v78l147 53l416 553l-414 594l-119 53v78h717v-78l-149 -53l268 -428l242 428l-148 53v78h494v-78l-146 -53l-376 -524l434 -623l127 -53v-78h-717v78l141 53l-288 455l-281 -455l145 -53v-78h-493z" />
<glyph unicode="Y" horiz-adv-x="1548" d="M16 1331v78h715v-78l-172 -57l334 -590l297 594l-184 53v78h526v-78l-154 -53l-411 -698v-449l192 -53v-78h-758v78l193 53v420l-438 723z" />
<glyph unicode="Z" horiz-adv-x="1331" d="M37 0v90l837 1233l-452 -41l-236 -344l-51 14l37 457h1124v-80l-841 -1241l497 41l262 416l60 -17l-49 -528h-1188z" />
<glyph unicode="[" horiz-adv-x="804" d="M147 -270v1771h592v-78l-270 -45v-1525l270 -46v-77h-592z" />
<glyph unicode="\" horiz-adv-x="856" d="M31 1501h155l648 -1771h-156z" />
<glyph unicode="]" horiz-adv-x="804" d="M66 -193l270 46v1525l-270 45v78h591v-1771h-591v77z" />
<glyph unicode="^" horiz-adv-x="937" d="M51 838q97 92 163 189.5t92 164.5t47 122.5t45.5 83t68.5 27.5t69 -27t46.5 -82.5t49 -122.5t93.5 -164.5t162 -190.5l-60 -78l-358 254l-358 -254z" />
<glyph unicode="_" horiz-adv-x="724" d="M-18 -123h761v-164h-761v164z" />
<glyph unicode="`" horiz-adv-x="1026" d="M215 1384q0 39 25 84q15 25 45.5 41.5t66.5 16.5q84 0 146 -84l145 -197l82 -53l-53 -88l-82 53l-238 74q-70 22 -103.5 63t-33.5 90z" />
<glyph unicode="a" horiz-adv-x="1077" d="M49 219q0 132 95.5 203.5t308.5 107.5l174 31v152q0 104 -53.5 142t-174.5 38q-87 0 -145 -16v-5q57 -11 85 -49.5t28 -89.5q0 -54 -40 -90.5t-100 -36.5q-66 0 -106.5 44.5t-40.5 113.5q0 66 41 118.5t106.5 82.5t138 45.5t144.5 15.5q107 0 182.5 -22.5t131.5 -75.5 t83 -144t27 -223v-344q0 -45 22.5 -58.5t108.5 -21.5v-82q-34 -20 -59 -32t-69 -23.5t-91 -11.5q-102 0 -160.5 53t-58.5 149q-49 -85 -135 -145.5t-185 -60.5q-112 0 -185 64.5t-73 170.5zM356 272q0 -108 99 -108q98 0 172 96v229l-131 -47q-79 -29 -109.5 -66.5 t-30.5 -103.5z" />
<glyph unicode="b" horiz-adv-x="1214" d="M-20 1303v45l391 153h71v-459l-49 -284l4 -2q165 270 385 270q77 0 147 -35t125 -99t87.5 -163t32.5 -217q0 -128 -38.5 -230.5t-104 -166.5t-148.5 -97.5t-176 -33.5q-217 0 -369 172l-121 -156h-82v1214zM442 176q81 -63 179 -63q97 0 147 53q63 69 63 346 q0 239 -57 299q-44 41 -115 41q-47 0 -88 -19t-64 -40.5t-65 -67.5v-549z" />
<glyph unicode="c" horiz-adv-x="985" d="M35 500q0 102 37.5 196t105.5 168t172.5 118t229.5 44q166 0 266 -72t100 -200q0 -63 -42.5 -111.5t-112.5 -48.5q-62 0 -106 40.5t-44 98.5q0 54 33 97.5t84 58.5v4q-58 16 -135 16q-63 0 -105 -15.5t-75.5 -56.5t-49.5 -117t-16 -192q0 -95 13 -164t34.5 -110.5 t56.5 -65.5t72.5 -32.5t89.5 -8.5q109 0 250 50l39 -72q-171 -141 -369 -141q-130 0 -233.5 44t-166.5 118t-95.5 164.5t-32.5 189.5z" />
<glyph unicode="d" horiz-adv-x="1245" d="M41 510q0 123 38.5 223t103 163t146.5 96.5t173 33.5q158 0 268 -117v305l-158 89v45l394 153h71v-1251l152 -55v-66l-371 -139h-67l28 250l-4 2q-144 -258 -358 -258q-177 0 -296.5 140.5t-119.5 385.5zM383 489q0 -245 66 -311q39 -39 102 -39q65 0 116 36.5t103 100.5 v527q-79 63 -186 63q-91 0 -138 -57q-63 -72 -63 -320z" />
<glyph unicode="e" horiz-adv-x="1017" d="M35 492q0 229 143 381.5t365 152.5q195 0 315 -127.5t129 -378.5h-620v-4q0 -146 24 -223.5t77.5 -109t154.5 -31.5q133 0 278 55l39 -72q-77 -65 -183 -108t-229 -43q-163 0 -276 68t-165 180.5t-52 259.5zM369 637h309q-7 157 -37.5 216.5t-101.5 59.5q-30 0 -51 -5.5 t-42.5 -22.5t-36 -47t-25 -80.5t-15.5 -120.5z" />
<glyph unicode="f" horiz-adv-x="757" d="M27 842v76l161 67v131q0 96 26.5 174t68.5 127t97.5 82t109.5 46.5t108 13.5q151 0 231 -68t80 -186q0 -69 -41 -112.5t-106 -43.5q-59 0 -100 38t-41 91q0 64 37.5 103t97.5 44v5q-28 14 -94 14q-85 0 -125.5 -43.5t-40.5 -138.5v-269h233v-151h-233v-729h176v-113h-623 v113h139v729h-161z" />
<glyph unicode="g" horiz-adv-x="1105" d="M10 -139q0 128 187 184q-105 46 -105 162q0 71 36 123.5t103 105.5q-71 46 -110 114t-39 146q0 138 116.5 234t297.5 96q70 0 129 -13.5t97.5 -32.5t71 -38t66.5 -32q33 -13 65 -13h5v4q-39 23 -39 80q0 39 27.5 67.5t78.5 28.5q52 0 87.5 -37t35.5 -86 q0 -68 -41.5 -105.5t-101.5 -37.5q-86 0 -141 39l-2 -4q73 -81 73 -156q0 -135 -116 -230t-295 -95q-115 0 -197 36q-16 -37 -16 -61q0 -26 7.5 -37.5t48.5 -21t109 -13.5t207 -8q195 -6 292 -77.5t97 -194.5q0 -120 -72 -206.5t-193 -127.5t-277 -41q-219 0 -355.5 66.5 t-136.5 181.5zM252 -121q0 -34 8.5 -57t33 -44.5t74.5 -32.5t126 -11q92 0 155 11t96.5 32.5t47.5 48t14 63.5q0 67 -44.5 89t-187.5 22q-191 0 -284 18q-39 -70 -39 -139zM373 696q0 -142 25.5 -190.5t97.5 -48.5t97 48.5t25 190.5q0 139 -24.5 183.5t-97.5 44.5t-98 -44.5 t-25 -183.5z" />
<glyph unicode="h" horiz-adv-x="1257" d="M12 1303v45l394 153h71v-459l-45 -276l4 -2q86 125 178 193.5t205 68.5q132 0 210.5 -91.5t78.5 -244.5v-577h113v-113h-519v113h99v589q0 61 -24.5 84t-82.5 23q-116 0 -217 -82v-614h96v-113h-536v113h133v1101z" />
<glyph unicode="i" horiz-adv-x="645" d="M16 815v45l398 154h71v-901h131v-113h-579v113h143v616zM139 1300q0 69 56 125t131 56t129.5 -56t54.5 -125t-54.5 -125.5t-129.5 -56.5t-131 56.5t-56 125.5z" />
<glyph unicode="j" horiz-adv-x="608" d="M-182 -193q0 60 39 100t98 40q55 0 91 -34t36 -87q0 -75 -62 -107v-4q10 -2 39 -2q63 0 92 41.5t29 134.5v838l-164 88v45l400 154h71v-948q0 -100 -23 -179.5t-60 -130t-87 -83.5t-101.5 -46.5t-106.5 -13.5q-140 0 -215.5 54.5t-75.5 139.5zM139 1300q0 69 56 125 t131 56t129.5 -56t54.5 -125t-54.5 -125.5t-129.5 -56.5t-131 56.5t-56 125.5z" />
<glyph unicode="k" horiz-adv-x="1245" d="M12 1303v45l394 153h71v-1038l340 418h-131v112h479v-112h-131l-248 -238l344 -530h89v-113h-531v113h96l-200 336l-107 -103v-233h90v-113h-530v113h133v1101z" />
<glyph unicode="l" horiz-adv-x="647" d="M12 1303v45l404 153h71v-1388h131v-113h-581v113h143v1101z" />
<glyph unicode="m" horiz-adv-x="1835" d="M16 815v45l377 154h70l-31 -248l4 -2q41 59 78.5 102t83 81.5t96.5 58.5t107 20q199 0 262 -231q86 114 168 172.5t178 58.5q129 0 207 -91.5t78 -242.5v-579h112v-113h-510v113h90v594q0 58 -24 80t-80 22q-80 0 -197 -66v-630h93v-113h-490v113h90v594q0 58 -24 80 t-80 22q-96 0 -197 -82v-614h90v-113h-530v113h133v614z" />
<glyph unicode="n" horiz-adv-x="1257" d="M16 815v45l377 154h70l-31 -248l4 -2q86 125 178 193.5t205 68.5q132 0 210.5 -90.5t78.5 -245.5v-577h113v-113h-519v113h99v589q0 61 -24.5 84t-82.5 23q-116 0 -217 -82v-614h96v-113h-536v113h133v614z" />
<glyph unicode="o" horiz-adv-x="1146" d="M35 506q0 99 40.5 193t110 166.5t171 116.5t216.5 44q152 0 277.5 -75t193.5 -194t68 -251t-68 -251.5t-193.5 -195t-277.5 -75.5q-115 0 -216.5 44.5t-171 117.5t-110 167t-40.5 193zM377 506q0 -125 12.5 -207t39.5 -125t60.5 -59.5t83.5 -16.5t83.5 16.5t60.5 59.5 t40 125t13 207q0 126 -13 208t-40.5 124t-61 57.5t-82.5 15.5q-39 0 -67 -9t-54 -35t-41.5 -70.5t-24.5 -117t-9 -173.5z" />
<glyph unicode="p" horiz-adv-x="1249" d="M16 815v45l377 154h70l-37 -256l4 -2q165 270 385 270q77 0 147.5 -35t125 -99t87.5 -163t33 -217q0 -128 -38.5 -230.5t-103.5 -166.5t-148 -97.5t-175 -33.5q-159 0 -266 110v-350h176v-113h-616v113h133v983zM477 174q83 -59 178 -59q98 0 148 53q63 69 63 344 q0 227 -57 287q-44 41 -117 41q-36 0 -65.5 -8t-57.5 -27t-44.5 -34t-47.5 -46v-551z" />
<glyph unicode="q" horiz-adv-x="1208" d="M41 508q0 124 38.5 224t104 163t148.5 97t176 34q110 0 198 -47.5t168 -144.5l121 180h82v-1270h125v-113h-569v113h137v231l49 267l-4 2q-142 -260 -364 -260q-83 0 -156.5 34.5t-130.5 99t-90 165.5t-33 225zM383 477q0 -227 63 -293q42 -39 101 -39q68 0 121 37.5 t102 102.5v530q-90 55 -186 55q-86 0 -138 -55q-63 -72 -63 -338z" />
<glyph unicode="r" horiz-adv-x="983" d="M16 815v45l377 154h70l-35 -271l4 -2q134 283 334 283q89 0 145 -55t56 -135q0 -81 -49.5 -136t-120.5 -55q-72 0 -113 41t-41 102q0 45 31 80v4q-96 -17 -197 -170v-587h162v-113h-602v113h133v614z" />
<glyph unicode="s" horiz-adv-x="948" d="M53 358l62 17q99 -157 181 -217t200 -60q85 0 127.5 33t42.5 86q0 58 -53 87.5t-212 74.5q-181 52 -256 131.5t-75 202.5q0 98 53.5 171t135.5 107.5t179 34.5q138 0 254 -65l31 53h80l18 -301l-55 -17q-91 121 -162 169t-160 48q-70 0 -109.5 -29t-39.5 -79 q0 -57 46 -85.5t194 -72.5q188 -55 279 -131.5t91 -210.5q0 -148 -103 -234.5t-292 -86.5q-183 0 -315 90l-31 -74h-84z" />
<glyph unicode="t" horiz-adv-x="776" d="M16 842v76l156 65l182 365h115v-355h256v-151h-256v-613q0 -39 22.5 -56t79.5 -17q71 0 148 14l31 -68q-137 -118 -304 -118q-154 0 -219 85.5t-65 268.5v504h-146z" />
<glyph unicode="u" horiz-adv-x="1255" d="M16 881v112h441v-702q0 -60 23.5 -83.5t80.5 -23.5q60 0 109.5 24t109.5 75v598h-139v112h446v-743l152 -55v-66l-371 -141h-69l26 256l-4 2q-85 -125 -178.5 -193.5t-206.5 -68.5q-132 0 -209 90t-77 245v562h-134z" />
<glyph unicode="v" horiz-adv-x="1177" d="M8 881v112h582v-112h-133l233 -609l211 609h-115v112h383v-112h-88l-391 -897h-182l-402 897h-98z" />
<glyph unicode="w" horiz-adv-x="1718" d="M14 881v112h555v-112h-114l176 -549l162 549h-107v112h504v-112h-115l211 -562l158 562h-119v112h379v-112h-92l-346 -897h-154l-252 667l-250 -667h-159l-334 897h-103z" />
<glyph unicode="x" horiz-adv-x="1167" d="M14 0v113h101l303 368l-303 400h-86v112h587v-112h-120l186 -271l160 271h-115v112h377v-112h-82l-287 -344l322 -424h90v-113h-594v113h123l-201 288l-180 -288h121v-113h-402z" />
<glyph unicode="y" horiz-adv-x="1161" d="M8 881v112h582v-112h-133l221 -617l207 617h-115v112h383v-112h-88l-422 -975q-70 -159 -151 -226t-187 -67q-94 0 -152.5 51.5t-58.5 130.5q0 62 38.5 103t96.5 41q55 0 90 -34.5t35 -88.5q0 -69 -47 -99l2 -4q60 2 115 60t94 166l23 61h-43l-392 881h-98z" />
<glyph unicode="z" horiz-adv-x="1009" d="M39 0v86l559 815l-268 -27l-174 -253h-52l33 372h813v-82l-563 -821l330 29l184 295h57l-34 -414h-885z" />
<glyph unicode="{" horiz-adv-x="845" d="M29 569v78l127 15q68 7 94 35.5t26 78.5q0 36 -58 204t-58 224q0 158 148 227.5t472 69.5v-78q-81 -17 -129.5 -29.5t-84 -26.5t-50 -31.5t-19.5 -38t-1 -52.5l45 -371q14 -111 -26.5 -174.5t-152.5 -87.5v-6q112 -24 152.5 -87.5t26.5 -174.5l-45 -352q-4 -40 4 -63.5 t40.5 -45t86.5 -38t153 -38.5v-77q-323 0 -471.5 74.5t-148.5 234.5q0 61 58 216t58 185q0 51 -26 79.5t-94 35.5z" />
<glyph unicode="|" horiz-adv-x="464" d="M154 -270v1771h157v-1771h-157z" />
<glyph unicode="}" horiz-adv-x="845" d="M66 -193q100 22 154 38.5t87 38t40.5 45t2.5 63.5l-45 352q-14 113 26 175.5t154 86.5v6q-113 24 -152.5 86.5t-27.5 175.5l47 371q4 40 -3.5 63t-40 43.5t-86.5 35.5t-156 36v78q326 0 474 -69.5t148 -227.5q0 -56 -59.5 -224t-59.5 -204q0 -50 27 -78.5t96 -35.5 l125 -15v-78l-125 -14q-69 -7 -96 -35.5t-27 -79.5q0 -30 59.5 -185t59.5 -216q0 -160 -149.5 -234.5t-472.5 -74.5v77z" />
<glyph unicode="~" horiz-adv-x="968" d="M61 489q76 187 145.5 273t166.5 86q51 0 123 -29l176 -69q41 -15 65 -3t58 58l55 69l70 -38q-74 -187 -143.5 -273t-166.5 -86q-56 0 -123 27l-172 67q-41 16 -67 5t-62 -56l-55 -69z" />
<glyph unicode="&#xa1;" horiz-adv-x="618" d="M90 -186q0 51 23 125l118 417v205h158v-205l119 -417q20 -64 20 -123q0 -109 -66.5 -170.5t-152.5 -61.5q-85 0 -152 61t-67 169zM125 848q0 71 56.5 124.5t129.5 53.5t129 -53.5t56 -124.5q0 -70 -56.5 -125t-128.5 -55t-129 55t-57 125z" />
<glyph unicode="&#xa2;" horiz-adv-x="993" d="M37 500q0 102 37 196t105 168t172.5 118t230.5 44q94 0 176 -29l114 234h121l-139 -285q88 -75 88 -190q0 -61 -41 -108.5t-108 -47.5q-56 0 -95 31l-219 -447q62 -41 180 -41q70 0 119.5 10.5t116.5 34.5l37 -73q-172 -131 -354 -131q-102 0 -185 24l-106 -217h-121 l125 258q-124 66 -189 188.5t-65 262.5zM373 528q0 -163 33 -245l253 516q35 71 99 90v2q-49 18 -135 18q-62 0 -105 -16t-77.5 -56.5t-51 -117t-16.5 -191.5z" />
<glyph unicode="&#xa3;" horiz-adv-x="1298" d="M20 178q0 101 77.5 165.5t209.5 64.5q43 0 113 -13q-20 72 -101 217h-221v131h150q-74 148 -74 250q0 195 147.5 313.5t393.5 118.5q203 0 325.5 -86t122.5 -233q0 -86 -46.5 -141.5t-119.5 -55.5q-69 0 -114 45t-45 109q0 72 46.5 118t129.5 50v4q-72 37 -193 37 q-141 0 -213.5 -76.5t-72.5 -218.5q0 -85 26 -234h344v-131h-317q28 -140 28 -219q0 -25 -2 -37q31 -7 92 -22t95 -22.5t78.5 -17t75.5 -14t53 -4.5q70 0 103.5 40.5t64.5 136.5h65q0 -251 -60 -360t-210 -109q-32 0 -68 9.5t-64 20.5t-70.5 35t-65 38.5t-70.5 46.5l-66 44 q-47 -91 -131 -142.5t-186 -51.5q-103 0 -166.5 52.5t-63.5 141.5zM135 178q0 -42 28 -67t81 -25q67 0 120 45.5t68 122.5q-79 37 -143 37q-69 0 -111.5 -28t-42.5 -85z" />
<glyph unicode="&#xa4;" horiz-adv-x="1333" d="M29 473v125h159q-6 50 -6 100q0 34 2 52h-155v124h176q28 111 88 210t144.5 175.5t197 121t237.5 44.5q187 0 301.5 -78.5t114.5 -211.5q0 -86 -47 -140.5t-119 -54.5q-65 0 -106 42t-41 103q0 68 43.5 111t118.5 47v4q-71 43 -217 43q-60 0 -106 -10.5t-89.5 -38 t-73.5 -73.5t-52 -119.5t-32 -174.5h355v-124h-361v-52q0 -69 2 -100h359v-125h-349q25 -200 101 -279t207 -79q109 0 184 46t145 132l80 -66q-37 -52 -72.5 -89.5t-90 -75.5t-130 -58t-168.5 -20q-115 0 -217 38.5t-178.5 106t-132.5 155t-86 189.5h-186z" />
<glyph unicode="&#xa5;" horiz-adv-x="1435" d="M16 1331v78h691v-78l-160 -57l282 -602l263 606l-174 53v78h501v-78l-153 -53l-260 -498h301v-125h-367l-37 -73v-78h404v-125h-404v-248l193 -53v-78h-758v78l192 53v248h-403v125h403v67l-45 84h-358v125h291l-262 494z" />
<glyph unicode="&#xa6;" horiz-adv-x="464" d="M154 -270v819h157v-819h-157zM154 715v786h157v-786h-157z" />
<glyph unicode="&#xa7;" horiz-adv-x="1202" d="M43 709q0 204 219 286q-10 39 -10 97q1 104 58.5 181.5t146.5 114.5t194 37q158 0 247 -65t89 -172q0 -73 -40 -116.5t-99 -43.5q-57 0 -96 34.5t-39 86.5q0 56 30 85t76 36v4q-60 31 -139 31q-84 0 -128 -35t-46 -99q-1 -34 8.5 -59t45 -61t86.5 -74.5t153 -110.5 q214 -150 287 -246.5t73 -222.5q0 -209 -221 -291q12 -37 12 -94q-1 -104 -58 -182t-144 -115t-189 -37q-165 0 -260.5 71.5t-95.5 178.5q0 70 43 115t104 45q57 0 97 -36.5t40 -88.5q0 -57 -28.5 -89t-75.5 -38v-4q64 -31 139 -31q83 0 127.5 33.5t44.5 95.5 q1 27 -7.5 49.5t-23.5 43.5t-56.5 55t-84 66t-129.5 94q-145 103 -220 178t-102.5 140t-27.5 153zM264 795q0 -43 20.5 -78t89 -94t214.5 -164q228 -164 293 -248q57 39 57 100q0 41 -24.5 77t-92 92.5t-217.5 164.5q-216 155 -285 244q-55 -37 -55 -94z" />
<glyph unicode="&#xa8;" horiz-adv-x="1024" d="M115 1305q0 63 49 112t117 49t118 -49t50 -112t-50 -112.5t-118 -49.5t-117 49.5t-49 112.5zM575 1305q0 63 50 112t118 49t117 -49t49 -112t-49 -112.5t-117 -49.5t-118 49.5t-50 112.5z" />
<glyph unicode="&#xa9;" horiz-adv-x="1591" d="M55 698q0 137 54.5 268.5t148.5 233t232.5 163.5t295.5 62q156 0 297 -62t239 -163.5t156 -233.5t58 -268t-56.5 -265.5t-154 -228.5t-239 -159.5t-300.5 -60.5q-160 0 -299 60.5t-232.5 160t-146.5 228t-53 265.5zM172 698q0 -123 42.5 -234t119.5 -196t194.5 -134.5 t257.5 -49.5q185 0 331.5 85.5t224 225t77.5 303.5q0 123 -47 237t-129 200.5t-201.5 138t-255.5 51.5q-181 0 -323.5 -88.5t-216.5 -230.5t-74 -308zM342 702q0 184 132.5 314.5t320.5 130.5q138 0 219 -64l35 56h69l21 -342l-62 -19q-82 148 -133.5 196t-122.5 48 q-89 0 -129.5 -72t-40.5 -254q0 -122 24 -192.5t65.5 -96.5t107.5 -26q139 0 239 133l78 -57q-123 -207 -368 -207q-196 0 -325.5 129.5t-129.5 322.5z" />
<glyph unicode="&#xaa;" horiz-adv-x="1026" d="M66 700q0 118 87 185.5t277 101.5l156 27v127q0 90 -48.5 123.5t-154.5 33.5q-57 0 -115 -16v-4q99 -22 99 -127q0 -51 -38.5 -86t-95.5 -35q-63 0 -102 43t-39 109q0 63 37 112.5t96 76.5t124.5 40.5t131.5 13.5q97 0 166.5 -19.5t122 -66.5t78.5 -129.5t26 -203.5v-301 q0 -41 19 -53.5t94 -18.5v-80q-99 -61 -205 -61q-90 0 -142.5 45.5t-53.5 128.5q-45 -74 -120.5 -126.5t-166.5 -52.5q-102 0 -167.5 58.5t-65.5 154.5zM354 750q0 -48 21.5 -67t60.5 -19q89 0 150 75v201l-119 -45q-65 -23 -89 -54.5t-24 -90.5z" />
<glyph unicode="&#xab;" horiz-adv-x="1099" d="M59 438v94l396 302l77 -70l-176 -342l176 -240l-77 -71zM545 438v94l426 349l76 -70l-207 -389l209 -283l-78 -71z" />
<glyph unicode="&#xac;" horiz-adv-x="950" d="M-96 -137q0 76 48 126t116 50t112.5 -47t44.5 -109q0 -53 -28 -87.5t-72 -49.5v-6q36 -8 74 -8q80 0 118.5 37.5t38.5 138.5v1370l-190 53v78h735v-78l-172 -53v-1188q0 -102 -27 -184.5t-71.5 -136t-106 -89.5t-127.5 -51.5t-139 -15.5q-167 0 -260.5 70t-93.5 180z" />
<glyph unicode="&#xad;" horiz-adv-x="702" d="M102 455v254h498v-254h-498z" />
<glyph unicode="&#xae;" horiz-adv-x="1183" d="M41 965q0 110 43.5 210t117.5 172.5t176 115t214 42.5t214 -42.5t176 -115t117.5 -172.5t43.5 -210q0 -146 -73.5 -270t-200.5 -196.5t-277 -72.5t-277 72.5t-200.5 196.5t-73.5 270zM145 965q0 -197 126 -326t321 -129q194 0 320 129t126 326t-126 326.5t-320 129.5 t-320.5 -129.5t-126.5 -326.5zM297 696v54l74 22v406l-74 22v53h301q113 0 177.5 -39.5t64.5 -117.5q0 -57 -40 -92t-112 -46v-4q106 -13 141 -104l33 -80l51 -20v-54h-174q-43 0 -57 49q-17 56 -26.5 82.5t-19.5 50t-20.5 30.5t-22 10.5t-32.5 3.5h-18v-150l61 -22v-54 h-307zM543 997h30q57 0 76 19.5t19 73.5q0 51 -17.5 66t-72.5 15h-35v-174z" />
<glyph unicode="&#xaf;" horiz-adv-x="1024" d="M231 1188v190h560v-190h-560z" />
<glyph unicode="&#xb0;" horiz-adv-x="704" d="M53 1137q0 118 88.5 203t210.5 85t210.5 -85t88.5 -203q0 -117 -88.5 -202t-210.5 -85t-210.5 85t-88.5 202zM205 1137q0 -79 41 -123.5t106 -44.5q64 0 106 44.5t42 123.5q0 81 -41.5 125.5t-106.5 44.5q-66 0 -106.5 -44t-40.5 -126z" />
<glyph unicode="&#xb1;" horiz-adv-x="1923" d="M27 842v76l161 67v107q0 95 28.5 173t74 127.5t104 83.5t115 48t111.5 14q105 0 180 -37t110 -102q65 79 159.5 119.5t184.5 40.5q199 0 283 -117l154 59h71v-1388h131v-113h-526v113h88v1044h-18q-58 0 -96.5 37t-38.5 90q0 57 32 92t90 41v4q-33 23 -110 23 q-95 0 -141 -47t-46 -154v-250h187v-151h-187v-729h109v-113h-504v113h88v729h-325v-729h108v-113h-555v113h139v729h-161zM496 993h325v131v19h-18q-55 0 -93 34.5t-38 84.5q0 58 32 93.5t89 41.5v4q-37 22 -113 22q-95 0 -139.5 -46t-44.5 -154v-230z" />
<glyph unicode="&#xb2;" horiz-adv-x="776" d="M23 508v131q69 49 105 74.5t86.5 63.5t75 60.5t56.5 54t46 55t29 54t20 60.5t5 65q0 84 -44.5 129t-133.5 45q-63 0 -96 -22v-4q50 -2 80.5 -37t30.5 -90q0 -47 -33.5 -80t-83.5 -33q-52 0 -90.5 40.5t-38.5 107.5q0 105 96 174t238 69q155 0 253.5 -80.5t98.5 -216.5 q0 -74 -44 -143t-126 -128.5t-179 -109t-224 -98.5l464 66l56 100h59l-24 -307h-682z" />
<glyph unicode="&#xb3;" horiz-adv-x="768" d="M12 715q0 56 34.5 91.5t78.5 35.5q45 0 75.5 -29.5t30.5 -69.5q0 -94 -96 -108v-4q38 -27 129 -27q205 0 205 166q0 81 -47 121.5t-129 40.5q-36 0 -78 -10l-18 67q115 39 170 86t55 109q0 52 -33.5 80t-93.5 28q-58 0 -90.5 -26t-32.5 -76q0 -15 10 -55l-51 -25 q-20 18 -33.5 48t-13.5 61q0 94 75.5 150t215.5 56q131 0 204.5 -53.5t73.5 -136.5q0 -62 -45 -107t-123 -71v-4q105 -14 176.5 -85.5t71.5 -183.5q0 -132 -103 -212t-276 -80q-156 0 -249 65.5t-93 157.5z" />
<glyph unicode="&#xb4;" horiz-adv-x="1024" d="M317 1192l82 53l146 197q59 84 143 84q36 0 68 -16.5t47 -41.5q24 -43 24 -84q0 -49 -33.5 -90t-103.5 -63l-237 -74l-82 -53z" />
<glyph unicode="&#xb6;" horiz-adv-x="1277" d="M18 991q0 105 39 186t108 131t158 75.5t195 25.5h756v-78l-193 -53v-979q0 -95 -26.5 -171t-70 -124.5t-103 -81t-121 -46t-127.5 -13.5q-170 0 -274.5 71t-104.5 197q0 68 46 115t114 47q66 0 110.5 -41t44.5 -100q0 -67 -32 -101.5t-99 -52.5v-4q12 -7 45 -14t64 -7 q89 0 130.5 43.5t41.5 141.5v463l-115 -25q-85 -16 -149 -16q-200 0 -318.5 115t-118.5 296zM410 1010q0 -168 38 -230.5t132 -62.5q30 0 71 6l68 8v553h-105q-73 0 -115 -21t-65.5 -82t-23.5 -171zM786 -6l5 -6q80 47 115.5 108.5t35.5 177.5v1010h-84v-1096 q0 -122 -72 -194z" />
<glyph unicode="&#xb7;" horiz-adv-x="538" d="M80 573q0 73 57 129t131 56t132.5 -56t58.5 -129t-58.5 -127.5t-132.5 -54.5t-131 54.5t-57 127.5z" />
<glyph unicode="&#xb8;" horiz-adv-x="1024" d="M281 -408l26 54q85 -29 148 -29q123 0 123 66t-146 75l-20 29l116 213h125l-92 -109q213 -43 213 -190q0 -84 -68 -130t-184 -46q-73 0 -138.5 20t-102.5 47z" />
<glyph unicode="&#xb9;" horiz-adv-x="622" d="M25 508v74l159 39v575h-155v76l309 153h125v-804l149 -39v-74h-587z" />
<glyph unicode="&#xba;" horiz-adv-x="1062" d="M43 958q0 89 37.5 173.5t102 149.5t157 104.5t195.5 39.5t195.5 -39.5t156.5 -104.5t101.5 -149.5t37.5 -173.5t-37.5 -174.5t-101.5 -151t-156.5 -105.5t-195.5 -40t-195.5 40t-157 105.5t-102 151t-37.5 174.5zM365 958q0 -109 11.5 -181.5t35 -111t52.5 -53t71 -14.5 t71 14.5t52.5 53t35 111t11.5 181.5q0 110 -11.5 182.5t-35.5 109.5t-52.5 51t-70.5 14t-71 -14t-52.5 -51.5t-35 -110t-11.5 -181.5z" />
<glyph unicode="&#xbb;" horiz-adv-x="1099" d="M51 809l80 72l426 -371v-94l-426 -348l-78 69l207 389zM567 766l78 72l395 -328v-94l-395 -301l-76 69l176 342z" />
<glyph unicode="&#xbc;" horiz-adv-x="2035" d="M25 508v74l159 39v575h-155v76l309 153h125v-804l149 -39v-74h-587zM455 0l1009 1409h146l-1010 -1409h-145zM1198 219v143l432 539h242v-528h127v-154h-127v-108l125 -39v-72h-527v72l136 39v108h-408zM1300 373h306v329z" />
<glyph unicode="&#xbd;" horiz-adv-x="2070" d="M25 508v74l159 39v575h-155v76l309 153h125v-804l149 -39v-74h-587zM455 0l1009 1409h146l-1010 -1409h-145zM1321 0v129q218 155 285 216q109 98 132 193q9 36 9 78q0 85 -45 131t-135 46q-59 0 -97 -23v-4q50 -3 81.5 -38t31.5 -89q0 -48 -33.5 -80.5t-85.5 -32.5 q-50 0 -88.5 40t-38.5 106q0 105 96 175.5t238 70.5q153 0 252.5 -81.5t99.5 -215.5q0 -74 -44 -143t-126.5 -128.5t-179.5 -109t-223 -99.5l465 66l55 100h60l-25 -307h-684z" />
<glyph unicode="&#xbe;" horiz-adv-x="2080" d="M12 715q0 56 34.5 91.5t78.5 35.5q45 0 75.5 -29.5t30.5 -69.5q0 -94 -96 -108v-4q38 -27 129 -27q205 0 205 166q0 81 -47 121.5t-129 40.5q-36 0 -78 -10l-18 67q115 39 170 86t55 109q0 52 -33.5 80t-93.5 28q-58 0 -90.5 -26t-32.5 -76q0 -15 10 -55l-51 -25 q-20 18 -33.5 48t-13.5 61q0 94 75.5 150t215.5 56q131 0 204.5 -53.5t73.5 -136.5q0 -62 -45 -107t-123 -71v-4q105 -14 176.5 -85.5t71.5 -183.5q0 -132 -103 -212t-276 -80q-156 0 -249 65.5t-93 157.5zM500 0l1011 1409h146l-1012 -1409h-145zM1245 219v143l432 539h240 v-528h127v-154h-127v-108l125 -39v-72h-526v72l135 39v108h-406zM1346 373h305v329z" />
<glyph unicode="&#xbf;" horiz-adv-x="968" d="M68 -72q0 48 12.5 90t38.5 76.5t55.5 62.5t74 55t82 46.5t91.5 44.5q66 30 88 52.5t22 54.5q0 34 -38 47.5t-154 19.5v70q69 31 141 31q106 0 166 -53t60 -142q0 -65 -38 -120t-116 -126q-47 -41 -67.5 -61.5t-43 -49.5t-29.5 -57.5t-7 -66.5q0 -90 53.5 -133t148.5 -43 q99 0 159 45.5t69 119.5h-5q-35 -59 -100 -59q-52 0 -91.5 36.5t-39.5 90.5q0 58 40 95.5t99 37.5q89 0 140 -59.5t51 -155.5q0 -120 -113 -205.5t-299 -85.5q-215 0 -332.5 95t-117.5 247zM330 850q0 70 57 124t129 54q71 0 126.5 -54t55.5 -124q0 -71 -55.5 -125.5 t-126.5 -54.5q-73 0 -129.5 54.5t-56.5 125.5z" />
<glyph unicode="&#xc0;" horiz-adv-x="1654" d="M12 0v78l162 53l578 1299h204l545 -1299l141 -53v-78h-708v78l176 53l-141 361h-480l-139 -361l178 -53v-78h-516zM539 623h376l-188 479zM545 1759q0 45 24 84q14 26 44.5 42t68.5 16q83 0 145 -84l146 -195l80 -53l-52 -88l-83 53l-238 72q-69 22 -102 63t-33 90z" />
<glyph unicode="&#xc1;" horiz-adv-x="1654" d="M12 0v78l162 53l578 1299h204l545 -1299l141 -53v-78h-708v78l176 53l-141 361h-480l-139 -361l178 -53v-78h-516zM539 623h376l-188 479zM608 1569l82 53l144 195q61 86 145 86q37 0 68 -17t45 -43q24 -39 24 -84q0 -108 -135 -153l-238 -72l-84 -53z" />
<glyph unicode="&#xc2;" horiz-adv-x="1654" d="M12 0v78l162 53l578 1299h204l545 -1299l141 -53v-78h-708v78l176 53l-141 361h-480l-139 -361l178 -53v-78h-516zM528 1554q69 64 119 128.5t71.5 106t39.5 75.5t36.5 49.5t49.5 15.5t50.5 -15.5t38 -49t40 -75t72 -106t120.5 -129.5l-43 -67l-276 155l-275 -155z M539 623h376l-188 479z" />
<glyph unicode="&#xc3;" horiz-adv-x="1654" d="M12 0v78l162 53l578 1299h204l545 -1299l141 -53v-78h-708v78l176 53l-141 361h-480l-139 -361l178 -53v-78h-516zM483 1544q63 143 134.5 219t162.5 76q54 0 113 -29l125 -55q21 -12 41.5 -6.5t35.5 18t38 39.5l47 56l65 -39q-65 -144 -135.5 -219.5t-161.5 -75.5 q-53 0 -112 26l-125 56q-17 8 -31.5 9t-28.5 -7t-26 -19.5t-29 -31.5l-47 -58zM539 623h376l-188 479z" />
<glyph unicode="&#xc4;" horiz-adv-x="1654" d="M12 0v78l162 53l578 1299h204l545 -1299l141 -53v-78h-708v78l176 53l-141 361h-480l-139 -361l178 -53v-78h-516zM446 1681q0 63 50 112.5t118 49.5t117 -49.5t49 -112.5t-49 -112t-117 -49t-118 49t-50 112zM539 623h376l-188 479zM909 1681q0 63 50 112.5t118 49.5 q67 0 115.5 -49.5t48.5 -112.5t-48 -112t-116 -49t-118 49t-50 112z" />
<glyph unicode="&#xc5;" horiz-adv-x="1654" d="M12 0v78l162 53l569 1278q-63 27 -102 83t-39 124q0 94 72 162.5t172 68.5q98 0 171 -68.5t73 -162.5q0 -63 -35.5 -118t-91.5 -83l538 -1284l141 -53v-78h-708v78l176 53l-141 361h-480l-139 -361l178 -53v-78h-516zM539 623h376l-188 479zM735 1616q0 -60 30 -93.5 t81 -33.5q49 0 79.5 33.5t30.5 93.5q0 59 -31 93t-79 34q-50 0 -80.5 -34t-30.5 -93z" />
<glyph unicode="&#xc6;" horiz-adv-x="2238" d="M12 0v78l158 53l856 1157l-141 43v78h1204l37 -469l-55 -10l-240 352l-397 37v-545l198 17l88 219h74v-561h-74l-88 202l-198 15v-570l460 31l256 418l62 -10l-49 -535h-1270v78l168 53v322h-477l-217 -322l176 -53v-78h-531zM674 584h387v571z" />
<glyph unicode="&#xc7;" horiz-adv-x="1386" d="M55 705q0 188 92.5 352.5t261 266t373.5 101.5q89 0 164 -17.5t115.5 -37.5t93.5 -53l55 92h70l37 -549l-57 -12q-108 185 -185.5 280.5t-140.5 128.5t-148 33t-142 -27t-98.5 -95t-60 -186.5t-18.5 -297.5q0 -140 15.5 -240t43 -164t74 -100.5t101 -50.5t130.5 -14 q133 0 247 71t190 187l84 -60q-93 -160 -238 -244.5t-332 -84.5h-4l-78 -93q213 -43 213 -190q0 -84 -67.5 -130t-183.5 -46q-73 0 -139 20.5t-103 46.5l26 54q85 -29 148 -29q123 0 123 66t-146 75l-20 29l113 205q-179 26 -318.5 127.5t-215 254.5t-75.5 331z" />
<glyph unicode="&#xc8;" horiz-adv-x="1396" d="M49 0v78l170 53v1147l-170 53v78h1198l37 -469l-55 -10l-240 352l-397 37v-547l201 19l86 219h73v-561h-73l-86 202l-201 17v-572l461 31l256 418l61 -10l-49 -535h-1272zM403 1761q0 39 25 84q15 25 46 41.5t67 16.5q83 0 145 -84l145 -197l82 -53l-53 -88l-82 53 l-237 74q-71 22 -104.5 63.5t-33.5 89.5z" />
<glyph unicode="&#xc9;" horiz-adv-x="1396" d="M49 0v78l170 53v1147l-170 53v78h1198l37 -469l-55 -10l-240 352l-397 37v-547l201 19l86 219h73v-561h-73l-86 202l-201 17v-572l461 31l256 418l61 -10l-49 -535h-1272zM547 1569l82 53l145 197q59 84 144 84q36 0 67.5 -16.5t46.5 -41.5q25 -45 25 -84 q0 -49 -33.5 -90t-103.5 -63l-238 -74l-82 -53z" />
<glyph unicode="&#xca;" horiz-adv-x="1396" d="M49 0v78l170 53v1147l-170 53v78h1198l37 -469l-55 -10l-240 352l-397 37v-547l201 19l86 219h73v-561h-73l-86 202l-201 17v-572l461 31l256 418l61 -10l-49 -535h-1272zM422 1554q69 65 118.5 130t71 106.5t39 75.5t36.5 49.5t50 15.5t50.5 -15.5t38 -49.5t40.5 -75.5 t72 -106.5t119 -130l-43 -65l-275 156l-274 -156z" />
<glyph unicode="&#xcb;" horiz-adv-x="1396" d="M49 0v78l170 53v1147l-170 53v78h1198l37 -469l-55 -10l-240 352l-397 37v-547l201 19l86 219h73v-561h-73l-86 202l-201 17v-572l461 31l256 418l61 -10l-49 -535h-1272zM317 1681q0 63 49 112.5t117 49.5t118 -49.5t50 -112.5t-50 -112t-118 -49t-117 49t-49 112z M778 1681q0 63 50 112.5t118 49.5t117 -49.5t49 -112.5t-49 -112t-117 -49t-118 49t-50 112z" />
<glyph unicode="&#xcc;" horiz-adv-x="847" d="M49 0v78l189 53v1147l-189 53v78h750v-78l-189 -53v-1147l189 -53v-78h-750zM109 1761q0 41 24 84q15 25 46 41.5t67 16.5q83 0 145 -84l146 -197l81 -53l-53 -88l-82 53l-237 74q-70 22 -103.5 63t-33.5 90z" />
<glyph unicode="&#xcd;" horiz-adv-x="847" d="M49 0v78l189 53v1147l-189 53v78h750v-78l-189 -53v-1147l189 -53v-78h-750zM229 1569l82 53l146 197q59 84 143 84q36 0 68 -16.5t47 -41.5q24 -43 24 -84q0 -49 -33.5 -90t-103.5 -63l-237 -74l-82 -53z" />
<glyph unicode="&#xce;" horiz-adv-x="847" d="M49 0v78l189 53v1147l-189 53v78h750v-78l-189 -53v-1147l189 -53v-78h-750zM106 1554q69 65 119 130t71 106.5t39 75.5t37 49.5t50 15.5t50.5 -15.5t37.5 -49.5t40 -75.5t72 -106.5t119 -130l-43 -65l-274 156l-274 -156z" />
<glyph unicode="&#xcf;" horiz-adv-x="847" d="M27 1681q0 63 49 112.5t117 49.5t117.5 -49.5t49.5 -112.5t-49.5 -112t-117.5 -49t-117 49t-49 112zM49 0v78l189 53v1147l-189 53v78h750v-78l-189 -53v-1147l189 -53v-78h-750zM487 1681q0 63 50 112.5t118 49.5t117 -49.5t49 -112.5t-49 -112t-117 -49t-118 49 t-50 112z" />
<glyph unicode="&#xd0;" horiz-adv-x="1613" d="M45 600v139h172v539l-168 53v78h711q184 0 336 -55.5t252.5 -151t155.5 -223.5t55 -274q0 -145 -55 -273.5t-155.5 -224.5t-252.5 -151.5t-336 -55.5h-711v78l168 53v469h-172zM590 131h135q133 0 215.5 27t133.5 96.5t70 175t19 275.5q0 141 -14 237t-44 162.5 t-83 103.5t-123 52.5t-174 15.5h-135v-537h297v-139h-297v-469z" />
<glyph unicode="&#xd1;" horiz-adv-x="1585" d="M49 0v78l170 53v1147l-170 53v78h545l690 -942l-65 811l-177 53v78h508v-78l-153 -53v-1298h-187l-882 1177l75 -1026l181 -53v-78h-535zM479 1544q63 143 134 219t161 76q54 0 113 -29l127 -55q37 -12 58.5 -0.5t55.5 51.5l48 56l65 -39q-65 -143 -136 -219t-161 -76 q-54 0 -113 26l-124 56q-21 13 -42 8t-36.5 -17.5t-36.5 -39.5l-47 -58z" />
<glyph unicode="&#xd2;" d="M55 698q0 143 60 277t161 232.5t241 158t292 59.5q151 0 290.5 -59.5t240.5 -158t161 -232.5t60 -277t-59 -274.5t-159.5 -228t-240 -154t-293.5 -57.5q-156 0 -296.5 57.5t-240.5 154t-158.5 228t-58.5 274.5zM453 698q0 -137 14 -236.5t41 -166.5t71.5 -106.5 t99.5 -56.5t130 -17q92 0 155.5 27t110 92.5t68.5 179.5t22 284q0 178 -20.5 294t-66 182t-109 92t-160.5 26q-78 0 -133.5 -16.5t-99.5 -56t-70 -108t-39.5 -170t-13.5 -243.5zM492 1759q0 45 24 84q14 26 44.5 42t68.5 16q83 0 145 -84l146 -195l79 -53l-51 -88l-84 53 l-237 72q-69 22 -102 63t-33 90z" />
<glyph unicode="&#xd3;" d="M55 698q0 143 60 277t161 232.5t241 158t292 59.5q151 0 290.5 -59.5t240.5 -158t161 -232.5t60 -277t-59 -274.5t-159.5 -228t-240 -154t-293.5 -57.5q-156 0 -296.5 57.5t-240.5 154t-158.5 228t-58.5 274.5zM453 698q0 -137 14 -236.5t41 -166.5t71.5 -106.5 t99.5 -56.5t130 -17q92 0 155.5 27t110 92.5t68.5 179.5t22 284q0 178 -20.5 294t-66 182t-109 92t-160.5 26q-78 0 -133.5 -16.5t-99.5 -56t-70 -108t-39.5 -170t-13.5 -243.5zM612 1569l82 53l146 195q61 86 143 86q38 0 69 -16.5t46 -43.5q24 -46 24 -84 q0 -108 -137 -153l-237 -72l-84 -53z" />
<glyph unicode="&#xd4;" d="M55 698q0 143 60 277t161 232.5t241 158t292 59.5q151 0 290.5 -59.5t240.5 -158t161 -232.5t60 -277t-59 -274.5t-159.5 -228t-240 -154t-293.5 -57.5q-156 0 -296.5 57.5t-240.5 154t-158.5 228t-58.5 274.5zM453 698q0 -137 14 -236.5t41 -166.5t71.5 -106.5 t99.5 -56.5t130 -17q92 0 155.5 27t110 92.5t68.5 179.5t22 284q0 178 -20.5 294t-66 182t-109 92t-160.5 26q-78 0 -133.5 -16.5t-99.5 -56t-70 -108t-39.5 -170t-13.5 -243.5zM489 1554q83 78 138.5 156.5t73.5 121.5t42 70t62 27q31 0 50.5 -15.5t37.5 -49t40 -75 t72 -106t119 -129.5l-43 -67l-274 155l-275 -155z" />
<glyph unicode="&#xd5;" d="M55 698q0 143 60 277t161 232.5t241 158t292 59.5q151 0 290.5 -59.5t240.5 -158t161 -232.5t60 -277t-59 -274.5t-159.5 -228t-240 -154t-293.5 -57.5q-156 0 -296.5 57.5t-240.5 154t-158.5 228t-58.5 274.5zM426 1544q63 143 134.5 219t162.5 76q54 0 113 -29l125 -55 q19 -5 31.5 -7t27.5 7t26.5 20t28.5 31l47 56l66 -39q-65 -144 -135.5 -219.5t-161.5 -75.5q-54 0 -113 26l-125 56q-17 8 -31.5 9t-28.5 -7t-25.5 -19t-28.5 -32l-47 -58zM453 698q0 -137 14 -236.5t41 -166.5t71.5 -106.5t99.5 -56.5t130 -17q92 0 155.5 27t110 92.5 t68.5 179.5t22 284q0 178 -20.5 294t-66 182t-109 92t-160.5 26q-78 0 -133.5 -16.5t-99.5 -56t-70 -108t-39.5 -170t-13.5 -243.5z" />
<glyph unicode="&#xd6;" d="M55 698q0 143 60 277t161 232.5t241 158t292 59.5q151 0 290.5 -59.5t240.5 -158t161 -232.5t60 -277t-59 -274.5t-159.5 -228t-240 -154t-293.5 -57.5q-156 0 -296.5 57.5t-240.5 154t-158.5 228t-58.5 274.5zM410 1681q0 63 48.5 112.5t116.5 49.5t118 -49.5t50 -112.5 t-50 -112t-118 -49t-116.5 49t-48.5 112zM453 698q0 -137 14 -236.5t41 -166.5t71.5 -106.5t99.5 -56.5t130 -17q92 0 155.5 27t110 92.5t68.5 179.5t22 284q0 178 -20.5 294t-66 182t-109 92t-160.5 26q-78 0 -133.5 -16.5t-99.5 -56t-70 -108t-39.5 -170t-13.5 -243.5z M870 1681q0 63 50 112.5t118 49.5t117 -49.5t49 -112.5t-49 -112t-117 -49t-118 49t-50 112z" />
<glyph unicode="&#xd7;" horiz-adv-x="983" d="M121 360l278 293l-276 291l92 94l277 -288l276 290l94 -96l-278 -293l278 -289l-96 -96l-274 289l-277 -291z" />
<glyph unicode="&#xd8;" d="M55 698q0 143 60 277t161 232.5t241 158t292 59.5q213 0 395 -114l139 178h158l-196 -252q119 -101 187.5 -243t68.5 -296q0 -143 -59 -274.5t-159.5 -228t-240 -154t-293.5 -57.5q-220 0 -401 110l-144 -182h-158l199 254q-118 102 -184 240t-66 292zM449 698 q0 -197 24 -317l617 784q-44 70 -112 98.5t-169 28.5q-78 0 -134 -16.5t-100.5 -56.5t-71 -108t-40.5 -169.5t-14 -243.5zM524 244q41 -71 111 -100t174 -29q92 0 156.5 27t111.5 92.5t69.5 180t22.5 283.5q0 199 -28 330z" />
<glyph unicode="&#xd9;" horiz-adv-x="1595" d="M49 1331v78h699v-78l-160 -53v-827q0 -183 69.5 -254.5t247.5 -71.5q168 0 235.5 80.5t67.5 271.5v801l-180 53v78h518v-78l-143 -53l-53 -862q-6 -106 -37 -184t-92 -135t-160 -85t-236 -28q-288 0 -449 129.5t-161 388.5v776zM522 1761q0 39 25 84q15 25 45.5 41.5 t66.5 16.5q84 0 146 -84l145 -197l82 -53l-53 -88l-82 53l-238 74q-70 22 -103.5 63t-33.5 90z" />
<glyph unicode="&#xda;" horiz-adv-x="1595" d="M49 1331v78h699v-78l-160 -53v-827q0 -183 69.5 -254.5t247.5 -71.5q168 0 235.5 80.5t67.5 271.5v801l-180 53v78h518v-78l-143 -53l-53 -862q-6 -106 -37 -184t-92 -135t-160 -85t-236 -28q-288 0 -449 129.5t-161 388.5v776zM684 1569l82 53l145 197q59 84 144 84 q36 0 67.5 -16.5t46.5 -41.5q25 -45 25 -84q0 -49 -33.5 -90t-103.5 -63l-238 -74l-82 -53z" />
<glyph unicode="&#xdb;" horiz-adv-x="1595" d="M49 1331v78h699v-78l-160 -53v-827q0 -183 69.5 -254.5t247.5 -71.5q168 0 235.5 80.5t67.5 271.5v801l-180 53v78h518v-78l-143 -53l-53 -862q-6 -106 -37 -184t-92 -135t-160 -85t-236 -28q-288 0 -449 129.5t-161 388.5v776zM561 1554q69 65 119 130t71 106.5t39 75.5 t37 49.5t50 15.5t50.5 -15.5t37.5 -49.5t40 -75.5t72 -106.5t119 -130l-43 -65l-274 156l-275 -156z" />
<glyph unicode="&#xdc;" horiz-adv-x="1595" d="M49 1331v78h699v-78l-160 -53v-827q0 -183 69.5 -254.5t247.5 -71.5q168 0 235.5 80.5t67.5 271.5v801l-180 53v78h518v-78l-143 -53l-53 -862q-6 -106 -37 -184t-92 -135t-160 -85t-236 -28q-288 0 -449 129.5t-161 388.5v776zM461 1681q0 63 49 112.5t117 49.5 t118 -49.5t50 -112.5t-50 -112t-118 -49t-117 49t-49 112zM922 1681q0 63 50 112.5t118 49.5t116.5 -49.5t48.5 -112.5t-48.5 -112t-116.5 -49t-118 49t-50 112z" />
<glyph unicode="&#xdd;" horiz-adv-x="1548" d="M16 1331v78h715v-78l-172 -57l334 -590l297 594l-184 53v78h526v-78l-154 -53l-411 -698v-449l192 -53v-78h-758v78l193 53v420l-438 723zM666 1569l82 53l145 197q59 84 143 84q36 0 68 -16.5t47 -41.5q25 -45 25 -84q0 -48 -33.5 -89.5t-104.5 -63.5l-237 -74l-82 -53z " />
<glyph unicode="&#xde;" horiz-adv-x="1382" d="M49 0v78l168 53v1147l-168 53v78h721v-78l-180 -53v-127h160q286 0 446 -114.5t160 -325.5q0 -136 -63 -237t-170.5 -152.5t-245.5 -51.5q-114 0 -226 33l-61 14v-186l180 -53v-78h-721zM590 416l106 -6q25 -2 70 -2q128 0 168.5 62.5t40.5 240.5q0 100 -11 158.5 t-41.5 94t-77 47t-126.5 11.5h-129v-606z" />
<glyph unicode="&#xdf;" horiz-adv-x="1413" d="M27 842v76l161 67q1 123 32 222t82 163.5t121 108t146 62t160 18.5q83 0 159 -20.5t139 -60t100.5 -107t37.5 -154.5q0 -116 -85 -193t-210 -106v-5q107 -20 196.5 -62t158.5 -104t108 -148.5t39 -188.5q0 -194 -114 -310t-316 -116q-172 0 -266 70.5t-94 178.5 q0 72 45.5 119t107.5 47q57 0 99.5 -40t42.5 -95q0 -131 -129 -151v-4q34 -15 81 -15q215 0 215 262q0 96 -17 171.5t-57.5 143t-114.5 114t-181 67.5v104q113 23 170 79t57 165q0 250 -196 250q-105 0 -157 -74t-52 -211v-1165h-447v113h139v729h-161z" />
<glyph unicode="&#xe0;" horiz-adv-x="1077" d="M49 219q0 132 95.5 203.5t308.5 107.5l174 31v152q0 104 -53.5 142t-174.5 38q-87 0 -145 -16v-5q57 -11 85 -49.5t28 -89.5q0 -54 -40 -90.5t-100 -36.5q-66 0 -106.5 44.5t-40.5 113.5q0 66 41 118.5t106.5 82.5t138 45.5t144.5 15.5q107 0 182.5 -22.5t131.5 -75.5 t83 -144t27 -223v-344q0 -45 22.5 -58.5t108.5 -21.5v-82q-34 -20 -59 -32t-69 -23.5t-91 -11.5q-102 0 -160.5 53t-58.5 149q-49 -85 -135 -145.5t-185 -60.5q-112 0 -185 64.5t-73 170.5zM215 1384q0 39 25 84q15 25 45.5 41.5t66.5 16.5q84 0 146 -84l145 -197l82 -53 l-53 -88l-82 53l-238 74q-70 22 -103.5 63t-33.5 90zM356 272q0 -108 99 -108q98 0 172 96v229l-131 -47q-79 -29 -109.5 -66.5t-30.5 -103.5z" />
<glyph unicode="&#xe1;" horiz-adv-x="1077" d="M49 219q0 132 95.5 203.5t308.5 107.5l174 31v152q0 104 -53.5 142t-174.5 38q-87 0 -145 -16v-5q57 -11 85 -49.5t28 -89.5q0 -54 -40 -90.5t-100 -36.5q-66 0 -106.5 44.5t-40.5 113.5q0 66 41 118.5t106.5 82.5t138 45.5t144.5 15.5q107 0 182.5 -22.5t131.5 -75.5 t83 -144t27 -223v-344q0 -45 22.5 -58.5t108.5 -21.5v-82q-34 -20 -59 -32t-69 -23.5t-91 -11.5q-102 0 -160.5 53t-58.5 149q-49 -85 -135 -145.5t-185 -60.5q-112 0 -185 64.5t-73 170.5zM313 1192l82 53l146 197q59 84 143 84q36 0 68 -16.5t47 -41.5q24 -43 24 -84 q0 -49 -33.5 -90t-103.5 -63l-237 -74l-82 -53zM356 272q0 -108 99 -108q98 0 172 96v229l-131 -47q-79 -29 -109.5 -66.5t-30.5 -103.5z" />
<glyph unicode="&#xe2;" horiz-adv-x="1077" d="M49 219q0 132 95.5 203.5t308.5 107.5l174 31v152q0 104 -53.5 142t-174.5 38q-87 0 -145 -16v-5q57 -11 85 -49.5t28 -89.5q0 -54 -40 -90.5t-100 -36.5q-66 0 -106.5 44.5t-40.5 113.5q0 66 41 118.5t106.5 82.5t138 45.5t144.5 15.5q107 0 182.5 -22.5t131.5 -75.5 t83 -144t27 -223v-344q0 -45 22.5 -58.5t108.5 -21.5v-82q-34 -20 -59 -32t-69 -23.5t-91 -11.5q-102 0 -160.5 53t-58.5 149q-49 -85 -135 -145.5t-185 -60.5q-112 0 -185 64.5t-73 170.5zM211 1178q69 65 118.5 130t71 106.5t39 75t36.5 49t50 15.5t50.5 -15.5t38 -49.5 t40.5 -75t72 -106t119 -130l-43 -66l-275 156l-274 -156zM356 272q0 -108 99 -108q98 0 172 96v229l-131 -47q-79 -29 -109.5 -66.5t-30.5 -103.5z" />
<glyph unicode="&#xe3;" horiz-adv-x="1077" d="M49 219q0 132 95.5 203.5t308.5 107.5l174 31v152q0 104 -53.5 142t-174.5 38q-87 0 -145 -16v-5q57 -11 85 -49.5t28 -89.5q0 -54 -40 -90.5t-100 -36.5q-66 0 -106.5 44.5t-40.5 113.5q0 66 41 118.5t106.5 82.5t138 45.5t144.5 15.5q107 0 182.5 -22.5t131.5 -75.5 t83 -144t27 -223v-344q0 -45 22.5 -58.5t108.5 -21.5v-82q-34 -20 -59 -32t-69 -23.5t-91 -11.5q-102 0 -160.5 53t-58.5 149q-49 -85 -135 -145.5t-185 -60.5q-112 0 -185 64.5t-73 170.5zM147 1167q65 144 135.5 219.5t161.5 75.5q54 0 113 -26l125 -56q17 -8 31.5 -9 t28.5 7.5t26 19.5t29 32l47 57l65 -41q-65 -144 -135.5 -219.5t-161.5 -75.5q-50 0 -112 27l-125 55q-17 8 -31.5 9t-28.5 -7t-26 -19.5t-29 -31.5l-47 -56zM356 272q0 -108 99 -108q98 0 172 96v229l-131 -47q-79 -29 -109.5 -66.5t-30.5 -103.5z" />
<glyph unicode="&#xe4;" horiz-adv-x="1077" d="M49 219q0 132 95.5 203.5t308.5 107.5l174 31v152q0 104 -53.5 142t-174.5 38q-87 0 -145 -16v-5q57 -11 85 -49.5t28 -89.5q0 -54 -40 -90.5t-100 -36.5q-66 0 -106.5 44.5t-40.5 113.5q0 66 41 118.5t106.5 82.5t138 45.5t144.5 15.5q107 0 182.5 -22.5t131.5 -75.5 t83 -144t27 -223v-344q0 -45 22.5 -58.5t108.5 -21.5v-82q-34 -20 -59 -32t-69 -23.5t-91 -11.5q-102 0 -160.5 53t-58.5 149q-49 -85 -135 -145.5t-185 -60.5q-112 0 -185 64.5t-73 170.5zM125 1305q0 63 49 112t117 49t118 -49t50 -112t-50 -112.5t-118 -49.5t-117 49.5 t-49 112.5zM356 272q0 -108 99 -108q98 0 172 96v229l-131 -47q-79 -29 -109.5 -66.5t-30.5 -103.5zM586 1305q0 63 50 112t118 49t117 -49t49 -112t-49 -112.5t-117 -49.5t-118 49.5t-50 112.5z" />
<glyph unicode="&#xe5;" horiz-adv-x="1077" d="M49 219q0 132 95.5 203.5t308.5 107.5l174 31v152q0 104 -53.5 142t-174.5 38q-87 0 -145 -16v-5q57 -11 85 -49.5t28 -89.5q0 -54 -40 -90.5t-100 -36.5q-66 0 -106.5 44.5t-40.5 113.5q0 66 41 118.5t106.5 82.5t138 45.5t144.5 15.5q107 0 182.5 -22.5t131.5 -75.5 t83 -144t27 -223v-344q0 -45 22.5 -58.5t108.5 -21.5v-82q-34 -20 -59 -32t-69 -23.5t-91 -11.5q-102 0 -160.5 53t-58.5 149q-49 -85 -135 -145.5t-185 -60.5q-112 0 -185 64.5t-73 170.5zM283 1346q0 95 72.5 164t170.5 69q99 0 171.5 -69t72.5 -164q0 -94 -73 -163 t-171 -69t-170.5 69t-72.5 163zM356 272q0 -108 99 -108q98 0 172 96v229l-131 -47q-79 -29 -109.5 -66.5t-30.5 -103.5zM416 1346q0 -59 30.5 -92t79.5 -33t80 33.5t31 91.5q0 59 -31 93t-80 34q-48 0 -79 -34t-31 -93z" />
<glyph unicode="&#xe6;" horiz-adv-x="1599" d="M49 221q0 131 94 201.5t310 107.5l174 31v152q0 104 -53.5 142t-174.5 38q-87 0 -145 -16v-5q57 -11 85 -49.5t28 -89.5q0 -54 -40 -90.5t-100 -36.5q-66 0 -106.5 44.5t-40.5 113.5q0 66 41 118.5t106.5 82.5t138 45.5t144.5 15.5q221 0 311 -123q120 123 303 123 q197 0 317.5 -127.5t127.5 -378.5h-621v-4q0 -147 24 -224t78 -108.5t156 -31.5q130 0 279 55l39 -72q-181 -151 -406 -151q-165 0 -275.5 64.5t-164.5 180.5q-55 -100 -147.5 -172.5t-208.5 -72.5q-123 0 -198 64t-75 173zM356 272q0 -108 105 -108q57 0 102.5 30t91.5 93 q-28 95 -28 202l-131 -47q-79 -29 -109.5 -66.5t-30.5 -103.5zM950 637h310q-7 158 -37 217t-101 59q-30 0 -52 -5.5t-43.5 -22.5t-36 -47t-25 -80.5t-15.5 -120.5z" />
<glyph unicode="&#xe7;" horiz-adv-x="985" d="M35 500q0 102 37.5 196t105.5 168t172.5 118t229.5 44q166 0 266 -72t100 -200q0 -63 -42.5 -111.5t-112.5 -48.5q-62 0 -106 40.5t-44 98.5q0 54 33 97.5t84 58.5v4q-58 16 -135 16q-63 0 -105 -15.5t-75.5 -56.5t-49.5 -117t-16 -192q0 -95 13 -164t34.5 -110.5 t56.5 -65.5t72.5 -32.5t89.5 -8.5q109 0 250 50l39 -72q-171 -141 -369 -141l-80 -93q213 -43 213 -190q0 -84 -68 -130t-184 -46q-73 0 -138.5 20t-102.5 47l26 54q85 -29 148 -29q123 0 123 66t-146 75l-20 29l112 207q-102 17 -182 66t-129 119t-74.5 151.5t-25.5 169.5z " />
<glyph unicode="&#xe8;" horiz-adv-x="1017" d="M35 492q0 229 143 381.5t365 152.5q195 0 315 -127.5t129 -378.5h-620v-4q0 -146 24 -223.5t77.5 -109t154.5 -31.5q133 0 278 55l39 -72q-77 -65 -183 -108t-229 -43q-163 0 -276 68t-165 180.5t-52 259.5zM221 1384q0 39 25 84q15 25 45.5 41.5t66.5 16.5q84 0 146 -84 l145 -197l82 -53l-53 -88l-82 53l-238 74q-70 22 -103.5 63t-33.5 90zM369 637h309q-7 157 -37.5 216.5t-101.5 59.5q-30 0 -51 -5.5t-42.5 -22.5t-36 -47t-25 -80.5t-15.5 -120.5z" />
<glyph unicode="&#xe9;" horiz-adv-x="1017" d="M35 492q0 229 143 381.5t365 152.5q195 0 315 -127.5t129 -378.5h-620v-4q0 -146 24 -223.5t77.5 -109t154.5 -31.5q133 0 278 55l39 -72q-77 -65 -183 -108t-229 -43q-163 0 -276 68t-165 180.5t-52 259.5zM307 1192l82 53l146 197q59 84 143 84q36 0 68 -16.5t47 -41.5 q24 -43 24 -84q0 -49 -33.5 -90t-103.5 -63l-238 -74l-82 -53zM369 637h309q-7 157 -37.5 216.5t-101.5 59.5q-30 0 -51 -5.5t-42.5 -22.5t-36 -47t-25 -80.5t-15.5 -120.5z" />
<glyph unicode="&#xea;" horiz-adv-x="1017" d="M35 492q0 229 143 381.5t365 152.5q195 0 315 -127.5t129 -378.5h-620v-4q0 -146 24 -223.5t77.5 -109t154.5 -31.5q133 0 278 55l39 -72q-77 -65 -183 -108t-229 -43q-163 0 -276 68t-165 180.5t-52 259.5zM213 1178q69 65 118.5 130t71 106.5t39 75t36.5 49t50 15.5 t50.5 -15.5t38 -49.5t40.5 -75t72 -106t119 -130l-43 -66l-275 156l-274 -156zM369 637h309q-7 157 -37.5 216.5t-101.5 59.5q-30 0 -51 -5.5t-42.5 -22.5t-36 -47t-25 -80.5t-15.5 -120.5z" />
<glyph unicode="&#xeb;" horiz-adv-x="1017" d="M35 492q0 229 143 381.5t365 152.5q195 0 315 -127.5t129 -378.5h-620v-4q0 -146 24 -223.5t77.5 -109t154.5 -31.5q133 0 278 55l39 -72q-77 -65 -183 -108t-229 -43q-163 0 -276 68t-165 180.5t-52 259.5zM127 1305q0 63 49 112t117 49t118 -49t50 -112t-50 -112.5 t-118 -49.5t-117 49.5t-49 112.5zM369 637h309q-7 157 -37.5 216.5t-101.5 59.5q-30 0 -51 -5.5t-42.5 -22.5t-36 -47t-25 -80.5t-15.5 -120.5zM588 1305q0 63 50 112t118 49t117 -49t49 -112t-49 -112.5t-117 -49.5t-118 49.5t-50 112.5z" />
<glyph unicode="&#xec;" horiz-adv-x="645" d="M8 1384q0 39 25 84q15 25 45.5 41.5t66.5 16.5q84 0 146 -84l145 -197l82 -53l-53 -88l-82 53l-238 74q-70 22 -103.5 63t-33.5 90zM35 815v45l397 154h72v-901h131v-113h-580v113h144v616z" />
<glyph unicode="&#xed;" horiz-adv-x="645" d="M16 815v45l398 154h71v-901h131v-113h-579v113h143v616zM143 1192l82 53l146 197q59 84 143 84q36 0 68 -16.5t47 -41.5q24 -43 24 -84q0 -49 -33.5 -90t-103.5 -63l-237 -74l-82 -53z" />
<glyph unicode="&#xee;" horiz-adv-x="645" d="M16 815v45l398 154h71v-901h131v-113h-579v113h143v616zM25 1178q69 65 118.5 130t71 106.5t39 75t36.5 49t50 15.5t50.5 -15.5t37.5 -49.5t40 -75t72 -106t119 -130l-43 -66l-274 156l-274 -156z" />
<glyph unicode="&#xef;" horiz-adv-x="645" d="M-66 1305q0 63 49 112t117 49t118 -49t50 -112t-50 -112.5t-118 -49.5t-117 49.5t-49 112.5zM16 815v45l398 154h71v-901h131v-113h-579v113h143v616zM395 1305q0 63 50 112t118 49t117 -49t49 -112t-49 -112.5t-117 -49.5t-118 49.5t-50 112.5z" />
<glyph unicode="&#xf0;" horiz-adv-x="1142" d="M33 500q0 98 36 190t99 164.5t158 116t204 43.5q69 0 127 -25q-59 104 -149 197l-225 -103l-56 113l181 80q-88 71 -199 137l53 100q196 -72 334 -153l250 110l51 -110l-180 -80q393 -289 393 -711q0 -262 -150.5 -423.5t-388.5 -161.5q-115 0 -216.5 44t-171 116.5 t-110 165.5t-40.5 190zM375 500q0 -100 9 -172t24.5 -116.5t41 -70t53.5 -34.5t68 -9q49 0 82.5 15.5t61 57.5t40.5 123.5t13 205.5q0 101 -9.5 173.5t-25.5 116t-42 68t-53.5 33t-66.5 8.5t-67 -8.5t-54 -33.5t-41.5 -68.5t-24.5 -115.5t-9 -173z" />
<glyph unicode="&#xf1;" horiz-adv-x="1257" d="M16 815v45l377 154h70l-31 -248l4 -2q86 125 178 193.5t205 68.5q132 0 210.5 -90.5t78.5 -245.5v-577h113v-113h-519v113h99v589q0 61 -24.5 84t-82.5 23q-116 0 -217 -82v-614h96v-113h-536v113h133v614zM248 1167q65 144 135.5 219.5t161.5 75.5q53 0 112 -26l125 -56 q17 -8 31.5 -9t28.5 7.5t26 19.5t29 32l47 57l66 -41q-65 -144 -135.5 -219.5t-161.5 -75.5q-51 0 -113 27l-125 55q-17 8 -31.5 9t-28.5 -7t-26 -19.5t-29 -31.5l-47 -56z" />
<glyph unicode="&#xf2;" horiz-adv-x="1146" d="M35 506q0 99 40.5 193t110 166.5t171 116.5t216.5 44q152 0 277.5 -75t193.5 -194t68 -251t-68 -251.5t-193.5 -195t-277.5 -75.5q-115 0 -216.5 44.5t-171 117.5t-110 167t-40.5 193zM268 1384q0 39 25 84q15 25 46 41.5t67 16.5q83 0 145 -84l145 -197l82 -53l-53 -88 l-82 53l-237 74q-71 22 -104.5 63.5t-33.5 89.5zM377 506q0 -125 12.5 -207t39.5 -125t60.5 -59.5t83.5 -16.5t83.5 16.5t60.5 59.5t40 125t13 207q0 126 -13 208t-40.5 124t-61 57.5t-82.5 15.5q-39 0 -67 -9t-54 -35t-41.5 -70.5t-24.5 -117t-9 -173.5z" />
<glyph unicode="&#xf3;" horiz-adv-x="1146" d="M35 506q0 99 40.5 193t110 166.5t171 116.5t216.5 44q152 0 277.5 -75t193.5 -194t68 -251t-68 -251.5t-193.5 -195t-277.5 -75.5q-115 0 -216.5 44.5t-171 117.5t-110 167t-40.5 193zM373 1192l82 53l145 197q59 84 143 84q36 0 68 -16.5t47 -41.5q25 -45 25 -84 q0 -48 -33.5 -89.5t-104.5 -63.5l-237 -74l-82 -53zM377 506q0 -125 12.5 -207t39.5 -125t60.5 -59.5t83.5 -16.5t83.5 16.5t60.5 59.5t40 125t13 207q0 126 -13 208t-40.5 124t-61 57.5t-82.5 15.5q-39 0 -67 -9t-54 -35t-41.5 -70.5t-24.5 -117t-9 -173.5z" />
<glyph unicode="&#xf4;" horiz-adv-x="1146" d="M35 506q0 99 40.5 193t110 166.5t171 116.5t216.5 44q152 0 277.5 -75t193.5 -194t68 -251t-68 -251.5t-193.5 -195t-277.5 -75.5q-115 0 -216.5 44.5t-171 117.5t-110 167t-40.5 193zM254 1178q69 65 118.5 130t71 106.5t39 75t36.5 49t50 15.5t50.5 -15.5t38 -49.5 t40.5 -75t72 -106t119 -130l-43 -66l-275 156l-274 -156zM377 506q0 -125 12.5 -207t39.5 -125t60.5 -59.5t83.5 -16.5t83.5 16.5t60.5 59.5t40 125t13 207q0 126 -13 208t-40.5 124t-61 57.5t-82.5 15.5q-39 0 -67 -9t-54 -35t-41.5 -70.5t-24.5 -117t-9 -173.5z" />
<glyph unicode="&#xf5;" horiz-adv-x="1146" d="M35 506q0 99 40.5 193t110 166.5t171 116.5t216.5 44q152 0 277.5 -75t193.5 -194t68 -251t-68 -251.5t-193.5 -195t-277.5 -75.5q-115 0 -216.5 44.5t-171 117.5t-110 167t-40.5 193zM190 1167q65 144 135.5 219.5t161.5 75.5q54 0 113 -26l125 -56q17 -8 31.5 -9 t28.5 7.5t26 19.5t29 32l47 57l65 -41q-65 -144 -135.5 -219.5t-161.5 -75.5q-51 0 -112 27l-125 55q-17 8 -31.5 9t-28.5 -7t-26 -19.5t-29 -31.5l-47 -56zM377 506q0 -125 12.5 -207t39.5 -125t60.5 -59.5t83.5 -16.5t83.5 16.5t60.5 59.5t40 125t13 207q0 126 -13 208 t-40.5 124t-61 57.5t-82.5 15.5q-39 0 -67 -9t-54 -35t-41.5 -70.5t-24.5 -117t-9 -173.5z" />
<glyph unicode="&#xf6;" horiz-adv-x="1146" d="M35 506q0 99 40.5 193t110 166.5t171 116.5t216.5 44q152 0 277.5 -75t193.5 -194t68 -251t-68 -251.5t-193.5 -195t-277.5 -75.5q-115 0 -216.5 44.5t-171 117.5t-110 167t-40.5 193zM174 1305q0 63 49 112t117 49t118 -49t50 -112t-50 -112.5t-118 -49.5t-117 49.5 t-49 112.5zM377 506q0 -125 12.5 -207t39.5 -125t60.5 -59.5t83.5 -16.5t83.5 16.5t60.5 59.5t40 125t13 207q0 126 -13 208t-40.5 124t-61 57.5t-82.5 15.5q-39 0 -67 -9t-54 -35t-41.5 -70.5t-24.5 -117t-9 -173.5zM635 1305q0 63 50 112t118 49t117 -49t49 -112 t-49 -112.5t-117 -49.5t-118 49.5t-50 112.5z" />
<glyph unicode="&#xf7;" horiz-adv-x="985" d="M90 563v137h805v-137h-805zM319 281q0 66 51.5 117t118.5 51q68 0 120.5 -51t52.5 -117t-52.5 -116t-120.5 -50t-119 50t-51 116zM319 979q0 66 51.5 117t118.5 51q68 0 120.5 -51t52.5 -117t-52.5 -115t-120.5 -49t-119 49t-51 115z" />
<glyph unicode="&#xf8;" horiz-adv-x="1146" d="M35 506q0 99 40.5 193t110 166.5t171 116.5t216.5 44q134 0 267 -70l108 144h139l-155 -209q85 -73 132.5 -175.5t47.5 -209.5q0 -132 -68 -251.5t-193.5 -195t-277.5 -75.5q-144 0 -266 69l-108 -143h-140l156 207q-85 75 -132.5 177.5t-47.5 211.5zM371 506 q0 -110 10 -166l352 473q-25 55 -64 77.5t-96 22.5q-39 0 -68 -9.5t-55.5 -35.5t-43 -70.5t-26 -118t-9.5 -173.5zM412 197q25 -56 64 -78.5t97 -22.5q39 0 68.5 10t56 36.5t43 72t26 118.5t9.5 173q0 90 -10 162z" />
<glyph unicode="&#xf9;" horiz-adv-x="1255" d="M16 881v112h441v-702q0 -60 23.5 -83.5t80.5 -23.5q60 0 109.5 24t109.5 75v598h-139v112h446v-743l152 -55v-66l-371 -141h-69l26 256l-4 2q-85 -125 -178.5 -193.5t-206.5 -68.5q-132 0 -209 90t-77 245v562h-134zM301 1384q0 39 25 84q15 25 45.5 41.5t66.5 16.5 q84 0 146 -84l145 -197l82 -53l-53 -88l-82 53l-238 74q-70 22 -103.5 63t-33.5 90z" />
<glyph unicode="&#xfa;" horiz-adv-x="1255" d="M16 881v112h441v-702q0 -60 23.5 -83.5t80.5 -23.5q60 0 109.5 24t109.5 75v598h-139v112h446v-743l152 -55v-66l-371 -141h-69l26 256l-4 2q-85 -125 -178.5 -193.5t-206.5 -68.5q-132 0 -209 90t-77 245v562h-134zM434 1192l82 53l146 197q59 84 143 84q36 0 68 -16.5 t47 -41.5q24 -43 24 -84q0 -49 -33.5 -90t-103.5 -63l-238 -74l-82 -53z" />
<glyph unicode="&#xfb;" horiz-adv-x="1255" d="M16 881v112h441v-702q0 -60 23.5 -83.5t80.5 -23.5q60 0 109.5 24t109.5 75v598h-139v112h446v-743l152 -55v-66l-371 -141h-69l26 256l-4 2q-85 -125 -178.5 -193.5t-206.5 -68.5q-132 0 -209 90t-77 245v562h-134zM287 1178q69 65 118.5 130t71 106.5t39 75t36.5 49 t50 15.5t50.5 -15.5t38 -49.5t40.5 -75t72 -106t119 -130l-43 -66l-275 156l-274 -156z" />
<glyph unicode="&#xfc;" horiz-adv-x="1255" d="M16 881v112h441v-702q0 -60 23.5 -83.5t80.5 -23.5q60 0 109.5 24t109.5 75v598h-139v112h446v-743l152 -55v-66l-371 -141h-69l26 256l-4 2q-85 -125 -178.5 -193.5t-206.5 -68.5q-132 0 -209 90t-77 245v562h-134zM195 1305q0 63 48.5 112t116.5 49t118 -49t50 -112 t-50 -112.5t-118 -49.5t-116.5 49.5t-48.5 112.5zM655 1305q0 63 50 112t118 49t117 -49t49 -112t-49 -112.5t-117 -49.5t-118 49.5t-50 112.5z" />
<glyph unicode="&#xfd;" horiz-adv-x="1161" d="M8 881v112h582v-112h-133l221 -617l207 617h-115v112h383v-112h-88l-422 -975q-70 -159 -151 -226t-187 -67q-94 0 -152.5 51.5t-58.5 130.5q0 62 38.5 103t96.5 41q55 0 90 -34.5t35 -88.5q0 -69 -47 -99l2 -4q60 2 115 60t94 166l23 61h-43l-392 881h-98zM461 1192 l82 53l145 197q59 84 143 84q36 0 68 -16.5t47 -41.5q25 -45 25 -84q0 -49 -33.5 -90t-103.5 -63l-238 -74l-82 -53z" />
<glyph unicode="&#xfe;" horiz-adv-x="1228" d="M-4 1303v45l393 153h72v-459l-51 -284l4 -2q165 270 385 270q77 0 147.5 -35t125 -99t87.5 -163t33 -217q0 -103 -25.5 -190t-69.5 -148.5t-103.5 -104.5t-128 -64t-142.5 -21q-155 0 -262 110v-350h176v-113h-617v113h134v1470zM461 174q83 -59 176 -59q105 0 154 49 q59 64 59 348q0 236 -55 291q-35 37 -119 37q-36 0 -65.5 -8t-57.5 -27t-44.5 -34t-47.5 -46v-551z" />
<glyph unicode="&#xff;" horiz-adv-x="1161" d="M8 881v112h582v-112h-133l221 -617l207 617h-115v112h383v-112h-88l-422 -975q-70 -159 -151 -226t-187 -67q-94 0 -152.5 51.5t-58.5 130.5q0 62 38.5 103t96.5 41q55 0 90 -34.5t35 -88.5q0 -69 -47 -99l2 -4q60 2 115 60t94 166l23 61h-43l-392 881h-98zM248 1305 q0 63 49 112t117 49t118 -49t50 -112t-50 -112.5t-118 -49.5t-117 49.5t-49 112.5zM709 1305q0 63 50 112t118 49t116.5 -49t48.5 -112t-48.5 -112.5t-116.5 -49.5t-118 49.5t-50 112.5z" />
<glyph unicode="&#x152;" horiz-adv-x="2308" d="M55 698q0 144 58 277.5t155.5 232t234 158t285.5 59.5q74 0 152 -16h1206l37 -469l-55 -10l-215 332l-748 57q147 -89 243 -233t116 -312l182 17l88 219h74v-561h-74l-88 202l-180 15q-7 -175 -99 -327t-243 -245l792 53l234 398l71 -10l-49 -535h-1286q-82 -16 -158 -16 q-153 0 -289.5 57.5t-233.5 154t-153.5 228t-56.5 274.5zM453 698q0 -227 36.5 -355t107 -178t191.5 -50q88 0 149.5 27t107 92.5t67 180t21.5 283.5q0 178 -20 294t-64.5 182t-106 92t-154.5 26q-94 0 -155 -26t-103 -93.5t-59.5 -182t-17.5 -292.5z" />
<glyph unicode="&#x153;" horiz-adv-x="1761" d="M35 506q0 99 40.5 193t110 166.5t171 116.5t216.5 44q114 0 206.5 -47t156.5 -129q124 176 350 176q197 0 317.5 -127.5t127.5 -378.5h-621v-4q0 -147 24 -224t78 -108.5t156 -31.5q130 0 279 55l39 -72q-181 -151 -406 -151q-245 0 -356 159q-63 -75 -153 -117t-198 -42 q-115 0 -216.5 44.5t-171 117.5t-110 167t-40.5 193zM377 506q0 -125 12.5 -207t39.5 -125t60.5 -59.5t83.5 -16.5t83.5 16.5t60.5 59.5t40 125t13 207q0 126 -13 208t-40.5 124t-61 57.5t-82.5 15.5q-39 0 -67 -9t-54 -35t-41.5 -70.5t-24.5 -117t-9 -173.5zM1112 637h309 q-7 158 -36.5 217t-100.5 59q-30 0 -52 -5.5t-43.5 -22.5t-36 -47t-25 -80.5t-15.5 -120.5z" />
<glyph unicode="&#x178;" horiz-adv-x="1548" d="M16 1331v78h715v-78l-172 -57l334 -590l297 594l-184 53v78h526v-78l-154 -53l-411 -698v-449l192 -53v-78h-758v78l193 53v420l-438 723zM463 1681q0 63 49 112.5t117 49.5t118 -49.5t50 -112.5t-50 -112t-118 -49t-117 49t-49 112zM924 1681q0 63 50 112.5t118 49.5 t116.5 -49.5t48.5 -112.5t-48.5 -112t-116.5 -49t-118 49t-50 112z" />
<glyph unicode="&#x2c6;" horiz-adv-x="1024" d="M195 1178q69 65 118.5 130t71 106.5t39 75t36.5 49t50 15.5t50.5 -15.5t37.5 -49.5t40 -75t72 -106t119 -130l-43 -66l-274 156l-274 -156z" />
<glyph unicode="&#x2dc;" horiz-adv-x="1024" d="M131 1167q65 144 135.5 219.5t161.5 75.5q54 0 113 -26l125 -56q17 -8 31.5 -9t28.5 7.5t25.5 19.5t28.5 32l47 57l66 -41q-65 -144 -135.5 -219.5t-161.5 -75.5q-52 0 -113 27l-125 55q-17 8 -31.5 9t-28.5 -7t-25.5 -19t-28.5 -32l-47 -56z" />
<glyph unicode="&#x2000;" horiz-adv-x="965" />
<glyph unicode="&#x2001;" horiz-adv-x="1931" />
<glyph unicode="&#x2002;" horiz-adv-x="965" />
<glyph unicode="&#x2003;" horiz-adv-x="1931" />
<glyph unicode="&#x2004;" horiz-adv-x="643" />
<glyph unicode="&#x2005;" horiz-adv-x="482" />
<glyph unicode="&#x2006;" horiz-adv-x="321" />
<glyph unicode="&#x2007;" horiz-adv-x="321" />
<glyph unicode="&#x2008;" horiz-adv-x="241" />
<glyph unicode="&#x2009;" horiz-adv-x="386" />
<glyph unicode="&#x200a;" horiz-adv-x="107" />
<glyph unicode="&#x2010;" horiz-adv-x="702" d="M102 455v254h498v-254h-498z" />
<glyph unicode="&#x2011;" horiz-adv-x="702" d="M102 455v254h498v-254h-498z" />
<glyph unicode="&#x2012;" horiz-adv-x="702" d="M102 455v254h498v-254h-498z" />
<glyph unicode="&#x2013;" horiz-adv-x="1095" d="M102 475v197h891v-197h-891z" />
<glyph unicode="&#x2014;" horiz-adv-x="1800" d="M102 475v197h1596v-197h-1596z" />
<glyph unicode="&#x2018;" horiz-adv-x="495" d="M70 1077q0 114 91 220t245 159l28 -51q-148 -103 -160 -209l2 -4q21 -1 44.5 -10t48.5 -27t41 -52t16 -77q0 -68 -50 -115t-118 -47q-75 0 -131.5 55t-56.5 158z" />
<glyph unicode="&#x2019;" horiz-adv-x="495" d="M59 881q148 103 160 209l-2 4q-21 1 -44 10t-47.5 27t-40 52t-15.5 77q0 68 49 114.5t117 46.5q75 0 132.5 -55t57.5 -158q0 -114 -91.5 -220t-246.5 -159z" />
<glyph unicode="&#x201a;" horiz-adv-x="495" d="M59 -209q71 44 112.5 98t47.5 109l-2 4q-21 1 -44 10t-47.5 27t-40 52t-15.5 77q0 68 49 115t117 47q75 0 132.5 -55t57.5 -156q0 -117 -89.5 -222t-248.5 -159z" />
<glyph unicode="&#x201c;" horiz-adv-x="958" d="M70 1077q0 115 89 221t247 158l28 -51q-147 -96 -160 -209l2 -4q21 -1 44.5 -10t48.5 -27t41 -52t16 -77q0 -68 -50 -115t-118 -47q-75 0 -131.5 55t-56.5 158zM535 1077q0 116 88.5 221.5t246.5 157.5l29 -51q-147 -94 -160 -209l2 -4q21 -1 44.5 -10t47.5 -27t40 -52 t16 -77q0 -68 -49 -115t-117 -47q-75 0 -131.5 55t-56.5 158z" />
<glyph unicode="&#x201d;" horiz-adv-x="958" d="M59 881q147 94 160 209l-2 4q-21 1 -44 10t-47.5 27t-40 52t-15.5 77q0 68 49 114.5t117 46.5q75 0 132.5 -55t57.5 -158q0 -115 -90 -221t-248 -158zM524 881q147 94 160 209l-2 4q-21 1 -44 10t-47.5 27t-40 52t-15.5 77q0 68 48.5 114.5t116.5 46.5q75 0 132 -55 t57 -158q0 -115 -89 -221t-247 -158z" />
<glyph unicode="&#x201e;" horiz-adv-x="958" d="M59 -209q71 44 112.5 98t47.5 109l-2 4q-21 1 -44 10t-47.5 27t-40 52t-15.5 77q0 68 49 115t117 47q75 0 132.5 -55t57.5 -156q0 -117 -89.5 -222t-248.5 -159zM524 -209q71 44 112.5 98t47.5 109l-2 4q-21 1 -44 10t-47.5 27t-40 52t-15.5 77q0 68 48.5 115t116.5 47 q75 0 132 -55t57 -156q0 -117 -88.5 -222t-247.5 -159z" />
<glyph unicode="&#x2022;" horiz-adv-x="798" d="M80 606q0 133 97 227.5t222 94.5q127 0 223.5 -94.5t96.5 -227.5q0 -129 -96.5 -221t-223.5 -92q-125 0 -222 92.5t-97 220.5z" />
<glyph unicode="&#x2026;" horiz-adv-x="1605" d="M80 166q0 73 57 128.5t131 55.5t132.5 -55.5t58.5 -128.5t-58.5 -127.5t-132.5 -54.5t-131 54.5t-57 127.5zM612 166q0 73 57.5 128.5t131.5 55.5t132 -55.5t58 -128.5t-58 -127.5t-132 -54.5t-131.5 54.5t-57.5 127.5zM1145 166q0 73 57.5 128.5t130.5 55.5 q74 0 133.5 -55.5t59.5 -128.5t-59 -127.5t-134 -54.5q-73 0 -130.5 54.5t-57.5 127.5z" />
<glyph unicode="&#x202f;" horiz-adv-x="386" />
<glyph unicode="&#x2039;" horiz-adv-x="616" d="M59 438v94l426 349l78 -70l-207 -389l209 -283l-80 -71z" />
<glyph unicode="&#x203a;" horiz-adv-x="616" d="M51 809l80 72l426 -371v-94l-426 -348l-78 69l207 389z" />
<glyph unicode="&#x205f;" horiz-adv-x="482" />
<glyph unicode="&#x20ac;" horiz-adv-x="1333" d="M29 473v125h159q-6 50 -6 100q0 34 2 52h-155v124h176q28 111 88 210t144.5 175.5t197 121t237.5 44.5q187 0 301.5 -78.5t114.5 -211.5q0 -86 -47 -140.5t-119 -54.5q-65 0 -106 42t-41 103q0 68 43.5 111t118.5 47v4q-71 43 -217 43q-60 0 -106 -10.5t-89.5 -38 t-73.5 -73.5t-52 -119.5t-32 -174.5h355v-124h-361v-52q0 -69 2 -100h359v-125h-349q25 -200 101 -279t207 -79q109 0 184 46t145 132l80 -66q-37 -52 -72.5 -89.5t-90 -75.5t-130 -58t-168.5 -20q-115 0 -217 38.5t-178.5 106t-132.5 155t-86 189.5h-186z" />
<glyph unicode="&#x2122;" horiz-adv-x="1992" d="M41 1094l18 315h742l18 -315l-53 -15l-127 238l-90 16v-553l113 -26v-66h-463v66l112 26v553l-90 -16l-127 -238zM895 688v66l96 26v535l-96 31v63h365l157 -422l148 422h377v-63l-89 -31v-535l89 -26v-66h-402v66l78 26v473l-205 -536h-106l-222 536l33 -473l78 -26v-66 h-301z" />
<glyph unicode="&#xe000;" horiz-adv-x="993" d="M0 0v993h993v-993h-993z" />
<glyph unicode="&#xfb01;" horiz-adv-x="1288" d="M27 842v76l161 67v98q0 101 28.5 183.5t75.5 136t108.5 89.5t125.5 51.5t129 15.5q168 0 276.5 -70.5t108.5 -196.5q0 -75 -44 -121.5t-115 -46.5q-64 0 -109 43t-45 103q0 61 36.5 97t92.5 44v4q-67 23 -137 23q-108 0 -165.5 -49.5t-57.5 -163.5v-232h508l53 21h71 v-901h132v-113h-527v113h88v729h-325v-729h108v-113h-555v113h139v729h-161z" />
<glyph unicode="&#xfb02;" horiz-adv-x="1288" d="M27 842v76l161 67v127q0 95 28.5 173.5t74 128t104 83.5t115 48t111.5 14q198 0 282 -117l154 59h71v-1388h132v-113h-527v113h88v1044h-18q-57 0 -96 37t-39 90q0 57 32.5 92t92.5 41v4q-38 23 -113 23q-95 0 -139.5 -46.5t-44.5 -154.5v-250h186v-151h-186v-729h108 v-113h-555v113h139v729h-161z" />
</font>
</defs>
</svg>
