<?xml version="1.0" encoding="utf-8"?>
<!-- Generator: Adobe Illustrator 16.0.0, SVG Export Plug-In . SVG Version: 6.00 Build 0)  -->
<!DOCTYPE svg PUBLIC "-//W3C//DTD SVG 1.1//EN" "http://www.w3.org/Graphics/SVG/1.1/DTD/svg11.dtd">
<svg version="1.1" id="Layer_1" xmlns="http://www.w3.org/2000/svg" xmlns:xlink="http://www.w3.org/1999/xlink" x="0px" y="0px"
	 width="244px" height="500px" viewBox="0 0 244 500" enable-background="new 0 0 244 500" xml:space="preserve">
<rect x="2.5" y="185.5" fill="none" stroke="#009995" stroke-width="2" stroke-miterlimit="10" width="202" height="157.018"/>
<rect x="16.5" y="165.5" fill="#CBCBCB" width="138" height="41"/>
<g>
	<path fill="#1A1A1A" d="M26.172,229.434h0.65L23.617,238H23.09l-3.193-8.566h0.639l2.156,5.83c0.328,0.879,0.549,1.539,0.662,1.98
		c0.078-0.293,0.232-0.748,0.463-1.365L26.172,229.434z"/>
	<path fill="#1A1A1A" d="M27.807,229.861c0-0.375,0.123-0.563,0.369-0.563c0.121,0,0.216,0.049,0.284,0.146
		c0.068,0.097,0.103,0.236,0.103,0.416c0,0.176-0.034,0.314-0.103,0.416s-0.163,0.152-0.284,0.152
		C27.93,230.43,27.807,230.24,27.807,229.861z M28.469,238h-0.58v-6.369h0.58V238z"/>
	<path fill="#1A1A1A" d="M34.551,236.342c0,0.57-0.217,1.009-0.65,1.315c-0.433,0.306-1.049,0.46-1.846,0.46
		c-0.852,0-1.527-0.131-2.027-0.393v-0.627c0.641,0.32,1.316,0.48,2.027,0.48c0.629,0,1.106-0.104,1.433-0.313
		c0.327-0.209,0.489-0.487,0.489-0.835c0-0.32-0.13-0.59-0.39-0.809c-0.26-0.219-0.687-0.434-1.28-0.645
		c-0.637-0.23-1.084-0.429-1.342-0.595c-0.258-0.166-0.452-0.354-0.583-0.563c-0.131-0.209-0.196-0.464-0.196-0.765
		c0-0.477,0.2-0.854,0.601-1.131s0.96-0.416,1.679-0.416c0.688,0,1.34,0.129,1.957,0.387l-0.217,0.527
		c-0.625-0.258-1.205-0.387-1.74-0.387c-0.52,0-0.932,0.086-1.236,0.258s-0.457,0.41-0.457,0.715c0,0.332,0.118,0.598,0.354,0.797
		c0.236,0.199,0.698,0.422,1.386,0.668c0.574,0.207,0.992,0.394,1.254,0.56c0.262,0.166,0.458,0.354,0.589,0.565
		C34.487,235.806,34.551,236.057,34.551,236.342z"/>
	<path fill="#1A1A1A" d="M36.695,231.631v4.125c0,0.641,0.135,1.106,0.404,1.397s0.688,0.437,1.254,0.437
		c0.758,0,1.315-0.191,1.673-0.574c0.358-0.383,0.536-1.006,0.536-1.869v-3.516h0.574V238h-0.492l-0.105-0.879h-0.035
		c-0.414,0.664-1.15,0.996-2.209,0.996c-1.449,0-2.174-0.775-2.174-2.326v-4.16H36.695z"/>
	<path fill="#1A1A1A" d="M47.137,238l-0.146-1.008h-0.047c-0.32,0.41-0.649,0.7-0.987,0.87c-0.338,0.17-0.737,0.255-1.198,0.255
		c-0.625,0-1.111-0.16-1.459-0.48c-0.348-0.32-0.521-0.764-0.521-1.33c0-0.621,0.259-1.104,0.776-1.447
		c0.517-0.343,1.267-0.525,2.247-0.545l1.213-0.035v-0.422c0-0.605-0.123-1.063-0.369-1.371c-0.246-0.308-0.643-0.463-1.189-0.463
		c-0.59,0-1.201,0.164-1.834,0.492l-0.217-0.504c0.699-0.328,1.391-0.492,2.074-0.492c0.699,0,1.222,0.182,1.567,0.545
		c0.345,0.363,0.519,0.93,0.519,1.699V238H47.137z M44.793,237.59c0.68,0,1.216-0.194,1.608-0.583
		c0.392-0.389,0.589-0.929,0.589-1.62v-0.627l-1.113,0.047c-0.895,0.043-1.532,0.183-1.913,0.419
		c-0.381,0.236-0.571,0.604-0.571,1.104c0,0.398,0.122,0.708,0.366,0.929C44.003,237.48,44.348,237.59,44.793,237.59z"/>
	<path fill="#1A1A1A" d="M50.207,238h-0.58v-9.117h0.58V238z"/>
	<path fill="#1A1A1A" d="M52.258,229.861c0-0.375,0.123-0.563,0.369-0.563c0.121,0,0.216,0.049,0.284,0.146
		c0.068,0.097,0.103,0.236,0.103,0.416c0,0.176-0.034,0.314-0.103,0.416c-0.069,0.102-0.163,0.152-0.284,0.152
		C52.381,230.43,52.258,230.24,52.258,229.861z M52.92,238h-0.58v-6.369h0.58V238z"/>
	<path fill="#1A1A1A" d="M59.014,238h-4.547v-0.369l3.779-5.484h-3.504v-0.516h4.26V232l-3.803,5.484h3.814L59.014,238L59.014,238z"
		/>
	<path fill="#1A1A1A" d="M64.451,238l-0.146-1.008h-0.047c-0.32,0.41-0.649,0.7-0.987,0.87c-0.338,0.17-0.737,0.255-1.198,0.255
		c-0.625,0-1.111-0.16-1.459-0.48c-0.348-0.32-0.521-0.764-0.521-1.33c0-0.621,0.259-1.104,0.776-1.447
		c0.517-0.343,1.267-0.525,2.247-0.545l1.213-0.035v-0.422c0-0.605-0.123-1.063-0.369-1.371c-0.246-0.308-0.643-0.463-1.189-0.463
		c-0.59,0-1.201,0.164-1.834,0.492l-0.217-0.504c0.699-0.328,1.391-0.492,2.074-0.492c0.699,0,1.222,0.182,1.567,0.545
		c0.345,0.363,0.519,0.93,0.519,1.699V238H64.451z M62.107,237.59c0.68,0,1.216-0.194,1.608-0.583
		c0.392-0.389,0.589-0.929,0.589-1.62v-0.627l-1.113,0.047c-0.895,0.043-1.532,0.183-1.913,0.419
		c-0.381,0.236-0.571,0.604-0.571,1.104c0,0.398,0.122,0.708,0.366,0.929C61.317,237.48,61.662,237.59,62.107,237.59z"/>
	<path fill="#1A1A1A" d="M68.623,237.602c0.367,0,0.688-0.031,0.961-0.094v0.469c-0.281,0.094-0.605,0.141-0.973,0.141
		c-0.563,0-0.978-0.15-1.245-0.451c-0.267-0.301-0.401-0.773-0.401-1.418v-4.113h-0.943v-0.34l0.943-0.264l0.293-1.441h0.299v1.541
		h1.869v0.504h-1.869v4.031c0,0.488,0.086,0.85,0.258,1.084S68.256,237.602,68.623,237.602z"/>
	<path fill="#1A1A1A" d="M70.879,229.861c0-0.375,0.123-0.563,0.369-0.563c0.121,0,0.216,0.049,0.284,0.146
		c0.068,0.097,0.103,0.236,0.103,0.416c0,0.176-0.034,0.314-0.103,0.416c-0.069,0.102-0.163,0.152-0.284,0.152
		C71.002,230.43,70.879,230.24,70.879,229.861z M71.541,238h-0.58v-6.369h0.58V238z"/>
	<path fill="#1A1A1A" d="M78.941,234.807c0,1.039-0.252,1.851-0.756,2.435s-1.199,0.876-2.086,0.876
		c-0.559,0-1.051-0.135-1.477-0.404c-0.426-0.269-0.752-0.656-0.979-1.16c-0.227-0.504-0.34-1.086-0.34-1.746
		c0-1.039,0.252-1.849,0.756-2.429s1.195-0.87,2.074-0.87c0.875,0,1.562,0.294,2.06,0.882S78.941,233.783,78.941,234.807z
		 M73.914,234.807c0,0.875,0.192,1.558,0.577,2.048c0.385,0.49,0.929,0.735,1.632,0.735s1.247-0.245,1.632-0.735
		c0.385-0.49,0.577-1.173,0.577-2.048c0-0.879-0.194-1.561-0.583-2.045c-0.389-0.484-0.935-0.727-1.638-0.727
		c-0.703,0-1.245,0.241-1.626,0.724C74.104,233.242,73.914,233.924,73.914,234.807z"/>
	<path fill="#1A1A1A" d="M85.146,238v-4.131c0-0.641-0.135-1.106-0.404-1.397s-0.688-0.437-1.254-0.437
		c-0.762,0-1.319,0.192-1.673,0.577c-0.354,0.385-0.53,1.009-0.53,1.872V238h-0.58v-6.369h0.492l0.111,0.873h0.035
		c0.414-0.664,1.15-0.996,2.209-0.996c1.445,0,2.168,0.775,2.168,2.326V238H85.146z"/>
	<path fill="#1A1A1A" d="M96.168,234.807c0,1.039-0.252,1.851-0.756,2.435s-1.199,0.876-2.086,0.876
		c-0.559,0-1.051-0.135-1.477-0.404c-0.426-0.269-0.752-0.656-0.979-1.16c-0.227-0.504-0.34-1.086-0.34-1.746
		c0-1.039,0.252-1.849,0.756-2.429s1.195-0.87,2.074-0.87c0.875,0,1.562,0.294,2.06,0.882S96.168,233.783,96.168,234.807z
		 M91.141,234.807c0,0.875,0.192,1.558,0.577,2.048c0.385,0.49,0.929,0.735,1.632,0.735s1.247-0.245,1.632-0.735
		c0.385-0.49,0.577-1.173,0.577-2.048c0-0.879-0.194-1.561-0.583-2.045c-0.389-0.484-0.935-0.727-1.638-0.727
		s-1.245,0.241-1.626,0.724C91.331,233.242,91.141,233.924,91.141,234.807z"/>
	<path fill="#1A1A1A" d="M100.299,232.135h-1.5V238h-0.58v-5.865h-1.184v-0.34l1.184-0.217v-0.492c0-0.781,0.144-1.354,0.431-1.72
		c0.287-0.366,0.757-0.548,1.409-0.548c0.352,0,0.703,0.053,1.055,0.158l-0.135,0.504c-0.313-0.098-0.623-0.146-0.932-0.146
		c-0.453,0-0.774,0.134-0.964,0.401s-0.284,0.702-0.284,1.304v0.592h1.5V232.135z"/>
	<path fill="#1A1A1A" d="M108.596,236.342c0,0.57-0.217,1.009-0.65,1.315c-0.433,0.306-1.049,0.46-1.846,0.46
		c-0.852,0-1.527-0.131-2.027-0.393v-0.627c0.641,0.32,1.316,0.48,2.027,0.48c0.629,0,1.106-0.104,1.433-0.313
		c0.327-0.209,0.489-0.487,0.489-0.835c0-0.32-0.13-0.59-0.39-0.809c-0.26-0.219-0.687-0.434-1.28-0.645
		c-0.637-0.23-1.084-0.429-1.342-0.595c-0.258-0.166-0.452-0.354-0.583-0.563c-0.131-0.209-0.196-0.464-0.196-0.765
		c0-0.477,0.2-0.854,0.601-1.131s0.96-0.416,1.679-0.416c0.688,0,1.34,0.129,1.957,0.387l-0.217,0.527
		c-0.625-0.258-1.205-0.387-1.74-0.387c-0.52,0-0.932,0.086-1.236,0.258c-0.304,0.172-0.457,0.41-0.457,0.715
		c0,0.332,0.118,0.598,0.354,0.797c0.236,0.199,0.698,0.422,1.386,0.668c0.574,0.207,0.992,0.394,1.254,0.56
		s0.458,0.354,0.589,0.565C108.532,235.806,108.596,236.057,108.596,236.342z"/>
	<path fill="#1A1A1A" d="M110.154,229.861c0-0.375,0.123-0.563,0.369-0.563c0.121,0,0.216,0.049,0.284,0.146
		c0.068,0.097,0.103,0.236,0.103,0.416c0,0.176-0.034,0.314-0.103,0.416c-0.069,0.102-0.163,0.152-0.284,0.152
		C110.277,230.43,110.154,230.24,110.154,229.861z M110.816,238h-0.58v-6.369h0.58V238z"/>
	<path fill="#1A1A1A" d="M120.906,238v-4.178c0-0.621-0.121-1.074-0.363-1.359c-0.242-0.285-0.613-0.428-1.113-0.428
		c-0.652,0-1.135,0.18-1.447,0.539c-0.312,0.359-0.469,0.924-0.469,1.693V238h-0.592v-4.354c0-1.074-0.492-1.611-1.477-1.611
		c-0.668,0-1.154,0.194-1.459,0.583c-0.305,0.389-0.457,1.011-0.457,1.866V238h-0.58v-6.369h0.48l0.123,0.873h0.035
		c0.176-0.316,0.426-0.562,0.75-0.735c0.324-0.173,0.682-0.261,1.072-0.261c1.004,0,1.648,0.377,1.934,1.131h0.023
		c0.207-0.363,0.485-0.643,0.835-0.838c0.35-0.195,0.747-0.293,1.192-0.293c0.695,0,1.217,0.186,1.564,0.557s0.521,0.961,0.521,1.77
		V238H120.906z"/>
	<path fill="#1A1A1A" d="M123.461,229.861c0-0.375,0.123-0.563,0.369-0.563c0.121,0,0.216,0.049,0.283,0.146
		c0.068,0.097,0.104,0.236,0.104,0.416c0,0.176-0.033,0.314-0.104,0.416c-0.068,0.102-0.162,0.152-0.283,0.152
		C123.584,230.43,123.461,230.24,123.461,229.861z M124.123,238h-0.58v-6.369h0.58V238z"/>
	<path fill="#1A1A1A" d="M126.836,238h-0.58v-9.117h0.58V238z"/>
	<path fill="#1A1A1A" d="M132.836,238l-0.146-1.008h-0.047c-0.319,0.41-0.648,0.7-0.986,0.87c-0.338,0.17-0.737,0.255-1.198,0.255
		c-0.625,0-1.11-0.16-1.459-0.48c-0.349-0.32-0.521-0.764-0.521-1.33c0-0.621,0.258-1.104,0.775-1.447
		c0.518-0.343,1.268-0.525,2.247-0.545l1.213-0.035v-0.422c0-0.605-0.123-1.063-0.368-1.371c-0.246-0.308-0.644-0.463-1.189-0.463
		c-0.59,0-1.201,0.164-1.834,0.492l-0.217-0.504c0.699-0.328,1.391-0.492,2.074-0.492c0.698,0,1.221,0.182,1.566,0.545
		c0.345,0.363,0.52,0.93,0.52,1.699V238H132.836z M130.492,237.59c0.68,0,1.216-0.194,1.607-0.583c0.393-0.389,0.59-0.929,0.59-1.62
		v-0.627l-1.113,0.047c-0.895,0.043-1.532,0.183-1.913,0.419s-0.571,0.604-0.571,1.104c0,0.398,0.122,0.708,0.366,0.929
		C129.702,237.48,130.047,237.59,130.492,237.59z"/>
	<path fill="#1A1A1A" d="M137.834,231.508c0.27,0,0.559,0.027,0.867,0.082l-0.111,0.557c-0.266-0.066-0.541-0.1-0.826-0.1
		c-0.543,0-0.988,0.23-1.336,0.691c-0.348,0.461-0.521,1.043-0.521,1.746V238h-0.58v-6.369h0.491l0.06,1.148h0.041
		c0.263-0.469,0.541-0.798,0.838-0.987C137.055,231.603,137.412,231.508,137.834,231.508z"/>
	<path fill="#1A1A1A" d="M139.914,229.861c0-0.375,0.123-0.563,0.369-0.563c0.121,0,0.216,0.049,0.283,0.146
		c0.068,0.097,0.104,0.236,0.104,0.416c0,0.176-0.033,0.314-0.104,0.416c-0.068,0.102-0.162,0.152-0.283,0.152
		C140.037,230.43,139.914,230.24,139.914,229.861z M140.576,238h-0.58v-6.369h0.58V238z"/>
	<path fill="#1A1A1A" d="M144.391,237.602c0.367,0,0.688-0.031,0.961-0.094v0.469c-0.281,0.094-0.604,0.141-0.973,0.141
		c-0.563,0-0.979-0.15-1.245-0.451s-0.401-0.773-0.401-1.418v-4.113h-0.942v-0.34l0.942-0.264l0.293-1.441h0.3v1.541h1.868v0.504
		h-1.868v4.031c0,0.488,0.086,0.85,0.258,1.084S144.023,237.602,144.391,237.602z"/>
	<path fill="#1A1A1A" d="M146.646,229.861c0-0.375,0.123-0.563,0.369-0.563c0.121,0,0.215,0.049,0.283,0.146
		c0.068,0.097,0.104,0.236,0.104,0.416c0,0.176-0.034,0.314-0.104,0.416c-0.068,0.102-0.162,0.152-0.283,0.152
		C146.77,230.43,146.646,230.24,146.646,229.861z M147.309,238h-0.58v-6.369h0.58V238z"/>
	<path fill="#1A1A1A" d="M152.014,238.117c-0.926,0-1.646-0.285-2.164-0.855c-0.519-0.57-0.776-1.369-0.776-2.396
		c0-1.016,0.25-1.829,0.75-2.44c0.5-0.611,1.174-0.917,2.021-0.917c0.75,0,1.342,0.262,1.775,0.785
		c0.433,0.523,0.65,1.234,0.65,2.133v0.469h-4.588c0.008,0.875,0.211,1.543,0.611,2.004s0.975,0.691,1.721,0.691
		c0.362,0,0.682-0.025,0.957-0.076c0.275-0.051,0.625-0.16,1.047-0.328v0.527c-0.359,0.156-0.691,0.263-0.996,0.319
		C152.716,238.089,152.381,238.117,152.014,238.117z M151.844,232.023c-0.613,0-1.105,0.202-1.477,0.606
		c-0.372,0.404-0.588,0.987-0.65,1.749h3.938c0-0.738-0.159-1.315-0.479-1.731C152.855,232.231,152.41,232.023,151.844,232.023z"/>
	<path fill="#1A1A1A" d="M159.977,236.342c0,0.57-0.217,1.009-0.649,1.315c-0.433,0.306-1.05,0.46-1.847,0.46
		c-0.852,0-1.526-0.131-2.026-0.393v-0.627c0.642,0.32,1.315,0.48,2.026,0.48c0.629,0,1.106-0.104,1.434-0.313
		s0.488-0.487,0.488-0.835c0-0.32-0.129-0.59-0.389-0.809c-0.261-0.219-0.688-0.434-1.281-0.645
		c-0.637-0.23-1.084-0.429-1.342-0.595s-0.451-0.354-0.582-0.563s-0.197-0.464-0.197-0.765c0-0.477,0.201-0.854,0.602-1.131
		c0.401-0.277,0.96-0.416,1.68-0.416c0.688,0,1.34,0.129,1.957,0.387l-0.218,0.527c-0.625-0.258-1.204-0.387-1.739-0.387
		c-0.521,0-0.933,0.086-1.236,0.258c-0.305,0.172-0.457,0.41-0.457,0.715c0,0.332,0.117,0.598,0.354,0.797
		c0.236,0.199,0.698,0.422,1.387,0.668c0.574,0.207,0.992,0.394,1.254,0.56s0.457,0.354,0.589,0.565
		C159.913,235.806,159.977,236.057,159.977,236.342z"/>
	<path fill="#1A1A1A" d="M168.602,238l-0.146-1.008h-0.047c-0.32,0.41-0.649,0.7-0.987,0.87c-0.338,0.17-0.736,0.255-1.197,0.255
		c-0.625,0-1.111-0.16-1.459-0.48c-0.349-0.32-0.521-0.764-0.521-1.33c0-0.621,0.259-1.104,0.775-1.447
		c0.518-0.343,1.268-0.525,2.248-0.545l1.213-0.035v-0.422c0-0.605-0.123-1.063-0.369-1.371c-0.246-0.308-0.644-0.463-1.189-0.463
		c-0.59,0-1.201,0.164-1.834,0.492l-0.217-0.504c0.699-0.328,1.391-0.492,2.074-0.492c0.699,0,1.222,0.182,1.566,0.545
		c0.346,0.363,0.52,0.93,0.52,1.699V238H168.602z M166.258,237.59c0.68,0,1.217-0.194,1.608-0.583
		c0.392-0.389,0.589-0.929,0.589-1.62v-0.627l-1.113,0.047c-0.895,0.043-1.531,0.183-1.912,0.419
		c-0.382,0.236-0.572,0.604-0.572,1.104c0,0.398,0.123,0.708,0.367,0.929C165.468,237.48,165.813,237.59,166.258,237.59z"/>
	<path fill="#1A1A1A" d="M175.533,238v-4.131c0-0.641-0.135-1.106-0.404-1.397s-0.688-0.437-1.254-0.437
		c-0.762,0-1.318,0.192-1.673,0.577c-0.354,0.385-0.53,1.009-0.53,1.872V238h-0.58v-6.369h0.492l0.111,0.873h0.035
		c0.414-0.664,1.149-0.996,2.209-0.996c1.444,0,2.168,0.775,2.168,2.326V238H175.533z"/>
	<path fill="#1A1A1A" d="M180.502,231.508c0.461,0,0.859,0.084,1.195,0.252c0.336,0.168,0.637,0.455,0.902,0.861h0.034
		c-0.022-0.492-0.034-0.975-0.034-1.447v-2.291h0.573V238h-0.381l-0.146-0.973H182.6c-0.483,0.727-1.18,1.09-2.086,1.09
		c-0.879,0-1.551-0.273-2.016-0.82s-0.697-1.344-0.697-2.391c0-1.102,0.23-1.943,0.691-2.525S179.623,231.508,180.502,231.508z
		 M180.502,232.035c-0.695,0-1.218,0.244-1.566,0.732c-0.35,0.488-0.524,1.197-0.524,2.127c0,1.805,0.7,2.707,2.104,2.707
		c0.719,0,1.246-0.209,1.582-0.627s0.504-1.107,0.504-2.068v-0.1c0-0.984-0.166-1.692-0.496-2.124
		C181.775,232.25,181.24,232.035,180.502,232.035z"/>
	<path fill="#1A1A1A" d="M23.295,245.908c0.461,0,0.859,0.084,1.195,0.252c0.336,0.168,0.637,0.455,0.902,0.861h0.035
		c-0.023-0.492-0.035-0.976-0.035-1.447v-2.291h0.574v9.117h-0.381l-0.146-0.974h-0.047c-0.484,0.728-1.18,1.091-2.086,1.091
		c-0.879,0-1.551-0.273-2.016-0.82s-0.697-1.344-0.697-2.391c0-1.103,0.23-1.943,0.691-2.525S22.416,245.908,23.295,245.908z
		 M23.295,246.436c-0.695,0-1.218,0.244-1.567,0.732s-0.524,1.197-0.524,2.127c0,1.805,0.701,2.707,2.104,2.707
		c0.719,0,1.246-0.209,1.582-0.627s0.504-1.107,0.504-2.068v-0.1c0-0.984-0.165-1.691-0.495-2.124S24.033,246.436,23.295,246.436z"
		/>
	<path fill="#1A1A1A" d="M28.023,244.262c0-0.375,0.123-0.563,0.369-0.563c0.121,0,0.216,0.049,0.284,0.146
		c0.068,0.097,0.103,0.236,0.103,0.416c0,0.176-0.034,0.314-0.103,0.416c-0.069,0.102-0.163,0.152-0.284,0.152
		C28.146,244.83,28.023,244.641,28.023,244.262z M28.686,252.4h-0.58v-6.369h0.58V252.4z"/>
	<path fill="#1A1A1A" d="M33.186,246.535h-1.5v5.865h-0.58v-5.865h-1.184v-0.34l1.184-0.217v-0.493c0-0.781,0.144-1.354,0.431-1.72
		c0.287-0.366,0.757-0.548,1.409-0.548c0.352,0,0.703,0.053,1.055,0.158l-0.135,0.504c-0.313-0.098-0.623-0.146-0.932-0.146
		c-0.453,0-0.774,0.134-0.964,0.401c-0.19,0.267-0.284,0.702-0.284,1.304v0.592h1.5V246.535z M36.783,246.535h-1.5v5.865h-0.58
		v-5.865H33.52v-0.34l1.184-0.217v-0.493c0-0.781,0.144-1.354,0.431-1.72c0.287-0.366,0.757-0.548,1.409-0.548
		c0.352,0,0.703,0.053,1.055,0.158l-0.135,0.504c-0.313-0.098-0.623-0.146-0.932-0.146c-0.453,0-0.774,0.134-0.964,0.401
		c-0.19,0.267-0.284,0.702-0.284,1.304v0.592h1.5L36.783,246.535L36.783,246.535z"/>
	<path fill="#1A1A1A" d="M40.592,252.518c-0.926,0-1.647-0.285-2.165-0.854c-0.518-0.57-0.776-1.369-0.776-2.396
		c0-1.017,0.25-1.83,0.75-2.44c0.5-0.611,1.174-0.917,2.021-0.917c0.75,0,1.342,0.262,1.775,0.785
		c0.433,0.522,0.65,1.234,0.65,2.133v0.469H38.26c0.008,0.875,0.212,1.543,0.612,2.004s0.974,0.691,1.72,0.691
		c0.363,0,0.683-0.025,0.958-0.076c0.275-0.051,0.624-0.16,1.046-0.328v0.527c-0.359,0.156-0.691,0.263-0.996,0.318
		C41.295,252.49,40.959,252.518,40.592,252.518z M40.422,246.424c-0.613,0-1.105,0.202-1.477,0.605
		c-0.372,0.404-0.588,0.988-0.65,1.75h3.938c0-0.738-0.16-1.315-0.48-1.731C41.433,246.632,40.988,246.424,40.422,246.424z"/>
	<path fill="#1A1A1A" d="M47.113,245.908c0.27,0,0.559,0.027,0.867,0.082l-0.111,0.557c-0.266-0.066-0.541-0.1-0.826-0.1
		c-0.543,0-0.988,0.229-1.336,0.691c-0.348,0.461-0.521,1.043-0.521,1.745v3.517h-0.58v-6.369h0.492l0.059,1.148h0.041
		c0.262-0.47,0.541-0.799,0.838-0.988C46.333,246.003,46.691,245.908,47.113,245.908z"/>
	<path fill="#1A1A1A" d="M51.848,252.518c-0.926,0-1.647-0.285-2.165-0.854c-0.518-0.57-0.776-1.369-0.776-2.396
		c0-1.017,0.25-1.83,0.75-2.44c0.5-0.611,1.174-0.917,2.021-0.917c0.75,0,1.342,0.262,1.775,0.785
		c0.433,0.522,0.65,1.234,0.65,2.133v0.469h-4.588c0.008,0.875,0.212,1.543,0.612,2.004s0.974,0.691,1.72,0.691
		c0.363,0,0.683-0.025,0.958-0.076c0.275-0.051,0.624-0.16,1.046-0.328v0.527c-0.359,0.156-0.691,0.263-0.996,0.318
		C52.55,252.49,52.215,252.518,51.848,252.518z M51.678,246.424c-0.613,0-1.105,0.202-1.477,0.605
		c-0.372,0.404-0.588,0.988-0.65,1.75h3.938c0-0.738-0.16-1.315-0.48-1.731C52.689,246.632,52.244,246.424,51.678,246.424z"/>
	<path fill="#1A1A1A" d="M60.303,252.4v-4.131c0-0.642-0.135-1.106-0.404-1.397s-0.688-0.437-1.254-0.437
		c-0.762,0-1.319,0.191-1.673,0.576s-0.53,1.01-0.53,1.872v3.517h-0.58v-6.369h0.492l0.111,0.873H56.5
		c0.414-0.664,1.15-0.996,2.209-0.996c1.445,0,2.168,0.775,2.168,2.326v4.166H60.303z"/>
	<path fill="#1A1A1A" d="M65.482,252.518c-0.91,0-1.623-0.287-2.139-0.86c-0.516-0.574-0.773-1.375-0.773-2.402
		c0-1.055,0.268-1.876,0.803-2.464s1.268-0.882,2.197-0.882c0.551,0,1.078,0.096,1.582,0.286l-0.158,0.517
		c-0.551-0.185-1.029-0.274-1.436-0.274c-0.781,0-1.373,0.24-1.775,0.724c-0.402,0.483-0.604,1.177-0.604,2.083
		c0,0.859,0.201,1.531,0.604,2.02c0.403,0.486,0.965,0.729,1.688,0.729c0.578,0,1.115-0.104,1.611-0.311v0.539
		C66.676,252.418,66.143,252.518,65.482,252.518z"/>
	<path fill="#1A1A1A" d="M71.213,252.518c-0.926,0-1.647-0.285-2.165-0.854c-0.518-0.57-0.776-1.369-0.776-2.396
		c0-1.017,0.25-1.83,0.75-2.44c0.5-0.611,1.174-0.917,2.021-0.917c0.75,0,1.342,0.262,1.775,0.785
		c0.433,0.522,0.65,1.234,0.65,2.133v0.469H68.88c0.008,0.875,0.212,1.543,0.612,2.004c0.4,0.461,0.974,0.691,1.72,0.691
		c0.363,0,0.683-0.025,0.958-0.076s0.624-0.16,1.046-0.328v0.527c-0.359,0.156-0.691,0.263-0.996,0.318
		C71.915,252.49,71.58,252.518,71.213,252.518z M71.043,246.424c-0.613,0-1.105,0.202-1.477,0.605
		c-0.372,0.404-0.588,0.988-0.65,1.75h3.938c0-0.738-0.16-1.315-0.48-1.731S71.609,246.424,71.043,246.424z"/>
	<path fill="#1A1A1A" d="M79.176,250.742c0,0.57-0.217,1.009-0.65,1.314c-0.433,0.307-1.049,0.461-1.846,0.461
		c-0.852,0-1.527-0.132-2.027-0.394v-0.627c0.641,0.319,1.316,0.479,2.027,0.479c0.629,0,1.106-0.104,1.433-0.313
		c0.327-0.209,0.489-0.487,0.489-0.835c0-0.32-0.13-0.591-0.39-0.81c-0.26-0.219-0.687-0.434-1.28-0.645
		c-0.637-0.23-1.084-0.43-1.342-0.596c-0.258-0.166-0.452-0.354-0.583-0.563c-0.131-0.209-0.196-0.464-0.196-0.765
		c0-0.478,0.2-0.854,0.601-1.132c0.401-0.276,0.96-0.416,1.679-0.416c0.688,0,1.34,0.13,1.957,0.388l-0.217,0.526
		c-0.625-0.258-1.205-0.387-1.74-0.387c-0.52,0-0.932,0.086-1.236,0.258s-0.457,0.41-0.457,0.715c0,0.332,0.118,0.599,0.354,0.798
		c0.236,0.198,0.698,0.422,1.386,0.668c0.574,0.207,0.992,0.394,1.254,0.56c0.262,0.166,0.458,0.354,0.589,0.565
		S79.176,250.457,79.176,250.742z"/>
	<path fill="#1A1A1A" d="M86.623,245.908c0.891,0,1.562,0.279,2.013,0.841c0.451,0.562,0.677,1.38,0.677,2.458
		c0,1.059-0.237,1.875-0.712,2.449s-1.142,0.861-2.001,0.861c-0.453,0-0.861-0.095-1.225-0.281c-0.364-0.188-0.65-0.453-0.861-0.797
		h-0.053l-0.164,0.961h-0.363v-9.117h0.58v2.291c0,0.344-0.008,0.66-0.023,0.949l-0.018,0.498h0.041
		c0.242-0.383,0.534-0.664,0.876-0.845C85.732,245.997,86.143,245.908,86.623,245.908z M86.611,246.436
		c-0.75,0-1.287,0.215-1.611,0.646s-0.486,1.14-0.486,2.127v0.101c0,0.961,0.169,1.649,0.507,2.067s0.864,0.627,1.579,0.627
		c0.695,0,1.219-0.243,1.57-0.729c0.351-0.485,0.527-1.178,0.527-2.076C88.697,247.355,88.002,246.436,86.611,246.436z"/>
	<path fill="#1A1A1A" d="M93.648,252.518c-0.926,0-1.647-0.285-2.165-0.854c-0.518-0.57-0.776-1.369-0.776-2.396
		c0-1.017,0.25-1.83,0.75-2.44c0.5-0.611,1.174-0.917,2.021-0.917c0.75,0,1.342,0.262,1.775,0.785
		c0.433,0.522,0.65,1.234,0.65,2.133v0.469h-4.588c0.008,0.875,0.212,1.543,0.612,2.004c0.4,0.461,0.974,0.691,1.72,0.691
		c0.363,0,0.683-0.025,0.958-0.076s0.624-0.16,1.046-0.328v0.527c-0.359,0.156-0.691,0.263-0.996,0.318
		C94.35,252.49,94.016,252.518,93.648,252.518z M93.479,246.424c-0.613,0-1.105,0.202-1.477,0.605
		c-0.372,0.404-0.588,0.988-0.65,1.75h3.938c0-0.738-0.16-1.315-0.48-1.731S94.045,246.424,93.479,246.424z"/>
	<path fill="#1A1A1A" d="M99.344,252.002c0.367,0,0.688-0.031,0.961-0.094v0.469c-0.281,0.094-0.605,0.141-0.973,0.141
		c-0.563,0-0.978-0.149-1.245-0.451c-0.267-0.301-0.401-0.772-0.401-1.418v-4.112h-0.943v-0.341l0.943-0.264l0.293-1.44h0.299v1.541
		h1.869v0.504h-1.869v4.03c0,0.488,0.086,0.851,0.258,1.084C98.708,251.885,98.977,252.002,99.344,252.002z"/>
	<path fill="#1A1A1A" d="M106.773,252.4l-1.395-4.26c-0.09-0.289-0.205-0.714-0.346-1.271h-0.035l-0.123,0.434l-0.264,0.85
		l-1.418,4.248h-0.574l-1.822-6.368h0.621l1.02,3.69c0.238,0.914,0.395,1.586,0.469,2.016h0.035c0.23-0.913,0.398-1.521,0.504-1.821
		l1.313-3.885h0.527l1.248,3.872c0.281,0.918,0.453,1.525,0.516,1.822h0.035c0.031-0.254,0.188-0.934,0.469-2.039l0.973-3.655h0.586
		l-1.729,6.368H106.773L106.773,252.4z"/>
	<path fill="#1A1A1A" d="M112.932,252.518c-0.926,0-1.647-0.285-2.165-0.854c-0.518-0.57-0.776-1.369-0.776-2.396
		c0-1.017,0.25-1.83,0.75-2.44c0.5-0.611,1.174-0.917,2.021-0.917c0.75,0,1.342,0.262,1.775,0.785
		c0.433,0.522,0.65,1.234,0.65,2.133v0.469H110.6c0.008,0.875,0.212,1.543,0.612,2.004s0.974,0.691,1.72,0.691
		c0.363,0,0.683-0.025,0.958-0.076s0.624-0.16,1.046-0.328v0.527c-0.359,0.156-0.691,0.263-0.996,0.318
		C113.635,252.49,113.299,252.518,112.932,252.518z M112.762,246.424c-0.613,0-1.105,0.202-1.477,0.605
		c-0.372,0.404-0.588,0.988-0.65,1.75h3.938c0-0.738-0.16-1.315-0.48-1.731C113.773,246.632,113.328,246.424,112.762,246.424z"/>
	<path fill="#1A1A1A" d="M119.518,252.518c-0.926,0-1.647-0.285-2.165-0.854c-0.518-0.57-0.776-1.369-0.776-2.396
		c0-1.017,0.25-1.83,0.75-2.44c0.5-0.611,1.174-0.917,2.021-0.917c0.75,0,1.342,0.262,1.775,0.785
		c0.433,0.522,0.65,1.234,0.65,2.133v0.469h-4.588c0.008,0.875,0.212,1.543,0.612,2.004s0.974,0.691,1.72,0.691
		c0.363,0,0.683-0.025,0.958-0.076s0.624-0.16,1.046-0.328v0.527c-0.359,0.156-0.691,0.263-0.996,0.318
		C120.22,252.49,119.885,252.518,119.518,252.518z M119.348,246.424c-0.613,0-1.105,0.202-1.477,0.605
		c-0.372,0.404-0.588,0.988-0.65,1.75h3.938c0-0.738-0.16-1.315-0.48-1.731C120.359,246.632,119.914,246.424,119.348,246.424z"/>
	<path fill="#1A1A1A" d="M127.973,252.4v-4.131c0-0.642-0.135-1.106-0.404-1.397c-0.269-0.291-0.688-0.437-1.254-0.437
		c-0.762,0-1.318,0.191-1.672,0.576c-0.354,0.385-0.531,1.01-0.531,1.872v3.517h-0.579v-6.369h0.491l0.111,0.873h0.035
		c0.414-0.664,1.15-0.996,2.209-0.996c1.445,0,2.168,0.775,2.168,2.326v4.166H127.973z"/>
	<path fill="#1A1A1A" d="M134.307,252.4h-0.58v-9.117h0.58V252.4z"/>
	<path fill="#1A1A1A" d="M140.307,252.4l-0.146-1.008h-0.047c-0.32,0.409-0.649,0.699-0.987,0.869s-0.736,0.256-1.197,0.256
		c-0.625,0-1.111-0.16-1.459-0.48c-0.349-0.32-0.521-0.764-0.521-1.33c0-0.621,0.259-1.104,0.775-1.447
		c0.518-0.343,1.268-0.525,2.248-0.545l1.213-0.035v-0.422c0-0.605-0.123-1.063-0.369-1.371c-0.246-0.308-0.644-0.463-1.189-0.463
		c-0.59,0-1.201,0.164-1.834,0.492l-0.217-0.504c0.699-0.328,1.391-0.492,2.074-0.492c0.699,0,1.222,0.182,1.566,0.545
		c0.346,0.363,0.52,0.93,0.52,1.699v4.236H140.307z M137.963,251.99c0.68,0,1.217-0.194,1.607-0.583
		c0.393-0.39,0.59-0.929,0.59-1.62v-0.627l-1.113,0.047c-0.895,0.043-1.531,0.184-1.913,0.419c-0.381,0.235-0.571,0.604-0.571,1.104
		c0,0.397,0.123,0.707,0.367,0.929C137.173,251.88,137.518,251.99,137.963,251.99z"/>
	<path fill="#1A1A1A" d="M147.238,252.4v-4.131c0-0.642-0.135-1.106-0.404-1.397s-0.688-0.437-1.254-0.437
		c-0.762,0-1.318,0.191-1.673,0.576s-0.53,1.01-0.53,1.872v3.517h-0.58v-6.369h0.492l0.111,0.873h0.035
		c0.414-0.664,1.149-0.996,2.209-0.996c1.444,0,2.168,0.775,2.168,2.326v4.166H147.238z"/>
	<path fill="#1A1A1A" d="M154.844,246.031v0.404l-1.318,0.082c0.353,0.438,0.527,0.918,0.527,1.44c0,0.612-0.203,1.11-0.611,1.491
		s-0.957,0.57-1.645,0.57c-0.289,0-0.492-0.012-0.609-0.035c-0.229,0.121-0.405,0.265-0.526,0.429s-0.183,0.338-0.183,0.521
		c0,0.203,0.078,0.353,0.231,0.445c0.154,0.094,0.413,0.141,0.776,0.141h1.113c0.69,0,1.221,0.141,1.588,0.42
		c0.367,0.278,0.551,0.691,0.551,1.238c0,0.672-0.272,1.19-0.817,1.557c-0.545,0.365-1.321,0.548-2.329,0.548
		c-0.801,0-1.421-0.154-1.859-0.464c-0.439-0.309-0.659-0.737-0.659-1.289c0-0.438,0.136-0.801,0.407-1.09
		c0.271-0.289,0.64-0.485,1.104-0.592c-0.191-0.082-0.345-0.197-0.46-0.349s-0.173-0.323-0.173-0.519
		c0-0.426,0.271-0.801,0.814-1.125c-0.371-0.152-0.66-0.393-0.867-0.719s-0.312-0.699-0.312-1.121c0-0.638,0.202-1.147,0.606-1.533
		c0.404-0.385,0.949-0.576,1.638-0.576c0.418,0,0.742,0.041,0.974,0.123h2.039V246.031z M149.688,253.479
		c0,0.875,0.65,1.313,1.951,1.313c1.672,0,2.508-0.533,2.508-1.601c0-0.383-0.131-0.659-0.393-0.832
		c-0.262-0.172-0.686-0.258-1.271-0.258h-1.043C150.271,252.102,149.688,252.561,149.688,253.479z M150.174,248.018
		c0,0.492,0.149,0.875,0.448,1.146s0.698,0.406,1.198,0.406c0.531,0,0.938-0.135,1.222-0.403s0.425-0.66,0.425-1.172
		c0-0.543-0.146-0.95-0.438-1.222c-0.291-0.272-0.697-0.407-1.221-0.407c-0.509,0-0.908,0.146-1.199,0.437
		S150.174,247.498,150.174,248.018z"/>
	<path fill="#1A1A1A" d="M156.654,246.031v4.125c0,0.641,0.135,1.105,0.404,1.396c0.269,0.291,0.688,0.438,1.254,0.438
		c0.758,0,1.314-0.191,1.672-0.574c0.358-0.383,0.537-1.006,0.537-1.869v-3.516h0.574v6.369h-0.492l-0.105-0.879h-0.035
		c-0.414,0.664-1.15,0.996-2.209,0.996c-1.449,0-2.174-0.775-2.174-2.326v-4.16H156.654L156.654,246.031z"/>
	<path fill="#1A1A1A" d="M167.096,252.4l-0.146-1.008h-0.048c-0.319,0.409-0.648,0.699-0.986,0.869s-0.736,0.256-1.198,0.256
		c-0.625,0-1.11-0.16-1.459-0.48c-0.348-0.32-0.521-0.764-0.521-1.33c0-0.621,0.259-1.104,0.775-1.447
		c0.518-0.343,1.268-0.525,2.248-0.545l1.213-0.035v-0.422c0-0.605-0.123-1.063-0.369-1.371c-0.246-0.308-0.644-0.463-1.189-0.463
		c-0.59,0-1.201,0.164-1.834,0.492l-0.217-0.504c0.699-0.328,1.391-0.492,2.074-0.492c0.699,0,1.222,0.182,1.566,0.545
		c0.346,0.363,0.52,0.93,0.52,1.699v4.236H167.096z M164.752,251.99c0.68,0,1.216-0.194,1.607-0.583
		c0.393-0.39,0.59-0.929,0.59-1.62v-0.627l-1.113,0.047c-0.895,0.043-1.531,0.184-1.913,0.419c-0.381,0.235-0.571,0.604-0.571,1.104
		c0,0.397,0.123,0.707,0.366,0.929C163.962,251.88,164.307,251.99,164.752,251.99z"/>
	<path fill="#1A1A1A" d="M174.555,246.031v0.404l-1.318,0.082c0.353,0.438,0.527,0.918,0.527,1.44c0,0.612-0.203,1.11-0.611,1.491
		s-0.957,0.57-1.645,0.57c-0.289,0-0.492-0.012-0.609-0.035c-0.229,0.121-0.405,0.265-0.526,0.429s-0.183,0.338-0.183,0.521
		c0,0.203,0.078,0.353,0.231,0.445c0.154,0.094,0.413,0.141,0.776,0.141h1.113c0.69,0,1.221,0.141,1.588,0.42
		c0.367,0.278,0.551,0.691,0.551,1.238c0,0.672-0.272,1.19-0.817,1.557c-0.545,0.365-1.321,0.548-2.329,0.548
		c-0.801,0-1.421-0.154-1.859-0.464c-0.439-0.309-0.659-0.737-0.659-1.289c0-0.438,0.136-0.801,0.407-1.09
		c0.271-0.289,0.64-0.485,1.104-0.592c-0.191-0.082-0.345-0.197-0.46-0.349c-0.114-0.151-0.173-0.323-0.173-0.519
		c0-0.426,0.271-0.801,0.814-1.125c-0.371-0.152-0.66-0.393-0.867-0.719s-0.312-0.699-0.312-1.121c0-0.638,0.202-1.147,0.606-1.533
		c0.404-0.385,0.949-0.576,1.638-0.576c0.418,0,0.742,0.041,0.974,0.123h2.039V246.031z M169.398,253.479
		c0,0.875,0.649,1.313,1.951,1.313c1.672,0,2.508-0.533,2.508-1.601c0-0.383-0.131-0.659-0.394-0.832
		c-0.262-0.172-0.687-0.258-1.271-0.258h-1.043C169.982,252.102,169.398,252.561,169.398,253.479z M169.885,248.018
		c0,0.492,0.149,0.875,0.448,1.146s0.698,0.406,1.198,0.406c0.531,0,0.938-0.135,1.222-0.403s0.425-0.66,0.425-1.172
		c0-0.543-0.146-0.95-0.437-1.222c-0.291-0.272-0.698-0.407-1.222-0.407c-0.508,0-0.908,0.146-1.199,0.437
		S169.885,247.498,169.885,248.018z"/>
	<path fill="#1A1A1A" d="M178.434,252.518c-0.926,0-1.646-0.285-2.164-0.854c-0.519-0.57-0.776-1.369-0.776-2.396
		c0-1.017,0.25-1.83,0.75-2.44c0.5-0.611,1.174-0.917,2.021-0.917c0.75,0,1.342,0.262,1.775,0.785
		c0.434,0.522,0.65,1.234,0.65,2.133v0.469h-4.588c0.008,0.875,0.211,1.543,0.611,2.004s0.975,0.691,1.721,0.691
		c0.362,0,0.683-0.025,0.957-0.076c0.275-0.051,0.625-0.16,1.047-0.328v0.527c-0.359,0.156-0.691,0.263-0.996,0.318
		C179.136,252.49,178.801,252.518,178.434,252.518z M178.264,246.424c-0.613,0-1.104,0.202-1.477,0.605
		c-0.372,0.404-0.588,0.988-0.65,1.75h3.938c0-0.738-0.16-1.315-0.479-1.731C179.275,246.632,178.83,246.424,178.264,246.424z"/>
	<path fill="#1A1A1A" d="M186.396,250.742c0,0.57-0.217,1.009-0.65,1.314c-0.434,0.307-1.049,0.461-1.846,0.461
		c-0.853,0-1.527-0.132-2.027-0.394v-0.627c0.641,0.319,1.316,0.479,2.027,0.479c0.629,0,1.105-0.104,1.433-0.313
		s0.489-0.487,0.489-0.835c0-0.32-0.131-0.591-0.391-0.81s-0.687-0.434-1.279-0.645c-0.637-0.23-1.084-0.43-1.342-0.596
		s-0.453-0.354-0.584-0.563s-0.195-0.464-0.195-0.765c0-0.478,0.199-0.854,0.601-1.132c0.401-0.276,0.96-0.416,1.679-0.416
		c0.688,0,1.34,0.13,1.957,0.388l-0.217,0.526c-0.625-0.258-1.205-0.387-1.74-0.387c-0.52,0-0.932,0.086-1.235,0.258
		s-0.457,0.41-0.457,0.715c0,0.332,0.118,0.599,0.354,0.798c0.235,0.198,0.697,0.422,1.385,0.668
		c0.574,0.207,0.992,0.394,1.254,0.56c0.263,0.166,0.459,0.354,0.59,0.565S186.396,250.457,186.396,250.742z"/>
	<path fill="#1A1A1A" d="M23.652,260.309c0.891,0,1.562,0.279,2.013,0.84c0.451,0.562,0.677,1.381,0.677,2.459
		c0,1.059-0.237,1.875-0.712,2.449c-0.475,0.573-1.142,0.86-2.001,0.86c-0.453,0-0.861-0.094-1.225-0.28
		c-0.364-0.188-0.65-0.453-0.861-0.798H21.49l-0.164,0.961h-0.363v-9.116h0.58v2.291c0,0.344-0.008,0.659-0.023,0.948l-0.018,0.498
		h0.041c0.242-0.383,0.534-0.664,0.876-0.844C22.761,260.396,23.172,260.309,23.652,260.309z M23.641,260.835
		c-0.75,0-1.287,0.215-1.611,0.646c-0.324,0.43-0.486,1.139-0.486,2.127v0.1c0,0.961,0.169,1.65,0.507,2.068
		c0.338,0.418,0.864,0.627,1.579,0.627c0.695,0,1.219-0.243,1.57-0.729c0.351-0.485,0.527-1.179,0.527-2.077
		C25.727,261.755,25.031,260.835,23.641,260.835z"/>
	<path fill="#1A1A1A" d="M30.678,266.917c-0.926,0-1.647-0.285-2.165-0.854c-0.518-0.57-0.776-1.369-0.776-2.396
		c0-1.016,0.25-1.829,0.75-2.439c0.5-0.611,1.174-0.918,2.021-0.918c0.75,0,1.342,0.262,1.775,0.785
		c0.433,0.523,0.65,1.234,0.65,2.133v0.469h-4.588c0.008,0.875,0.212,1.543,0.612,2.005c0.4,0.461,0.974,0.69,1.72,0.69
		c0.363,0,0.683-0.024,0.958-0.076c0.275-0.051,0.624-0.16,1.046-0.328v0.527c-0.359,0.156-0.691,0.264-0.996,0.319
		S31.045,266.917,30.678,266.917z M30.508,260.823c-0.613,0-1.105,0.202-1.477,0.606c-0.372,0.403-0.588,0.986-0.65,1.748h3.938
		c0-0.738-0.16-1.314-0.48-1.73C31.519,261.031,31.074,260.823,30.508,260.823z"/>
	<path fill="#1A1A1A" d="M35.271,266.8h-0.58v-9.116h0.58V266.8z"/>
	<path fill="#1A1A1A" d="M42.672,263.605c0,1.039-0.252,1.852-0.756,2.436s-1.199,0.876-2.086,0.876
		c-0.559,0-1.051-0.135-1.477-0.403c-0.426-0.27-0.752-0.656-0.979-1.16s-0.34-1.086-0.34-1.746c0-1.039,0.252-1.85,0.756-2.43
		s1.195-0.869,2.074-0.869c0.875,0,1.562,0.293,2.06,0.881S42.672,262.583,42.672,263.605z M37.645,263.605
		c0,0.875,0.192,1.559,0.577,2.049c0.385,0.49,0.929,0.734,1.632,0.734s1.247-0.244,1.632-0.734c0.385-0.49,0.577-1.174,0.577-2.049
		c0-0.879-0.194-1.561-0.583-2.045c-0.389-0.483-0.935-0.727-1.638-0.727c-0.703,0-1.245,0.241-1.626,0.725
		C37.835,262.041,37.645,262.725,37.645,263.605z"/>
	<path fill="#1A1A1A" d="M48.877,266.8v-4.131c0-0.642-0.135-1.106-0.404-1.397s-0.688-0.437-1.254-0.437
		c-0.762,0-1.319,0.192-1.673,0.577s-0.53,1.009-0.53,1.872v3.516h-0.58v-6.368h0.492l0.111,0.872h0.035
		c0.414-0.663,1.15-0.995,2.209-0.995c1.445,0,2.168,0.774,2.168,2.325v4.166H48.877L48.877,266.8z"/>
	<path fill="#1A1A1A" d="M56.482,260.432v0.403l-1.318,0.082c0.352,0.438,0.527,0.918,0.527,1.44c0,0.613-0.204,1.11-0.612,1.492
		c-0.408,0.381-0.956,0.57-1.644,0.57c-0.289,0-0.492-0.012-0.609-0.035c-0.23,0.121-0.406,0.264-0.527,0.428
		c-0.121,0.164-0.182,0.338-0.182,0.521c0,0.203,0.077,0.352,0.231,0.445c0.154,0.093,0.413,0.141,0.776,0.141h1.113
		c0.691,0,1.221,0.141,1.588,0.419c0.367,0.279,0.551,0.692,0.551,1.239c0,0.672-0.272,1.189-0.817,1.556s-1.321,0.548-2.329,0.548
		c-0.801,0-1.421-0.154-1.86-0.463s-0.659-0.738-0.659-1.289c0-0.438,0.136-0.801,0.407-1.09s0.64-0.486,1.104-0.592
		c-0.191-0.082-0.345-0.198-0.46-0.35c-0.115-0.15-0.173-0.322-0.173-0.519c0-0.426,0.271-0.801,0.814-1.125
		c-0.371-0.151-0.66-0.392-0.867-0.718s-0.311-0.7-0.311-1.122c0-0.638,0.202-1.147,0.606-1.532c0.404-0.385,0.95-0.576,1.638-0.576
		c0.418,0,0.742,0.041,0.973,0.123h2.04V260.432z M51.326,267.878c0,0.875,0.65,1.313,1.951,1.313c1.672,0,2.508-0.533,2.508-1.601
		c0-0.383-0.131-0.659-0.393-0.832c-0.262-0.172-0.686-0.258-1.271-0.258h-1.043C51.91,266.501,51.326,266.96,51.326,267.878z
		 M51.813,262.417c0,0.492,0.149,0.874,0.448,1.146c0.299,0.272,0.698,0.408,1.198,0.408c0.531,0,0.938-0.136,1.222-0.404
		c0.284-0.27,0.425-0.66,0.425-1.172c0-0.543-0.146-0.951-0.437-1.223s-0.698-0.406-1.222-0.406c-0.508,0-0.907,0.146-1.198,0.437
		S51.813,261.896,51.813,262.417z"/>
	<path fill="#1A1A1A" d="M57.707,258.661c0-0.375,0.123-0.563,0.369-0.563c0.121,0,0.216,0.049,0.284,0.146
		c0.068,0.097,0.103,0.236,0.103,0.416c0,0.176-0.034,0.314-0.103,0.416c-0.069,0.102-0.163,0.152-0.284,0.152
		C57.83,259.229,57.707,259.04,57.707,258.661z M58.369,266.8h-0.58v-6.368h0.58V266.8z"/>
	<path fill="#1A1A1A" d="M64.943,266.8v-4.131c0-0.642-0.135-1.106-0.404-1.397s-0.688-0.437-1.254-0.437
		c-0.762,0-1.319,0.192-1.673,0.577s-0.53,1.009-0.53,1.872v3.516h-0.58v-6.368h0.492l0.111,0.872h0.035
		c0.414-0.663,1.15-0.995,2.209-0.995c1.445,0,2.168,0.774,2.168,2.325v4.166H64.943L64.943,266.8z"/>
	<path fill="#1A1A1A" d="M72.549,260.432v0.403l-1.318,0.082c0.352,0.438,0.527,0.918,0.527,1.44c0,0.613-0.204,1.11-0.612,1.492
		c-0.408,0.381-0.956,0.57-1.644,0.57c-0.289,0-0.492-0.012-0.609-0.035c-0.23,0.121-0.406,0.264-0.527,0.428
		c-0.121,0.164-0.182,0.338-0.182,0.521c0,0.203,0.077,0.352,0.231,0.445c0.154,0.093,0.413,0.141,0.776,0.141h1.113
		c0.691,0,1.221,0.141,1.588,0.419c0.367,0.279,0.551,0.692,0.551,1.239c0,0.672-0.272,1.189-0.817,1.556s-1.321,0.548-2.329,0.548
		c-0.801,0-1.421-0.154-1.86-0.463s-0.659-0.738-0.659-1.289c0-0.438,0.136-0.801,0.407-1.09s0.64-0.486,1.104-0.592
		c-0.191-0.082-0.345-0.198-0.46-0.35c-0.115-0.15-0.173-0.322-0.173-0.519c0-0.426,0.271-0.801,0.814-1.125
		c-0.371-0.151-0.66-0.392-0.867-0.718s-0.311-0.7-0.311-1.122c0-0.638,0.202-1.147,0.606-1.532c0.404-0.385,0.95-0.576,1.638-0.576
		c0.418,0,0.742,0.041,0.973,0.123h2.04V260.432z M67.393,267.878c0,0.875,0.65,1.313,1.951,1.313c1.672,0,2.508-0.533,2.508-1.601
		c0-0.383-0.131-0.659-0.393-0.832c-0.262-0.172-0.686-0.258-1.271-0.258h-1.043C67.977,266.501,67.393,266.96,67.393,267.878z
		 M67.879,262.417c0,0.492,0.149,0.874,0.448,1.146c0.299,0.272,0.698,0.408,1.198,0.408c0.531,0,0.938-0.136,1.222-0.404
		c0.284-0.27,0.425-0.66,0.425-1.172c0-0.543-0.146-0.951-0.437-1.223s-0.698-0.406-1.222-0.406c-0.508,0-0.907,0.146-1.198,0.437
		S67.879,261.896,67.879,262.417z"/>
	<path fill="#1A1A1A" d="M78.654,266.4c0.367,0,0.688-0.03,0.961-0.094v0.469c-0.281,0.095-0.605,0.142-0.973,0.142
		c-0.563,0-0.978-0.149-1.245-0.451c-0.267-0.301-0.401-0.772-0.401-1.418v-4.112h-0.943v-0.34l0.943-0.265l0.293-1.44h0.299v1.541
		h1.869v0.504h-1.869v4.03c0,0.488,0.086,0.851,0.258,1.084C78.018,266.284,78.287,266.4,78.654,266.4z"/>
	<path fill="#1A1A1A" d="M86.26,263.605c0,1.039-0.252,1.852-0.756,2.436s-1.199,0.876-2.086,0.876
		c-0.559,0-1.051-0.135-1.477-0.403c-0.426-0.27-0.752-0.656-0.979-1.16s-0.34-1.086-0.34-1.746c0-1.039,0.252-1.85,0.756-2.43
		s1.195-0.869,2.074-0.869c0.875,0,1.562,0.293,2.06,0.881C86.01,261.777,86.26,262.583,86.26,263.605z M81.232,263.605
		c0,0.875,0.192,1.559,0.577,2.049c0.385,0.49,0.929,0.734,1.632,0.734s1.247-0.244,1.632-0.734c0.385-0.49,0.577-1.174,0.577-2.049
		c0-0.879-0.194-1.561-0.583-2.045c-0.389-0.483-0.935-0.727-1.638-0.727c-0.703,0-1.245,0.241-1.626,0.725
		C81.422,262.041,81.232,262.725,81.232,263.605z"/>
	<path fill="#1A1A1A" d="M95.008,266.8l-0.146-1.008h-0.047c-0.32,0.41-0.649,0.7-0.987,0.87s-0.737,0.255-1.198,0.255
		c-0.625,0-1.111-0.16-1.459-0.479c-0.348-0.32-0.521-0.765-0.521-1.33c0-0.621,0.259-1.104,0.776-1.447
		c0.517-0.344,1.267-0.525,2.247-0.545l1.213-0.035v-0.422c0-0.605-0.123-1.063-0.369-1.371s-0.643-0.463-1.189-0.463
		c-0.59,0-1.201,0.164-1.834,0.492l-0.217-0.504c0.699-0.328,1.391-0.492,2.074-0.492c0.699,0,1.222,0.182,1.567,0.545
		c0.345,0.363,0.519,0.93,0.519,1.699v4.235H95.008z M92.664,266.391c0.68,0,1.216-0.195,1.608-0.584s0.589-0.929,0.589-1.619
		v-0.627l-1.113,0.047c-0.895,0.043-1.532,0.183-1.913,0.418c-0.381,0.236-0.571,0.604-0.571,1.104c0,0.397,0.122,0.708,0.366,0.929
		C91.874,266.279,92.219,266.391,92.664,266.391z"/>
	<path fill="#1A1A1A" d="M104.564,265.143c0,0.569-0.217,1.008-0.65,1.314s-1.049,0.46-1.846,0.46c-0.852,0-1.527-0.131-2.027-0.394
		v-0.627c0.641,0.32,1.316,0.48,2.027,0.48c0.629,0,1.106-0.104,1.433-0.313s0.489-0.487,0.489-0.836c0-0.319-0.13-0.59-0.39-0.809
		c-0.26-0.219-0.687-0.434-1.28-0.645c-0.637-0.23-1.084-0.43-1.342-0.596s-0.452-0.354-0.583-0.563s-0.196-0.465-0.196-0.766
		c0-0.477,0.2-0.854,0.601-1.131c0.401-0.277,0.96-0.416,1.679-0.416c0.688,0,1.34,0.129,1.957,0.387l-0.217,0.527
		c-0.625-0.258-1.205-0.387-1.74-0.387c-0.52,0-0.932,0.086-1.236,0.258c-0.304,0.172-0.457,0.41-0.457,0.715
		c0,0.332,0.118,0.598,0.354,0.797c0.236,0.199,0.698,0.422,1.386,0.668c0.574,0.207,0.992,0.395,1.254,0.561
		c0.262,0.166,0.458,0.354,0.589,0.564C104.5,264.605,104.564,264.855,104.564,265.143z"/>
	<path fill="#1A1A1A" d="M110.072,266.8l-0.146-1.008h-0.047c-0.32,0.41-0.649,0.7-0.987,0.87s-0.737,0.255-1.198,0.255
		c-0.625,0-1.111-0.16-1.459-0.479c-0.348-0.32-0.521-0.765-0.521-1.33c0-0.621,0.259-1.104,0.776-1.447
		c0.517-0.344,1.267-0.525,2.247-0.545l1.213-0.035v-0.422c0-0.605-0.123-1.063-0.369-1.371s-0.643-0.463-1.189-0.463
		c-0.59,0-1.201,0.164-1.834,0.492l-0.217-0.504c0.699-0.328,1.391-0.492,2.074-0.492c0.699,0,1.222,0.182,1.567,0.545
		c0.345,0.363,0.519,0.93,0.519,1.699v4.235H110.072z M107.729,266.391c0.68,0,1.216-0.195,1.608-0.584s0.589-0.929,0.589-1.619
		v-0.627l-1.113,0.047c-0.895,0.043-1.532,0.183-1.913,0.418c-0.381,0.236-0.571,0.604-0.571,1.104c0,0.397,0.122,0.708,0.366,0.929
		C106.939,266.279,107.283,266.391,107.729,266.391z"/>
	<path fill="#1A1A1A" d="M120.52,266.8v-4.178c0-0.621-0.121-1.074-0.363-1.358c-0.242-0.285-0.613-0.429-1.113-0.429
		c-0.652,0-1.135,0.181-1.447,0.539s-0.469,0.924-0.469,1.692v3.732h-0.592v-4.354c0-1.074-0.492-1.611-1.477-1.611
		c-0.668,0-1.154,0.193-1.459,0.583c-0.305,0.39-0.457,1.011-0.457,1.866v3.516h-0.58v-6.369h0.48l0.123,0.873h0.035
		c0.176-0.316,0.426-0.563,0.75-0.734c0.324-0.174,0.682-0.262,1.072-0.262c1.004,0,1.648,0.377,1.934,1.131h0.023
		c0.207-0.362,0.485-0.643,0.835-0.838s0.747-0.293,1.192-0.293c0.695,0,1.217,0.187,1.564,0.557
		c0.347,0.371,0.521,0.962,0.521,1.771v4.166H120.52L120.52,266.8z"/>
	<path fill="#1A1A1A" d="M125.729,266.917c-0.926,0-1.646-0.285-2.164-0.854c-0.519-0.57-0.776-1.369-0.776-2.396
		c0-1.016,0.25-1.829,0.75-2.439c0.5-0.611,1.174-0.918,2.021-0.918c0.75,0,1.342,0.262,1.775,0.785s0.65,1.234,0.65,2.133v0.469
		h-4.588c0.008,0.875,0.211,1.543,0.611,2.005c0.4,0.461,0.975,0.69,1.721,0.69c0.362,0,0.683-0.024,0.957-0.076
		c0.275-0.051,0.625-0.16,1.047-0.328v0.527c-0.359,0.156-0.691,0.264-0.996,0.319S126.096,266.917,125.729,266.917z
		 M125.559,260.823c-0.613,0-1.104,0.202-1.477,0.606c-0.372,0.403-0.588,0.986-0.65,1.748h3.938c0-0.738-0.16-1.314-0.479-1.73
		C126.57,261.031,126.125,260.823,125.559,260.823z"/>
	<path fill="#1A1A1A" d="M137.828,260.432v0.403l-1.318,0.082c0.352,0.438,0.527,0.918,0.527,1.44c0,0.613-0.204,1.11-0.612,1.492
		c-0.407,0.381-0.956,0.57-1.644,0.57c-0.289,0-0.492-0.012-0.609-0.035c-0.23,0.121-0.406,0.264-0.527,0.428
		s-0.182,0.338-0.182,0.521c0,0.203,0.077,0.352,0.23,0.445c0.154,0.093,0.414,0.141,0.777,0.141h1.112
		c0.69,0,1.222,0.141,1.588,0.419c0.367,0.279,0.552,0.692,0.552,1.239c0,0.672-0.272,1.189-0.818,1.556
		c-0.545,0.366-1.32,0.548-2.328,0.548c-0.801,0-1.422-0.154-1.86-0.463s-0.659-0.738-0.659-1.289c0-0.438,0.137-0.801,0.407-1.09
		s0.64-0.486,1.104-0.592c-0.191-0.082-0.346-0.198-0.461-0.35c-0.114-0.15-0.172-0.322-0.172-0.519
		c0-0.426,0.271-0.801,0.813-1.125c-0.371-0.151-0.66-0.392-0.867-0.718s-0.312-0.7-0.312-1.122c0-0.638,0.203-1.147,0.606-1.532
		c0.404-0.385,0.95-0.576,1.638-0.576c0.418,0,0.742,0.041,0.974,0.123h2.04V260.432z M132.672,267.878
		c0,0.875,0.65,1.313,1.951,1.313c1.672,0,2.508-0.533,2.508-1.601c0-0.383-0.131-0.659-0.393-0.832
		c-0.262-0.172-0.687-0.258-1.271-0.258h-1.043C133.256,266.501,132.672,266.96,132.672,267.878z M133.158,262.417
		c0,0.492,0.148,0.874,0.447,1.146c0.299,0.272,0.699,0.408,1.199,0.408c0.53,0,0.938-0.136,1.221-0.404
		c0.285-0.27,0.426-0.66,0.426-1.172c0-0.543-0.146-0.951-0.438-1.223s-0.697-0.406-1.222-0.406c-0.508,0-0.907,0.146-1.198,0.437
		S133.158,261.896,133.158,262.417z"/>
	<path fill="#1A1A1A" d="M141.707,266.917c-0.926,0-1.646-0.285-2.165-0.854c-0.519-0.57-0.776-1.369-0.776-2.396
		c0-1.016,0.25-1.829,0.75-2.439c0.5-0.611,1.174-0.918,2.021-0.918c0.75,0,1.342,0.262,1.775,0.785
		c0.433,0.523,0.649,1.234,0.649,2.133v0.469h-4.588c0.008,0.875,0.212,1.543,0.612,2.005c0.399,0.461,0.974,0.69,1.72,0.69
		c0.362,0,0.683-0.024,0.958-0.076c0.275-0.051,0.624-0.16,1.046-0.328v0.527c-0.358,0.156-0.69,0.264-0.996,0.319
		C142.409,266.889,142.074,266.917,141.707,266.917z M141.537,260.823c-0.613,0-1.105,0.202-1.477,0.606
		c-0.373,0.403-0.588,0.986-0.65,1.748h3.938c0-0.738-0.16-1.314-0.479-1.73C142.548,261.031,142.104,260.823,141.537,260.823z"/>
	<path fill="#1A1A1A" d="M150.162,266.8v-4.131c0-0.642-0.135-1.106-0.404-1.397s-0.688-0.437-1.254-0.437
		c-0.762,0-1.318,0.192-1.673,0.577s-0.53,1.009-0.53,1.872v3.516h-0.58v-6.368h0.492l0.111,0.872h0.035
		c0.414-0.663,1.149-0.995,2.209-0.995c1.445,0,2.168,0.774,2.168,2.325v4.166H150.162L150.162,266.8z"/>
	<path fill="#1A1A1A" d="M153.303,260.432v4.125c0,0.641,0.135,1.105,0.404,1.396s0.688,0.438,1.254,0.438
		c0.758,0,1.314-0.191,1.673-0.574s0.536-1.006,0.536-1.869v-3.516h0.574v6.368h-0.492l-0.105-0.879h-0.035
		c-0.413,0.664-1.149,0.996-2.209,0.996c-1.448,0-2.174-0.774-2.174-2.326v-4.159H153.303L153.303,260.432z"/>
	<path fill="#1A1A1A" d="M163.826,265.143c0,0.569-0.217,1.008-0.65,1.314c-0.433,0.307-1.049,0.46-1.846,0.46
		c-0.852,0-1.527-0.131-2.027-0.394v-0.627c0.641,0.32,1.316,0.48,2.027,0.48c0.629,0,1.105-0.104,1.434-0.313
		c0.326-0.209,0.488-0.487,0.488-0.836c0-0.319-0.13-0.59-0.391-0.809c-0.26-0.219-0.687-0.434-1.279-0.645
		c-0.637-0.23-1.084-0.43-1.342-0.596s-0.452-0.354-0.583-0.563c-0.132-0.209-0.196-0.465-0.196-0.766
		c0-0.477,0.2-0.854,0.602-1.131c0.4-0.277,0.959-0.416,1.679-0.416c0.688,0,1.34,0.129,1.957,0.387l-0.218,0.527
		c-0.625-0.258-1.205-0.387-1.739-0.387c-0.521,0-0.933,0.086-1.236,0.258s-0.457,0.41-0.457,0.715c0,0.332,0.118,0.598,0.354,0.797
		s0.697,0.422,1.386,0.668c0.573,0.207,0.992,0.395,1.254,0.561c0.263,0.166,0.458,0.354,0.589,0.564
		S163.826,264.855,163.826,265.143z"/>
	<path fill="#1A1A1A" d="M165.35,266.343c0-0.383,0.156-0.573,0.469-0.573c0.32,0,0.48,0.19,0.48,0.573
		c0,0.384-0.16,0.574-0.48,0.574C165.506,266.917,165.35,266.727,165.35,266.343z"/>
	<path fill="#1A1A1A" d="M23.342,281.2h-0.604v-8.005h-2.783v-0.563h6.17v0.563h-2.783V281.2z"/>
	<path fill="#1A1A1A" d="M31.691,281.2v-4.132c0-0.641-0.135-1.105-0.404-1.396s-0.688-0.438-1.254-0.438
		c-0.762,0-1.319,0.192-1.673,0.578c-0.354,0.385-0.53,1.008-0.53,1.871v3.517h-0.58v-9.117h0.58v2.899l-0.029,0.814h0.041
		c0.238-0.383,0.539-0.66,0.902-0.832c0.363-0.172,0.814-0.258,1.354-0.258c1.445,0,2.168,0.775,2.168,2.326v4.166L31.691,281.2
		L31.691,281.2z"/>
	<path fill="#1A1A1A" d="M34.246,273.063c0-0.375,0.123-0.563,0.369-0.563c0.121,0,0.216,0.049,0.284,0.146
		c0.068,0.098,0.103,0.236,0.103,0.416c0,0.176-0.034,0.314-0.103,0.416c-0.069,0.103-0.163,0.152-0.284,0.152
		C34.369,273.63,34.246,273.439,34.246,273.063z M34.908,281.2h-0.58v-6.369h0.58V281.2z"/>
	<path fill="#1A1A1A" d="M40.99,279.542c0,0.569-0.217,1.009-0.65,1.315c-0.433,0.306-1.049,0.459-1.846,0.459
		c-0.852,0-1.527-0.131-2.027-0.393v-0.627c0.641,0.32,1.316,0.48,2.027,0.48c0.629,0,1.106-0.104,1.433-0.313
		c0.327-0.209,0.489-0.487,0.489-0.835c0-0.32-0.13-0.59-0.39-0.809c-0.26-0.219-0.687-0.434-1.28-0.646
		c-0.637-0.229-1.084-0.429-1.342-0.595c-0.258-0.166-0.452-0.354-0.583-0.563c-0.131-0.209-0.196-0.465-0.196-0.766
		c0-0.477,0.2-0.854,0.601-1.131s0.96-0.416,1.679-0.416c0.688,0,1.34,0.129,1.957,0.387l-0.217,0.527
		c-0.625-0.258-1.205-0.387-1.74-0.387c-0.52,0-0.932,0.086-1.236,0.258c-0.304,0.172-0.457,0.41-0.457,0.715
		c0,0.332,0.118,0.598,0.354,0.797s0.698,0.422,1.386,0.668c0.574,0.207,0.992,0.395,1.254,0.561
		c0.262,0.166,0.458,0.354,0.589,0.564S40.99,279.257,40.99,279.542z"/>
	<path fill="#1A1A1A" d="M45.666,273.063c0-0.375,0.123-0.563,0.369-0.563c0.121,0,0.216,0.049,0.284,0.146
		c0.068,0.098,0.103,0.236,0.103,0.416c0,0.176-0.034,0.314-0.103,0.416c-0.069,0.103-0.163,0.152-0.284,0.152
		C45.789,273.63,45.666,273.439,45.666,273.063z M46.328,281.2h-0.58v-6.369h0.58V281.2z"/>
	<path fill="#1A1A1A" d="M52.41,279.542c0,0.569-0.217,1.009-0.65,1.315c-0.433,0.306-1.049,0.459-1.846,0.459
		c-0.852,0-1.527-0.131-2.027-0.393v-0.627c0.641,0.32,1.316,0.48,2.027,0.48c0.629,0,1.106-0.104,1.433-0.313
		c0.327-0.209,0.489-0.487,0.489-0.835c0-0.32-0.13-0.59-0.39-0.809c-0.26-0.219-0.687-0.434-1.28-0.646
		c-0.637-0.229-1.084-0.429-1.342-0.595c-0.258-0.166-0.452-0.354-0.583-0.563c-0.131-0.209-0.196-0.465-0.196-0.766
		c0-0.477,0.2-0.854,0.601-1.131s0.96-0.416,1.679-0.416c0.688,0,1.34,0.129,1.957,0.387l-0.217,0.527
		c-0.625-0.258-1.205-0.387-1.74-0.387c-0.52,0-0.932,0.086-1.236,0.258c-0.304,0.172-0.457,0.41-0.457,0.715
		c0,0.332,0.118,0.598,0.354,0.797c0.236,0.199,0.698,0.422,1.386,0.668c0.574,0.207,0.992,0.395,1.254,0.561
		s0.458,0.354,0.589,0.564C52.346,279.006,52.41,279.257,52.41,279.542z"/>
	<path fill="#1A1A1A" d="M58.85,280.802c0.367,0,0.688-0.03,0.961-0.094v0.469c-0.281,0.095-0.605,0.142-0.973,0.142
		c-0.563,0-0.978-0.15-1.245-0.451c-0.267-0.301-0.401-0.773-0.401-1.418v-4.113h-0.943v-0.34l0.943-0.264l0.293-1.441h0.299v1.541
		h1.869v0.504h-1.869v4.031c0,0.488,0.086,0.85,0.258,1.084S58.482,280.802,58.85,280.802z"/>
	<path fill="#1A1A1A" d="M65.629,281.2v-4.132c0-0.641-0.135-1.105-0.404-1.396s-0.688-0.438-1.254-0.438
		c-0.762,0-1.319,0.192-1.673,0.578c-0.354,0.385-0.53,1.008-0.53,1.871v3.517h-0.58v-9.117h0.58v2.899l-0.029,0.814h0.041
		c0.238-0.383,0.539-0.66,0.902-0.832c0.363-0.172,0.814-0.258,1.354-0.258c1.445,0,2.168,0.775,2.168,2.326v4.166L65.629,281.2
		L65.629,281.2z"/>
	<path fill="#1A1A1A" d="M70.838,281.316c-0.926,0-1.647-0.284-2.165-0.854c-0.518-0.569-0.776-1.369-0.776-2.396
		c0-1.017,0.25-1.83,0.75-2.44s1.174-0.917,2.021-0.917c0.75,0,1.342,0.262,1.775,0.785s0.65,1.234,0.65,2.133v0.469h-4.588
		c0.008,0.875,0.212,1.543,0.612,2.004c0.4,0.461,0.974,0.691,1.72,0.691c0.363,0,0.683-0.025,0.958-0.076s0.624-0.16,1.046-0.328
		v0.527c-0.359,0.156-0.691,0.263-0.996,0.318C71.54,281.289,71.205,281.316,70.838,281.316z M70.668,275.225
		c-0.613,0-1.105,0.201-1.477,0.605s-0.588,0.986-0.65,1.749h3.938c0-0.738-0.16-1.315-0.48-1.731S71.234,275.225,70.668,275.225z"
		/>
	<path fill="#1A1A1A" d="M81.771,273.05c-1.074,0-1.92,0.345-2.537,1.031c-0.617,0.687-0.926,1.629-0.926,2.823
		c0,1.224,0.291,2.173,0.873,2.849c0.582,0.677,1.414,1.015,2.496,1.015c0.719,0,1.379-0.093,1.98-0.275v0.527
		c-0.566,0.198-1.273,0.299-2.121,0.299c-1.203,0-2.15-0.389-2.842-1.166c-0.692-0.777-1.037-1.863-1.037-3.258
		c0-0.871,0.165-1.64,0.495-2.304c0.33-0.663,0.805-1.177,1.424-1.538c0.619-0.361,1.339-0.541,2.159-0.541
		c0.836,0,1.584,0.155,2.244,0.469l-0.24,0.539C83.115,273.206,82.459,273.05,81.771,273.05z"/>
	<path fill="#1A1A1A" d="M87.994,281.316c-0.926,0-1.647-0.284-2.165-0.854c-0.518-0.569-0.776-1.369-0.776-2.396
		c0-1.017,0.25-1.83,0.75-2.44s1.174-0.917,2.021-0.917c0.75,0,1.342,0.262,1.775,0.785s0.65,1.234,0.65,2.133v0.469h-4.588
		c0.008,0.875,0.212,1.543,0.612,2.004s0.974,0.691,1.72,0.691c0.363,0,0.683-0.025,0.958-0.076c0.275-0.051,0.624-0.16,1.046-0.328
		v0.527c-0.359,0.156-0.691,0.263-0.996,0.318C88.696,281.289,88.361,281.316,87.994,281.316z M87.824,275.225
		c-0.613,0-1.105,0.201-1.477,0.605c-0.372,0.404-0.588,0.986-0.65,1.749h3.938c0-0.738-0.16-1.315-0.48-1.731
		C88.835,275.432,88.391,275.225,87.824,275.225z"/>
	<path fill="#1A1A1A" d="M92.588,281.2h-0.58v-9.117h0.58V281.2z"/>
	<path fill="#1A1A1A" d="M96.402,280.802c0.367,0,0.688-0.03,0.961-0.094v0.469c-0.281,0.095-0.605,0.142-0.973,0.142
		c-0.563,0-0.978-0.15-1.245-0.451s-0.401-0.773-0.401-1.418v-4.113h-0.943v-0.34l0.943-0.264l0.293-1.441h0.299v1.541h1.869v0.504
		h-1.869v4.031c0,0.488,0.086,0.85,0.258,1.084C95.766,280.686,96.035,280.802,96.402,280.802z"/>
	<path fill="#1A1A1A" d="M98.658,273.063c0-0.375,0.123-0.563,0.369-0.563c0.121,0,0.216,0.049,0.284,0.146
		c0.068,0.098,0.103,0.236,0.103,0.416c0,0.176-0.034,0.314-0.103,0.416c-0.069,0.103-0.163,0.152-0.284,0.152
		C98.781,273.63,98.658,273.439,98.658,273.063z M99.32,281.2h-0.58v-6.369h0.58V281.2z"/>
	<path fill="#1A1A1A" d="M103.996,281.316c-0.91,0-1.623-0.287-2.139-0.86c-0.516-0.574-0.773-1.375-0.773-2.401
		c0-1.056,0.268-1.877,0.803-2.465c0.535-0.588,1.268-0.882,2.197-0.882c0.551,0,1.078,0.097,1.582,0.287l-0.158,0.516
		c-0.551-0.184-1.029-0.274-1.436-0.274c-0.781,0-1.373,0.24-1.775,0.724c-0.402,0.483-0.604,1.177-0.604,2.083
		c0,0.859,0.201,1.532,0.604,2.02c0.403,0.486,0.965,0.729,1.688,0.729c0.578,0,1.115-0.104,1.611-0.311v0.539
		C105.189,281.218,104.656,281.316,103.996,281.316z"/>
	<path fill="#1A1A1A" d="M115.24,274.831v0.403l-1.318,0.082c0.352,0.438,0.527,0.918,0.527,1.441c0,0.613-0.204,1.11-0.612,1.491
		c-0.408,0.381-0.956,0.571-1.644,0.571c-0.289,0-0.492-0.012-0.609-0.035c-0.23,0.121-0.406,0.264-0.527,0.428
		s-0.182,0.338-0.182,0.521c0,0.203,0.077,0.352,0.231,0.445c0.154,0.092,0.413,0.141,0.776,0.141h1.113
		c0.691,0,1.221,0.14,1.588,0.419c0.367,0.278,0.551,0.692,0.551,1.239c0,0.672-0.272,1.189-0.817,1.556s-1.321,0.548-2.329,0.548
		c-0.801,0-1.421-0.154-1.86-0.463s-0.659-0.738-0.659-1.289c0-0.438,0.136-0.801,0.407-1.09s0.64-0.486,1.104-0.592
		c-0.191-0.082-0.345-0.198-0.46-0.35c-0.115-0.15-0.173-0.322-0.173-0.52c0-0.426,0.271-0.801,0.814-1.125
		c-0.371-0.151-0.66-0.391-0.867-0.717s-0.311-0.701-0.311-1.123c0-0.637,0.202-1.146,0.606-1.531
		c0.404-0.385,0.95-0.577,1.638-0.577c0.418,0,0.742,0.041,0.973,0.123h2.04V274.831z M110.084,282.277
		c0,0.875,0.65,1.313,1.951,1.313c1.672,0,2.508-0.532,2.508-1.6c0-0.384-0.131-0.66-0.393-0.832
		c-0.262-0.173-0.686-0.259-1.271-0.259h-1.043C110.668,280.9,110.084,281.359,110.084,282.277z M110.57,276.816
		c0,0.492,0.149,0.875,0.448,1.146c0.299,0.271,0.698,0.407,1.198,0.407c0.531,0,0.938-0.136,1.222-0.404s0.425-0.659,0.425-1.172
		c0-0.543-0.146-0.95-0.437-1.222c-0.291-0.272-0.698-0.407-1.222-0.407c-0.508,0-0.907,0.146-1.198,0.437
		S110.57,276.298,110.57,276.816z"/>
	<path fill="#1A1A1A" d="M119.119,281.316c-0.926,0-1.647-0.284-2.165-0.854c-0.518-0.569-0.776-1.369-0.776-2.396
		c0-1.017,0.25-1.83,0.75-2.44s1.174-0.917,2.021-0.917c0.75,0,1.342,0.262,1.775,0.785s0.65,1.234,0.65,2.133v0.469h-4.588
		c0.008,0.875,0.212,1.543,0.612,2.004s0.974,0.691,1.72,0.691c0.363,0,0.683-0.025,0.958-0.076c0.275-0.051,0.624-0.16,1.046-0.328
		v0.527c-0.359,0.156-0.691,0.263-0.996,0.318C119.821,281.289,119.486,281.316,119.119,281.316z M118.949,275.225
		c-0.613,0-1.105,0.201-1.477,0.605c-0.372,0.404-0.588,0.986-0.65,1.749h3.938c0-0.738-0.16-1.315-0.48-1.731
		C119.96,275.432,119.516,275.225,118.949,275.225z"/>
	<path fill="#1A1A1A" d="M127.574,281.2v-4.132c0-0.641-0.135-1.105-0.404-1.396s-0.688-0.438-1.254-0.438
		c-0.762,0-1.318,0.192-1.673,0.578c-0.354,0.385-0.53,1.008-0.53,1.871v3.517h-0.58v-6.369h0.492l0.111,0.873h0.035
		c0.414-0.664,1.149-0.996,2.209-0.996c1.444,0,2.168,0.774,2.168,2.326v4.166H127.574L127.574,281.2z"/>
	<path fill="#1A1A1A" d="M130.715,274.831v4.125c0,0.642,0.135,1.106,0.404,1.397s0.688,0.437,1.254,0.437
		c0.758,0,1.314-0.19,1.673-0.574c0.358-0.383,0.536-1.006,0.536-1.868v-3.517h0.574v6.369h-0.492l-0.105-0.88h-0.035
		c-0.414,0.664-1.149,0.996-2.209,0.996c-1.448,0-2.174-0.774-2.174-2.325v-4.16H130.715L130.715,274.831z"/>
	<path fill="#1A1A1A" d="M141.238,279.542c0,0.569-0.217,1.009-0.65,1.315c-0.434,0.306-1.049,0.459-1.846,0.459
		c-0.852,0-1.527-0.131-2.027-0.393v-0.627c0.641,0.32,1.316,0.48,2.027,0.48c0.629,0,1.105-0.104,1.433-0.313
		s0.489-0.487,0.489-0.835c0-0.32-0.13-0.59-0.391-0.809c-0.26-0.219-0.687-0.434-1.279-0.646c-0.637-0.229-1.084-0.429-1.342-0.595
		s-0.452-0.354-0.584-0.563c-0.131-0.209-0.195-0.465-0.195-0.766c0-0.477,0.2-0.854,0.602-1.131c0.4-0.277,0.959-0.416,1.678-0.416
		c0.688,0,1.341,0.129,1.957,0.387l-0.217,0.527c-0.625-0.258-1.205-0.387-1.74-0.387c-0.52,0-0.932,0.086-1.235,0.258
		s-0.457,0.41-0.457,0.715c0,0.332,0.118,0.598,0.354,0.797c0.235,0.199,0.697,0.422,1.386,0.668
		c0.573,0.207,0.991,0.395,1.254,0.561c0.262,0.166,0.458,0.354,0.589,0.564S141.238,279.257,141.238,279.542z"/>
	<path fill="#1A1A1A" d="M24.912,293.941c0,0.569-0.217,1.009-0.65,1.314c-0.433,0.307-1.049,0.46-1.846,0.46
		c-0.852,0-1.527-0.131-2.027-0.393v-0.627c0.641,0.319,1.316,0.479,2.027,0.479c0.629,0,1.106-0.104,1.433-0.313
		c0.327-0.209,0.489-0.487,0.489-0.835c0-0.32-0.13-0.59-0.39-0.81c-0.26-0.219-0.687-0.434-1.28-0.645
		c-0.637-0.23-1.084-0.43-1.342-0.596c-0.258-0.166-0.452-0.354-0.583-0.563c-0.131-0.209-0.196-0.464-0.196-0.766
		c0-0.477,0.2-0.854,0.601-1.131c0.401-0.276,0.96-0.416,1.679-0.416c0.688,0,1.34,0.129,1.957,0.388l-0.217,0.526
		c-0.625-0.258-1.205-0.387-1.74-0.387c-0.52,0-0.932,0.086-1.236,0.258c-0.304,0.172-0.457,0.41-0.457,0.715
		c0,0.332,0.118,0.599,0.354,0.797c0.236,0.199,0.698,0.423,1.386,0.668c0.574,0.207,0.992,0.395,1.254,0.561
		c0.262,0.166,0.458,0.354,0.589,0.565C24.848,293.405,24.912,293.656,24.912,293.941z"/>
	<path fill="#1A1A1A" d="M29.125,295.717c-0.926,0-1.647-0.285-2.165-0.854c-0.518-0.57-0.776-1.369-0.776-2.396
		c0-1.016,0.25-1.829,0.75-2.44c0.5-0.61,1.174-0.916,2.021-0.916c0.75,0,1.342,0.262,1.775,0.785
		c0.433,0.522,0.65,1.233,0.65,2.133v0.469h-4.588c0.008,0.875,0.212,1.543,0.612,2.004c0.4,0.461,0.974,0.691,1.72,0.691
		c0.363,0,0.683-0.025,0.958-0.076s0.624-0.16,1.046-0.328v0.527c-0.359,0.155-0.691,0.263-0.996,0.318
		C29.827,295.689,29.492,295.717,29.125,295.717z M28.955,289.623c-0.613,0-1.105,0.202-1.477,0.605
		c-0.372,0.404-0.588,0.987-0.65,1.75h3.938c0-0.738-0.16-1.315-0.48-1.731C29.966,289.831,29.521,289.623,28.955,289.623z"/>
	<path fill="#1A1A1A" d="M35.711,295.717c-0.926,0-1.647-0.285-2.165-0.854c-0.518-0.57-0.776-1.369-0.776-2.396
		c0-1.016,0.25-1.829,0.75-2.44c0.5-0.61,1.174-0.916,2.021-0.916c0.75,0,1.342,0.262,1.775,0.785
		c0.433,0.522,0.65,1.233,0.65,2.133v0.469h-4.588c0.008,0.875,0.212,1.543,0.612,2.004c0.4,0.461,0.974,0.691,1.72,0.691
		c0.363,0,0.683-0.025,0.958-0.076s0.624-0.16,1.046-0.328v0.527c-0.359,0.155-0.691,0.263-0.996,0.318
		C36.413,295.689,36.078,295.717,35.711,295.717z M35.541,289.623c-0.613,0-1.105,0.202-1.477,0.605
		c-0.372,0.404-0.588,0.987-0.65,1.75h3.938c0-0.738-0.16-1.315-0.48-1.731C36.552,289.831,36.107,289.623,35.541,289.623z"/>
	<path fill="#1A1A1A" d="M44.166,295.6v-4.131c0-0.641-0.135-1.105-0.404-1.396s-0.688-0.438-1.254-0.438
		c-0.762,0-1.319,0.192-1.673,0.577c-0.354,0.386-0.53,1.009-0.53,1.872v3.516h-0.58v-6.369h0.492l0.111,0.873h0.035
		c0.414-0.664,1.15-0.996,2.209-0.996c1.445,0,2.168,0.775,2.168,2.326v4.166H44.166L44.166,295.6z"/>
	<path fill="#1A1A1A" d="M51.602,295.201c0.367,0,0.688-0.031,0.961-0.094v0.469c-0.281,0.094-0.605,0.141-0.973,0.141
		c-0.563,0-0.978-0.149-1.245-0.451c-0.267-0.301-0.401-0.772-0.401-1.418v-4.113H49v-0.34l0.943-0.264l0.293-1.441h0.299v1.541
		h1.869v0.504h-1.869v4.031c0,0.488,0.086,0.851,0.258,1.084C50.965,295.084,51.234,295.201,51.602,295.201z"/>
	<path fill="#1A1A1A" d="M58.381,295.6v-4.131c0-0.641-0.135-1.105-0.404-1.396s-0.688-0.438-1.254-0.438
		c-0.762,0-1.319,0.192-1.673,0.577c-0.354,0.386-0.53,1.009-0.53,1.872v3.516h-0.58v-9.117h0.58v2.9l-0.029,0.814h0.041
		c0.238-0.383,0.539-0.66,0.902-0.832c0.363-0.172,0.814-0.258,1.354-0.258c1.445,0,2.168,0.774,2.168,2.326v4.165L58.381,295.6
		L58.381,295.6z"/>
	<path fill="#1A1A1A" d="M63.525,289.107c0.27,0,0.559,0.026,0.867,0.082l-0.111,0.557c-0.266-0.066-0.541-0.1-0.826-0.1
		c-0.543,0-0.988,0.229-1.336,0.69c-0.348,0.461-0.521,1.043-0.521,1.746v3.516h-0.58v-6.368h0.492l0.059,1.147h0.041
		c0.262-0.469,0.541-0.798,0.838-0.987C62.745,289.202,63.104,289.107,63.525,289.107z"/>
	<path fill="#1A1A1A" d="M70.955,292.406c0,1.039-0.252,1.851-0.756,2.435c-0.504,0.584-1.199,0.876-2.086,0.876
		c-0.559,0-1.051-0.135-1.477-0.403c-0.426-0.27-0.752-0.656-0.979-1.16c-0.227-0.504-0.34-1.087-0.34-1.746
		c0-1.039,0.252-1.849,0.756-2.429c0.504-0.58,1.195-0.871,2.074-0.871c0.875,0,1.562,0.295,2.06,0.883
		S70.955,291.383,70.955,292.406z M65.928,292.406c0,0.875,0.192,1.558,0.577,2.048c0.385,0.49,0.929,0.735,1.632,0.735
		c0.703,0,1.247-0.245,1.632-0.735c0.385-0.49,0.577-1.173,0.577-2.048c0-0.879-0.194-1.561-0.583-2.045
		c-0.389-0.484-0.935-0.728-1.638-0.728s-1.245,0.241-1.626,0.724C66.118,290.841,65.928,291.523,65.928,292.406z"/>
	<path fill="#1A1A1A" d="M73.223,289.23v4.125c0,0.641,0.135,1.105,0.404,1.396s0.688,0.438,1.254,0.438
		c0.758,0,1.315-0.191,1.673-0.574c0.358-0.383,0.536-1.006,0.536-1.869v-3.516h0.574v6.368h-0.492l-0.105-0.879h-0.035
		c-0.414,0.664-1.15,0.996-2.209,0.996c-1.449,0-2.174-0.774-2.174-2.326v-4.159H73.223L73.223,289.23z"/>
	<path fill="#1A1A1A" d="M84.766,289.23v0.403l-1.318,0.082c0.352,0.438,0.527,0.918,0.527,1.441c0,0.612-0.204,1.11-0.612,1.491
		c-0.408,0.381-0.956,0.57-1.644,0.57c-0.289,0-0.492-0.012-0.609-0.035c-0.23,0.121-0.406,0.265-0.527,0.429
		s-0.182,0.338-0.182,0.521c0,0.203,0.077,0.353,0.231,0.445c0.154,0.093,0.413,0.141,0.776,0.141h1.113
		c0.691,0,1.221,0.141,1.588,0.419c0.367,0.279,0.551,0.692,0.551,1.239c0,0.672-0.272,1.19-0.817,1.556
		c-0.545,0.366-1.321,0.549-2.329,0.549c-0.801,0-1.421-0.154-1.86-0.464c-0.439-0.309-0.659-0.737-0.659-1.288
		c0-0.438,0.136-0.802,0.407-1.091s0.64-0.485,1.104-0.592c-0.191-0.082-0.345-0.198-0.46-0.349
		c-0.115-0.151-0.173-0.323-0.173-0.52c0-0.426,0.271-0.801,0.814-1.124c-0.371-0.152-0.66-0.393-0.867-0.719
		s-0.311-0.699-0.311-1.122c0-0.637,0.202-1.147,0.606-1.532c0.404-0.385,0.95-0.576,1.638-0.576c0.418,0,0.742,0.041,0.973,0.123
		h2.04V289.23z M79.609,296.678c0,0.875,0.65,1.313,1.951,1.313c1.672,0,2.508-0.533,2.508-1.601c0-0.383-0.131-0.659-0.393-0.832
		c-0.262-0.172-0.686-0.258-1.271-0.258h-1.043C80.193,295.301,79.609,295.76,79.609,296.678z M80.096,291.217
		c0,0.492,0.149,0.874,0.448,1.146c0.299,0.271,0.698,0.406,1.198,0.406c0.531,0,0.938-0.135,1.222-0.403
		c0.284-0.269,0.425-0.66,0.425-1.173c0-0.543-0.146-0.949-0.437-1.221c-0.291-0.272-0.698-0.408-1.222-0.408
		c-0.508,0-0.907,0.146-1.198,0.438S80.096,290.697,80.096,291.217z"/>
	<path fill="#1A1A1A" d="M90.514,295.6v-4.131c0-0.641-0.135-1.105-0.404-1.396s-0.688-0.438-1.254-0.438
		c-0.762,0-1.319,0.192-1.673,0.577c-0.354,0.386-0.53,1.009-0.53,1.872v3.516h-0.58v-9.117h0.58v2.9l-0.029,0.814h0.041
		c0.238-0.383,0.539-0.66,0.902-0.832c0.363-0.172,0.814-0.258,1.354-0.258c1.445,0,2.168,0.774,2.168,2.326v4.165L90.514,295.6
		L90.514,295.6z"/>
	<path fill="#1A1A1A" d="M97.949,295.201c0.367,0,0.688-0.031,0.961-0.094v0.469c-0.281,0.094-0.605,0.141-0.973,0.141
		c-0.563,0-0.978-0.149-1.245-0.451c-0.267-0.301-0.401-0.772-0.401-1.418v-4.113h-0.943v-0.34l0.943-0.264l0.293-1.441h0.299v1.541
		h1.869v0.504h-1.869v4.031c0,0.488,0.086,0.851,0.258,1.084C97.313,295.084,97.582,295.201,97.949,295.201z"/>
	<path fill="#1A1A1A" d="M104.729,295.6v-4.131c0-0.641-0.135-1.105-0.404-1.396c-0.269-0.291-0.688-0.438-1.254-0.438
		c-0.762,0-1.319,0.192-1.673,0.577c-0.354,0.386-0.53,1.009-0.53,1.872v3.516h-0.58v-9.117h0.58v2.9l-0.029,0.814h0.041
		c0.238-0.383,0.539-0.66,0.902-0.832c0.363-0.172,0.814-0.258,1.354-0.258c1.445,0,2.168,0.774,2.168,2.326v4.165L104.729,295.6
		L104.729,295.6z"/>
	<path fill="#1A1A1A" d="M109.938,295.717c-0.926,0-1.647-0.285-2.165-0.854c-0.518-0.57-0.776-1.369-0.776-2.396
		c0-1.016,0.25-1.829,0.75-2.44c0.5-0.61,1.174-0.916,2.021-0.916c0.75,0,1.342,0.262,1.775,0.785
		c0.433,0.522,0.65,1.233,0.65,2.133v0.469h-4.588c0.008,0.875,0.212,1.543,0.612,2.004c0.4,0.461,0.974,0.691,1.72,0.691
		c0.363,0,0.683-0.025,0.958-0.076s0.624-0.16,1.046-0.328v0.527c-0.359,0.155-0.691,0.263-0.996,0.318
		C110.64,295.689,110.305,295.717,109.938,295.717z M109.768,289.623c-0.613,0-1.105,0.202-1.477,0.605
		c-0.372,0.404-0.588,0.987-0.65,1.75h3.938c0-0.738-0.16-1.315-0.48-1.731C110.779,289.831,110.334,289.623,109.768,289.623z"/>
	<path fill="#1A1A1A" d="M121.018,293.941c0,0.569-0.217,1.009-0.65,1.314c-0.433,0.307-1.049,0.46-1.846,0.46
		c-0.852,0-1.527-0.131-2.027-0.393v-0.627c0.641,0.319,1.316,0.479,2.027,0.479c0.629,0,1.106-0.104,1.433-0.313
		s0.489-0.487,0.489-0.835c0-0.32-0.13-0.59-0.39-0.81c-0.26-0.219-0.687-0.434-1.28-0.645c-0.637-0.23-1.084-0.43-1.342-0.596
		c-0.258-0.166-0.452-0.354-0.583-0.563c-0.131-0.209-0.196-0.464-0.196-0.766c0-0.477,0.2-0.854,0.601-1.131
		c0.401-0.276,0.96-0.416,1.679-0.416c0.688,0,1.34,0.129,1.957,0.388l-0.217,0.526c-0.625-0.258-1.205-0.387-1.74-0.387
		c-0.52,0-0.932,0.086-1.236,0.258c-0.304,0.172-0.457,0.41-0.457,0.715c0,0.332,0.118,0.599,0.354,0.797
		c0.236,0.199,0.698,0.423,1.386,0.668c0.574,0.207,0.992,0.395,1.254,0.561c0.262,0.166,0.458,0.354,0.589,0.565
		C120.954,293.405,121.018,293.656,121.018,293.941z"/>
	<path fill="#1A1A1A" d="M124.34,295.201c0.367,0,0.688-0.031,0.961-0.094v0.469c-0.281,0.094-0.605,0.141-0.973,0.141
		c-0.563,0-0.979-0.149-1.245-0.451c-0.267-0.301-0.401-0.772-0.401-1.418v-4.113h-0.943v-0.34l0.943-0.264l0.293-1.441h0.299v1.541
		h1.869v0.504h-1.869v4.031c0,0.488,0.086,0.851,0.259,1.084C123.704,295.084,123.973,295.201,124.34,295.201z"/>
	<path fill="#1A1A1A" d="M127.182,289.23v4.125c0,0.641,0.135,1.105,0.404,1.396s0.688,0.438,1.254,0.438
		c0.758,0,1.314-0.191,1.674-0.574c0.357-0.383,0.535-1.006,0.535-1.869v-3.516h0.574v6.368h-0.492l-0.105-0.879h-0.034
		c-0.414,0.664-1.15,0.996-2.209,0.996c-1.449,0-2.175-0.774-2.175-2.326v-4.159H127.182L127.182,289.23z"/>
	<path fill="#1A1A1A" d="M136.088,289.107c0.461,0,0.859,0.084,1.195,0.252s0.637,0.455,0.902,0.861h0.035
		c-0.023-0.492-0.035-0.976-0.035-1.447v-2.291h0.573v9.116h-0.381l-0.146-0.973h-0.047c-0.484,0.728-1.181,1.09-2.086,1.09
		c-0.879,0-1.552-0.272-2.017-0.819c-0.465-0.548-0.696-1.345-0.696-2.392c0-1.103,0.229-1.942,0.69-2.524
		S135.209,289.107,136.088,289.107z M136.088,289.635c-0.695,0-1.218,0.244-1.566,0.732c-0.35,0.488-0.524,1.197-0.524,2.127
		c0,1.805,0.701,2.707,2.104,2.707c0.719,0,1.246-0.209,1.582-0.627s0.504-1.107,0.504-2.068v-0.1c0-0.984-0.166-1.692-0.496-2.124
		C137.361,289.85,136.826,289.635,136.088,289.635z"/>
	<path fill="#1A1A1A" d="M139.832,289.23h0.598l1.348,3.574c0.41,1.098,0.671,1.837,0.779,2.221h0.035
		c0.164-0.504,0.432-1.257,0.803-2.256l1.349-3.539h0.598l-2.854,7.399c-0.229,0.603-0.424,1.008-0.579,1.219
		c-0.156,0.211-0.339,0.369-0.548,0.476c-0.209,0.105-0.463,0.158-0.76,0.158c-0.223,0-0.471-0.041-0.744-0.123v-0.504
		c0.228,0.063,0.472,0.094,0.732,0.094c0.199,0,0.375-0.047,0.527-0.142c0.152-0.094,0.289-0.238,0.412-0.437
		s0.267-0.51,0.429-0.938c0.162-0.428,0.267-0.706,0.313-0.835L139.832,289.23z"/>
	<path fill="#1A1A1A" d="M26.23,306.807c0,1.039-0.252,1.852-0.756,2.436s-1.199,0.876-2.086,0.876
		c-0.559,0-1.051-0.135-1.477-0.404c-0.426-0.269-0.752-0.656-0.979-1.16s-0.34-1.086-0.34-1.746c0-1.039,0.252-1.849,0.756-2.429
		s1.195-0.87,2.074-0.87c0.875,0,1.562,0.294,2.06,0.882S26.23,305.783,26.23,306.807z M21.203,306.807
		c0,0.875,0.192,1.559,0.577,2.049c0.385,0.489,0.929,0.734,1.632,0.734s1.247-0.245,1.632-0.734
		c0.385-0.49,0.577-1.174,0.577-2.049c0-0.879-0.194-1.561-0.583-2.045c-0.389-0.483-0.935-0.727-1.638-0.727
		s-1.245,0.241-1.626,0.724C21.393,305.242,21.203,305.924,21.203,306.807z"/>
	<path fill="#1A1A1A" d="M30.361,304.135h-1.5V310h-0.58v-5.865h-1.184v-0.34l1.184-0.217v-0.492c0-0.781,0.144-1.354,0.431-1.72
		s0.757-0.548,1.409-0.548c0.352,0,0.703,0.053,1.055,0.157l-0.135,0.505c-0.313-0.099-0.623-0.146-0.932-0.146
		c-0.453,0-0.774,0.134-0.964,0.401c-0.19,0.267-0.284,0.701-0.284,1.304v0.592h1.5V304.135z"/>
	<path fill="#1A1A1A" d="M36.391,309.602c0.367,0,0.688-0.03,0.961-0.094v0.469c-0.281,0.095-0.605,0.142-0.973,0.142
		c-0.563,0-0.978-0.15-1.245-0.451c-0.267-0.301-0.401-0.773-0.401-1.418v-4.113H33.79v-0.34l0.943-0.264l0.293-1.441h0.299v1.541
		h1.869v0.504h-1.869v4.031c0,0.488,0.086,0.85,0.258,1.084S36.023,309.602,36.391,309.602z"/>
	<path fill="#1A1A1A" d="M43.17,310v-4.131c0-0.642-0.135-1.106-0.404-1.397s-0.688-0.437-1.254-0.437
		c-0.762,0-1.319,0.191-1.673,0.577c-0.354,0.385-0.53,1.009-0.53,1.872V310h-0.58v-9.117h0.58v2.9l-0.029,0.813h0.041
		c0.238-0.383,0.539-0.66,0.902-0.832c0.363-0.172,0.814-0.258,1.354-0.258c1.445,0,2.168,0.775,2.168,2.326V310H43.17z"/>
	<path fill="#1A1A1A" d="M48.379,310.117c-0.926,0-1.647-0.285-2.165-0.855c-0.518-0.569-0.776-1.369-0.776-2.396
		c0-1.017,0.25-1.829,0.75-2.44c0.5-0.61,1.174-0.917,2.021-0.917c0.75,0,1.342,0.263,1.775,0.785
		c0.433,0.523,0.65,1.234,0.65,2.133v0.47h-4.588c0.008,0.875,0.212,1.543,0.612,2.004c0.4,0.461,0.974,0.69,1.72,0.69
		c0.363,0,0.683-0.024,0.958-0.076c0.275-0.051,0.624-0.159,1.046-0.327v0.526c-0.359,0.156-0.691,0.263-0.996,0.319
		C49.081,310.089,48.746,310.117,48.379,310.117z M48.209,304.023c-0.613,0-1.105,0.201-1.477,0.605s-0.588,0.987-0.65,1.749h3.938
		c0-0.738-0.16-1.315-0.48-1.73C49.22,304.231,48.775,304.023,48.209,304.023z"/>
	<path fill="#1A1A1A" d="M58.234,310.117c-0.98,0-1.695-0.367-2.145-1.103h-0.041l0.018,0.492c0.016,0.289,0.023,0.605,0.023,0.949
		v2.426h-0.58v-9.252h0.492l0.111,0.908h0.035c0.438-0.688,1.137-1.031,2.098-1.031c0.859,0,1.515,0.282,1.966,0.847
		c0.451,0.565,0.677,1.387,0.677,2.465c0,1.047-0.237,1.857-0.712,2.435C59.701,309.83,59.055,310.117,58.234,310.117z
		 M58.223,309.602c0.652,0,1.157-0.241,1.515-0.727c0.358-0.485,0.536-1.162,0.536-2.033c0-1.871-0.676-2.807-2.027-2.807
		c-0.742,0-1.287,0.204-1.635,0.612c-0.348,0.407-0.521,1.072-0.521,1.994v0.188c0,0.996,0.167,1.707,0.501,2.133
		S57.469,309.602,58.223,309.602z"/>
	<path fill="#1A1A1A" d="M67.094,310v-4.131c0-0.642-0.135-1.106-0.404-1.397s-0.688-0.437-1.254-0.437
		c-0.762,0-1.319,0.191-1.673,0.577c-0.354,0.385-0.53,1.009-0.53,1.872V310h-0.58v-9.117h0.58v2.9l-0.029,0.813h0.041
		c0.238-0.383,0.539-0.66,0.902-0.832s0.814-0.258,1.354-0.258c1.445,0,2.168,0.775,2.168,2.326V310H67.094z"/>
	<path fill="#1A1A1A" d="M74.998,306.807c0,1.039-0.252,1.852-0.756,2.436c-0.504,0.584-1.199,0.876-2.086,0.876
		c-0.559,0-1.051-0.135-1.477-0.404c-0.426-0.269-0.752-0.656-0.979-1.16c-0.227-0.504-0.34-1.086-0.34-1.746
		c0-1.039,0.252-1.849,0.756-2.429c0.504-0.58,1.195-0.87,2.074-0.87c0.875,0,1.562,0.294,2.06,0.882S74.998,305.783,74.998,306.807
		z M69.971,306.807c0,0.875,0.192,1.559,0.577,2.049c0.385,0.489,0.929,0.734,1.632,0.734c0.703,0,1.247-0.245,1.632-0.734
		c0.385-0.49,0.577-1.174,0.577-2.049c0-0.879-0.194-1.561-0.583-2.045c-0.389-0.483-0.935-0.727-1.638-0.727
		s-1.245,0.241-1.626,0.724C70.161,305.242,69.971,305.924,69.971,306.807z"/>
	<path fill="#1A1A1A" d="M81.203,310v-4.131c0-0.642-0.135-1.106-0.404-1.397s-0.688-0.437-1.254-0.437
		c-0.762,0-1.319,0.191-1.673,0.577c-0.354,0.385-0.53,1.009-0.53,1.872V310h-0.58v-6.369h0.492l0.111,0.873H77.4
		c0.414-0.664,1.15-0.996,2.209-0.996c1.445,0,2.168,0.775,2.168,2.326V310H81.203z"/>
	<path fill="#1A1A1A" d="M89.107,306.807c0,1.039-0.252,1.852-0.756,2.436s-1.199,0.876-2.086,0.876
		c-0.559,0-1.051-0.135-1.477-0.404c-0.426-0.269-0.752-0.656-0.979-1.16s-0.34-1.086-0.34-1.746c0-1.039,0.252-1.849,0.756-2.429
		s1.195-0.87,2.074-0.87c0.875,0,1.562,0.294,2.06,0.882S89.107,305.783,89.107,306.807z M84.08,306.807
		c0,0.875,0.192,1.559,0.577,2.049c0.385,0.489,0.929,0.734,1.632,0.734s1.247-0.245,1.632-0.734
		c0.385-0.49,0.577-1.174,0.577-2.049c0-0.879-0.194-1.561-0.583-2.045c-0.389-0.483-0.935-0.727-1.638-0.727
		c-0.703,0-1.245,0.241-1.626,0.724C84.27,305.242,84.08,305.924,84.08,306.807z"/>
	<path fill="#1A1A1A" d="M91.451,310h-0.58v-9.117h0.58V310z"/>
	<path fill="#1A1A1A" d="M98.852,306.807c0,1.039-0.252,1.852-0.756,2.436c-0.504,0.584-1.199,0.876-2.086,0.876
		c-0.559,0-1.051-0.135-1.477-0.404c-0.426-0.269-0.752-0.656-0.979-1.16s-0.34-1.086-0.34-1.746c0-1.039,0.252-1.849,0.756-2.429
		c0.504-0.58,1.195-0.87,2.074-0.87c0.875,0,1.562,0.294,2.06,0.882S98.852,305.783,98.852,306.807z M93.824,306.807
		c0,0.875,0.192,1.559,0.577,2.049c0.385,0.489,0.929,0.734,1.632,0.734c0.703,0,1.247-0.245,1.632-0.734
		c0.385-0.49,0.577-1.174,0.577-2.049c0-0.879-0.194-1.561-0.583-2.045c-0.389-0.483-0.935-0.727-1.638-0.727
		s-1.245,0.241-1.626,0.724C94.014,305.242,93.824,305.924,93.824,306.807z"/>
	<path fill="#1A1A1A" d="M105.584,303.631v0.404l-1.318,0.082c0.352,0.438,0.527,0.918,0.527,1.44c0,0.613-0.204,1.11-0.612,1.491
		c-0.408,0.381-0.956,0.571-1.644,0.571c-0.289,0-0.492-0.012-0.609-0.035c-0.23,0.121-0.406,0.264-0.527,0.428
		s-0.182,0.338-0.182,0.521c0,0.203,0.077,0.352,0.231,0.445c0.154,0.093,0.413,0.141,0.776,0.141h1.113
		c0.691,0,1.221,0.14,1.588,0.419c0.367,0.279,0.551,0.692,0.551,1.239c0,0.672-0.272,1.189-0.817,1.556s-1.321,0.548-2.329,0.548
		c-0.801,0-1.421-0.153-1.86-0.463c-0.439-0.309-0.659-0.738-0.659-1.289c0-0.438,0.136-0.801,0.407-1.09s0.64-0.486,1.104-0.592
		c-0.191-0.082-0.345-0.198-0.46-0.35c-0.115-0.15-0.173-0.322-0.173-0.519c0-0.426,0.271-0.801,0.814-1.125
		c-0.371-0.152-0.66-0.392-0.867-0.718s-0.311-0.7-0.311-1.122c0-0.637,0.202-1.147,0.606-1.532c0.404-0.385,0.95-0.577,1.638-0.577
		c0.418,0,0.742,0.041,0.973,0.123h2.04V303.631z M100.428,311.078c0,0.875,0.65,1.313,1.951,1.313c1.672,0,2.508-0.532,2.508-1.6
		c0-0.383-0.131-0.66-0.393-0.832c-0.262-0.172-0.686-0.258-1.271-0.258h-1.043C101.012,309.701,100.428,310.16,100.428,311.078z
		 M100.914,305.617c0,0.492,0.149,0.874,0.448,1.146c0.299,0.272,0.698,0.407,1.198,0.407c0.531,0,0.938-0.135,1.222-0.404
		c0.284-0.269,0.425-0.659,0.425-1.172c0-0.543-0.146-0.95-0.437-1.222c-0.291-0.272-0.698-0.407-1.222-0.407
		c-0.508,0-0.907,0.146-1.198,0.438S100.914,305.098,100.914,305.617z"/>
	<path fill="#1A1A1A" d="M106.809,301.861c0-0.375,0.123-0.563,0.369-0.563c0.121,0,0.216,0.049,0.284,0.146
		c0.068,0.097,0.103,0.235,0.103,0.416c0,0.176-0.034,0.313-0.103,0.416c-0.069,0.102-0.163,0.151-0.284,0.151
		C106.932,302.43,106.809,302.24,106.809,301.861z M107.471,310h-0.58v-6.369h0.58V310z"/>
	<path fill="#1A1A1A" d="M112.146,310.117c-0.91,0-1.623-0.287-2.139-0.861c-0.516-0.574-0.773-1.375-0.773-2.402
		c0-1.055,0.268-1.876,0.803-2.464c0.535-0.588,1.268-0.882,2.197-0.882c0.551,0,1.078,0.097,1.582,0.287l-0.158,0.516
		c-0.551-0.184-1.029-0.274-1.436-0.274c-0.781,0-1.373,0.241-1.775,0.724c-0.402,0.483-0.604,1.178-0.604,2.083
		c0,0.859,0.201,1.532,0.604,2.02c0.403,0.486,0.965,0.729,1.688,0.729c0.578,0,1.115-0.104,1.611-0.311v0.539
		C113.34,310.018,112.807,310.117,112.146,310.117z"/>
	<path fill="#1A1A1A" d="M119.172,310l-0.146-1.008h-0.047c-0.32,0.41-0.649,0.7-0.987,0.87c-0.338,0.17-0.737,0.255-1.198,0.255
		c-0.625,0-1.111-0.16-1.459-0.48c-0.348-0.319-0.521-0.764-0.521-1.33c0-0.621,0.259-1.104,0.776-1.446
		c0.517-0.344,1.267-0.525,2.247-0.545l1.213-0.035v-0.422c0-0.605-0.123-1.063-0.369-1.371c-0.246-0.309-0.643-0.463-1.189-0.463
		c-0.59,0-1.201,0.163-1.834,0.491l-0.217-0.504c0.699-0.328,1.391-0.492,2.074-0.492c0.699,0,1.222,0.183,1.567,0.546
		c0.345,0.362,0.519,0.93,0.519,1.698V310H119.172z M116.828,309.59c0.68,0,1.216-0.193,1.608-0.583
		c0.392-0.389,0.589-0.929,0.589-1.62v-0.627l-1.113,0.047c-0.895,0.043-1.532,0.184-1.913,0.419
		c-0.381,0.236-0.571,0.604-0.571,1.104c0,0.397,0.122,0.708,0.366,0.929S116.383,309.59,116.828,309.59z"/>
	<path fill="#1A1A1A" d="M122.242,310h-0.58v-9.117h0.58V310z"/>
	<path fill="#1A1A1A" d="M129.859,304.135h-1.5V310h-0.58v-5.865h-1.184v-0.34l1.184-0.217v-0.492c0-0.781,0.144-1.354,0.431-1.72
		s0.757-0.548,1.409-0.548c0.352,0,0.703,0.053,1.055,0.157l-0.135,0.505c-0.313-0.099-0.623-0.146-0.932-0.146
		c-0.453,0-0.774,0.134-0.965,0.401c-0.189,0.267-0.283,0.701-0.283,1.304v0.592h1.5V304.135L129.859,304.135z"/>
	<path fill="#1A1A1A" d="M133.662,310.117c-0.926,0-1.646-0.285-2.165-0.855c-0.519-0.569-0.776-1.369-0.776-2.396
		c0-1.017,0.25-1.829,0.75-2.44c0.5-0.61,1.174-0.917,2.021-0.917c0.75,0,1.342,0.263,1.775,0.785
		c0.433,0.523,0.649,1.234,0.649,2.133v0.47h-4.588c0.008,0.875,0.212,1.543,0.612,2.004c0.399,0.461,0.974,0.69,1.72,0.69
		c0.362,0,0.683-0.024,0.958-0.076c0.275-0.051,0.624-0.159,1.046-0.327v0.526c-0.358,0.156-0.69,0.263-0.996,0.319
		C134.363,310.089,134.029,310.117,133.662,310.117z M133.492,304.023c-0.613,0-1.105,0.201-1.477,0.605
		c-0.373,0.404-0.589,0.987-0.65,1.749h3.938c0-0.738-0.16-1.315-0.479-1.73C134.503,304.231,134.059,304.023,133.492,304.023z"/>
	<path fill="#1A1A1A" d="M141.543,310l-0.146-1.008h-0.047c-0.32,0.41-0.648,0.7-0.986,0.87s-0.737,0.255-1.198,0.255
		c-0.625,0-1.11-0.16-1.459-0.48c-0.349-0.319-0.521-0.764-0.521-1.33c0-0.621,0.258-1.104,0.775-1.446
		c0.518-0.344,1.268-0.525,2.247-0.545l1.213-0.035v-0.422c0-0.605-0.123-1.063-0.369-1.371c-0.245-0.309-0.643-0.463-1.188-0.463
		c-0.59,0-1.201,0.163-1.834,0.491l-0.217-0.504c0.699-0.328,1.391-0.492,2.074-0.492c0.698,0,1.221,0.183,1.566,0.546
		c0.345,0.362,0.52,0.93,0.52,1.698V310H141.543z M139.199,309.59c0.68,0,1.216-0.193,1.607-0.583c0.393-0.389,0.59-0.929,0.59-1.62
		v-0.627l-1.113,0.047c-0.895,0.043-1.532,0.184-1.913,0.419c-0.381,0.236-0.571,0.604-0.571,1.104c0,0.397,0.122,0.708,0.366,0.929
		S138.754,309.59,139.199,309.59z"/>
	<path fill="#1A1A1A" d="M145.715,309.602c0.367,0,0.688-0.03,0.961-0.094v0.469c-0.281,0.095-0.605,0.142-0.973,0.142
		c-0.563,0-0.979-0.15-1.245-0.451s-0.401-0.773-0.401-1.418v-4.113h-0.943v-0.34l0.943-0.264l0.293-1.441h0.299v1.541h1.869v0.504
		h-1.869v4.031c0,0.488,0.086,0.85,0.259,1.084C145.079,309.485,145.348,309.602,145.715,309.602z"/>
	<path fill="#1A1A1A" d="M148.557,303.631v4.125c0,0.642,0.135,1.106,0.404,1.397s0.688,0.437,1.254,0.437
		c0.758,0,1.314-0.19,1.674-0.574c0.357-0.383,0.535-1.006,0.535-1.868v-3.517h0.574V310h-0.492l-0.105-0.879h-0.034
		c-0.414,0.664-1.15,0.996-2.209,0.996c-1.449,0-2.175-0.775-2.175-2.326v-4.16H148.557z"/>
	<path fill="#1A1A1A" d="M157.639,303.508c0.271,0,0.56,0.027,0.867,0.082l-0.111,0.558c-0.266-0.066-0.541-0.101-0.826-0.101
		c-0.543,0-0.987,0.23-1.336,0.691c-0.348,0.461-0.521,1.043-0.521,1.746V310h-0.58v-6.369h0.492l0.06,1.148h0.041
		c0.262-0.47,0.541-0.798,0.838-0.987C156.859,303.604,157.217,303.508,157.639,303.508z"/>
	<path fill="#1A1A1A" d="M162.373,310.117c-0.926,0-1.646-0.285-2.165-0.855c-0.519-0.569-0.776-1.369-0.776-2.396
		c0-1.017,0.25-1.829,0.75-2.44c0.5-0.61,1.174-0.917,2.021-0.917c0.75,0,1.342,0.263,1.775,0.785
		c0.433,0.523,0.649,1.234,0.649,2.133v0.47h-4.588c0.008,0.875,0.212,1.543,0.612,2.004c0.399,0.461,0.974,0.69,1.72,0.69
		c0.362,0,0.683-0.024,0.958-0.076c0.275-0.051,0.624-0.159,1.046-0.327v0.526c-0.358,0.156-0.69,0.263-0.996,0.319
		C163.075,310.089,162.74,310.117,162.373,310.117z M162.203,304.023c-0.613,0-1.105,0.201-1.477,0.605
		c-0.373,0.404-0.588,0.987-0.65,1.749h3.938c0-0.738-0.16-1.315-0.479-1.73C163.214,304.231,162.77,304.023,162.203,304.023z"/>
	<path fill="#1A1A1A" d="M170.336,308.342c0,0.57-0.217,1.009-0.65,1.315c-0.433,0.306-1.049,0.46-1.846,0.46
		c-0.852,0-1.527-0.131-2.027-0.394v-0.627c0.642,0.32,1.316,0.48,2.027,0.48c0.629,0,1.105-0.104,1.434-0.313
		c0.326-0.209,0.488-0.486,0.488-0.835c0-0.319-0.13-0.59-0.39-0.809c-0.261-0.219-0.687-0.435-1.28-0.646
		c-0.637-0.229-1.084-0.429-1.342-0.595s-0.452-0.354-0.583-0.563s-0.196-0.464-0.196-0.766c0-0.477,0.2-0.854,0.602-1.131
		c0.4-0.277,0.96-0.416,1.679-0.416c0.688,0,1.34,0.129,1.957,0.387l-0.217,0.527c-0.625-0.258-1.205-0.387-1.74-0.387
		c-0.521,0-0.933,0.086-1.235,0.258c-0.305,0.172-0.457,0.41-0.457,0.715c0,0.332,0.117,0.599,0.354,0.797
		c0.236,0.199,0.697,0.422,1.386,0.668c0.574,0.207,0.992,0.395,1.255,0.561c0.262,0.166,0.457,0.354,0.588,0.564
		S170.336,308.057,170.336,308.342z"/>
	<path fill="#1A1A1A" d="M24.83,324.4l-0.146-1.009h-0.047c-0.32,0.41-0.649,0.7-0.987,0.87s-0.737,0.255-1.198,0.255
		c-0.625,0-1.111-0.159-1.459-0.479c-0.348-0.32-0.521-0.764-0.521-1.33c0-0.621,0.259-1.104,0.776-1.447s1.267-0.524,2.247-0.545
		l1.213-0.035v-0.422c0-0.604-0.123-1.063-0.369-1.371c-0.246-0.308-0.643-0.463-1.189-0.463c-0.59,0-1.201,0.164-1.834,0.492
		l-0.217-0.504c0.699-0.328,1.391-0.492,2.074-0.492c0.699,0,1.222,0.182,1.567,0.545c0.345,0.363,0.519,0.93,0.519,1.699v4.236
		H24.83z M22.486,323.99c0.68,0,1.216-0.194,1.608-0.583c0.392-0.39,0.589-0.93,0.589-1.62v-0.627l-1.113,0.047
		c-0.895,0.043-1.532,0.183-1.913,0.419c-0.381,0.236-0.571,0.604-0.571,1.104c0,0.397,0.122,0.707,0.366,0.929
		C21.696,323.88,22.041,323.99,22.486,323.99z"/>
	<path fill="#1A1A1A" d="M31.762,324.4v-4.132c0-0.641-0.135-1.105-0.404-1.396s-0.688-0.438-1.254-0.438
		c-0.762,0-1.319,0.192-1.673,0.577s-0.53,1.009-0.53,1.872v3.517h-0.58v-6.369h0.492l0.111,0.873h0.035
		c0.414-0.664,1.15-0.996,2.209-0.996c1.445,0,2.168,0.774,2.168,2.326v4.166H31.762L31.762,324.4z"/>
	<path fill="#1A1A1A" d="M36.73,317.908c0.461,0,0.859,0.084,1.195,0.252c0.336,0.168,0.637,0.455,0.902,0.861h0.035
		c-0.023-0.492-0.035-0.976-0.035-1.447v-2.291h0.574v9.117H39.02l-0.146-0.974h-0.047c-0.484,0.728-1.18,1.09-2.086,1.09
		c-0.879,0-1.551-0.272-2.016-0.819c-0.465-0.547-0.697-1.344-0.697-2.392c0-1.102,0.23-1.942,0.691-2.524
		C35.18,318.199,35.852,317.908,36.73,317.908z M36.73,318.436c-0.695,0-1.218,0.244-1.567,0.732s-0.524,1.197-0.524,2.127
		c0,1.805,0.701,2.707,2.104,2.707c0.719,0,1.246-0.209,1.582-0.627c0.336-0.418,0.504-1.107,0.504-2.068v-0.1
		c0-0.984-0.165-1.692-0.495-2.124S37.469,318.436,36.73,318.436z"/>
	<path fill="#1A1A1A" d="M46.34,324.002c0.367,0,0.688-0.031,0.961-0.094v0.469c-0.281,0.094-0.605,0.141-0.973,0.141
		c-0.563,0-0.978-0.149-1.245-0.45c-0.267-0.302-0.401-0.773-0.401-1.418v-4.113h-0.943v-0.34l0.943-0.265l0.293-1.44h0.299v1.541
		h1.869v0.504h-1.869v4.031c0,0.487,0.086,0.85,0.258,1.084C45.704,323.885,45.973,324.002,46.34,324.002z"/>
	<path fill="#1A1A1A" d="M53.119,324.4v-4.132c0-0.641-0.135-1.105-0.404-1.396s-0.688-0.438-1.254-0.438
		c-0.762,0-1.319,0.192-1.673,0.577s-0.53,1.009-0.53,1.872v3.517h-0.58v-9.117h0.58v2.899l-0.029,0.814h0.041
		c0.238-0.383,0.539-0.66,0.902-0.832c0.363-0.172,0.814-0.258,1.354-0.258c1.445,0,2.168,0.774,2.168,2.326v4.165h-0.575V324.4z"/>
	<path fill="#1A1A1A" d="M58.328,324.518c-0.926,0-1.647-0.284-2.165-0.854s-0.776-1.369-0.776-2.396c0-1.016,0.25-1.829,0.75-2.439
		c0.5-0.611,1.174-0.917,2.021-0.917c0.75,0,1.342,0.262,1.775,0.785c0.433,0.522,0.65,1.233,0.65,2.133v0.469h-4.588
		c0.008,0.875,0.212,1.543,0.612,2.004s0.974,0.691,1.72,0.691c0.363,0,0.683-0.025,0.958-0.076c0.275-0.051,0.624-0.16,1.046-0.328
		v0.527c-0.359,0.156-0.691,0.263-0.996,0.318C59.03,324.49,58.695,324.518,58.328,324.518z M58.158,318.424
		c-0.613,0-1.105,0.202-1.477,0.606c-0.372,0.403-0.588,0.986-0.65,1.749h3.938c0-0.738-0.16-1.315-0.48-1.731
		C59.169,318.632,58.725,318.424,58.158,318.424z"/>
	<path fill="#1A1A1A" d="M62.26,316.262c0-0.375,0.123-0.563,0.369-0.563c0.121,0,0.216,0.049,0.284,0.146
		c0.068,0.098,0.103,0.236,0.103,0.416c0,0.176-0.034,0.314-0.103,0.416c-0.069,0.103-0.163,0.152-0.284,0.152
		C62.383,316.83,62.26,316.641,62.26,316.262z M62.922,324.4h-0.58v-6.369h0.58V324.4z"/>
	<path fill="#1A1A1A" d="M67.563,317.908c0.27,0,0.559,0.026,0.867,0.082l-0.111,0.557c-0.266-0.065-0.541-0.1-0.826-0.1
		c-0.543,0-0.988,0.229-1.336,0.69c-0.348,0.461-0.521,1.043-0.521,1.746v3.517h-0.58v-6.369h0.492l0.059,1.147h0.041
		c0.262-0.469,0.541-0.798,0.838-0.986C66.783,318.003,67.141,317.908,67.563,317.908z"/>
	<path fill="#1A1A1A" d="M75.35,317.908c0.27,0,0.559,0.026,0.867,0.082l-0.111,0.557c-0.266-0.065-0.541-0.1-0.826-0.1
		c-0.543,0-0.988,0.229-1.336,0.69c-0.348,0.461-0.521,1.043-0.521,1.746v3.517h-0.58v-6.369h0.492l0.059,1.147h0.041
		c0.262-0.469,0.541-0.798,0.838-0.986C74.57,318.003,74.928,317.908,75.35,317.908z"/>
	<path fill="#1A1A1A" d="M80.084,324.518c-0.926,0-1.647-0.284-2.165-0.854s-0.776-1.369-0.776-2.396c0-1.016,0.25-1.829,0.75-2.439
		c0.5-0.611,1.174-0.917,2.021-0.917c0.75,0,1.342,0.262,1.775,0.785c0.433,0.522,0.65,1.233,0.65,2.133v0.469h-4.588
		c0.008,0.875,0.212,1.543,0.612,2.004c0.4,0.461,0.974,0.691,1.72,0.691c0.363,0,0.683-0.025,0.958-0.076s0.624-0.16,1.046-0.328
		v0.527c-0.359,0.156-0.691,0.263-0.996,0.318C80.786,324.49,80.451,324.518,80.084,324.518z M79.914,318.424
		c-0.613,0-1.105,0.202-1.477,0.606c-0.372,0.403-0.588,0.986-0.65,1.749h3.938c0-0.738-0.16-1.315-0.48-1.731
		C80.925,318.632,80.48,318.424,79.914,318.424z"/>
	<path fill="#1A1A1A" d="M84.678,324.4h-0.58v-9.117h0.58V324.4z"/>
	<path fill="#1A1A1A" d="M90.678,324.4l-0.146-1.009h-0.047c-0.32,0.41-0.649,0.7-0.987,0.87s-0.737,0.255-1.198,0.255
		c-0.625,0-1.111-0.159-1.459-0.479c-0.348-0.32-0.521-0.764-0.521-1.33c0-0.621,0.259-1.104,0.776-1.447
		c0.517-0.343,1.267-0.524,2.247-0.545l1.213-0.035v-0.422c0-0.604-0.123-1.063-0.369-1.371c-0.246-0.308-0.643-0.463-1.189-0.463
		c-0.59,0-1.201,0.164-1.834,0.492l-0.217-0.504c0.699-0.328,1.391-0.492,2.074-0.492c0.699,0,1.222,0.182,1.567,0.545
		c0.345,0.363,0.519,0.93,0.519,1.699v4.236H90.678z M88.334,323.99c0.68,0,1.216-0.194,1.608-0.583
		c0.392-0.39,0.589-0.93,0.589-1.62v-0.627l-1.113,0.047c-0.895,0.043-1.532,0.183-1.913,0.419
		c-0.381,0.236-0.571,0.604-0.571,1.104c0,0.397,0.122,0.707,0.366,0.929C87.544,323.88,87.889,323.99,88.334,323.99z"/>
	<path fill="#1A1A1A" d="M94.85,324.002c0.367,0,0.688-0.031,0.961-0.094v0.469c-0.281,0.094-0.605,0.141-0.973,0.141
		c-0.563,0-0.978-0.149-1.245-0.45c-0.267-0.302-0.401-0.773-0.401-1.418v-4.113h-0.943v-0.34l0.943-0.265l0.293-1.44h0.299v1.541
		h1.869v0.504h-1.869v4.031c0,0.487,0.086,0.85,0.258,1.084C94.214,323.885,94.482,324.002,94.85,324.002z"/>
	<path fill="#1A1A1A" d="M97.105,316.262c0-0.375,0.123-0.563,0.369-0.563c0.121,0,0.216,0.049,0.284,0.146
		c0.068,0.098,0.103,0.236,0.103,0.416c0,0.176-0.034,0.314-0.103,0.416c-0.069,0.103-0.163,0.152-0.284,0.152
		C97.229,316.83,97.105,316.641,97.105,316.262z M97.768,324.4h-0.58v-6.369h0.58V324.4z"/>
	<path fill="#1A1A1A" d="M105.168,321.207c0,1.039-0.252,1.851-0.756,2.435s-1.199,0.876-2.086,0.876
		c-0.559,0-1.051-0.135-1.477-0.403c-0.426-0.27-0.752-0.656-0.979-1.16s-0.34-1.086-0.34-1.746c0-1.039,0.252-1.849,0.756-2.429
		s1.195-0.87,2.074-0.87c0.875,0,1.562,0.294,2.06,0.882S105.168,320.184,105.168,321.207z M100.141,321.207
		c0,0.875,0.192,1.558,0.577,2.048c0.385,0.49,0.929,0.735,1.632,0.735s1.247-0.245,1.632-0.735c0.385-0.49,0.577-1.173,0.577-2.048
		c0-0.879-0.194-1.561-0.583-2.045s-0.935-0.728-1.638-0.728s-1.245,0.241-1.626,0.725
		C100.331,319.642,100.141,320.324,100.141,321.207z"/>
	<path fill="#1A1A1A" d="M111.373,324.4v-4.132c0-0.641-0.135-1.105-0.404-1.396c-0.269-0.291-0.688-0.438-1.254-0.438
		c-0.762,0-1.319,0.192-1.673,0.577s-0.53,1.009-0.53,1.872v3.517h-0.58v-6.369h0.492l0.111,0.873h0.035
		c0.414-0.664,1.15-0.996,2.209-0.996c1.445,0,2.168,0.774,2.168,2.326v4.166H111.373L111.373,324.4z"/>
	<path fill="#1A1A1A" d="M117.959,322.742c0,0.57-0.217,1.009-0.65,1.314c-0.433,0.307-1.049,0.46-1.846,0.46
		c-0.852,0-1.527-0.131-2.027-0.393v-0.627c0.641,0.32,1.316,0.479,2.027,0.479c0.629,0,1.106-0.104,1.433-0.313
		s0.489-0.487,0.489-0.835c0-0.32-0.13-0.59-0.39-0.81c-0.26-0.219-0.687-0.434-1.28-0.645c-0.637-0.23-1.084-0.429-1.342-0.595
		s-0.452-0.354-0.583-0.563s-0.196-0.464-0.196-0.765c0-0.478,0.2-0.854,0.601-1.131c0.401-0.277,0.96-0.416,1.679-0.416
		c0.688,0,1.34,0.129,1.957,0.387l-0.217,0.527c-0.625-0.259-1.205-0.388-1.74-0.388c-0.52,0-0.932,0.086-1.236,0.259
		c-0.304,0.172-0.457,0.409-0.457,0.715c0,0.332,0.118,0.598,0.354,0.797c0.236,0.199,0.698,0.422,1.386,0.668
		c0.574,0.207,0.992,0.394,1.254,0.56c0.262,0.166,0.458,0.354,0.589,0.565C117.895,322.206,117.959,322.457,117.959,322.742z"/>
	<path fill="#1A1A1A" d="M119.482,323.943c0-0.384,0.156-0.574,0.469-0.574c0.32,0,0.48,0.19,0.48,0.574
		c0,0.383-0.16,0.573-0.48,0.573C119.639,324.518,119.482,324.326,119.482,323.943z"/>
</g>
<g>
	<path fill="#009995" d="M31.009,186.336h-6.092l-2.092,5.291h-1.158l6.029-15.053h0.666l5.906,15.053H33.09L31.009,186.336z
		 M25.297,185.393h5.362l-2.04-5.404c-0.171-0.424-0.376-1.012-0.615-1.764c-0.185,0.656-0.387,1.251-0.604,1.784L25.297,185.393z"
		/>
	<path fill="#009995" d="M55.618,191.627h-5.312l-5.476-10.562h-0.093c0.13,1.661,0.195,2.929,0.195,3.804v6.757h-3.589v-14.991
		h5.291l5.455,10.418h0.062c-0.096-1.511-0.144-2.724-0.144-3.64v-6.778h3.609v14.992H55.618z"/>
	<path fill="#009995" d="M67.759,191.627h-8.9v-14.991h8.9v3.25h-4.851v2.358H67.4v3.25h-4.492v2.83h4.851V191.627z"/>
	<path fill="#009995" d="M76.998,191.627h-4.051v-11.679h-3.66v-3.312h11.361v3.312h-3.65V191.627L76.998,191.627z"/>
	<path fill="#009995" d="M98.981,191.627h-4.788l-1.436-6.532c-0.068-0.273-0.176-0.817-0.323-1.63
		c-0.146-0.813-0.255-1.494-0.322-2.041c-0.056,0.444-0.145,0.997-0.268,1.656c-0.123,0.66-0.244,1.267-0.363,1.82
		c-0.12,0.554-0.617,2.796-1.492,6.727H85.2l-3.711-14.991h3.906l1.631,7.516c0.369,1.661,0.621,2.984,0.758,3.968
		c0.089-0.697,0.248-1.644,0.478-2.84c0.229-1.196,0.442-2.188,0.641-2.974l1.323-5.67h3.752l1.282,5.67
		c0.219,0.909,0.44,1.958,0.667,3.148c0.225,1.189,0.375,2.078,0.451,2.666c0.088-0.759,0.331-2.075,0.728-3.948l1.661-7.537h3.906
		L98.981,191.627z"/>
	<path fill="#009995" d="M118.639,184.111c0,2.522-0.619,4.44-1.856,5.752c-1.237,1.312-3.049,1.969-5.434,1.969
		c-2.353,0-4.155-0.66-5.409-1.979c-1.255-1.319-1.882-3.24-1.882-5.763c0-2.495,0.624-4.4,1.871-5.716
		c1.248-1.316,3.061-1.974,5.439-1.974c2.386,0,4.194,0.653,5.425,1.958S118.639,181.582,118.639,184.111z M108.323,184.111
		c0,2.898,1.008,4.348,3.025,4.348c1.025,0,1.785-0.352,2.281-1.056c0.495-0.704,0.743-1.801,0.743-3.292
		c0-1.497-0.251-2.603-0.754-3.317c-0.502-0.714-1.253-1.072-2.251-1.072C109.339,179.722,108.323,181.185,108.323,184.111z"/>
	<path fill="#009995" d="M125.396,186.172v5.455h-4.05v-14.991h4.911c4.074,0,6.111,1.477,6.111,4.43c0,1.736-0.849,3.08-2.543,4.03
		l4.368,6.532H129.6l-3.18-5.455L125.396,186.172L125.396,186.172z M125.396,183.126h0.76c1.414,0,2.121-0.625,2.121-1.876
		c0-1.032-0.693-1.548-2.08-1.548h-0.801V183.126z"/>
	<path fill="#009995" d="M148.365,191.627h-4.574l-2.963-5.732l-1.199,0.718v5.014h-4.07v-14.991h4.07v6.511
		c0.205-0.403,0.618-1.042,1.24-1.917l3.148-4.594h4.43l-4.729,6.716L148.365,191.627z"/>
	<path fill="#009995" d="M36.392,205.311c0,2.379-0.595,4.26-1.784,5.645c-1.189,1.384-2.83,2.076-4.922,2.076
		c-2.085,0-3.722-0.692-4.911-2.076c-1.189-1.385-1.785-3.273-1.785-5.666c0-2.386,0.601-4.264,1.8-5.634
		c1.2-1.371,2.839-2.056,4.917-2.056c2.092,0,3.729,0.689,4.912,2.066C35.8,201.043,36.392,202.925,36.392,205.311z M24.128,205.311
		c0,2.146,0.479,3.806,1.436,4.978c0.957,1.173,2.331,1.759,4.122,1.759c1.805,0,3.184-0.581,4.138-1.743
		c0.953-1.162,1.43-2.827,1.43-4.994c0-2.16-0.477-3.816-1.43-4.968c-0.954-1.151-2.326-1.728-4.117-1.728
		c-1.784,0-3.16,0.581-4.127,1.743C24.611,201.52,24.128,203.171,24.128,205.311z"/>
	<path fill="#009995" d="M40.883,212.827h-1.045v-14.991h8.213v0.964h-7.168v6.357h6.768v0.974h-6.768V212.827z"/>
	<path fill="#009995" d="M56.879,212.827h-1.045v-14.991h8.213v0.964h-7.168v6.357h6.768v0.974h-6.768V212.827z"/>
	<path fill="#009995" d="M74.567,212.827h-8.192v-14.991h8.192v0.964H67.42v5.67h6.748v0.964H67.42v6.429h7.147V212.827z"/>
	<path fill="#009995" d="M85.181,207.536h-6.092l-2.092,5.291h-1.158l6.029-15.053h0.666l5.906,15.053h-1.179L85.181,207.536z
		 M79.469,206.592h5.362l-2.04-5.404c-0.171-0.424-0.376-1.012-0.615-1.764c-0.185,0.656-0.387,1.251-0.604,1.784L79.469,206.592z"
		/>
	<path fill="#009995" d="M94.471,212.827h-1.057V198.82h-4.87v-0.984h10.798v0.984h-4.871V212.827L94.471,212.827z"/>
	<path fill="#009995" d="M112.589,197.835v9.7c0,1.723-0.499,3.069-1.497,4.04c-0.998,0.971-2.389,1.456-4.174,1.456
		c-1.736,0-3.091-0.487-4.065-1.461c-0.974-0.975-1.461-2.333-1.461-4.076v-9.659h1.056v9.7c0,1.442,0.4,2.565,1.2,3.368
		c0.8,0.804,1.931,1.205,3.394,1.205c1.429,0,2.536-0.395,3.322-1.185c0.786-0.789,1.18-1.885,1.18-3.286v-9.803L112.589,197.835
		L112.589,197.835z"/>
	<path fill="#009995" d="M117.715,206.295v6.532h-1.045v-14.991h3.568c1.858,0,3.233,0.344,4.122,1.03
		c0.889,0.688,1.334,1.721,1.334,3.102c0,1.005-0.267,1.853-0.795,2.543c-0.53,0.69-1.336,1.186-2.416,1.487l4.072,6.829h-1.253
		l-3.865-6.532H117.715z M117.715,205.393h2.861c1.265,0,2.246-0.282,2.943-0.846c0.696-0.563,1.045-1.396,1.045-2.497
		c0-1.142-0.342-1.972-1.025-2.492s-1.798-0.779-3.342-0.779h-2.482V205.393z"/>
	<path fill="#009995" d="M137.341,212.827h-8.192v-14.991h8.192v0.964h-7.147v5.67h6.748v0.964h-6.748v6.429h7.147V212.827z"/>
	<path fill="#009995" d="M149.01,208.961c0,1.251-0.46,2.242-1.379,2.974c-0.92,0.731-2.143,1.097-3.666,1.097
		c-1.832,0-3.236-0.202-4.214-0.605v-1.046c1.079,0.458,2.457,0.687,4.132,0.687c1.23,0,2.206-0.282,2.928-0.846
		s1.082-1.304,1.082-2.22c0-0.567-0.119-1.037-0.358-1.41s-0.63-0.713-1.169-1.021c-0.54-0.308-1.333-0.639-2.379-0.995
		c-1.531-0.526-2.59-1.095-3.174-1.708c-0.584-0.611-0.877-1.427-0.877-2.445c0-1.121,0.438-2.035,1.317-2.743
		c0.878-0.707,2.008-1.061,3.39-1.061c1.407,0,2.729,0.267,3.969,0.8l-0.381,0.902c-1.244-0.52-2.434-0.779-3.567-0.779
		c-1.106,0-1.989,0.256-2.646,0.769c-0.658,0.513-0.984,1.21-0.984,2.092c0,0.554,0.101,1.008,0.303,1.364
		c0.201,0.355,0.531,0.675,0.989,0.958c0.458,0.284,1.243,0.624,2.358,1.021c1.168,0.403,2.047,0.795,2.635,1.174
		c0.588,0.38,1.018,0.811,1.287,1.292C148.875,207.695,149.01,208.277,149.01,208.961z"/>
</g>
</svg>
