<?xml version="1.0" encoding="utf-8"?>
<!-- Generator: Adobe Illustrator 16.0.0, SVG Export Plug-In . SVG Version: 6.00 Build 0)  -->
<!DOCTYPE svg PUBLIC "-//W3C//DTD SVG 1.1//EN" "http://www.w3.org/Graphics/SVG/1.1/DTD/svg11.dtd">
<svg version="1.1" id="Livello_1" xmlns="http://www.w3.org/2000/svg" xmlns:xlink="http://www.w3.org/1999/xlink" x="0px" y="0px"
	 width="1366px" height="351.887px" viewBox="0 0 1366 351.887" enable-background="new 0 0 1366 351.887" xml:space="preserve">
<rect x="-31.013" y="-16.552" opacity="0.6" width="1427.525" height="384.038"/>
<rect x="467.5" y="204.994" fill="none" width="416.5" height="120.746"/>
<text transform="matrix(1 0 0 1 529.8931 227.1533)"><tspan x="0" y="0" fill="#FFFFFF" font-family="'TradeGothicLTStd-Bold'" font-size="30.694">EXPLORING THE STORY</tspan><tspan x="-48.635" y="36.833" fill="#FFFFFF" font-family="'TradeGothicLTStd-Bold'" font-size="30.694">OF COVER MUSIC PRODUCTION</tspan><tspan x="-6.983" y="63.094" fill="#FFFFFF" font-family="'TradeGothicLTStd'" font-size="11.9365">Work developed during the DensityDesign Course 2013/14</tspan></text>
<g opacity="0.95">
	<g>
		<path fill="#FFFFFF" d="M625.122,121.238V98.306c0-2.827-0.515-3.684-2.655-4.025c-0.944-0.174-1.801-0.344-2.743-0.515V91.71
			c4.541-0.857,9.167-2.828,14.049-5.055l0.943,0.514v5.911h0.171c1.542-2.484,5.397-6.425,9.852-6.425
			c2.913,0,5.483,1.37,5.483,5.055c0,3.254-2.142,5.054-4.798,5.054c-3.34,0-3.34-3.256-5.996-3.256
			c-2.055,0-4.712,1.629-4.712,5.826v21.904H625.122z"/>
		<path fill="#FFFFFF" d="M658.446,121.266V97.021c0-1.37-0.172-1.884-2.058-2.398c-1.026-0.257-1.969-0.599-2.997-0.856V91.71
			c2.655-0.688,5.567-1.714,7.795-2.484c1.97-0.687,4.026-1.8,5.91-2.57l0.942,0.771v33.813L658.446,121.266z M663.243,76.138
			c-2.913,0-5.226-2.312-5.226-5.226c0-2.827,2.313-5.225,5.226-5.225s5.226,2.397,5.226,5.225
			C668.469,73.826,666.156,76.138,663.243,76.138z"/>
		<path fill="#FFFFFF" d="M680.547,121.238V92.736h-6.081v-1.54c2.055-0.943,4.026-2.144,6.081-3.428v-5.997
			c0-5.997,2.569-10.878,6.768-14.991c4.027-3.94,6.854-5.826,10.023-5.826c3.428,0,5.911,1.371,5.911,5.397
			c0,2.483-1.542,4.711-4.197,4.711c-2.571,0-2.571-4.282-5.74-4.282c-2.742,0-3.171,2.827-3.171,5.826v15.333h9.596v4.797h-9.596
			v28.502H680.547z"/>
		<path fill="#FFFFFF" d="M709.072,121.238V92.736h-6.08v-1.54c2.055-0.943,4.025-2.144,6.08-3.428v-5.997
			c0-5.997,2.571-10.878,6.77-14.991c4.027-3.94,6.854-5.826,10.022-5.826c3.428,0,5.911,1.371,5.911,5.397
			c0,2.483-1.541,4.711-4.197,4.711c-2.57,0-2.57-4.282-5.739-4.282c-2.742,0-3.17,2.827-3.17,5.826v15.333h9.594v4.797h-9.594
			v28.502H709.072z"/>
	</g>
	<g>
		<path fill="#FFFFFF" d="M621.282,136.587v-8.034h1.675v1.237c0.396-0.506,0.774-0.876,1.134-1.109
			c0.36-0.234,0.774-0.351,1.242-0.351c0.61,0,1.089,0.132,1.435,0.399c0.348,0.266,0.642,0.69,0.882,1.275
			c0.423-0.585,0.833-1.01,1.227-1.275c0.395-0.268,0.852-0.399,1.374-0.399c0.639,0,1.189,0.238,1.652,0.716
			c0.462,0.477,0.693,1.044,0.693,1.698v5.843h-1.694v-5.404c0-0.89-0.439-1.334-1.318-1.334c-0.501,0-0.926,0.229-1.275,0.682
			c-0.349,0.455-0.523,1.017-0.523,1.685v4.372h-1.694v-5.18c0-1.052-0.432-1.577-1.294-1.577c-0.514,0-0.948,0.213-1.306,0.642
			c-0.356,0.429-0.535,0.958-0.535,1.586v4.529H621.282z"/>
		<path fill="#FFFFFF" d="M634.845,128.553h1.694v4.528c0,1.396,0.613,2.093,1.841,2.093c0.545,0,0.977-0.185,1.294-0.56
			c0.318-0.373,0.477-0.884,0.477-1.533v-4.528h1.674v4.801c0,1.007-0.327,1.833-0.983,2.482c-0.655,0.649-1.493,0.974-2.512,0.974
			c-1.039,0-1.88-0.324-2.521-0.974c-0.644-0.649-0.964-1.495-0.964-2.542V128.553z"/>
		<path fill="#FFFFFF" d="M648.719,129.509l-1.129,0.992c-0.292-0.208-0.546-0.365-0.76-0.473c-0.214-0.106-0.467-0.161-0.759-0.161
			c-0.688,0-1.032,0.254-1.032,0.761c0,0.363,0.436,0.717,1.31,1.059c0.873,0.342,1.5,0.719,1.884,1.127
			c0.383,0.407,0.574,0.901,0.574,1.479c0,0.673-0.275,1.262-0.827,1.765s-1.201,0.753-1.947,0.753
			c-1.136,0-2.068-0.524-2.795-1.576l1.334-0.644c0.468,0.455,0.954,0.682,1.461,0.682c0.351,0,0.657-0.097,0.92-0.286
			c0.263-0.191,0.395-0.414,0.395-0.669c0-0.446-0.461-0.851-1.383-1.208c-0.922-0.357-1.56-0.719-1.913-1.086
			c-0.354-0.367-0.531-0.818-0.531-1.357c0-0.668,0.252-1.225,0.754-1.668c0.503-0.444,1.135-0.667,1.894-0.667
			S647.778,128.723,648.719,129.509z"/>
		<path fill="#FFFFFF" d="M650.198,125.915c0-0.35,0.13-0.653,0.389-0.91c0.26-0.257,0.568-0.385,0.925-0.385
			c0.351,0,0.654,0.128,0.911,0.385c0.256,0.257,0.384,0.561,0.384,0.91c0,0.357-0.128,0.662-0.384,0.915
			c-0.257,0.254-0.56,0.38-0.911,0.38c-0.356,0-0.665-0.126-0.925-0.38C650.328,126.577,650.198,126.272,650.198,125.915z
			 M650.676,128.553h1.674v8.034h-1.674V128.553z"/>
		<path fill="#FFFFFF" d="M660.908,134.133v1.937c-0.863,0.494-1.7,0.74-2.511,0.74c-1.11,0-2.082-0.417-2.917-1.25
			c-0.834-0.834-1.251-1.801-1.251-2.896c0-1.246,0.415-2.28,1.247-3.102c0.83-0.82,1.872-1.231,3.125-1.231
			c0.746,0,1.515,0.195,2.307,0.584v1.888c-0.85-0.545-1.655-0.816-2.415-0.816c-0.701,0-1.314,0.247-1.839,0.739
			c-0.526,0.494-0.788,1.072-0.788,1.733c0,0.746,0.246,1.375,0.74,1.884c0.492,0.51,1.096,0.765,1.81,0.765
			C659.143,135.106,659.974,134.782,660.908,134.133z"/>
		<path fill="#FFFFFF" d="M674.822,128.553h1.694v8.034h-1.694v-1.598c-0.825,1.214-1.846,1.82-3.066,1.82
			c-1.059,0-1.961-0.415-2.712-1.246c-0.75-0.831-1.125-1.839-1.125-3.027c0-1.123,0.378-2.104,1.135-2.946
			c0.756-0.839,1.643-1.26,2.662-1.26c0.631,0,1.228,0.171,1.792,0.516c0.563,0.344,1.002,0.793,1.313,1.344V128.553z
			 M675.056,132.594c0-0.732-0.262-1.36-0.791-1.884c-0.524-0.522-1.156-0.783-1.892-0.783c-0.716,0-1.339,0.26-1.873,0.779
			s-0.799,1.13-0.799,1.83c0,0.758,0.26,1.405,0.779,1.938c0.522,0.531,1.151,0.798,1.893,0.798c0.735,0,1.367-0.265,1.892-0.793
			C674.793,133.949,675.056,133.321,675.056,132.594z"/>
		<path fill="#FFFFFF" d="M678.745,136.587v-8.034h1.656v1.335c0.486-0.537,0.928-0.933,1.323-1.183
			c0.396-0.25,0.837-0.375,1.326-0.375c0.727,0,1.347,0.241,1.862,0.722c0.518,0.48,0.774,1.057,0.774,1.732v5.803h-1.694v-5.308
			c0-0.434-0.141-0.794-0.424-1.081c-0.281-0.284-0.64-0.428-1.074-0.428c-0.566,0-1.051,0.238-1.462,0.716
			c-0.408,0.478-0.613,1.053-0.613,1.729v4.372H678.745z"/>
		<path fill="#FFFFFF" d="M694.556,128.553h1.696v8.034h-1.696v-1.598c-0.823,1.214-1.845,1.82-3.064,1.82
			c-1.06,0-1.963-0.415-2.713-1.246s-1.125-1.839-1.125-3.027c0-1.123,0.378-2.104,1.136-2.946c0.756-0.839,1.643-1.26,2.662-1.26
			c0.631,0,1.227,0.171,1.791,0.516c0.565,0.344,1.003,0.793,1.313,1.344V128.553z M694.791,132.594c0-0.732-0.263-1.36-0.791-1.884
			c-0.525-0.522-1.156-0.783-1.893-0.783c-0.714,0-1.338,0.26-1.872,0.779s-0.799,1.13-0.799,1.83c0,0.758,0.261,1.405,0.779,1.938
			c0.522,0.531,1.15,0.798,1.892,0.798c0.736,0,1.367-0.265,1.893-0.793C694.528,133.949,694.791,133.321,694.791,132.594z"/>
		<path fill="#FFFFFF" d="M699.025,123.947h1.694v12.64h-1.694V123.947z"/>
		<path fill="#FFFFFF" d="M702.647,128.553h1.923l2.911,4.365l2.015-4.365h1.75l-5.427,11.802h-1.77l2.652-5.745L702.647,128.553z"
			/>
		<path fill="#FFFFFF" d="M717.982,129.509l-1.128,0.992c-0.294-0.208-0.546-0.365-0.761-0.473c-0.215-0.106-0.468-0.161-0.76-0.161
			c-0.688,0-1.032,0.254-1.032,0.761c0,0.363,0.437,0.717,1.311,1.059c0.872,0.342,1.5,0.719,1.883,1.127
			c0.384,0.407,0.575,0.901,0.575,1.479c0,0.673-0.276,1.262-0.826,1.765c-0.553,0.503-1.201,0.753-1.948,0.753
			c-1.137,0-2.068-0.524-2.796-1.576l1.334-0.644c0.468,0.455,0.954,0.682,1.462,0.682c0.349,0,0.656-0.097,0.919-0.286
			c0.264-0.191,0.396-0.414,0.396-0.669c0-0.446-0.461-0.851-1.383-1.208c-0.923-0.357-1.56-0.719-1.913-1.086
			c-0.354-0.367-0.53-0.818-0.53-1.357c0-0.668,0.25-1.225,0.754-1.668c0.504-0.444,1.135-0.667,1.894-0.667
			C716.189,128.33,717.042,128.723,717.982,129.509z"/>
		<path fill="#FFFFFF" d="M719.462,125.915c0-0.35,0.129-0.653,0.388-0.91c0.262-0.257,0.57-0.385,0.927-0.385
			c0.351,0,0.654,0.128,0.909,0.385c0.257,0.257,0.385,0.561,0.385,0.91c0,0.357-0.128,0.662-0.385,0.915
			c-0.255,0.254-0.559,0.38-0.909,0.38c-0.356,0-0.665-0.126-0.927-0.38C719.591,126.577,719.462,126.272,719.462,125.915z
			 M719.939,128.553h1.674v8.034h-1.674V128.553z"/>
		<path fill="#FFFFFF" d="M728.993,129.509l-1.127,0.992c-0.294-0.208-0.545-0.365-0.761-0.473c-0.216-0.106-0.468-0.161-0.76-0.161
			c-0.688,0-1.033,0.254-1.033,0.761c0,0.363,0.438,0.717,1.311,1.059c0.873,0.342,1.5,0.719,1.886,1.127
			c0.381,0.407,0.571,0.901,0.571,1.479c0,0.673-0.274,1.262-0.826,1.765c-0.551,0.503-1.201,0.753-1.947,0.753
			c-1.135,0-2.067-0.524-2.796-1.576l1.336-0.644c0.466,0.455,0.952,0.682,1.46,0.682c0.351,0,0.657-0.097,0.919-0.286
			c0.265-0.191,0.396-0.414,0.396-0.669c0-0.446-0.462-0.851-1.384-1.208s-1.559-0.719-1.913-1.086
			c-0.354-0.367-0.531-0.818-0.531-1.357c0-0.668,0.253-1.225,0.755-1.668c0.504-0.444,1.137-0.667,1.895-0.667
			S728.053,128.723,728.993,129.509z"/>
	</g>
	<path fill="#FFFFFF" stroke="#3D3D3F" stroke-width="0.25" stroke-miterlimit="10" d="M691.071,137.762"/>
</g>
<line fill="none" stroke="#FFFFFF" stroke-width="1.2" stroke-miterlimit="10" x1="698.551" y1="169.224" x2="652.949" y2="169.224"/>
</svg>
