<?xml version="1.0" encoding="utf-8"?>
<!-- Generator: Adobe Illustrator 16.0.0, SVG Export Plug-In . SVG Version: 6.00 Build 0)  -->
<!DOCTYPE svg PUBLIC "-//W3C//DTD SVG 1.1//EN" "http://www.w3.org/Graphics/SVG/1.1/DTD/svg11.dtd">
<svg version="1.1" id="Livello_7" xmlns="http://www.w3.org/2000/svg" xmlns:xlink="http://www.w3.org/1999/xlink" x="0px" y="0px"
	 width="173px" height="173px" viewBox="0 0 173 173" style="enable-background:new 0 0 173 173;" xml:space="preserve">
<style type="text/css">
<![CDATA[
	.st0{opacity:0.5;fill:#9B2E9C;}
]]>
</style>
<path class="st0" d="M56.562,75.84v36.417h19.313V75.84H56.562z M66.218,107.121c-1.813,0-3.281-1.469-3.281-3.281
	s1.469-3.281,3.281-3.281c1.812,0,3.281,1.469,3.281,3.281S68.03,107.121,66.218,107.121z"/>
<path class="st0" d="M115.051,97.778V84.591H133.6c2.416,0,4.375-1.959,4.375-4.375c0-2.416-1.959-4.375-4.375-4.375h-26.725
	l3.387-3.385c1.521-1.522,1.521-3.989-0.001-5.511c-1.522-1.521-3.989-1.521-5.511,0l-3.627,3.625h-6.031
	c-2.494,0-4.561,0.365-6.268,0.982L115.051,97.778z"/>
<rect x="52.412" y="84.282" transform="matrix(-0.7071 -0.7071 0.7071 -0.7071 102.5023 217.0225)" class="st0" width="87.573" height="5.999"/>
<path class="st0" d="M95.033,94.781l-6.02-6.02l-8.751-8.751C80.079,80.92,80,81.802,80,82.599v12.725v1.829
	c0.44,3.673,3.492,6.536,7.247,6.688c0.104,0.005,0.206,0.016,0.312,0.016c0.106,0,0.208-0.011,0.312-0.016h16.223L95.033,94.781z"
	/>
</svg>
