<?xml version="1.0" encoding="utf-8"?>
<!-- Generator: Adobe Illustrator 16.0.0, SVG Export Plug-In . SVG Version: 6.00 Build 0)  -->
<!DOCTYPE svg PUBLIC "-//W3C//DTD SVG 1.1//EN" "http://www.w3.org/Graphics/SVG/1.1/DTD/svg11.dtd">
<svg version="1.1" id="Livello_4_copia" xmlns="http://www.w3.org/2000/svg" xmlns:xlink="http://www.w3.org/1999/xlink" x="0px"
	 y="0px" width="173px" height="173px" viewBox="0 0 173 173" style="enable-background:new 0 0 173 173;" xml:space="preserve">
<style type="text/css">
<![CDATA[
	.st0{opacity:0.5;fill:#9B2E9C;}
]]>
</style>
<path class="st0" d="M102.797,62.763c-0.066-7.138-5.171-13.313-12.225-14.908c-0.028-2.625-2.044-4.749-4.517-4.749
	c-2.49,0-4.516,2.152-4.516,4.797c0,0.025,0,0.05,0,0.074c-7.083,1.794-12.208,7.921-12.273,14.793l-0.001,52.572h33.538
	L102.797,62.763z M79.478,106.248c0,0.971-0.786,1.754-1.755,1.754c-0.969,0-1.755-0.783-1.755-1.754V79.424
	c0-0.97,0.786-1.755,1.755-1.755c0.969,0,1.755,0.785,1.755,1.755V106.248z"/>
<path class="st0" d="M105.152,125.818H66.848c-1.794,0-3.246-1.453-3.246-3.246s1.453-3.246,3.246-3.246h38.305
	c1.792,0,3.245,1.453,3.245,3.246S106.944,125.818,105.152,125.818z"/>
</svg>
