<?xml version="1.0" encoding="utf-8"?>
<!-- Generator: Adobe Illustrator 16.0.0, SVG Export Plug-In . SVG Version: 6.00 Build 0)  -->
<!DOCTYPE svg PUBLIC "-//W3C//DTD SVG 1.1//EN" "http://www.w3.org/Graphics/SVG/1.1/DTD/svg11.dtd">
<svg version="1.1" id="Livello_3" xmlns="http://www.w3.org/2000/svg" xmlns:xlink="http://www.w3.org/1999/xlink" x="0px" y="0px"
	 width="173px" height="173px" viewBox="0 0 173 173" style="enable-background:new 0 0 173 173;" xml:space="preserve">
<style type="text/css">
<![CDATA[
	.st0{opacity:0.5;}
	.st1{fill:#9B2E9C;}
]]>
</style>
<g class="st0">
	<path class="st1" d="M130.698,83.132c-1.26-3.918-4.106-7.081-8.013-8.908c-1.982-0.925-4.291-1.413-6.677-1.413
		c-6.886,0-12.868,3.335-15.234,8.481l-0.927,1.759l-0.919-1.743c-2.376-5.163-8.36-8.499-15.243-8.499
		c-2.385,0-4.694,0.49-6.676,1.416c-3.907,1.828-6.753,4.991-8.013,8.907c-1.555,4.829-0.678,10.411,2.535,16.144
		c4.076,7.286,11.661,13.148,23.144,22.021c1.581,1.221,3.235,2.5,4.966,3.848l0.207,0.162l0.207-0.162
		c1.697-1.322,3.32-2.578,4.873-3.777l0.082-0.064c11.487-8.879,19.078-14.744,23.15-22.027
		C131.374,93.545,132.252,87.961,130.698,83.132z"/>
	<path class="st1" d="M67.709,101.416c-4.832-8.617-4.235-15.43-2.885-19.626c1.637-5.089,5.305-9.186,10.329-11.535
		c2.56-1.196,5.511-1.829,8.532-1.829c6.128,0,11.931,2.394,15.918,6.568l0.243,0.255l0.242-0.255c1.521-1.585,3.332-2.931,5.385-4
		l0.22-0.115l-0.044-0.245c-0.89-4.881-4.053-8.921-8.677-11.084c-2.026-0.946-4.384-1.446-6.819-1.446
		c-7.016,0-13.119,3.412-15.548,8.692l-0.612,1.331l-0.612-1.331c-2.432-5.282-8.535-8.695-15.55-8.695
		c-2.435,0-4.793,0.5-6.82,1.448c-3.993,1.868-6.902,5.104-8.19,9.11c-1.583,4.921-0.697,10.595,2.563,16.411
		c4.109,7.345,11.717,13.225,23.232,22.125c1.643,1.268,3.366,2.602,5.172,4.008l0.207,0.162l0.948-0.739l-0.268-0.27
		C71.623,107.297,69.408,104.457,67.709,101.416z"/>
</g>
</svg>
