<?xml version="1.0" encoding="utf-8"?>
<!-- Generator: Adobe Illustrator 16.0.0, SVG Export Plug-In . SVG Version: 6.00 Build 0)  -->
<!DOCTYPE svg PUBLIC "-//W3C//DTD SVG 1.1//EN" "http://www.w3.org/Graphics/SVG/1.1/DTD/svg11.dtd">
<svg version="1.1" id="Layer_2" xmlns="http://www.w3.org/2000/svg" xmlns:xlink="http://www.w3.org/1999/xlink" x="0px" y="0px"
	 width="100%" height="100%" viewBox="0 0 617.043 368" style="enable-background:new 0 0 617.043 368;" xml:space="preserve"
	>
<style type="text/css">
<![CDATA[
	.st0{fill:#4D1C4C;}
	.st1{fill:#8F3B8E;}
	.st2{fill:#CA7FB4;}
	.st3{fill:#D9A9BC;}
]]>
</style>
<rect x="31.069" y="19.296" class="st3" width="70.95" height="313.598"/>
<rect x="31.069" y="52.641" class="st2" width="70.95" height="246.909"/>
<rect x="31.069" y="19.296" class="st2" width="70.95" height="26.961"/>
<rect x="31.069" y="305.934" class="st2" width="70.95" height="26.961"/>
<rect x="319.894" y="289.71" class="st1" width="272.447" height="43.185"/>
<rect x="307.596" y="289.71" class="st2" width="14.19" height="43.185"/>
<rect x="336.921" y="289.71" class="st2" width="238.391" height="43.185"/>
<rect x="580.988" y="289.71" class="st2" width="11.353" height="43.185"/>
<rect x="328.055" y="289.71" class="st2" width="2.603" height="43.185"/>
<rect x="316.819" y="214.974" class="st0" width="239.101" height="19.866"/>
<rect x="558.758" y="214.974" class="st0" width="5.677" height="19.866"/>
<rect x="555.92" y="214.974" class="st2" width="2.849" height="19.866"/>
<rect x="3" y="340.55" class="st1" width="605.969" height="17.609"/>
<rect x="152.009" y="279.269" transform="matrix(0.9882 -0.153 0.153 0.9882 -42.6898 31.6024)" class="st3" width="63.856" height="27.67"/>
<rect x="155.321" y="300.345" transform="matrix(0.9882 -0.1531 0.1531 0.9882 -45.8848 32.3646)" class="st1" width="63.856" height="27.671"/>
<path class="st1" d="M109.056,17.928l43.401,280.247l63.101-9.771L172.16,8.155L109.056,17.928z"/>
<rect x="158.595" y="272.182" transform="matrix(0.9882 -0.153 0.153 0.9882 -40.5676 31.1408)" class="st3" width="46.826" height="13.834"/>
<path class="st1" d="M216.055,135.424l38.518,166.32l23.749-5.502l-38.519-166.317L216.055,135.424z"/>
<polygon class="st3" points="293.079,322.297 250.226,332.221 247.022,318.394 289.881,308.472 "/>
<polygon class="st1" points="290.031,308.438 247.178,318.363 246.233,314.33 289.088,304.409 "/>
<path class="st3" d="M184.138,47.341l61.964,267.082l42.858-9.924l-61.968-267.08L184.138,47.341z M273.225,296.306l-16.59,3.844
	l-38.103-164.506l16.59-3.842L273.225,296.306z"/>
<rect x="313.272" y="241.935" class="st1" width="7.095" height="39.732"/>
<rect x="320.367" y="241.935" class="st2" width="6.385" height="39.732"/>
<path class="st1" d="M326.752,241.935v39.732h254.709v-39.732H326.752z M561.596,272.158h-25.652v-20.716h25.652V272.158z"/>
<rect x="535.943" y="251.442" class="st2" width="25.652" height="20.716"/>
</svg>
