<?xml version="1.0" encoding="utf-8"?>
<!-- Generator: Adobe Illustrator 16.0.0, SVG Export Plug-In . SVG Version: 6.00 Build 0)  -->
<!DOCTYPE svg PUBLIC "-//W3C//DTD SVG 1.1//EN" "http://www.w3.org/Graphics/SVG/1.1/DTD/svg11.dtd">
<svg version="1.1" id="Livello_1" xmlns="http://www.w3.org/2000/svg" xmlns:xlink="http://www.w3.org/1999/xlink" x="0px" y="0px"
	 width="10%" height="10%" viewBox="0 0 100 100" style="enable-background:new 0 0 100 100;" xml:space="preserve">
<style type="text/css">
<![CDATA[
	.st0{fill:#E73A5A;}
]]>
</style>
<g>
	<path class="st0" d="M16.516,76.116l12.029,12.029c3.119,3.118,6.943,2.859,9.802,0L16.516,66.314
		C13.657,69.174,13.397,72.998,16.516,76.116z"/>
	<path class="st0" d="M14.288,57.851l27.177,27.177l48.116-48.116L62.404,9.734L14.288,57.851z M52.603,64.087L41.464,75.226
		L30.326,64.087l11.138-11.138L52.603,64.087z M69.223,47.468L56.167,60.523l-2.229-2.228L66.994,45.24L69.223,47.468z M75.77,32.01
		L51.711,56.068l-2.227-2.228l24.058-24.058L75.77,32.01z M71.314,27.555L47.257,51.613l-2.228-2.228l24.058-24.059L71.314,27.555z
		 M64.631,20.872L25.872,59.633l-2.228-2.228l38.76-38.761L64.631,20.872z"/>
</g>
</svg>
