<?xml version="1.0" encoding="utf-8"?>
<!-- Generator: Adobe Illustrator 16.0.0, SVG Export Plug-In . SVG Version: 6.00 Build 0)  -->
<!DOCTYPE svg PUBLIC "-//W3C//DTD SVG 1.1//EN" "http://www.w3.org/Graphics/SVG/1.1/DTD/svg11.dtd">
<svg version="1.1" id="Livello_1" xmlns="http://www.w3.org/2000/svg" xmlns:xlink="http://www.w3.org/1999/xlink" x="0px" y="0px"
	 width="100px" height="100px" viewBox="0 0 100 100" style="enable-background:new 0 0 100 100;" xml:space="preserve">
<style type="text/css">
<![CDATA[
	.st0{fill:#40B38F;}
]]>
</style>
<g>
	<g>
		<path class="st0" d="M63.689,60.355c-3.347,0-6.125,2.447-6.659,5.645H51v-8h-3v8h-7.463c-6.799,0-14.026,4.163-14.026,11.879
			c0,7.056,5.022,11.796,12.496,11.796C45.957,89.675,51,84.144,51,76.523V69h6.202c0.818,2.813,3.414,4.876,6.487,4.876
			c3.728,0,6.761-3.032,6.761-6.76S67.417,60.355,63.689,60.355z M48,76.523c0,5.977-3.698,10.151-8.993,10.151
			c-5.857,0-9.496-3.37-9.496-8.796c0-5.767,5.681-8.879,11.026-8.879H48V76.523z M63.689,71.985c-2.685,0-4.869-2.185-4.869-4.869
			c0-2.686,2.185-4.87,4.869-4.87c2.686,0,4.87,2.185,4.87,4.87C68.56,69.801,66.375,71.985,63.689,71.985z"/>
		<circle class="st0" cx="63.689" cy="67.116" r="2.54"/>
		<path class="st0" d="M49.815,53.642C59.543,53.642,67.456,46,67.456,36H66V20.517c0-4.272-2.594-7.453-6.973-7.881
			c-0.585-1.442-1.994-2.462-3.646-2.462c-2.176,0-3.938,1.763-3.938,3.938c0,2.174,1.762,3.938,3.938,3.938
			c1.216,0,2.29-0.563,3.013-1.43C60.254,16.812,62,18.319,62,20.517V36h-1.475c0,6-4.805,10.711-10.71,10.711
			C43.909,46.711,39.104,42,39.104,36H38V20.517c0-2.407,1.774-3.753,3.651-3.905c0.722,0.871,1.799,1.438,3.019,1.438
			c2.175,0,3.938-1.764,3.938-3.938c0-2.175-1.763-3.938-3.938-3.938c-1.661,0-3.075,1.031-3.653,2.486
			C37.37,13.17,34,16.434,34,20.517V36h-1.827C32.173,46,40.087,53.642,49.815,53.642z"/>
	</g>
</g>
</svg>
