<?xml version="1.0" encoding="utf-8"?>
<!-- Generator: Adobe Illustrator 16.0.0, SVG Export Plug-In . SVG Version: 6.00 Build 0)  -->
<!DOCTYPE svg PUBLIC "-//W3C//DTD SVG 1.1//EN" "http://www.w3.org/Graphics/SVG/1.1/DTD/svg11.dtd">
<svg version="1.1" id="Livello_1" xmlns="http://www.w3.org/2000/svg" xmlns:xlink="http://www.w3.org/1999/xlink" x="0px" y="0px"
	 width="100px" height="100px" viewBox="0 0 100 100" style="enable-background:new 0 0 100 100;" xml:space="preserve">
<style type="text/css">
<![CDATA[
	.st0{fill:#02736B;}
]]>
</style>
<g>
	<path class="st0" d="M57.59,56h-1.484c2.94-1,4.902-5.066,4.902-8.787c0-5.736-4.65-10.375-10.387-10.375
		c-5.737,0-10.388,4.633-10.388,10.37c0,3.721,1.962,7.792,4.903,8.792h-1.222C38.104,56,33,60.758,33,66.567V79h35V66.567
		C68,60.758,63.398,56,57.59,56z"/>
	<g>
		<path class="st0" d="M33.063,55.737c1.074-1.028,2.276-1.89,3.588-2.573c-0.773-1.833-1.186-3.818-1.186-5.863
			c0-5.616,3.056-10.53,7.587-13.16c0.007-0.15,0.012-0.3,0.012-0.452c0-5.736-4.651-10.419-10.388-10.419
			s-10.388,4.417-10.388,10.154c0,3.721,1.962,6.576,4.904,8.576H25.97C20.16,42,15,47.146,15,52.955V66h13.44
			c0.125-2,0.538-3.607,1.229-5.168C30.472,59.023,31.614,57.125,33.063,55.737z"/>
		<path class="st0" d="M86,52.955C86,47.146,80.724,42,74.915,42h-1.484c2.939-2,4.901-4.871,4.901-8.592
			c0-5.737-4.43-10.28-10.165-10.28C62.431,23.128,58,27.931,58,33.667c0,0.031,0,0.08,0,0.109c4,2.527,7.996,7.636,7.996,13.503
			c0,2.003-0.508,3.957-1.248,5.759c1.402,0.697,2.633,1.596,3.775,2.676c1.467,1.387,2.597,3.284,3.411,5.091
			C72.642,62.373,73.035,64,73.164,66H86V52.955z"/>
	</g>
</g>
</svg>
