<?xml version="1.0" encoding="utf-8"?>
<!-- Generator: Adobe Illustrator 16.0.0, SVG Export Plug-In . SVG Version: 6.00 Build 0)  -->
<!DOCTYPE svg PUBLIC "-//W3C//DTD SVG 1.1//EN" "http://www.w3.org/Graphics/SVG/1.1/DTD/svg11.dtd">
<svg version="1.1" id="Livello_2" xmlns="http://www.w3.org/2000/svg" xmlns:xlink="http://www.w3.org/1999/xlink" x="0px" y="0px"
	 width="173px" height="173px" viewBox="0 0 173 173" style="enable-background:new 0 0 173 173;" xml:space="preserve">
<style type="text/css">
<![CDATA[
	.st0{opacity:0.5;}
	.st1{fill:#9B2E9C;}
]]>
</style>
<g class="st0">
	<path class="st1" d="M111.52,94.297c2.894-2.487,4.909-7.016,4.909-11.44c0-7.818-6.45-14.422-14.085-14.422
		c-7.633,0-14.083,6.682-14.083,14.591c0,4.419,1.976,8.818,4.896,11.28c-8.107,0.272-15.368,7.073-15.368,14.526v16.134h46.005
		v-17.767C123.793,99.174,119.209,94.361,111.52,94.297z"/>
	<path class="st1" d="M79.988,94.519c3.088-2.188,4.136-2.72,4.484-2.841l0.645-0.224l-0.266-0.628
		c-0.975-2.311-1.485-6.057-1.485-8.562c0-6.546,3.375-12.11,9.504-15.666l0.303-0.175l0.014-0.35
		c0.009-0.198,0.016-1.228,0.016-1.427c0-7.789-6.319-14.126-14.084-14.126c-7.765,0-14.084,6.256-14.084,13.946
		c0,4.148,1.817,7.931,5.045,10.631c-7.514,0.224-14.27,7.416-14.27,15.3v34.496h17.647l0-18.129c0.152-2.289,1.025-4.523,1.946-6.6
		C76.416,97.88,78.001,95.928,79.988,94.519z"/>
</g>
</svg>
