<?xml version="1.0" encoding="utf-8"?>
<!-- Generator: Adobe Illustrator 16.0.0, SVG Export Plug-In . SVG Version: 6.00 Build 0)  -->
<!DOCTYPE svg PUBLIC "-//W3C//DTD SVG 1.1//EN" "http://www.w3.org/Graphics/SVG/1.1/DTD/svg11.dtd">
<svg version="1.1" id="Livello_6" xmlns="http://www.w3.org/2000/svg" xmlns:xlink="http://www.w3.org/1999/xlink" x="0px" y="0px"
	 width="173px" height="173px" viewBox="0 0 173 173" style="enable-background:new 0 0 173 173;" xml:space="preserve">
<style type="text/css">
<![CDATA[
	.st0{opacity:0.5;fill:#9B2E9C;}
	.st1{opacity:0.5;}
	.st2{fill:#9B2E9C;}
]]>
</style>
<path class="st0" d="M77.268,107.92c1.756,0,3.347,0.711,4.497,1.861c1.152,1.152,1.863,2.741,1.863,4.498
	c0,1.756-0.712,3.346-1.863,4.496c-1.15,1.152-2.741,1.864-4.497,1.864c-1.756,0-3.347-0.713-4.497-1.864
	c-1.151-1.15-1.863-2.74-1.863-4.496c0-1.757,0.712-3.347,1.863-4.498C73.921,108.631,75.512,107.92,77.268,107.92 M77.268,104.188
	c-2.695,0-5.23,1.05-7.136,2.955c-1.907,1.908-2.957,4.442-2.957,7.137c0,2.697,1.05,5.231,2.958,7.137
	c1.902,1.906,4.438,2.957,7.135,2.957c2.698,0,5.233-1.051,7.138-2.959c1.905-1.903,2.956-4.438,2.956-7.135
	c0-2.695-1.051-5.229-2.958-7.137C82.498,105.237,79.964,104.188,77.268,104.188L77.268,104.188z"/>
<path class="st0" d="M104.799,107.92c1.756,0,3.346,0.711,4.496,1.861c1.152,1.152,1.863,2.741,1.863,4.498
	c0,1.756-0.711,3.346-1.863,4.496c-1.15,1.152-2.74,1.864-4.496,1.864s-3.348-0.713-4.498-1.864c-1.15-1.15-1.863-2.74-1.863-4.496
	c0-1.757,0.714-3.347,1.863-4.498C101.451,108.631,103.043,107.92,104.799,107.92 M104.799,104.188c-2.695,0-5.23,1.049-7.137,2.955
	c-1.908,1.909-2.957,4.443-2.957,7.137c0,2.697,1.051,5.231,2.957,7.137c1.904,1.906,4.439,2.957,7.137,2.957
	c2.695,0,5.23-1.051,7.137-2.958c1.905-1.903,2.955-4.438,2.955-7.136c0-2.695-1.05-5.229-2.955-7.136
	C110.027,105.236,107.494,104.188,104.799,104.188L104.799,104.188z"/>
<g class="st1">
	<path class="st2" d="M78.807,112.591c-0.434-0.433-1.032-0.698-1.691-0.698c-0.659,0-1.256,0.266-1.686,0.697
		c-0.429,0.434-0.695,1.03-0.692,1.688c0.002,0.659,0.271,1.257,0.705,1.688c0.434,0.433,1.032,0.7,1.689,0.7
		c0.66,0,1.256-0.268,1.686-0.7c0.431-0.431,0.696-1.029,0.694-1.688C79.509,113.62,79.24,113.023,78.807,112.591z"/>
</g>
<g class="st1">
	<path class="st2" d="M106.557,112.591c-0.434-0.433-1.031-0.698-1.691-0.698c-0.658,0-1.256,0.266-1.686,0.697
		c-0.43,0.434-0.695,1.03-0.693,1.688c0.003,0.659,0.271,1.257,0.705,1.688c0.434,0.433,1.033,0.7,1.69,0.7
		c0.659,0,1.255-0.268,1.687-0.7c0.43-0.431,0.695-1.029,0.693-1.688C107.259,113.62,106.99,113.023,106.557,112.591z"/>
</g>
<path class="st0" d="M63.604,75.882"/>
<path class="st0" d="M110.238,53.306c4.527,4.824,7.301,11.313,7.301,18.452H90.572L110.238,53.306z"/>
<path class="st0" d="M68.285,75.882L55.838,63.435c-1.317-1.318-3.455-1.318-4.772,0c-1.318,1.318-1.318,3.455,0,4.773
	l12.539,12.539v8.083c0,5.871,4.76,10.629,10.63,10.629h32.675c5.87,0,10.63-4.76,10.63-10.629V75.882H68.285z"/>
</svg>
