<?xml version="1.0" encoding="utf-8"?>
<!-- Generator: Adobe Illustrator 16.0.0, SVG Export Plug-In . SVG Version: 6.00 Build 0)  -->
<!DOCTYPE svg PUBLIC "-//W3C//DTD SVG 1.1//EN" "http://www.w3.org/Graphics/SVG/1.1/DTD/svg11.dtd">
<svg version="1.1" id="Layer_1" xmlns="http://www.w3.org/2000/svg" xmlns:xlink="http://www.w3.org/1999/xlink" x="0px" y="0px"
	 width="100%" height="100%" viewBox="0 485.25 2000 682" style="enable-background:new 0 485.25 2000 682;"
	 xml:space="preserve">
<style type="text/css">
<![CDATA[
	.scu0{font-family: 'Gentium Basic';
  font-style: normal;
  font-weight: 700;
  src: local('Gentium Basic Bold'), local('GentiumBasic-Bold'), url(http://themes.googleusercontent.com/static/fonts/gentiumbasic/v5/2qL6yulgGf0wwgOp-UqGyE2Y6eZT-eLKqoGYfiv5isg.woff) format('woff');}
	.scu1{font-family: 'Open Sans';
  font-style: normal;
  font-weight: 300;
  src: local('Open Sans Light'), local('OpenSans-Light'), url(http://themes.googleusercontent.com/static/fonts/opensans/v7/DXI1ORHCpsQm3Vp6mXoaTXhCUOGz7vYGh680lGh-uXM.woff) format('woff');}
	.scu2{fill:none;stroke:#4B6872;stroke-width:2;stroke-miterlimit:10;}
	.scu3{fill:#282828;}
	.scu4{opacity:0.5;fill:#646464;enable-background:new    ;}
	.scu5{fill:#969696;}
	.scu6{fill:#C8C8C8;}
	.scu7{opacity:0.5;}
	.scu8{fill:#FFFFFF;}
	.scu9{fill:#646464;}
	.scu10{fill:none;}
	.scu12{fill:#D1EAED;}
	.scu13{font-size:0.8em;}
	.scu14{font-size:1em;}
	.scu15{font-size:1.2em;}
	.scu16{fill:#3E8AAD;}
	.scu17{fill:#0F638A;}
]]>
</style>
<g id="Layer_1_1">
	<g id="abstimage">
		<rect x="1217" y="835.052" class="scu17" width="88" height="6"/>
		<g>
			<polygon class="scu16" points="1348.5,803.674 1323,820.424 1323,936.052 1375,936.052 1375,820.424 			"/>
			<rect x="1393" y="841.052" class="scu16" width="82" height="41"/>
			<rect x="1223" y="841.052" class="scu16" width="82" height="95"/>
			<rect x="1393" y="888.052" class="scu16" width="82" height="48"/>
			<rect x="1475" y="891.052" class="scu16" width="82" height="45"/>
		</g>
		<rect x="1217" y="882.052" class="scu17" width="88" height="6"/>
		<rect x="1393" y="835.052" class="scu17" width="88" height="6"/>
		<rect x="1393" y="882.052" class="scu17" width="88" height="6"/>
		<rect x="1475" y="885.052" class="scu17" width="88" height="6"/>
		<rect x="1305" y="820.052" class="scu17" width="18" height="116"/>
		<rect x="1375" y="820.052" class="scu17" width="18" height="116"/>
		<rect x="1323" y="873.052" class="scu17" width="52" height="15"/>
		<rect x="1334" y="897.052" class="scu17" width="30" height="39"/>
		<circle class="scu2" cx="1348.579" cy="822.424" r="3.667"/>
		<g>
			<rect x="1247" y="850.052" class="scu12" width="14" height="23"/>
			<rect x="1231" y="850.052" class="scu12" width="14" height="23"/>
			<rect x="1284" y="850.052" class="scu12" width="14" height="23"/>
			<rect x="1268" y="850.052" class="scu12" width="14" height="23"/>
			<rect x="1350" y="850.052" class="scu12" width="14" height="23"/>
			<rect x="1334" y="850.052" class="scu12" width="14" height="23"/>
			<rect x="1247" y="897.052" class="scu12" width="14" height="23"/>
			<rect x="1231" y="897.052" class="scu12" width="14" height="23"/>
			<rect x="1284" y="897.052" class="scu12" width="14" height="23"/>
			<rect x="1268" y="897.052" class="scu12" width="14" height="23"/>
			<rect x="1417" y="850.052" class="scu12" width="14" height="23"/>
			<rect x="1401" y="850.052" class="scu12" width="14" height="23"/>
			<rect x="1454" y="850.052" class="scu12" width="14" height="23"/>
			<rect x="1438" y="850.052" class="scu12" width="14" height="23"/>
			<rect x="1417" y="897.052" class="scu12" width="14" height="23"/>
			<rect x="1401" y="897.052" class="scu12" width="14" height="23"/>
			<rect x="1454" y="897.052" class="scu12" width="14" height="23"/>
			<rect x="1438" y="897.052" class="scu12" width="14" height="23"/>
			<rect x="1499" y="899.052" class="scu12" width="14" height="22"/>
			<rect x="1483" y="899.052" class="scu12" width="14" height="22"/>
			<rect x="1536" y="899.052" class="scu12" width="14" height="22"/>
			<rect x="1520" y="899.052" class="scu12" width="14" height="22"/>
			<path class="scu12" d="M1364.078,848.052c0-9-6.715-15-15-15c-8.283,0-15,6-15,15H1364.078z"/>
		</g>
		<polygon class="scu17" points="1376.557,824.956 1348.607,807.243 1321.684,824.933 1318.391,819.916 1348.549,800.105 
			1379.768,819.892 		"/>
		<g class="scu7">
			<rect x="1223" y="841.052" class="scu17" width="82" height="3"/>
			<rect x="1223" y="888.052" class="scu17" width="82" height="3"/>
			<rect x="1323" y="888.052" class="scu17" width="52" height="3"/>
			<polygon class="scu17" points="1393,888.052 1393,890.424 1393,936.052 1396,936.052 1396,891.052 1475,891.052 1475,888.052 			
				"/>
			<polygon class="scu17" points="1393,841.052 1393,843.424 1393,882.052 1396,882.052 1396,844.052 1475,844.052 1475,841.052 			
				"/>
			<polygon class="scu17" points="1475,891.052 1475,893.424 1475,936.052 1478,936.052 1478,894.052 1557,894.052 1557,891.052 			
				"/>
			<polygon class="scu17" points="1377.359,828.693 1348.594,810.459 1320.861,828.679 1319.213,826.17 1348.564,806.89 
				1378.965,826.156 			"/>
		</g>
		<g>
			<path class="scu12" d="M1331.252,876.092l0.035,2.039h-0.275c-0.391-1.225-1.08-1.834-2.065-1.834
				c-0.55,0-0.974,0.148-1.273,0.453c-0.302,0.304-0.455,0.615-0.455,0.939c0,0.301,0.127,0.557,0.379,0.77
				c0.255,0.211,0.714,0.371,1.382,0.486s1.178,0.256,1.524,0.422s0.646,0.443,0.885,0.83c0.24,0.389,0.359,0.83,0.359,1.33
				c0,0.771-0.25,1.41-0.752,1.922c-0.502,0.514-1.125,0.771-1.867,0.771c-0.604,0-1.209-0.228-1.811-0.675l-0.554,0.49h-0.202
				v-2.195h0.252c0.229,0.689,0.553,1.211,0.967,1.56s0.867,0.521,1.356,0.521c0.488,0,0.938-0.162,1.349-0.483
				c0.407-0.322,0.608-0.729,0.608-1.222c0-0.414-0.141-0.766-0.424-1.047c-0.281-0.283-0.74-0.479-1.377-0.587
				c-0.635-0.105-1.123-0.23-1.463-0.375c-0.34-0.144-0.631-0.392-0.873-0.743c-0.242-0.354-0.363-0.743-0.363-1.175
				c0-0.595,0.213-1.125,0.636-1.593c0.422-0.467,0.993-0.698,1.717-0.698c0.604,0,1.17,0.19,1.692,0.573
				c0.146-0.137,0.271-0.297,0.375-0.479L1331.252,876.092L1331.252,876.092z"/>
			<path class="scu12" d="M1338.711,876.092v2.332h-0.252c-0.271-1.418-0.979-2.127-2.121-2.127c-0.613,0-1.061,0.238-1.342,0.722
				c-0.281,0.479-0.422,1.492-0.422,3.035c0,1.27,0.061,2.133,0.182,2.59s0.332,0.782,0.631,0.979
				c0.299,0.197,0.627,0.298,0.986,0.298c0.469,0,0.91-0.179,1.322-0.529c0.412-0.354,0.729-0.92,0.957-1.701h0.272l-0.094,2.396
				h-0.24c-0.09-0.25-0.229-0.461-0.422-0.633c-0.615,0.514-1.252,0.771-1.901,0.771c-0.828,0-1.584-0.396-2.271-1.181
				c-0.684-0.783-1.022-1.745-1.022-2.883c0-1.16,0.336-2.145,1.008-2.951c0.672-0.806,1.449-1.209,2.332-1.209
				c0.68,0,1.279,0.244,1.799,0.732c0.152-0.242,0.268-0.455,0.346-0.64H1338.711L1338.711,876.092z"/>
			<path class="scu12" d="M1341.271,883.74v-7.26h-1.236v-0.299h3.879v0.299h-1.248v3.356h3.393v-3.356h-1.225v-0.299h3.855v0.299
				h-1.236v7.26h1.236v0.299h-3.855v-0.299h1.225v-3.604h-3.393v3.604h1.248v0.299h-3.879v-0.299H1341.271z"/>
			<path class="scu12" d="M1353.488,884.22c-1.019,0-1.877-0.427-2.586-1.277c-0.709-0.852-1.064-1.762-1.064-2.729
				c0-1.164,0.373-2.157,1.117-2.979s1.607-1.23,2.592-1.23c0.926,0,1.756,0.418,2.49,1.254s1.102,1.785,1.102,2.849
				c0,1.094-0.364,2.053-1.104,2.879S1354.449,884.22,1353.488,884.22z M1353.512,876.297c-0.43,0-0.813,0.099-1.156,0.296
				c-0.342,0.194-0.571,0.54-0.694,1.026c-0.123,0.488-0.188,1.342-0.188,2.558c0,0.84,0.035,1.51,0.105,2.01
				c0.068,0.5,0.25,0.914,0.537,1.242c0.287,0.327,0.733,0.491,1.35,0.491c0.375,0,0.752-0.102,1.129-0.3s0.623-0.593,0.738-1.177
				s0.172-1.479,0.172-2.689c0-1.1-0.07-1.854-0.213-2.272c-0.145-0.418-0.371-0.721-0.688-0.906
				C1354.29,876.391,1353.926,876.297,1353.512,876.297z"/>
			<path class="scu12" d="M1361.984,884.22c-1.019,0-1.877-0.427-2.586-1.277c-0.712-0.852-1.064-1.762-1.064-2.729
				c0-1.164,0.373-2.157,1.117-2.979s1.604-1.23,2.592-1.23c0.926,0,1.756,0.418,2.49,1.254c0.731,0.836,1.102,1.785,1.102,2.849
				c0,1.094-0.367,2.053-1.104,2.879C1363.794,883.808,1362.945,884.22,1361.984,884.22z M1362.008,876.297
				c-0.43,0-0.813,0.099-1.156,0.296c-0.342,0.194-0.571,0.54-0.694,1.026c-0.123,0.488-0.188,1.342-0.188,2.558
				c0,0.84,0.035,1.51,0.105,2.01c0.068,0.5,0.25,0.914,0.537,1.242c0.287,0.327,0.733,0.491,1.35,0.491
				c0.375,0,0.752-0.102,1.129-0.3s0.623-0.593,0.738-1.177s0.172-1.479,0.172-2.689c0-1.1-0.07-1.854-0.213-2.272
				c-0.145-0.418-0.371-0.721-0.688-0.906C1362.786,876.391,1362.422,876.297,1362.008,876.297z"/>
			<path class="scu12" d="M1369.449,876.48v7.26h1.764c0.34,0,0.607-0.023,0.803-0.076c0.196-0.051,0.392-0.174,0.578-0.367
				c0.189-0.194,0.336-0.43,0.439-0.696c0.103-0.271,0.213-0.646,0.33-1.125h0.272l-0.217,2.564h-6.604v-0.3h1.235v-7.26h-1.235
				v-0.299h3.938v0.299H1369.449L1369.449,876.48z"/>
		</g>
	</g>
	<g id="compimage">
		<rect x="561" y="889.052" class="scu5" width="106" height="48"/>
		<rect x="561" y="889.052" class="scu16" width="106" height="48"/>
		<rect x="561" y="889.052" class="scu17" width="106" height="48"/>
		<rect x="439" y="842.052" class="scu12" width="99" height="95"/>
		<rect x="538" y="889.052" class="scu16" width="106" height="48"/>
		<rect x="538" y="801.052" class="scu17" width="153" height="88"/>
		<rect x="438" y="836.052" class="scu17" width="100" height="6"/>
		<rect x="458" y="842.052" class="scu16" width="2" height="86"/>
		<rect x="478" y="842.052" class="scu16" width="2" height="86"/>
		<rect x="498" y="842.052" class="scu16" width="2" height="86"/>
		<rect x="518" y="842.052" class="scu16" width="2" height="86"/>
		<rect x="685" y="889.052" class="scu16" width="6" height="48"/>
		<rect x="438" y="861.052" class="scu16" width="100" height="2"/>
		<rect x="438" y="880.052" class="scu16" width="100" height="3"/>
		<rect x="438" y="906.052" class="scu16" width="100" height="2"/>
		<rect x="438" y="927.052" class="scu16" width="100" height="10"/>
		<rect x="438" y="883.052" class="scu17" width="100" height="6"/>
		<rect x="439" y="889.052" class="scu17" width="205" height="3"/>
		<rect x="644" y="889.052" class="scu17" width="23" height="3"/>
		<rect x="685" y="889.052" class="scu17" width="6" height="3"/>
		<rect x="708" y="889.052" class="scu16" width="6" height="48"/>
		<rect x="708" y="889.052" class="scu17" width="6" height="3"/>
		<rect x="439" y="842.052" class="scu17" width="99" height="3"/>
		<rect x="691" y="868.052" class="scu6" width="39" height="20"/>
		<rect x="691" y="862.052" class="scu9" width="39" height="6"/>
		<rect x="710" y="868.052" class="scu5" width="2" height="20"/>
		<rect x="691" y="868.052" class="scu4" width="39" height="3"/>
		<rect x="691" y="863.052" class="scu12" width="39" height="20"/>
		<rect x="691" y="857.052" class="scu17" width="39" height="6"/>
		<rect x="710" y="863.052" class="scu16" width="2" height="20"/>
		<rect x="691" y="863.052" class="scu17" width="39" height="3"/>
		<rect x="570" y="817.052" class="scu12" width="9" height="27"/>
		<rect x="550" y="817.052" class="scu12" width="9" height="27"/>
		<rect x="668" y="817.052" class="scu12" width="9" height="27"/>
		<rect x="648" y="817.052" class="scu12" width="9" height="27"/>
		<rect x="564" y="898.052" class="scu17" width="25" height="39"/>
		<rect x="591" y="898.052" class="scu17" width="25" height="39"/>
		<rect x="538" y="854.052" class="scu16" width="155" height="15"/>
		<polygon class="scu17" points="550,817.052 550,819.718 550,844.052 553,844.052 553,820.052 570,820.052 570,844.052 573,844.052 
			573,820.052 648,820.052 648,844.052 651,844.052 651,820.052 668,820.052 668,844.052 671,844.052 671,820.052 677,820.052 
			677,817.052 		"/>
		<rect x="730" y="842.052" class="scu12" width="51" height="95"/>
		<rect x="729" y="836.052" class="scu17" width="53" height="6"/>
		<rect x="761" y="842.052" class="scu16" width="2" height="86"/>
		<rect x="730" y="842.052" class="scu16" width="12" height="86"/>
		<rect x="730" y="861.052" class="scu16" width="52" height="2"/>
		<rect x="730" y="880.052" class="scu16" width="51" height="3"/>
		<rect x="730" y="906.052" class="scu16" width="52" height="2"/>
		<rect x="730" y="927.052" class="scu16" width="52" height="10"/>
		<rect x="729" y="883.052" class="scu17" width="53" height="6"/>
		<rect x="730" y="889.052" class="scu17" width="51" height="3"/>
		<rect x="730" y="842.052" class="scu17" width="51" height="3"/>
		<rect x="691" y="880.052" class="scu17" width="39" height="9"/>
		<g>
			<path class="scu12" d="M647.68,862.893c0,0.754-0.271,1.342-0.817,1.764c-0.55,0.422-1.289,0.633-2.229,0.633
				c-1.016,0-1.797-0.131-2.344-0.393v-0.961c0.352,0.146,0.734,0.266,1.148,0.352s0.821,0.129,1.229,0.129
				c0.664,0,1.164-0.125,1.5-0.378c0.336-0.252,0.504-0.603,0.504-1.052c0-0.297-0.061-0.54-0.18-0.729
				c-0.119-0.189-0.318-0.363-0.6-0.523c-0.278-0.16-0.703-0.342-1.271-0.545c-0.797-0.285-1.367-0.623-1.709-1.015
				c-0.342-0.393-0.513-0.899-0.513-1.528c0-0.66,0.247-1.188,0.743-1.576c0.495-0.388,1.151-0.586,1.971-0.586
				c0.852,0,1.635,0.156,2.35,0.469l-0.311,0.867c-0.707-0.297-1.396-0.445-2.063-0.445c-0.526,0-0.938,0.113-1.235,0.342
				c-0.297,0.228-0.443,0.541-0.443,0.941c0,0.297,0.055,0.54,0.164,0.729c0.107,0.188,0.293,0.362,0.553,0.521
				c0.26,0.159,0.658,0.333,1.192,0.524c0.896,0.319,1.517,0.664,1.854,1.03C647.509,861.828,647.68,862.307,647.68,862.893z"/>
			<path class="scu12" d="M653.1,857.371c-0.938,0-1.686,0.313-2.229,0.94s-0.816,1.484-0.816,2.575c0,1.121,0.265,1.984,0.787,2.599
				c0.525,0.612,1.275,0.917,2.248,0.917c0.6,0,1.279-0.105,2.045-0.322v0.873c-0.594,0.226-1.326,0.334-2.195,0.334
				c-1.264,0-2.235-0.383-2.924-1.146c-0.686-0.768-1.024-1.854-1.024-3.265c0-0.885,0.164-1.655,0.493-2.319
				c0.33-0.664,0.808-1.177,1.431-1.535c0.623-0.359,1.356-0.539,2.201-0.539c0.896,0,1.684,0.164,2.354,0.492l-0.422,0.854
				C654.396,857.526,653.748,857.371,653.1,857.371z"/>
			<path class="scu12" d="M663.506,865.171h-0.996v-4.03h-4.512v4.03h-0.996v-8.565h0.996v3.646h4.512v-3.646h0.996V865.171z"/>
			<path class="scu12" d="M673.291,860.875c0,1.37-0.348,2.448-1.041,3.233s-1.656,1.178-2.891,1.178
				c-1.265,0-2.236-0.386-2.922-1.155c-0.688-0.771-1.027-1.859-1.027-3.269c0-1.395,0.344-2.476,1.031-3.243
				c0.687-0.767,1.664-1.148,2.93-1.148c1.23,0,2.191,0.391,2.883,1.172C672.946,858.423,673.291,859.5,673.291,860.875z
				 M666.465,860.875c0,1.159,0.246,2.039,0.74,2.642c0.494,0.6,1.213,0.896,2.154,0.896c0.946,0,1.666-0.299,2.147-0.896
				c0.484-0.598,0.729-1.479,0.729-2.645c0-1.15-0.242-2.024-0.728-2.621c-0.48-0.598-1.192-0.896-2.141-0.896
				c-0.949,0-1.672,0.3-2.166,0.898C666.71,858.859,666.465,859.733,666.465,860.875z"/>
			<path class="scu12" d="M682.637,860.875c0,1.37-0.348,2.448-1.041,3.233c-0.69,0.785-1.656,1.178-2.891,1.178
				c-1.262,0-2.236-0.386-2.922-1.155c-0.688-0.771-1.027-1.859-1.027-3.269c0-1.395,0.344-2.476,1.031-3.243
				c0.688-0.767,1.664-1.148,2.93-1.148c1.23,0,2.191,0.391,2.883,1.172C682.292,858.423,682.637,859.5,682.637,860.875z
				 M675.811,860.875c0,1.159,0.246,2.039,0.74,2.642c0.494,0.6,1.213,0.896,2.154,0.896c0.949,0,1.666-0.299,2.15-0.896
				c0.481-0.598,0.727-1.479,0.727-2.645c0-1.15-0.242-2.024-0.725-2.621c-0.483-0.598-1.195-0.896-2.144-0.896
				s-1.672,0.3-2.166,0.898C676.056,858.859,675.811,859.733,675.811,860.875z"/>
			<path class="scu12" d="M684.547,865.171v-8.565h0.996v7.664h3.779v0.901H684.547z"/>
		</g>
	</g>
</g>
<g id="Layer_2">
	<rect id="rettangolo" y="934.052" class="scu17" width="2000" height="118"/>
</g>
<g id="Layer_3">
<rect x="438" y="708.552" class="scu10" width="344" height="19"/>
<rect x="1217" y="708.552" class="scu10" width="344" height="19"/>
<rect x="1203.527" y="707.462" class="scu10" width="360.945" height="21.181"/>
<text transform="matrix(1 0 0 1 1241.0293 724.1155)" class="scu17 scu0 scu15">ABSTINENCE-ONLY SEX EDUCATION</text>
<rect x="433.027" y="707.462" class="scu10" width="360.945" height="21.181"/>
<text transform="matrix(1 0 0 1 461.4785 724.1155)" class="scu17 scu0 scu15">COMPREHENSIVE SEX EDUCATION</text>
<rect x="448.77" y="963.633" class="scu10" width="309.459" height="60.811"/>
<text transform="matrix(1 0 0 1 517.9326 972.7532)"><tspan x="0" y="0" class="scu8 scu1 scu13">Covers abstinence as an option,</tspan><tspan x="-5.889" y="14.399" class="scu8 scu1 scu13">but informs also on contraception</tspan><tspan x="-27.727" y="28.8" class="scu8 scu1 scu13">and techniques to avoid both pregnancies</tspan><tspan x="-6.557" y="43.2" class="scu8 scu1 scu13">and sexually transmitted diseases.</tspan></text>
<rect x="1218.906" y="963.633" class="scu10" width="309.459" height="60.811"/>
<text transform="matrix(1 0 0 1 1250.6426 972.7532)"><tspan x="0" y="0" class="scu8 scu1 scu13">Promotes sexual abstinence until marriage</tspan><tspan x="-34.157" y="14.399" class="scu8 scu1 scu13">both against teen pregnancies and sexually transmitted</tspan><tspan x="9.513" y="28.8" class="scu8 scu1 scu13">diseases. Does not provide information</tspan><tspan x="18.932" y="43.2" class="scu8 scu1 scu13"> on contraception and birth control.</tspan></text></g>

<g id="Layer_4">
<polygon class="scu8" points="1213.54,528.015 1213.54,707.461 1184.586,677.68 758.229,677.68 758.229,528.015 "/>
<rect x="815.324" y="542.879" class="scu10" width="317.743" height="120.27"/>
<text id="finaltext" transform="matrix(1 0 0 1 849.9297 554.2795)"><tspan x="0" y="0" class="scu3 scu1 scu14">This is the one that reveives fundings</tspan><tspan x="-13.033" y="18" class="scu3 scu1 scu14">and the most debated one, which can be</tspan><tspan x="-30.14" y="36" class="scu3 scu1 scu14">understood considering the expressions used</tspan><tspan x="28.908" y="54" class="scu3 scu1 scu14">and the confusion around it.</tspan><tspan x="46.036" y="90" class="scu3 scu1 scu14">To understand it better</tspan><tspan x="23.258" y="108" class="scu3 scu1 scu14">we did a research on the web.</tspan></text></g>
</svg>
