<?xml version="1.0" encoding="utf-8"?>
<!-- Generator: Adobe Illustrator 16.0.0, SVG Export Plug-In . SVG Version: 6.00 Build 0)  -->
<!DOCTYPE svg PUBLIC "-//W3C//DTD SVG 1.1//EN" "http://www.w3.org/Graphics/SVG/1.1/DTD/svg11.dtd">
<svg version="1.1" xmlns="http://www.w3.org/2000/svg" xmlns:xlink="http://www.w3.org/1999/xlink" x="0px" y="0px" viewBox="0 0 600 600" style="enable-background:new 0 0 600 600;" xml:space="preserve">
<style type="text/css">
<![CDATA[
	.tel0{font-family:'Gentium Basic';
  		font-style: normal;
  		font-weight: 700;
  		src: local('Gentium Basic Bold'), local('GentiumBasic-Bold'), url(http://themes.googleusercontent.com/static/fonts/gentiumbasic/v5/2qL6yulgGf0wwgOp-UqGyE2Y6eZT-eLKqoGYfiv5isg.woff) 
		format('woff');}
	.tel1{font-family:'Open Sans';
  		font-style: normal;
  		font-weight: 300;
  		src: local('Open Sans Light'), local('OpenSans-Light'), url(http://themes.googleusercontent.com/static/fonts/opensans/v7/DXI1ORHCpsQm3Vp6mXoaTXhCUOGz7vYGh680lGh-uXM.woff) 
		format('woff');}
	.tel2{fill:none;stroke:#000000;stroke-width:3;stroke-miterlimit:10;}
	.tel3{fill:none;stroke:#000000;stroke-width:3;stroke-linecap:round;stroke-miterlimit:10;}
	.tel4{fill:none;}
	.tel5{fill:#bfa8ce;stroke:#000000;stroke-width:6.0832;stroke-miterlimit:10;}
	.tel6{font-size:1.29em;}
	.tel7{font-size:2.58em;}
]]>
</style>
<g id="circle">
	<circle class="tel5" cx="300.788" cy="301.722" r="60.367"/>
	<circle class="tel2" cx="300.877" cy="301.701" r="67.745"/>
	<line class="tel3" x1="233.132" y1="301.701" x2="31.604" y2="301.701"/>
	<line class="tel3" x1="570.149" y1="301.701" x2="368.977" y2="301.701"/>
</g>
<g id="title">
	<rect x="32.5" y="62.875" class="tel4" width="535" height="203"/>
	<text transform="matrix(1 0 0 1 122.1665 94.6704)"><tspan x="0" y="0" class="tel0 tel7">Used toothbrushes,</tspan><tspan x="25.686" y="48" class="tel0 tel7">chewed up gums</tspan><tspan x="47.024" y="96" class="tel0 tel7">and education</tspan></text>
	<rect x="32.5" y="412.003" class="tel4" width="535" height="202.999"/>
	<text transform="matrix(1 0 0 1 192.6572 427.9648)"><tspan x="0" y="0" class="tel1 tel6">Are you sure you know</tspan><tspan x="0.928" y="25.199" class="tel1 tel6">how kids are educated</tspan><tspan x="10.079" y="50.399" class="tel1 tel6">in the United States?</tspan></text>
</g>
<g id="toothb">
	<polygon points="277.822,289.189 267.906,279.273 270.698,272.976 284.119,286.397 	"/>
	<path d="M317.505,335.315l0.005-0.003c0,0-27.589-34.212-28.992-36.066s-5.159-1.484-9.697-6.15
		c-1.906-1.959-13.603-13.603-13.603-13.603l-2.471,2.471c0,0,12.472,12.56,14.487,14.486c2.015,1.927,3.847,1.779,7.969,6.505
		c1.59,1.822,28.483,35.432,28.483,35.432l0.012-0.01c0.45,0.539,1.118,0.89,1.875,0.89c1.355,0,2.454-1.1,2.454-2.454
		C318.026,336.246,317.827,335.731,317.505,335.315z"/>
	<polygon points="323.932,289.189 333.848,279.273 331.056,272.976 317.635,286.397 	"/>
	<path d="M284.249,335.315l-0.005-0.003c0,0,27.589-34.212,28.992-36.066s5.158-1.484,9.697-6.15
		c1.905-1.959,13.603-13.603,13.603-13.603l2.472,2.471c0,0-12.473,12.56-14.487,14.486c-2.016,1.927-3.847,1.779-7.969,6.505
		c-1.59,1.822-28.483,35.432-28.483,35.432l-0.013-0.01c-0.45,0.539-1.118,0.89-1.875,0.89c-1.355,0-2.454-1.1-2.454-2.454
		C283.727,336.246,283.926,335.731,284.249,335.315z"/>
</g>
<g id="chewingg">
	<path d="M292.813,269.384c-0.245,0.427-0.396,0.916-0.396,1.444c0,1.207,0.735,2.243,1.78,2.688l0,0l0.003,0.001c0,0,0,0,0,0
		c0.024,0.009,0.795,0.312,1.005,1.158c0.195,0.796-0.091,1.416-0.201,1.615c-0.01,0.017-0.019,0.035-0.028,0.052
		c-0.005,0.009-0.013,0.021-0.013,0.021h0.002c-0.269,0.496-0.424,1.062-0.424,1.665c0,1.936,1.568,3.504,3.503,3.504
		c1.771,0,3.221-1.319,3.457-3.025c1.08-0.411,1.853-1.448,1.853-2.673c0-0.124-0.02-0.241-0.035-0.36
		c0.001,0.001,0.008,0.007,0.008,0.007s-0.076-0.362,0-0.538c0.066-0.153,0.261-0.3,0.377-0.378c0.01-0.006,0.018-0.014,0.027-0.02
		c0.039-0.025,0.064-0.042,0.064-0.042v-0.004c0.475-0.317,0.904-0.696,1.268-1.135c0.516,0.239,1.084,0.381,1.688,0.381
		c2.229,0,4.035-1.806,4.035-4.035c0-2.228-1.807-4.035-4.035-4.035c-0.158,0-0.311,0.029-0.465,0.047
		c-0.592-2.659-2.961-4.648-5.799-4.648c-2.268,0-4.144,1.132-5.146,2.999c0,0-0.225,0.329-0.521,0.427
		c-0.161,0.053-0.411,0.042-0.607,0.021c-0.081-0.016-0.164-0.027-0.247-0.034c-0.027-0.005-0.046-0.008-0.046-0.008l-0.002,0.005
		c-0.052-0.003-0.103-0.011-0.156-0.011c-1.407,0-2.548,1.141-2.548,2.548C291.214,268.094,291.877,269.007,292.813,269.384z"/>
</g>
</svg>
